<?xml version="1.0" encoding="UTF-8"?>
<!DOCTYPE svg PUBLIC "-//W3C//DTD SVG 1.1//EN" "http://www.w3.org/Graphics/SVG/1.1/DTD/svg11.dtd">
<svg version="1.1" xmlns="http://www.w3.org/2000/svg" xmlns:xlink="http://www.w3.org/1999/xlink" x="0" y="0" width="34.476" height="63.566" viewBox="0, 0, 34.476, 63.566">
  <g id="LOGOS" transform="translate(-511.562, -178.792)">
    <path d="M540.037,178.867 L545.837,178.792 C545.837,178.792 545.987,221.842 546.037,226.067 C546.087,230.292 542.587,236.042 542.587,236.042 C542.587,236.042 538.162,240.517 534.437,241.467 C530.712,242.417 525.787,242.592 522.437,242.067 C519.087,241.542 513.637,236.667 513.637,236.667 L517.037,232.867 C517.037,232.867 522.637,236.967 526.237,237.067 C529.837,237.167 533.787,236.167 536.437,233.667 C539.087,231.167 539.462,228.042 539.837,224.667 C540.212,221.292 540.037,217.467 540.037,217.467 C540.037,217.467 534.962,221.917 529.637,222.367 C525.962,222.292 520.512,221.817 517.112,219.117 C513.712,216.417 511.562,205.667 511.562,205.667 L517.837,199.267 C517.837,199.267 517.587,211.417 521.437,214.242 C524.712,216.042 525.212,216.542 529.637,216.692 C533.962,216.292 535.337,215.042 537.237,212 C539.087,210.167 539.837,201.267 539.837,201.267 C539.837,201.267 539.537,192.142 538.687,190.092 C537.837,188.042 533.437,184.867 533.437,184.867 L536.437,180.333 L539.437,182.772 L540.037,178.867 z" fill="#FFFFFF"/>
    <g>
      <path d="M521.337,203.417 L536.962,203.542 C536.962,203.542 536.962,210.542 534.212,212.5 C531.462,214.667 526.587,214.708 524.087,212.5 C521.587,210.292 521.337,203.417 521.337,203.417 z" fill="#FFFFFF"/>
      <path d="M521.337,203.417 L536.962,203.542 C536.962,203.542 536.962,210.542 534.212,212.5 C531.462,214.667 526.587,214.708 524.087,212.5 C521.587,210.292 521.337,203.417 521.337,203.417 z" fill-opacity="0" stroke="#F8A91B" stroke-width="0.25"/>
    </g>
    <g>
      <path d="M524.587,199.792 C522.792,199.792 521.337,198.337 521.337,196.542 C521.337,194.747 522.792,193.292 524.587,193.292 C526.382,193.292 527.837,194.747 527.837,196.542 C527.837,198.337 526.382,199.792 524.587,199.792 z" fill="#FFFFFF"/>
      <path d="M524.587,199.792 C522.792,199.792 521.337,198.337 521.337,196.542 C521.337,194.747 522.792,193.292 524.587,193.292 C526.382,193.292 527.837,194.747 527.837,196.542 C527.837,198.337 526.382,199.792 524.587,199.792 z" fill-opacity="0" stroke="#F8A91B" stroke-width="0.25"/>
    </g>
    <g>
      <path d="M517.337,194.292 C516.026,194.292 514.962,193.228 514.962,191.917 C514.962,190.605 516.026,189.542 517.337,189.542 C518.649,189.542 519.712,190.605 519.712,191.917 C519.712,193.228 518.649,194.292 517.337,194.292 z" fill="#FFFFFF"/>
      <path d="M517.337,194.292 C516.026,194.292 514.962,193.228 514.962,191.917 C514.962,190.605 516.026,189.542 517.337,189.542 C518.649,189.542 519.712,190.605 519.712,191.917 C519.712,193.228 518.649,194.292 517.337,194.292 z" fill-opacity="0" stroke="#F8A91B" stroke-width="0.25"/>
    </g>
    <g>
      <path d="M522.9,185.417 C522.106,185.417 521.462,184.773 521.462,183.979 C521.462,183.185 522.106,182.542 522.9,182.542 C523.694,182.542 524.337,183.185 524.337,183.979 C524.337,184.773 523.694,185.417 522.9,185.417 z" fill="#FFFFFF"/>
      <path d="M522.9,185.417 C522.106,185.417 521.462,184.773 521.462,183.979 C521.462,183.185 522.106,182.542 522.9,182.542 C523.694,182.542 524.337,183.185 524.337,183.979 C524.337,184.773 523.694,185.417 522.9,185.417 z" fill-opacity="0" stroke="#F8A91B" stroke-width="0.25"/>
    </g>
  </g>
</svg>
