<?xml version="1.0" encoding="UTF-8"?>
<!DOCTYPE svg PUBLIC "-//W3C//DTD SVG 1.1//EN" "http://www.w3.org/Graphics/SVG/1.1/DTD/svg11.dtd">
<svg version="1.1" xmlns="http://www.w3.org/2000/svg" xmlns:xlink="http://www.w3.org/1999/xlink" x="0" y="0" width="20.978" height="20.851" viewBox="0, 0, 20.978, 20.851">
  <g id="LOGOS" transform="translate(-82.418, -747.049)">
    <path d="M90.43,767.9 L90.767,765.653 L87.995,764.904 L86.61,762.394 L89.119,764.155 L90.655,763.743 L90.992,762.469 C90.992,762.469 88.145,760.934 87.434,760.035 C86.722,759.136 86.497,757.225 86.497,757.225 L87.246,754.791 L87.733,751.944 L90.318,753.18 L95.299,753.105 L97.959,751.944 L98.296,754.416 C98.296,754.416 99.607,757.787 99.42,757.787 C99.232,757.787 98.97,759.36 98.408,760.147 C97.846,760.934 95.262,762.394 95.262,762.394 L95.824,767.9 C95.824,767.9 99.869,766.777 101.779,764.08 C102.678,762.394 103.914,758.911 103.165,755.727 C103.128,753.742 102.341,749.922 97.547,747.861 C94.19,746.419 91.329,747.225 89.194,747.786 C87.059,748.348 83.913,751.045 83.014,754.416 C81.553,758.574 83.126,762.619 84.025,763.63 C85.935,766.664 90.43,767.9 90.43,767.9 z" fill="#FFFFFF"/>
  </g>
</svg>
