<?xml version="1.0" encoding="UTF-8"?>
<!DOCTYPE svg PUBLIC "-//W3C//DTD SVG 1.1//EN" "http://www.w3.org/Graphics/SVG/1.1/DTD/svg11.dtd">
<svg version="1.1" xmlns="http://www.w3.org/2000/svg" xmlns:xlink="http://www.w3.org/1999/xlink" x="0" y="0" width="21.772" height="19.711" viewBox="0, 0, 21.772, 19.711">
  <g id="LOGOS" transform="translate(-187.816, -747.487)">
    <path d="M205.514,747.487 C209.238,747.487 209.447,750.343 209.587,754.135 L209.447,761.439 C209.728,765.091 208.604,766.636 206.357,767.198 L191.468,767.151 C187.744,767.151 187.816,764.695 187.816,760.971 L187.816,754.229 C187.816,750.505 187.744,747.487 191.468,747.487 L205.514,747.487 z M200.964,755.678 L200.879,755.68 L198.889,756.38 L198.889,755.68 L196.22,755.68 L196.22,764.81 L198.889,764.81 L198.889,758.538 C199.522,758.296 200.158,758.049 200.809,757.858 C201.16,757.787 202.002,757.858 202.002,758.771 C202.002,759.684 201.932,764.81 201.932,764.81 L204.46,764.81 L204.531,757.506 C204.531,757.506 204.109,756.593 203.477,756.102 C202.711,755.685 201.818,755.679 200.964,755.678 z M194.137,755.68 L191.468,755.68 L191.468,764.81 L194.137,764.81 L194.137,755.68 z M193.153,751.045 C192.223,751.045 191.468,751.768 191.468,752.66 C191.468,753.553 192.223,754.276 193.153,754.276 C194.084,754.276 194.839,753.553 194.839,752.66 C194.839,751.768 194.084,751.045 193.153,751.045 L193.153,751.045 z" fill="#FFFFFF"/>
  </g>
</svg>
