<?xml version="1.0" encoding="UTF-8" standalone="no"?>
<!DOCTYPE svg PUBLIC "-//W3C//DTD SVG 1.1//EN" "http://www.w3.org/Graphics/SVG/1.1/DTD/svg11.dtd">
<svg width="100%" height="100%" viewBox="0 0 123 123" version="1.1" xmlns="http://www.w3.org/2000/svg" xmlns:xlink="http://www.w3.org/1999/xlink" xml:space="preserve" style="fill-rule:evenodd;clip-rule:evenodd;stroke-linejoin:round;stroke-miterlimit:1.41421;">
    <g transform="matrix(1,0,0,1,-1055.25,-567.5)">
        <g transform="matrix(0.897656,0,0,0.94875,541,1.42109e-14)">
            <g id="webcam-button" transform="matrix(1,0,0,1,-8.63359,10.0132)">
                <g transform="matrix(1,0,0,1,-3.34204,0)">
                    <g transform="matrix(1.11401,0,0,1.05402,-384.334,-1.49785e-14)">
                        <circle cx="931.25" cy="619.25" r="61.25" style="fill:rgb(243,89,70);"/>
                    </g>
                    <g id="_-Ellipse-" transform="matrix(0.954868,0,0,0.903444,-236.131,93.243)">
                        <circle cx="931.25" cy="619.25" r="61.25" style="fill:white;"/>
                    </g>
                </g>
                <g id="icon-cam" transform="matrix(1,0,0,1,89.7851,-54.9711)">
                    <g transform="matrix(1.07623,0,0,1.01827,-660.643,82.4379)">
                        <circle cx="1133.38" cy="614.375" r="43.375" style="fill:rgb(123,123,123);"/>
                    </g>
                    <g transform="matrix(1.07623,0,0,1.01827,-660.643,82.4379)">
                        <path d="M1159.35,599.107L1176.75,616.919C1172.93,643.93 1156.82,657.198 1129.33,657.75L1106.56,633.266L1159.35,599.107Z" style="fill:rgb(103,103,103);"/>
                    </g>
                    <g id="camera">
                        <g transform="matrix(0.909194,0,0,0.860231,-463.712,161.436)">
                            <circle cx="1125.08" cy="638.423" r="8.577" style="fill:white;"/>
                        </g>
                        <g transform="matrix(1.11401,0,0,1.05402,-602.681,-1.49785e-14)">
                            <path d="M1062.7,693L1023.11,693C1018.86,693 1015.4,689.546 1015.4,685.293L1015.4,662.707C1015.4,658.454 1018.86,655 1023.11,655L1032.87,655C1033.32,654.033 1034,652.625 1034.42,652C1034.42,652 1034.42,652 1034.42,652C1034.94,651.216 1035.31,650 1036.42,650L1049.39,650C1050.49,650 1050.87,651.216 1051.39,652C1051.81,652.624 1052.48,654.029 1052.92,655L1062.7,655C1066.95,655 1070.4,658.454 1070.4,662.707L1070.4,685.293C1070.4,689.546 1066.95,693 1062.7,693ZM1042.9,661.75C1049.66,661.75 1055.15,667.239 1055.15,674C1055.15,680.761 1049.66,686.25 1042.9,686.25C1036.14,686.25 1030.65,680.761 1030.65,674C1030.65,667.239 1036.14,661.75 1042.9,661.75ZM1062.1,660C1063.82,660 1065.21,661.391 1065.21,663.104C1065.21,664.817 1063.82,666.207 1062.1,666.207C1060.39,666.207 1059,664.817 1059,663.104C1059,661.391 1060.39,660 1062.1,660Z" style="fill:white;"/>
                        </g>
                    </g>
                </g>
            </g>
        </g>
    </g>
</svg>
