<?xml version="1.0" encoding="utf-8"?>
<!-- Generator: Adobe Illustrator 19.0.0, SVG Export Plug-In . SVG Version: 6.00 Build 0)  -->
<svg version="1.1" id="Layer_2" xmlns="http://www.w3.org/2000/svg" xmlns:xlink="http://www.w3.org/1999/xlink" x="0px" y="0px"
	 viewBox="0 0 500 500" style="enable-background:new 0 0 500 500;" xml:space="preserve">
<style type="text/css">
	.st0{fill:#FF9D66;stroke:#000000;stroke-width:9;stroke-miterlimit:10;}
	.st1{fill:#367FCE;}
	.st2{fill:none;stroke:#000000;stroke-width:9;stroke-linecap:round;stroke-miterlimit:10;}
	.st3{fill:#F25067;stroke:#000102;stroke-width:9;stroke-miterlimit:10;}
</style>
<g id="frame01">
	<g>
		<circle class="st0" cx="-8250" cy="250" r="243"/>
		<g>
			<path class="st1" d="M-8147.9,316.6c-13.9,5.6-28.6,8.2-40,9.4c-0.2,1.4-0.3,2.9-0.3,4.4c0,19.8,16.1,35.9,35.9,35.9
				c19.8,0,35.9-16.1,35.9-35.9c0-9.6-3.8-18.4-10-24.8C-8132.4,309.4-8139.7,313.3-8147.9,316.6z"/>
			<path class="st2" d="M-8207.8,327c0,0,31.6,1,59.8-10.4c26.2-10.6,43.2-27.3,43.2-27.3"/>
		</g>
		<g>
			<path class="st1" d="M-8352.1,316.6c13.9,5.6,28.6,8.2,40,9.4c0.2,1.4,0.3,2.9,0.3,4.4c0,19.8-16.1,35.9-35.9,35.9
				c-19.8,0-35.9-16.1-35.9-35.9c0-9.6,3.8-18.4,10-24.8C-8367.6,309.4-8360.3,313.3-8352.1,316.6z"/>
			<path class="st2" d="M-8292.3,327c0,0-31.6,1-59.8-10.4c-26.2-10.6-43.2-27.3-43.2-27.3"/>
		</g>
	</g>
	<path class="st3" d="M-8250,434.9c-34.4,0-51.6,10.8-51.6,18.5c0,6,23.1-1.1,51.6-1.1s51.6,7.1,51.6,1.1
		C-8198.4,445.6-8215.6,434.9-8250,434.9z"/>
</g>
<g id="frame02">
	<circle class="st0" cx="-7750" cy="250" r="243"/>
	<g>
		<g>
			<path class="st1" d="M-7647.9,315.6c-13.9,5.6-28.6,8.2-40,9.4c-0.2,1.4-0.3,2.9-0.3,4.4c0,19.8,16.1,35.9,35.9,35.9
				c19.8,0,35.9-16.1,35.9-35.9c0-9.6-3.8-18.4-10-24.8C-7632.4,308.4-7639.7,312.3-7647.9,315.6z"/>
			<path class="st2" d="M-7707.8,326c0,0,29.3,0.1,57.8-10.7c28.3-10.7,45.3-27.1,45.3-27.1"/>
		</g>
		<g>
			<path class="st1" d="M-7852.1,315.6c13.9,5.6,28.6,8.2,40,9.4c0.2,1.4,0.3,2.9,0.3,4.4c0,19.8-16.1,35.9-35.9,35.9
				c-19.8,0-35.9-16.1-35.9-35.9c0-9.6,3.8-18.4,10-24.8C-7867.6,308.4-7860.3,312.3-7852.1,315.6z"/>
			<path class="st2" d="M-7792.3,326c0,0-29.3,0.1-57.8-10.7c-28.3-10.7-45.3-27.1-45.3-27.1"/>
		</g>
		<path class="st3" d="M-7750,432.3c-36.4,0-54.6,11.4-54.6,19.6c0,6.4,24.5-1.2,54.6-1.2c30.2,0,54.6,7.5,54.6,1.2
			C-7695.4,443.7-7713.6,432.3-7750,432.3z"/>
	</g>
</g>
<g id="frame03">
	<circle class="st0" cx="-7250" cy="250" r="243"/>
	<g>
		<g>
			<path class="st1" d="M-7147.9,311c-13.9,5.6-28.6,8.2-40,9.4c-0.2,1.4-0.3,2.9-0.3,4.4c0,19.8,16.1,35.9,35.9,35.9
				c19.8,0,35.9-16.1,35.9-35.9c0-9.6-3.8-18.4-10-24.8C-7132.4,303.8-7139.7,307.7-7147.9,311z"/>
			<path class="st2" d="M-7207.8,321.4c0,0,29.3,0.1,57.8-10.7c28.3-10.7,45.3-27.1,45.3-27.1"/>
		</g>
		<g>
			<path class="st1" d="M-7352.1,311c13.9,5.6,28.6,8.2,40,9.4c0.2,1.4,0.3,2.9,0.3,4.4c0,19.8-16.1,35.9-35.9,35.9
				c-19.8,0-35.9-16.1-35.9-35.9c0-9.6,3.8-18.4,10-24.8C-7367.6,303.8-7360.3,307.7-7352.1,311z"/>
			<path class="st2" d="M-7292.3,321.4c0,0-29.3,0.1-57.8-10.7c-28.3-10.7-45.3-27.1-45.3-27.1"/>
		</g>
		<path class="st3" d="M-7250,425.2c-40.8,0-65.5,13.6-61.2,24.9c2.5,6.7,27.4-4.3,61.2-4.3s58.7,11,61.2,4.3
			C-7184.5,438.8-7209.2,425.2-7250,425.2z"/>
	</g>
</g>
<g id="frame04">
	<circle class="st0" cx="-6750" cy="250" r="243"/>
	<g>
		<g>
			<path class="st1" d="M-6647.6,300.8c-13.9,5.6-27.3,8.4-40.2,10.6c-0.2,1.4-0.3,2.9-0.3,4.4c0,19.8,16.1,35.9,35.9,35.9
				c19.8,0,35.9-16.1,35.9-35.9c0-9.6-3.8-18.4-10-24.8C-6632.4,294.8-6639.5,297.5-6647.6,300.8z"/>
			<path class="st2" d="M-6705.5,314.1c0,0,27.1,0.1,55.5-10.7c28.3-10.7,45.3-27.1,45.3-27.1"/>
		</g>
		<g>
			<path class="st1" d="M-6852.4,300.8c13.9,5.6,27.3,8.4,40.2,10.6c0.2,1.4,0.3,2.9,0.3,4.4c0,19.8-16.1,35.9-35.9,35.9
				c-19.8,0-35.9-16.1-35.9-35.9c0-9.6,3.8-18.4,10-24.8C-6867.6,294.8-6860.5,297.5-6852.4,300.8z"/>
			<path class="st2" d="M-6794.5,314.1c0,0-27.1,0.1-55.5-10.7c-28.3-10.7-45.3-27.1-45.3-27.1"/>
		</g>
		<path class="st3" d="M-6750,417.3c-42.5,0-70.3,13.7-63.9,27.2c3.2,6.7,28.6-4,63.9-4s60.6,10.7,63.9,4
			C-6679.7,431-6707.5,417.3-6750,417.3z"/>
	</g>
</g>
<g id="frame05">
	<circle class="st0" cx="-6250" cy="250" r="243"/>
	<g>
		<path class="st1" d="M-6147.3,280.7c-13.9,5.6-27.3,8.4-40.2,10.6c-0.2,1.4-0.3,2.9-0.3,4.4c0,19.8,16.1,35.9,35.9,35.9
			c19.8,0,35.9-16.1,35.9-35.9c0-9.6-3.8-18.4-10-24.8C-6132.1,274.7-6139.1,277.4-6147.3,280.7z"/>
		<path class="st2" d="M-6205.5,290.6c0,0,25.9-1.5,54.3-12.2c28.3-10.7,46.3-25,46.3-25"/>
		<path class="st1" d="M-6352.7,280.7c13.9,5.6,27.3,8.4,40.2,10.6c0.2,1.4,0.3,2.9,0.3,4.4c0,19.8-16.1,35.9-35.9,35.9
			c-19.8,0-35.9-16.1-35.9-35.9c0-9.6,3.8-18.4,10-24.8C-6367.9,274.7-6360.9,277.4-6352.7,280.7z"/>
		<path class="st2" d="M-6294.5,290.6c0,0-25.9-1.5-54.3-12.2c-28.3-10.7-46.3-25-46.3-25"/>
		<path class="st3" d="M-6249.8,394.3c-42.5,0-72,17.1-67,31.3c3.8,10.5,31.7-3,67-3s63.3,13.5,67,3
			C-6177.7,411.4-6207.2,394.3-6249.8,394.3z"/>
	</g>
</g>
<g id="frame06">
	<circle class="st0" cx="-5750" cy="250" r="243"/>
	<g>
		<path class="st1" d="M-5651.2,251.9c-11.7,4.7-24.9,10.2-32.6,16.3c-2.6,2-4,5.2-4,8.4c0.3,19.6,16.3,35.3,35.9,35.3
			c19.8,0,35.9-16.1,35.9-35.9c0-9.6-3.1-20-10.9-24.5C-5635.5,246.5-5643,248.6-5651.2,251.9z"/>
		<path class="st2" d="M-5705.5,262.9c0,0,25.9-1.5,54.3-12.2c28.3-10.7,46.3-25,46.3-25"/>
		<path class="st1" d="M-5848.8,251.9c11.7,4.7,24.9,10.2,32.6,16.3c2.6,2,4,5.2,4,8.4c-0.3,19.6-16.3,35.3-35.9,35.3
			c-19.8,0-35.9-16.1-35.9-35.9c0-9.6,3.1-20,10.9-24.5C-5864.5,246.5-5857,248.6-5848.8,251.9z"/>
		<path class="st2" d="M-5794.5,262.9c0,0-25.9-1.5-54.3-12.2c-28.3-10.7-46.3-25-46.3-25"/>
		<path class="st3" d="M-5750,369.2c-45.2,0-76.8,22.4-70.7,37.2c5.2,12.5,33.1,0.2,70.7,0.2s65.5,12.3,70.7-0.2
			C-5673.2,391.6-5704.8,369.2-5750,369.2z"/>
	</g>
</g>
<g id="frame07">
	<circle class="st0" cx="-5250" cy="250" r="243"/>
	<path class="st2" d="M-5205.6,242.7c0,0,21.9-5.4,50.3-16.2c28.3-10.7,50.3-21.1,50.3-21.1"/>
	<path class="st1" d="M-5151.2,236.6c-11.7,4.7-24.9,10.2-32.6,16.3c-2.6,2-4,5.2-4,8.4c0.3,19.6,16.3,35.3,35.9,35.3
		c19.8,0,35.9-16.1,35.9-35.9c0-9.6-3.1-20-10.9-24.5C-5135.6,231.2-5143.1,233.3-5151.2,236.6z"/>
	<path class="st2" d="M-5294.6,242.7c0,0-21.9-5.4-50.3-16.2c-28.3-10.7-50.3-21.1-50.3-21.1"/>
	<path class="st1" d="M-5348.9,236.6c11.7,4.7,24.9,10.2,32.6,16.3c2.6,2,4,5.2,4,8.4c-0.3,19.6-16.3,35.3-35.9,35.3
		c-19.8,0-35.9-16.1-35.9-35.9c0-9.6,3.1-20,10.9-24.5C-5364.6,231.2-5357.1,233.3-5348.9,236.6z"/>
	<path class="st3" d="M-5249.8,350.3L-5249.8,350.3c-0.1,0-0.1,0-0.2,0c-0.1,0-0.1,0-0.2,0v0c-45.1,0.1-76.4,24.5-70.4,39.2
		c5.2,12.5,33.1,6.6,70.5,6.5c37.4,0,65.4,5.9,70.5-6.5C-5173.4,374.8-5204.8,350.4-5249.8,350.3z"/>
</g>
<g id="frame08">
	<circle class="st0" cx="-4749.9" cy="250" r="243"/>
	<path class="st2" d="M-4705.5,225.7c0,0,20.7-7,49.2-17.8c28.3-10.7,51.5-20.4,51.5-20.4"/>
	<path class="st1" d="M-4658,219.7c-10.9,2.1-29.8,10.1-29.8,31.6c0,19.6,16.3,35.3,35.9,35.3c19.8,0,35.9-16.1,35.9-35.9
		c0-9.6-3.4-18.8-9.7-25C-4632.5,218.9-4648.7,217.9-4658,219.7z"/>
	<path class="st2" d="M-4794.3,225.7c0,0-20.7-7-49.2-17.8c-28.3-10.7-51.5-20.4-51.5-20.4"/>
	<path class="st1" d="M-4841.8,219.7c10.9,2.1,29.8,10.1,29.8,31.6c0,19.6-16.3,35.3-35.9,35.3c-19.8,0-35.9-16.1-35.9-35.9
		c0-9.6,3.4-18.8,9.7-25C-4867.3,218.9-4851.1,217.9-4841.8,219.7z"/>
	<g>
		<path class="st3" d="M-4749.7,336.3C-4749.7,336.3-4749.7,336.3-4749.7,336.3C-4749.7,336.3-4749.7,336.3-4749.7,336.3
			c-0.1,0-0.1,0-0.1,0c0,0,0,0,0,0c-45,0.2-79.6,26.4-73.3,41c7.8,18.2,35.9,13.2,73.3,13.2c37.4,0,65.5,5,73.3-13.2
			C-4670.1,362.7-4704.6,336.5-4749.7,336.3z"/>
	</g>
</g>
<g id="frame09">
	<circle class="st0" cx="-4249.9" cy="250" r="243"/>
	<path class="st2" d="M-4205.5,209.9c0,0,20.6-11.4,49-22.2c28.3-10.7,51.7-16.1,51.7-16.1"/>
	<path class="st1" d="M-4116,243.7c0-10.7-10.4-20.7-36.2-21v0c0,0,0,0,0,0c0,0,0,0,0,0v0c-25.8,0.3-36.2,10.3-36.2,21
		c0,19.8,16.4,24.9,36.2,24.9l0,0c0,0,0,0,0,0c0,0,0,0,0,0l0,0C-4132.3,268.6-4116,263.5-4116,243.7z"/>
	<path class="st2" d="M-4294.3,209.9c0,0-20.6-11.4-49-22.2c-28.3-10.7-51.7-16.1-51.7-16.1"/>
	<path class="st1" d="M-4383.9,243.7c0-10.7,10.4-20.7,36.2-21v0c0,0,0,0,0,0c0,0,0,0,0,0v0c25.8,0.3,36.2,10.3,36.2,21
		c0,19.8-16.4,24.9-36.2,24.9l0,0c0,0,0,0,0,0c0,0,0,0,0,0l0,0C-4367.5,268.6-4383.9,263.5-4383.9,243.7z"/>
	<path class="st3" d="M-4249.7,325.3c0,0-0.2,0-0.2,0c0,0,0,0,0,0c-45,0.2-82.1,29-75.7,44.4c7.7,18.4,38.5,15.8,75.8,15.8
		c37.4,0,68,2.5,75.7-15.8C-4167.6,354.3-4204.6,325.5-4249.7,325.3z"/>
</g>
<g id="frame10">
	<circle class="st0" cx="-3750" cy="250" r="243"/>
	<path class="st2" d="M-3706.6,196.4c0,0,21.6-13.4,50-24.2c28.3-10.7,50.7-13.1,50.7-13.1"/>
	<path class="st1" d="M-3616,235.2c0-8.2-10.4-15.9-36.2-16.2v0c0,0,0,0,0,0c0,0,0,0,0,0v0c-25.8,0.3-36.2,7.9-36.2,16.2
		c0,15.2,16.4,19.1,36.2,19.1l0,0c0,0,0,0,0,0c0,0,0,0,0,0l0,0C-3632.4,254.3-3616,250.4-3616,235.2z"/>
	<path class="st2" d="M-3793.4,196.4c0,0-21.6-13.4-50-24.2c-28.3-10.7-50.7-13.1-50.7-13.1"/>
	<path class="st1" d="M-3884,235.2c0-8.2,10.4-15.9,36.2-16.2v0c0,0,0,0,0,0c0,0,0,0,0,0v0c25.8,0.3,36.2,7.9,36.2,16.2
		c0,15.2-16.4,19.1-36.2,19.1l0,0c0,0,0,0,0,0c0,0,0,0,0,0l0,0C-3867.6,254.3-3884,250.4-3884,235.2z"/>
	<path class="st3" d="M-3749.7,315.3L-3749.7,315.3C-3759.7,315.3-3739.8,315.3-3749.7,315.3L-3749.7,315.3c-51,0-82.4,32-77.4,48.4
		c5.8,19,39.9,18.9,77.3,18.8c37.4,0,71.5,0.2,77.3-18.8C-3667.4,347.3-3698.8,315.3-3749.7,315.3z"/>
</g>
<g id="frame11">
	<circle class="st0" cx="-3250" cy="250" r="243"/>
	<path class="st3" d="M-3249.8,306.3L-3249.8,306.3c0,0-0.4,0-0.4,0v0c-50.7,0.2-85.7,35.4-79.2,52.4c8.3,21.6,42.1,21.9,79.4,21.8
		c37.3,0,71.2-0.2,79.4-21.8C-3164.1,341.7-3199.1,306.5-3249.8,306.3z"/>
	<g>
		<path class="st2" d="M-3206.6,184.4c0,0,13.6-13.4,42-24.2c28.3-10.7,58.7-12.1,58.7-12.1"/>
		<circle class="st1" cx="-3152.7" cy="229.6" r="36"/>
		<path class="st2" d="M-3293.4,184.4c0,0-13.6-13.4-42-24.2c-28.3-10.7-58.7-12.1-58.7-12.1"/>
		<circle class="st1" cx="-3347.3" cy="229.6" r="36"/>
	</g>
</g>
<g id="frame12">
	<circle class="st0" cx="-2750" cy="250" r="243"/>
	<path class="st3" d="M-2750,298.8L-2750,298.8C-2750,298.8-2750,298.8-2750,298.8L-2750,298.8c-50.3,0.7-86.4,35.5-81.9,55.2
		c4.5,19.7,44.5,26.5,81.8,26.5v0c0,0,0.1,0,0.1,0v0c37.3,0,77.3-6.8,81.8-26.5C-2663.7,334.3-2699.8,299.5-2750,298.8z"/>
	<g>
		<path class="st2" d="M-2706.6,173.4c0,0,13.7-15,42-26.2c30.2-11.9,58.7-11.1,58.7-11.1"/>
		<circle class="st1" cx="-2652.7" cy="225.6" r="36"/>
		<path class="st2" d="M-2793.4,173.4c0,0-13.7-15-42-26.2c-30.2-11.9-58.7-11.1-58.7-11.1"/>
		<circle class="st1" cx="-2847.3" cy="225.6" r="36"/>
	</g>
</g>
<g id="frame13">
	<circle class="st0" cx="-2250" cy="250" r="243"/>
	<path class="st2" d="M-2206.5,162.4c0,0,13.7-16.7,42-27.9c30.2-11.9,58.7-7.3,58.7-7.3"/>
	<path class="st3" d="M-2250,291.8L-2250,291.8C-2250,291.8-2250,291.8-2250,291.8C-2250,291.8-2250,291.8-2250,291.8L-2250,291.8
		c-46.8,0-89.2,38.4-83.5,60.2c5.2,19.6,42.7,28.5,83.5,28.5c40.8,0,78.3-8.9,83.5-28.5C-2160.8,330.3-2203.3,291.8-2250,291.8z"/>
	<circle class="st1" cx="-2152.6" cy="223.6" r="36"/>
	<path class="st2" d="M-2293.3,162.4c0,0-13.7-16.7-42-27.9c-30.2-11.9-58.7-7.3-58.7-7.3"/>
	<circle class="st1" cx="-2347.2" cy="223.6" r="36"/>
</g>
<g id="frame14">
	<circle class="st0" cx="-1750" cy="250" r="243"/>
	<path class="st3" d="M-1750,285.8L-1750,285.8C-1750,285.8-1750,285.8-1750,285.8C-1750,285.8-1750,285.8-1750,285.8
		C-1750,285.8-1750,285.8-1750,285.8C-1750,285.8-1750,285.8-1750,285.8C-1750,285.8-1750,285.8-1750,285.8
		C-1750,285.8-1750,285.8-1750,285.8L-1750,285.8c-46.8,0-92,40.3-86.7,63.5c4,17.6,39.1,33.7,86.7,33.1
		c47.6,0.6,82.7-15.5,86.7-33.1C-1658,326.2-1703.3,285.9-1750,285.8z"/>
	<g>
		<path class="st2" d="M-1707.6,155.3c0,0,12.7-19.3,41-30.5c30.2-11.9,59.5-6.5,59.5-6.5"/>
		<circle class="st1" cx="-1652.7" cy="220.6" r="36"/>
		<path class="st2" d="M-1792.4,155.3c0,0-12.7-19.3-41-30.5c-30.2-11.9-59.5-6.5-59.5-6.5"/>
		<circle class="st1" cx="-1847.3" cy="220.6" r="36"/>
	</g>
</g>
<g id="frame15">
	<circle class="st0" cx="-1250" cy="250" r="243"/>
	<path class="st3" d="M-1249.7,281.8L-1249.7,281.8c0,0-0.3,0-0.3,0v0c-45.6,0.1-92.4,35.2-88.4,65.5c2.3,17.9,37.8,37,88.4,37.1v0
		c0,0,0.3,0,0.3,0v0c50.7-0.1,86.1-19.3,88.4-37.1C-1157.3,317.1-1204.2,282-1249.7,281.8z"/>
	<path class="st2" d="M-1207.6,148.3c0,0,12.7-19.3,41-30.5c30.2-11.9,59.5-6.5,59.5-6.5"/>
	<circle class="st1" cx="-1152.7" cy="219.6" r="36"/>
	<path class="st2" d="M-1292.4,148.3c0,0-12.7-19.3-41-30.5c-30.2-11.9-59.5-6.5-59.5-6.5"/>
	<circle class="st1" cx="-1347.3" cy="219.6" r="36"/>
</g>
<g id="frame16">
	<circle class="st0" cx="-750" cy="250" r="243"/>
	<path class="st3" d="M-749.9,277.8L-749.9,277.8L-749.9,277.8c0,0-0.3,0-0.3,0v0v0c-45.5,0.3-95.4,38.3-91.4,68.5
		c2.3,17.8,39.8,41.1,91.5,41.1v0c0,0,0.1,0,0.1,0s0.1,0,0.1,0v0c51.7-0.1,89.2-23.3,91.5-41.1
		C-654.5,316.1-704.4,278.1-749.9,277.8z"/>
	<g>
		<path class="st2" d="M-707.6,143.3c0,0,12.6-21.7,41-32.5c31.7-12,59.5-4.5,59.5-4.5"/>
		<circle class="st1" cx="-652.7" cy="218.6" r="36"/>
		<path class="st2" d="M-792.4,143.3c0,0-12.6-21.7-41-32.5c-31.7-12-59.5-4.5-59.5-4.5"/>
		<circle class="st1" cx="-847.3" cy="218.6" r="36"/>
	</g>
</g>
<g id="frame17">
	<circle class="st0" cx="-250" cy="250" r="243"/>
	<path class="st3" d="M-250,273.8c-44.5,0-97.9,42.3-93.6,72.5c2.8,19.9,49.1,46.5,93.6,44.1c44.5,2.4,90.8-24.3,93.6-44.1
		C-152.1,316.2-205.5,273.8-250,273.8z"/>
	<g>
		<path class="st2" d="M-207.6,143.3c0,0,12.6-24.7,41-35.5c31.7-12,59.5-3.5,59.5-3.5"/>
		<circle class="st1" cx="-152.7" cy="218.6" r="36"/>
	</g>
	<g>
		<path class="st2" d="M-292.4,143.3c0,0-12.6-24.7-41-35.5c-31.7-12-59.5-3.5-59.5-3.5"/>
		<circle class="st1" cx="-347.3" cy="218.6" r="36"/>
	</g>
</g>
<g id="frame18">
	<circle class="st0" cx="250" cy="250" r="243"/>
	<path class="st3" d="M250,276.8c-44.5,0-95.9,39.3-91.6,69.5c2.8,19.9,47.1,43.5,91.6,41.1c44.5,2.4,88.8-21.3,91.6-41.1
		C345.9,316.2,294.5,276.8,250,276.8z"/>
	<g>
		<path class="st2" d="M292.4,143.3c0,0,12.6-24.7,41-35.5c31.7-12,59.5-3.5,59.5-3.5"/>
		<ellipse class="st1" cx="347.3" cy="224.6" rx="36" ry="6.3"/>
		<path class="st2" d="M207.6,143.3c0,0-12.6-24.7-41-35.5c-31.7-12-59.5-3.5-59.5-3.5"/>
		<ellipse class="st1" cx="152.7" cy="224.6" rx="36" ry="6.3"/>
	</g>
</g>
<g id="frame19">
	<circle class="st0" cx="750" cy="250" r="243"/>
	<path class="st3" d="M750,281.8c-44.5,0-92.9,34.3-88.6,64.5c2.8,19.9,44.1,39.5,88.6,37.1c44.5,2.4,85.8-17.3,88.6-37.1
		C842.9,316.2,794.5,281.8,750,281.8z"/>
	<g>
		<path class="st2" d="M792.4,143.3c0,0,13.6-22.7,42-33.5c31.7-12,58.5-5.5,58.5-5.5"/>
		<circle class="st1" cx="847.3" cy="218.6" r="36"/>
	</g>
	<g>
		<path class="st2" d="M707.6,143.3c0,0-13.6-22.7-42-33.5c-31.7-12-58.5-5.5-58.5-5.5"/>
		<circle class="st1" cx="652.7" cy="218.6" r="36"/>
	</g>
</g>
<g id="frame20">
	<circle class="st0" cx="1250" cy="250" r="243"/>
	<path class="st3" d="M1250,286.5c-43.4,0-89.8,35.5-86.3,61.2c2.5,18.9,38.6,33.2,86.3,33.2s83.8-14.3,86.3-33.2
		C1339.8,322,1293.4,286.5,1250,286.5z"/>
	<path class="st2" d="M1292.4,146.3c0,0,13.6-22.7,42-33.5c31.7-12,60.5-5.5,60.5-5.5"/>
	<circle class="st1" cx="1347.3" cy="219.6" r="36"/>
	<path class="st2" d="M1207.6,146.3c0,0-13.6-22.7-42-33.5c-31.7-12-60.5-5.5-60.5-5.5"/>
	<circle class="st1" cx="1152.7" cy="219.6" r="36"/>
</g>
<g id="frame21">
	<circle class="st0" cx="1750" cy="250" r="243"/>
	<path class="st3" d="M1750,291.3c-42,0-83.6,31.4-83.6,55.3c0,19.9,33.5,31.5,83.6,31.5s83.6-11.6,83.6-31.5
		C1833.6,322.7,1792,291.3,1750,291.3z"/>
	<path class="st2" d="M1794.3,148.5c0,0,11.6-19,40.1-29.8c31.7-12,60.5-8.5,60.5-8.5"/>
	<circle class="st1" cx="1847.3" cy="221.6" r="36"/>
	<path class="st2" d="M1705.7,148.5c0,0-11.6-19-40.1-29.8c-31.7-12-60.5-8.5-60.5-8.5"/>
	<circle class="st1" cx="1652.7" cy="221.6" r="36"/>
</g>
<g id="frame22">
	<circle class="st0" cx="2250" cy="250" r="243"/>
	<path class="st3" d="M2250,296.7c-42,0-81.6,27.7-81.6,50.2c0,20.1,28.9,28.8,81.6,28.8s81.6-8.7,81.6-28.8
		C2331.6,324.4,2292,296.7,2250,296.7z"/>
	<g>
		<path class="st2" d="M2295.3,152.5c0,0,16.6-18,45.1-28.8c31.7-12,55.5-8.5,55.5-8.5"/>
		<circle class="st1" cx="2347.3" cy="222.6" r="36"/>
		<path class="st2" d="M2204.7,152.5c0,0-16.6-18-45.1-28.8c-31.7-12-55.5-8.5-55.5-8.5"/>
		<circle class="st1" cx="2152.7" cy="222.6" r="36"/>
	</g>
</g>
<g id="frame23">
	<circle class="st0" cx="2750" cy="250" r="243"/>
	<path class="st3" d="M2750,302.7c-42,0-79.6,27.6-79.6,45.2c0,20.1,26.9,26.8,79.6,26.8s79.6-6.7,79.6-26.8
		C2829.6,330.3,2792,302.7,2750,302.7z"/>
	<path class="st2" d="M2797.3,158.5c0,0,16.6-15,45.1-25.8c31.7-12,55.5-11.5,55.5-11.5"/>
	<circle class="st1" cx="2847.3" cy="225.6" r="36"/>
	<path class="st2" d="M2702.7,158.5c0,0-16.6-15-45.1-25.8c-31.7-12-55.5-11.5-55.5-11.5"/>
	<circle class="st1" cx="2652.7" cy="225.6" r="36"/>
</g>
<g id="frame24">
	<circle class="st0" cx="3250" cy="250" r="243"/>
	<path class="st3" d="M3327.3,350.3c-2-16.8-40.8-40.3-77.3-40.3s-75.3,23.5-77.3,40.3c-2.4,20,24.6,24.4,77.3,24.4
		S3329.6,370.2,3327.3,350.3z"/>
	<g>
		<path class="st2" d="M3297.3,166.5c0,0,18.2-10.5,46.7-21.3c31.7-12,54.9-16,54.9-16"/>
		<circle class="st1" cx="3347.3" cy="228.6" r="36"/>
		<path class="st2" d="M3202.7,166.5c0,0-18.2-10.5-46.7-21.3c-31.7-12-54.9-16-54.9-16"/>
		<circle class="st1" cx="3152.7" cy="228.6" r="36"/>
	</g>
</g>
<g id="frame25">
	<circle class="st0" cx="3750" cy="250" r="243"/>
	<path class="st3" d="M3750,317c-36.5,0-74.4,22.4-74.5,39.3c-0.1,15.8,21.8,17.4,74.5,17.4c52.7,0,74.6-1.7,74.5-17.4
		C3824.4,339.4,3786.5,317,3750,317z"/>
	<path class="st2" d="M3800.3,178.4c0,0,17.3-6.7,45.7-17.5c31.7-12,53.8-18.6,53.8-18.6"/>
	<circle class="st1" cx="3847.3" cy="232.6" r="36"/>
	<path class="st2" d="M3699.7,178.4c0,0-17.3-6.7-45.7-17.5c-31.7-12-53.8-18.6-53.8-18.6"/>
	<circle class="st1" cx="3652.7" cy="232.6" r="36"/>
</g>
<g id="frame26">
	<circle class="st0" cx="4250" cy="250" r="243"/>
	<path class="st3" d="M4250,326c-36.5,0-71.7,19.1-71.8,35.9c-0.1,15.8,19.1,12.7,71.8,12.7c52.7,0,71.9,3,71.8-12.7
		C4321.7,345.1,4286.5,326,4250,326z"/>
	<g>
		<path class="st2" d="M4300.3,194.4c0,0,20.3-1.7,48.7-12.5c31.7-12,50.8-23.6,50.8-23.6"/>
		<circle class="st1" cx="4347.3" cy="237.6" r="36"/>
		<path class="st2" d="M4199.7,194.4c0,0-20.3-1.7-48.7-12.5c-31.7-12-50.8-23.6-50.8-23.6"/>
		<circle class="st1" cx="4152.7" cy="237.6" r="36"/>
	</g>
</g>
<g id="frame27">
	<circle class="st0" cx="4750" cy="250" r="243"/>
	<path class="st3" d="M4750,336c-36.5,0-69.7,15.1-69.8,31.9c-0.1,15.8,17.1,10.7,69.8,10.7c52.7,0,69.9,5,69.8-10.7
		C4819.7,351.1,4786.5,336,4750,336z"/>
	<g>
		<path class="st2" d="M4796.3,223.7c0,0,20.3-1.7,48.7-12.5c31.7-12,50.8-23.6,50.8-23.6"/>
		<path class="st1" d="M4883.3,243.6c0,19.9-16.1,36-36,36c-19.9,0-36-15.1-36-35c0-11.1,17-22,37-28
			C4867.3,210.9,4883.3,223.7,4883.3,243.6z"/>
		<path class="st2" d="M4703.7,223.7c0,0-20.3-1.7-48.7-12.5c-31.7-12-50.8-23.6-50.8-23.6"/>
		<path class="st1" d="M4616.7,243.6c0,19.9,16.1,36,36,36c19.9,0,36-15.1,36-35c0-11.1-17-22-37-28
			C4632.7,210.9,4616.7,223.7,4616.7,243.6z"/>
	</g>
</g>
<g id="frame28">
	<circle class="st0" cx="5250" cy="250" r="243"/>
	<path class="st3" d="M5250,348c-36.5,0-67.8,11.1-67.8,27.9c0,14.3,15.1,5.7,67.8,5.7c52.7,0,67.8,8.6,67.8-5.7
		C5317.8,359.1,5286.5,348,5250,348z"/>
	<path class="st1" d="M5371.4,227.5c-7.1,4.1-15.5,8.3-25.3,12c-13,4.9-24.6,6.9-33.3,7.6c-1,1.9-1.5,3.9-1.5,5.8
		c0,20,16.2,35.1,36.1,35.1c20,0,36.1-16.2,36.1-36.1C5383.6,241,5378.8,232.3,5371.4,227.5z"/>
	<path class="st2" d="M5296.3,247c0,0,21.3,3.3,49.8-7.5c31.7-12,49.8-29.6,49.8-29.6"/>
	<path class="st1" d="M5128.6,227.5c7.1,4.1,15.5,8.3,25.3,12c13,4.9,24.6,6.9,33.3,7.6c1,1.9,1.5,3.9,1.5,5.8
		c0,20-16.2,35.1-36.1,35.1c-20,0-36.1-16.2-36.1-36.1C5116.4,241,5121.2,232.3,5128.6,227.5z"/>
	<path class="st2" d="M5203.7,247c0,0-21.3,3.3-49.8-7.5c-31.7-12-49.8-29.6-49.8-29.6"/>
</g>
<g id="frame29">
	<circle class="st0" cx="5750" cy="250" r="243"/>
	<path class="st3" d="M5750,361c-36.5,0-69.6,14.4-65.7,26.3c3.5,10.5,13,0.3,65.7,0.3c52.7,0,62.2,10.2,65.7-0.3
		C5819.6,375.4,5786.5,361,5750,361z"/>
	<path class="st1" d="M5871.4,238.5c-7.1,4.1-15.5,8.3-25.3,12c-13,4.9-24.6,6.9-33.3,7.6c-1,1.9-1.5,3.9-1.5,5.8
		c0,20,16.2,35.1,36.1,35.1c20,0,36.1-16.2,36.1-36.1C5883.6,252,5878.8,243.3,5871.4,238.5z"/>
	<path class="st2" d="M5796.3,258c0,0,21.3,3.3,49.8-7.5c31.7-12,49.8-29.6,49.8-29.6"/>
	<path class="st1" d="M5628.6,238.5c7.1,4.1,15.5,8.3,25.3,12c13,4.9,24.6,6.9,33.3,7.6c1,1.9,1.5,3.9,1.5,5.8
		c0,20-16.2,35.1-36.1,35.1c-20,0-36.1-16.2-36.1-36.1C5616.4,252,5621.2,243.3,5628.6,238.5z"/>
	<path class="st2" d="M5703.7,258c0,0-21.3,3.3-49.8-7.5c-31.7-12-49.8-29.6-49.8-29.6"/>
</g>
<g id="frame30">
	<circle class="st0" cx="6250" cy="250" r="243"/>
	<path class="st3" d="M6250,375c-36.5,0-65.6,13.4-61.7,25.3c3.5,10.5,9,1.3,61.7,1.3c52.7,0,58.2,9.2,61.7-1.3
		C6315.6,388.4,6286.5,375,6250,375z"/>
	<path class="st1" d="M6371.4,252.5c-7.1,4.1-15.5,8.3-25.3,12c-13,4.9-25.4,7.2-34.4,8.6c-1,1.9-0.4,2.9-0.4,4.8
		c0,20,16.2,35.1,36.1,35.1c20,0,36.1-16.2,36.1-36.1C6383.6,266,6378.8,257.3,6371.4,252.5z"/>
	<path class="st2" d="M6295.3,274c0,0,22.3,1.3,50.8-9.5c31.7-12,49.8-29.6,49.8-29.6"/>
	<path class="st1" d="M6128.6,252.5c7.1,4.1,15.5,8.3,25.3,12c13,4.9,25.4,7.2,34.4,8.6c1,1.9,0.4,2.9,0.4,4.8
		c0,20-16.2,35.1-36.1,35.1c-20,0-36.1-16.2-36.1-36.1C6116.4,266,6121.2,257.3,6128.6,252.5z"/>
	<path class="st2" d="M6204.7,274c0,0-22.3,1.3-50.8-9.5c-31.7-12-49.8-29.6-49.8-29.6"/>
</g>
<g id="frame31">
	<circle class="st0" cx="-8250" cy="750" r="243"/>
	<path class="st3" d="M-8250,901c-34.2,0-61.5,10.7-57.7,20.1c3.3,8.3,8.4,1.1,57.7,1.1c49.3,0,54.5,7.3,57.7-1.1
		C-8188.5,911.7-8215.8,901-8250,901z"/>
	<path class="st1" d="M-8128.6,773.9c-7.1,4.1-15.5,8.3-25.3,12c-13,4.9-25.4,7.2-34.4,8.6c-1,1.9-0.4,2.9-0.4,4.8
		c0,20,16.2,35.1,36.1,35.1c20,0,36.1-16.2,36.1-36.1C-8116.4,787.5-8121.2,778.7-8128.6,773.9z"/>
	<path class="st2" d="M-8204.7,795.4c0,0,22.3,1.3,50.8-9.5c31.7-12,49.8-29.6,49.8-29.6"/>
	<path class="st1" d="M-8371.4,773.9c7.1,4.1,15.5,8.3,25.3,12c13,4.9,25.4,7.2,34.4,8.6c1,1.9,0.4,2.9,0.4,4.8
		c0,20-16.2,35.1-36.1,35.1c-20,0-36.1-16.2-36.1-36.1C-8383.6,787.5-8378.8,778.7-8371.4,773.9z"/>
	<path class="st2" d="M-8295.3,795.4c0,0-22.3,1.3-50.8-9.5c-31.7-12-49.8-29.6-49.8-29.6"/>
</g>
<g id="frame32">
	<circle class="st0" cx="-7750" cy="750" r="243"/>
	<path class="st3" d="M-7750,933.2c-31.2,0-56.2,10.7-52.8,20.1c3,8.3,7.7,1.1,52.8,1.1s49.8,7.3,52.8-1.1
		C-7693.8,943.9-7718.8,933.2-7750,933.2z"/>
	<path class="st1" d="M-7628.6,806.5c-7.1,4.1-15.5,8.3-25.3,12c-13,4.9-25.4,7.2-34.4,8.6c-1,1.9-0.4,2.9-0.4,4.8
		c0,20,16.2,35.1,36.1,35.1c20,0,36.1-16.2,36.1-36.1C-7616.4,820.1-7621.2,811.3-7628.6,806.5z"/>
	<path class="st2" d="M-7704.7,828c0,0,22.3,1.3,50.8-9.5c31.7-12,49.8-29.6,49.8-29.6"/>
	<path class="st1" d="M-7871.4,806.5c7.1,4.1,15.5,8.3,25.3,12c13,4.9,25.4,7.2,34.4,8.6c1,1.9,0.4,2.9,0.4,4.8
		c0,20-16.2,35.1-36.1,35.1c-20,0-36.1-16.2-36.1-36.1C-7883.6,820.1-7878.8,811.3-7871.4,806.5z"/>
	<path class="st2" d="M-7795.3,828c0,0-22.3,1.3-50.8-9.5c-31.7-12-49.8-29.6-49.8-29.6"/>
</g>
<g id="frame33">
	<circle class="st0" cx="-7250" cy="750" r="243"/>
	<path class="st3" d="M-7241,933.2c-31.2,0-56.2,10.7-52.8,20.1c3,8.3,7.7,1.1,52.8,1.1s49.8,7.3,52.8-1.1
		C-7184.8,943.9-7209.8,933.2-7241,933.2z"/>
	<path class="st1" d="M-7119.6,806.5c-7.1,4.1-15.5,8.3-25.3,12c-13,4.9-25.4,7.2-34.4,8.6c-1,1.9-0.4,2.9-0.4,4.8
		c0,20,16.2,35.1,36.1,35.1c20,0,36.1-16.2,36.1-36.1C-7107.4,820.1-7112.2,811.3-7119.6,806.5z"/>
	<path class="st2" d="M-7195.7,828c0,0,22.3,1.3,50.8-9.5c31.7-12,49.8-29.6,49.8-29.6"/>
	<path class="st1" d="M-7362.4,806.5c7.1,4.1,15.5,8.3,25.3,12c13,4.9,25.4,7.2,34.4,8.6c1,1.9,0.4,2.9,0.4,4.8
		c0,20-16.2,35.1-36.1,35.1c-20,0-36.1-16.2-36.1-36.1C-7374.6,820.1-7369.8,811.3-7362.4,806.5z"/>
	<path class="st2" d="M-7286.3,828c0,0-22.3,1.3-50.8-9.5c-31.7-12-49.8-29.6-49.8-29.6"/>
</g>
<g id="frame34">
	<circle class="st0" cx="-6750" cy="750" r="243"/>
	<path class="st3" d="M-6735,933.2c-31.2,0-56.2,10.7-52.8,20.1c3,8.3,7.7,1.1,52.8,1.1s49.8,7.3,52.8-1.1
		C-6678.8,943.9-6703.8,933.2-6735,933.2z"/>
	<path class="st1" d="M-6613.6,806.5c-7.1,4.1-15.5,8.3-25.3,12c-13,4.9-25.4,7.2-34.4,8.6c-1,1.9-0.4,2.9-0.4,4.8
		c0,20,16.2,35.1,36.1,35.1c20,0,36.1-16.2,36.1-36.1C-6601.4,820.1-6606.2,811.3-6613.6,806.5z"/>
	<path class="st2" d="M-6689.7,828c0,0,22.3,1.3,50.8-9.5c31.7-12,49.8-29.6,49.8-29.6"/>
	<path class="st1" d="M-6856.4,806.5c7.1,4.1,15.5,8.3,25.3,12c13,4.9,25.4,7.2,34.4,8.6c1,1.9,0.4,2.9,0.4,4.8
		c0,20-16.2,35.1-36.1,35.1c-20,0-36.1-16.2-36.1-36.1C-6868.6,820.1-6863.8,811.3-6856.4,806.5z"/>
	<path class="st2" d="M-6780.3,828c0,0-22.3,1.3-50.8-9.5c-31.7-12-49.8-29.6-49.8-29.6"/>
</g>
<g id="frame35">
	<circle class="st0" cx="-6250" cy="750" r="243"/>
	<g>
		<path class="st3" d="M-6249,933.2c-31.2,0-56.2,10.7-52.8,20.1c3,8.3,7.7,1.1,52.8,1.1s49.8,7.3,52.8-1.1
			C-6192.8,943.9-6217.8,933.2-6249,933.2z"/>
		<path class="st1" d="M-6127.6,806.5c-7.1,4.1-15.5,8.3-25.3,12c-13,4.9-25.4,7.2-34.4,8.6c-1,1.9-0.4,2.9-0.4,4.8
			c0,20,16.2,35.1,36.1,35.1c20,0,36.1-16.2,36.1-36.1C-6115.4,820.1-6120.2,811.3-6127.6,806.5z"/>
		<path class="st2" d="M-6203.7,828c0,0,22.3,1.3,50.8-9.5c31.7-12,49.8-29.6,49.8-29.6"/>
		<path class="st1" d="M-6370.4,806.5c7.1,4.1,15.5,8.3,25.3,12c13,4.9,25.4,7.2,34.4,8.6c1,1.9,0.4,2.9,0.4,4.8
			c0,20-16.2,35.1-36.1,35.1c-20,0-36.1-16.2-36.1-36.1C-6382.6,820.1-6377.8,811.3-6370.4,806.5z"/>
		<path class="st2" d="M-6294.3,828c0,0-22.3,1.3-50.8-9.5c-31.7-12-49.8-29.6-49.8-29.6"/>
	</g>
</g>
<g id="frame36">
	<circle class="st0" cx="-5750" cy="750" r="243"/>
	<g>
		<path class="st3" d="M-5763,933.2c-31.2,0-56.2,10.7-52.8,20.1c3,8.3,7.7,1.1,52.8,1.1s49.8,7.3,52.8-1.1
			C-5706.8,943.9-5731.8,933.2-5763,933.2z"/>
		<path class="st1" d="M-5641.6,806.5c-7.1,4.1-15.5,8.3-25.3,12c-13,4.9-25.4,7.2-34.4,8.6c-1,1.9-0.4,2.9-0.4,4.8
			c0,20,16.2,35.1,36.1,35.1c20,0,36.1-16.2,36.1-36.1C-5629.4,820.1-5634.2,811.3-5641.6,806.5z"/>
		<path class="st2" d="M-5717.7,828c0,0,22.3,1.3,50.8-9.5c31.7-12,49.8-29.6,49.8-29.6"/>
		<path class="st1" d="M-5884.4,806.5c7.1,4.1,15.5,8.3,25.3,12c13,4.9,25.4,7.2,34.4,8.6c1,1.9,0.4,2.9,0.4,4.8
			c0,20-16.2,35.1-36.1,35.1c-20,0-36.1-16.2-36.1-36.1C-5896.6,820.1-5891.8,811.3-5884.4,806.5z"/>
		<path class="st2" d="M-5808.3,828c0,0-22.3,1.3-50.8-9.5c-31.7-12-49.8-29.6-49.8-29.6"/>
	</g>
</g>
<g id="frame37">
	<circle class="st0" cx="-5250" cy="750" r="243"/>
	<g>
		<path class="st3" d="M-5250,933.2c-31.2,0-56.2,10.7-52.8,20.1c3,8.3,7.7,1.1,52.8,1.1s49.8,7.3,52.8-1.1
			C-5193.8,943.9-5218.8,933.2-5250,933.2z"/>
		<path class="st1" d="M-5128.6,806.5c-7.1,4.1-15.5,8.3-25.3,12c-13,4.9-25.4,7.2-34.4,8.6c-1,1.9-0.4,2.9-0.4,4.8
			c0,20,16.2,35.1,36.1,35.1c20,0,36.1-16.2,36.1-36.1C-5116.4,820.1-5121.2,811.3-5128.6,806.5z"/>
		<path class="st2" d="M-5204.7,828c0,0,22.3,1.3,50.8-9.5c31.7-12,49.8-29.6,49.8-29.6"/>
		<path class="st1" d="M-5371.4,806.5c7.1,4.1,15.5,8.3,25.3,12c13,4.9,25.4,7.2,34.4,8.6c1,1.9,0.4,2.9,0.4,4.8
			c0,20-16.2,35.1-36.1,35.1c-20,0-36.1-16.2-36.1-36.1C-5383.6,820.1-5378.8,811.3-5371.4,806.5z"/>
		<path class="st2" d="M-5295.3,828c0,0-22.3,1.3-50.8-9.5c-31.7-12-49.8-29.6-49.8-29.6"/>
	</g>
</g>
<g id="frame38">
	<circle class="st0" cx="-4750" cy="750" r="243"/>
	<g>
		<path class="st3" d="M-4736,933.2c-31.2,0-56.2,10.7-52.8,20.1c3,8.3,7.7,1.1,52.8,1.1s49.8,7.3,52.8-1.1
			C-4679.8,943.9-4704.8,933.2-4736,933.2z"/>
		<path class="st1" d="M-4614.6,806.5c-7.1,4.1-15.5,8.3-25.3,12c-13,4.9-25.4,7.2-34.4,8.6c-1,1.9-0.4,2.9-0.4,4.8
			c0,20,16.2,35.1,36.1,35.1c20,0,36.1-16.2,36.1-36.1C-4602.4,820.1-4607.2,811.3-4614.6,806.5z"/>
		<path class="st2" d="M-4690.7,828c0,0,22.3,1.3,50.8-9.5c31.7-12,49.8-29.6,49.8-29.6"/>
		<path class="st1" d="M-4857.4,806.5c7.1,4.1,15.5,8.3,25.3,12c13,4.9,25.4,7.2,34.4,8.6c1,1.9,0.4,2.9,0.4,4.8
			c0,20-16.2,35.1-36.1,35.1c-20,0-36.1-16.2-36.1-36.1C-4869.6,820.1-4864.8,811.3-4857.4,806.5z"/>
		<path class="st2" d="M-4781.3,828c0,0-22.3,1.3-50.8-9.5c-31.7-12-49.8-29.6-49.8-29.6"/>
	</g>
</g>
<g id="frame39">
	<circle class="st0" cx="-4250" cy="750" r="243"/>
	<g>
		<path class="st3" d="M-4250,933.2c-31.2,0-56.2,10.7-52.8,20.1c3,8.3,7.7,1.1,52.8,1.1s49.8,7.3,52.8-1.1
			C-4193.8,943.9-4218.8,933.2-4250,933.2z"/>
		<path class="st1" d="M-4128.6,806.5c-7.1,4.1-15.5,8.3-25.3,12c-13,4.9-25.4,7.2-34.4,8.6c-1,1.9-0.4,2.9-0.4,4.8
			c0,20,16.2,35.1,36.1,35.1c20,0,36.1-16.2,36.1-36.1C-4116.4,820.1-4121.2,811.3-4128.6,806.5z"/>
		<path class="st2" d="M-4204.7,828c0,0,22.3,1.3,50.8-9.5c31.7-12,49.8-29.6,49.8-29.6"/>
		<path class="st1" d="M-4371.4,806.5c7.1,4.1,15.5,8.3,25.3,12c13,4.9,25.4,7.2,34.4,8.6c1,1.9,0.4,2.9,0.4,4.8
			c0,20-16.2,35.1-36.1,35.1c-20,0-36.1-16.2-36.1-36.1C-4383.6,820.1-4378.8,811.3-4371.4,806.5z"/>
		<path class="st2" d="M-4295.3,828c0,0-22.3,1.3-50.8-9.5c-31.7-12-49.8-29.6-49.8-29.6"/>
	</g>
</g>
<g id="frame40">
	<circle class="st0" cx="-3750" cy="750" r="243"/>
	<g>
		<path class="st3" d="M-3763,933.2c-31.2,0-56.2,10.7-52.8,20.1c3,8.3,7.7,1.1,52.8,1.1s49.8,7.3,52.8-1.1
			C-3706.8,943.9-3731.8,933.2-3763,933.2z"/>
		<path class="st1" d="M-3641.6,806.5c-7.1,4.1-15.5,8.3-25.3,12c-13,4.9-25.4,7.2-34.4,8.6c-1,1.9-0.4,2.9-0.4,4.8
			c0,20,16.2,35.1,36.1,35.1c20,0,36.1-16.2,36.1-36.1C-3629.4,820.1-3634.2,811.3-3641.6,806.5z"/>
		<path class="st2" d="M-3717.7,828c0,0,22.3,1.3,50.8-9.5c31.7-12,49.8-29.6,49.8-29.6"/>
		<path class="st1" d="M-3884.4,806.5c7.1,4.1,15.5,8.3,25.3,12c13,4.9,25.4,7.2,34.4,8.6c1,1.9,0.4,2.9,0.4,4.8
			c0,20-16.2,35.1-36.1,35.1c-20,0-36.1-16.2-36.1-36.1C-3896.6,820.1-3891.8,811.3-3884.4,806.5z"/>
		<path class="st2" d="M-3808.3,828c0,0-22.3,1.3-50.8-9.5c-31.7-12-49.8-29.6-49.8-29.6"/>
	</g>
</g>
<g id="frame41">
	<circle class="st0" cx="-3250" cy="750" r="243"/>
	<g>
		<path class="st3" d="M-3250,933.2c-31.2,0-56.2,10.7-52.8,20.1c3,8.3,7.7,1.1,52.8,1.1s49.8,7.3,52.8-1.1
			C-3193.8,943.9-3218.8,933.2-3250,933.2z"/>
		<path class="st1" d="M-3128.6,806.5c-7.1,4.1-15.5,8.3-25.3,12c-13,4.9-25.4,7.2-34.4,8.6c-1,1.9-0.4,2.9-0.4,4.8
			c0,20,16.2,35.1,36.1,35.1c20,0,36.1-16.2,36.1-36.1C-3116.4,820.1-3121.2,811.3-3128.6,806.5z"/>
		<path class="st2" d="M-3204.7,828c0,0,22.3,1.3,50.8-9.5c31.7-12,49.8-29.6,49.8-29.6"/>
		<path class="st1" d="M-3371.4,806.5c7.1,4.1,15.5,8.3,25.3,12c13,4.9,25.4,7.2,34.4,8.6c1,1.9,0.4,2.9,0.4,4.8
			c0,20-16.2,35.1-36.1,35.1c-20,0-36.1-16.2-36.1-36.1C-3383.6,820.1-3378.8,811.3-3371.4,806.5z"/>
		<path class="st2" d="M-3295.3,828c0,0-22.3,1.3-50.8-9.5c-31.7-12-49.8-29.6-49.8-29.6"/>
	</g>
</g>
<g id="frame42">
	<circle class="st0" cx="-2750" cy="750" r="243"/>
	<g>
		<path class="st3" d="M-2736,933.2c-31.2,0-56.2,10.7-52.8,20.1c3,8.3,7.7,1.1,52.8,1.1s49.8,7.3,52.8-1.1
			C-2679.8,943.9-2704.8,933.2-2736,933.2z"/>
		<path class="st1" d="M-2614.6,806.5c-7.1,4.1-15.5,8.3-25.3,12c-13,4.9-25.4,7.2-34.4,8.6c-1,1.9-0.4,2.9-0.4,4.8
			c0,20,16.2,35.1,36.1,35.1c20,0,36.1-16.2,36.1-36.1C-2602.4,820.1-2607.2,811.3-2614.6,806.5z"/>
		<path class="st2" d="M-2690.7,828c0,0,22.3,1.3,50.8-9.5c31.7-12,49.8-29.6,49.8-29.6"/>
		<path class="st1" d="M-2857.4,806.5c7.1,4.1,15.5,8.3,25.3,12c13,4.9,25.4,7.2,34.4,8.6c1,1.9,0.4,2.9,0.4,4.8
			c0,20-16.2,35.1-36.1,35.1c-20,0-36.1-16.2-36.1-36.1C-2869.6,820.1-2864.8,811.3-2857.4,806.5z"/>
		<path class="st2" d="M-2781.3,828c0,0-22.3,1.3-50.8-9.5c-31.7-12-49.8-29.6-49.8-29.6"/>
	</g>
</g>
<g id="frame43">
	<circle class="st0" cx="-2250" cy="750" r="243"/>
	<g>
		<path class="st3" d="M-2242,933.2c-31.2,0-56.2,10.7-52.8,20.1c3,8.3,7.7,1.1,52.8,1.1s49.8,7.3,52.8-1.1
			C-2185.8,943.9-2210.8,933.2-2242,933.2z"/>
		<path class="st1" d="M-2120.6,806.5c-7.1,4.1-15.5,8.3-25.3,12c-13,4.9-25.4,7.2-34.4,8.6c-1,1.9-0.4,2.9-0.4,4.8
			c0,20,16.2,35.1,36.1,35.1c20,0,36.1-16.2,36.1-36.1C-2108.4,820.1-2113.2,811.3-2120.6,806.5z"/>
		<path class="st2" d="M-2196.7,828c0,0,22.3,1.3,50.8-9.5c31.7-12,49.8-29.6,49.8-29.6"/>
		<path class="st1" d="M-2363.4,806.5c7.1,4.1,15.5,8.3,25.3,12c13,4.9,25.4,7.2,34.4,8.6c1,1.9,0.4,2.9,0.4,4.8
			c0,20-16.2,35.1-36.1,35.1c-20,0-36.1-16.2-36.1-36.1C-2375.6,820.1-2370.8,811.3-2363.4,806.5z"/>
		<path class="st2" d="M-2287.3,828c0,0-22.3,1.3-50.8-9.5c-31.7-12-49.8-29.6-49.8-29.6"/>
	</g>
</g>
<g id="frame44">
	<circle class="st0" cx="-1750" cy="750" r="243"/>
	<g>
		<path class="st3" d="M-1749,933.2c-31.2,0-56.2,10.7-52.8,20.1c3,8.3,7.7,1.1,52.8,1.1s49.8,7.3,52.8-1.1
			C-1692.8,943.9-1717.8,933.2-1749,933.2z"/>
		<path class="st1" d="M-1627.6,806.5c-7.1,4.1-15.5,8.3-25.3,12c-13,4.9-25.4,7.2-34.4,8.6c-1,1.9-0.4,2.9-0.4,4.8
			c0,20,16.2,35.1,36.1,35.1c20,0,36.1-16.2,36.1-36.1C-1615.4,820.1-1620.2,811.3-1627.6,806.5z"/>
		<path class="st2" d="M-1703.7,828c0,0,22.3,1.3,50.8-9.5c31.7-12,49.8-29.6,49.8-29.6"/>
		<path class="st1" d="M-1870.4,806.5c7.1,4.1,15.5,8.3,25.3,12c13,4.9,25.4,7.2,34.4,8.6c1,1.9,0.4,2.9,0.4,4.8
			c0,20-16.2,35.1-36.1,35.1c-20,0-36.1-16.2-36.1-36.1C-1882.6,820.1-1877.8,811.3-1870.4,806.5z"/>
		<path class="st2" d="M-1794.3,828c0,0-22.3,1.3-50.8-9.5c-31.7-12-49.8-29.6-49.8-29.6"/>
	</g>
</g>
<g id="frame45">
	<circle class="st0" cx="-1250" cy="750" r="243"/>
	<g>
		<path class="st3" d="M-1249,933.2c-31.2,0-56.2,10.7-52.8,20.1c3,8.3,7.7,1.1,52.8,1.1s49.8,7.3,52.8-1.1
			C-1192.8,943.9-1217.8,933.2-1249,933.2z"/>
		<path class="st1" d="M-1127.6,806.5c-7.1,4.1-15.5,8.3-25.3,12c-13,4.9-25.4,7.2-34.4,8.6c-1,1.9-0.4,2.9-0.4,4.8
			c0,20,16.2,35.1,36.1,35.1c20,0,36.1-16.2,36.1-36.1C-1115.4,820.1-1120.2,811.3-1127.6,806.5z"/>
		<path class="st2" d="M-1203.7,828c0,0,22.3,1.3,50.8-9.5c31.7-12,49.8-29.6,49.8-29.6"/>
		<path class="st1" d="M-1370.4,806.5c7.1,4.1,15.5,8.3,25.3,12c13,4.9,25.4,7.2,34.4,8.6c1,1.9,0.4,2.9,0.4,4.8
			c0,20-16.2,35.1-36.1,35.1c-20,0-36.1-16.2-36.1-36.1C-1382.6,820.1-1377.8,811.3-1370.4,806.5z"/>
		<path class="st2" d="M-1294.3,828c0,0-22.3,1.3-50.8-9.5c-31.7-12-49.8-29.6-49.8-29.6"/>
	</g>
</g>
<g id="frame46">
	<circle class="st0" cx="-750" cy="750" r="243"/>
	<g>
		<path class="st3" d="M-749,933.2c-31.2,0-56.2,10.7-52.8,20.1c3,8.3,7.7,1.1,52.8,1.1s49.8,7.3,52.8-1.1
			C-692.8,943.9-717.8,933.2-749,933.2z"/>
		<path class="st1" d="M-627.6,806.5c-7.1,4.1-15.5,8.3-25.3,12c-13,4.9-25.4,7.2-34.4,8.6c-1,1.9-0.4,2.9-0.4,4.8
			c0,20,16.2,35.1,36.1,35.1c20,0,36.1-16.2,36.1-36.1C-615.4,820.1-620.2,811.3-627.6,806.5z"/>
		<path class="st2" d="M-703.7,828c0,0,22.3,1.3,50.8-9.5c31.7-12,49.8-29.6,49.8-29.6"/>
		<path class="st1" d="M-870.4,806.5c7.1,4.1,15.5,8.3,25.3,12c13,4.9,25.4,7.2,34.4,8.6c1,1.9,0.4,2.9,0.4,4.8
			c0,20-16.2,35.1-36.1,35.1c-20,0-36.1-16.2-36.1-36.1C-882.6,820.1-877.8,811.3-870.4,806.5z"/>
		<path class="st2" d="M-794.3,828c0,0-22.3,1.3-50.8-9.5c-31.7-12-49.8-29.6-49.8-29.6"/>
	</g>
</g>
<g id="frame47">
	<circle class="st0" cx="-250" cy="750" r="243"/>
	<g>
		<path class="st3" d="M-249,933.2c-31.2,0-56.2,10.7-52.8,20.1c3,8.3,7.7,1.1,52.8,1.1s49.8,7.3,52.8-1.1
			C-192.8,943.9-217.8,933.2-249,933.2z"/>
		<path class="st1" d="M-127.6,806.5c-7.1,4.1-15.5,8.3-25.3,12c-13,4.9-25.4,7.2-34.4,8.6c-1,1.9-0.4,2.9-0.4,4.8
			c0,20,16.2,35.1,36.1,35.1c20,0,36.1-16.2,36.1-36.1C-115.4,820.1-120.2,811.3-127.6,806.5z"/>
		<path class="st2" d="M-203.7,828c0,0,22.3,1.3,50.8-9.5c31.7-12,49.8-29.6,49.8-29.6"/>
		<path class="st1" d="M-370.4,806.5c7.1,4.1,15.5,8.3,25.3,12c13,4.9,25.4,7.2,34.4,8.6c1,1.9,0.4,2.9,0.4,4.8
			c0,20-16.2,35.1-36.1,35.1c-20,0-36.1-16.2-36.1-36.1C-382.6,820.1-377.8,811.3-370.4,806.5z"/>
		<path class="st2" d="M-294.3,828c0,0-22.3,1.3-50.8-9.5c-31.7-12-49.8-29.6-49.8-29.6"/>
	</g>
</g>
</svg>
