<?xml version="1.0" encoding="utf-8"?>
<svg version="1.1" id="graphics"
	class="animation"
	xmlns="http://www.w3.org/2000/svg"
	xmlns:xlink="http://www.w3.org/1999/xlink"
	x="0px" y="0px"
	data-frame="77"
	data-delay="0"
	data-looped="true"
	data-onover="false"
	data-reverse="false"
	data-direction="forward"
	viewBox="0 0 500 500"
	style="enable-background:new 0 0 500 500;"
	>
	<style> 	.st0{fill:#FFD56C;stroke:#020100;stroke-width:9;stroke-miterlimit:10;} 	.st1{fill:none;stroke:#000000;stroke-width:10;stroke-linecap:round;stroke-miterlimit:10;} 	.st2{fill:#5C9FF9;} 	.st3{fill:#5C9FF9;stroke:#000000;stroke-width:9;stroke-miterlimit:10;} 
</style>
<g class="animation__source">
<symbol id="frame01"> 	<circle class="st0" cx="250" cy="250" r="240.1"/> 	<circle class="st2" cx="358.9" cy="292.6" r="35"/> 	<path class="st1" d="M356.8,218.3c11,0,31.5-2.2,49,20.8"/> 	<circle class="st2" cx="141.1" cy="292.6" r="35"/> 	<path class="st1" d="M143.2,218.3c-11,0-31.5-2.2-49,20.8"/> 	<path class="st1" d="M318.9,424.1c-14.3-23.1-39.8-38.5-68.9-38.5s-54.7,15.4-68.9,38.5"/> </symbol><symbol id="frame02"> 	<circle class="st0" cx="250" cy="250" r="240.1"/> 	<circle class="st2" cx="358.9" cy="289.6" r="35"/> 	<path class="st1" d="M356.8,215.3c11,0,31.5-2.2,49,20.8"/> 	<circle class="st2" cx="141.1" cy="289.6" r="35"/> 	<path class="st1" d="M143.2,215.3c-11,0-31.5-2.2-49,20.8"/> 	<path class="st1" d="M318.9,421.1c-14.3-23.1-39.8-38.5-68.9-38.5s-54.7,15.4-68.9,38.5"/> 	<path class="st3" d="M368.5,374.3c-8.2-1.5-6.6-12.4-0.5-18l12.3-11.3l12.3,11.3c6.1,5.6,7.7,16.5-0.5,18 		c-3.1,0.6-6.9,0.9-11.8,0.9C375.4,375.2,371.6,374.9,368.5,374.3z"/> </symbol><symbol id="frame03"> 	<circle class="st0" cx="250" cy="250" r="240.1"/> 	<circle class="st2" cx="358.9" cy="289.6" r="35"/> 	<path class="st1" d="M356.8,215.3c11,0,31.5-2.2,49,20.8"/> 	<circle class="st2" cx="141.1" cy="289.6" r="35"/> 	<path class="st1" d="M143.2,215.3c-11,0-31.5-2.2-49,20.8"/> 	<path class="st1" d="M318.9,421.1c-14.3-23.1-39.8-38.5-68.9-38.5s-54.7,15.4-68.9,38.5"/> 	<path class="st3" d="M380.3,395.3c-13.6,0-24.2-12.9-18.4-25.2c7.8-16.5,18.4-38.4,18.4-38.4s10.5,21.9,18.4,38.4 		C404.5,382.3,393.9,395.3,380.3,395.3z"/> </symbol><symbol id="frame04"> 	<circle class="st0" cx="250" cy="250" r="240.1"/> 	<circle class="st2" cx="358.9" cy="284.6" r="35"/> 	<path class="st1" d="M356.8,210.3c11,0,31.5-2.2,49,20.8"/> 	<circle class="st2" cx="141.1" cy="284.6" r="35"/> 	<path class="st1" d="M143.2,210.3c-11,0-31.5-2.2-49,20.8"/> 	<path class="st1" d="M318.9,416.1c-14.3-23.1-39.8-38.5-68.9-38.5s-54.7,15.4-68.9,38.5"/> 	<path class="st3" d="M409,390.3c0,15.8-12.8,28.7-28.7,28.7c-15.8,0-28.7-12.8-28.7-28.7c0-15.8,28.7-71.6,28.7-71.6 		S409,374.4,409,390.3z"/> </symbol><symbol id="frame05"> 	<circle class="st0" cx="250" cy="250" r="240.1"/> 	<circle class="st2" cx="358.9" cy="282.6" r="35"/> 	<path class="st1" d="M356.8,208.3c11,0,31.5-2.2,49,20.8"/> 	<circle class="st2" cx="141.1" cy="282.6" r="35"/> 	<path class="st1" d="M143.2,208.3c-11,0-31.5-2.2-49,20.8"/> 	<path class="st1" d="M318.9,414.1c-14.3-23.1-39.8-38.5-68.9-38.5s-54.7,15.4-68.9,38.5"/> 	<path class="st3" d="M409,396.3c0,15.8-12.8,28.7-28.7,28.7c-15.8,0-28.7-12.8-28.7-28.7c0-15.8,28.7-77.6,28.7-77.6 		S409,380.4,409,396.3z"/> </symbol><symbol id="frame06"> 	<circle class="st0" cx="250" cy="250" r="240.1"/> 	<circle class="st2" cx="358.9" cy="280.6" r="35"/> 	<path class="st1" d="M356.8,206.3c11,0,31.5-2.2,49,20.8"/> 	<circle class="st2" cx="141.1" cy="280.6" r="35"/> 	<path class="st1" d="M143.2,206.3c-11,0-31.5-2.2-49,20.8"/> 	<path class="st1" d="M318.9,412.1c-14.3-23.1-39.8-38.5-68.9-38.5s-54.7,15.4-68.9,38.5"/> 	<path class="st3" d="M409,402.3c0,15.8-12.8,28.7-28.7,28.7c-15.8,0-28.7-12.8-28.7-28.7c0-15.8,28.7-77.6,28.7-77.6 		S409,386.4,409,402.3z"/> </symbol><symbol id="frame07"> 	<circle class="st0" cx="250" cy="250" r="240.1"/> 	<circle class="st2" cx="358.9" cy="280.6" r="35"/> 	<path class="st1" d="M356.8,206.3c11,0,31.5-2.2,49,20.8"/> 	<circle class="st2" cx="141.1" cy="280.6" r="35"/> 	<path class="st1" d="M143.2,206.3c-11,0-31.5-2.2-49,20.8"/> 	<path class="st1" d="M318.9,412.1c-14.3-23.1-39.8-38.5-68.9-38.5s-54.7,15.4-68.9,38.5"/> 	<path class="st3" d="M409,408.3c0,15.8-12.8,28.7-28.7,28.7c-15.8,0-28.7-12.8-28.7-28.7c0-15.8,28.7-77.6,28.7-77.6 		S409,392.4,409,408.3z"/> </symbol><symbol id="frame08"> 	<circle class="st0" cx="250" cy="250" r="240.1"/> 	<circle class="st2" cx="358.9" cy="276.6" r="35"/> 	<path class="st1" d="M356.8,202.3c11,0,31.5-2.2,49,20.8"/> 	<circle class="st2" cx="141.1" cy="276.6" r="35"/> 	<path class="st1" d="M143.2,202.3c-11,0-31.5-2.2-49,20.8"/> 	<path class="st1" d="M318.9,408.1c-14.3-23.1-39.8-38.5-68.9-38.5s-54.7,15.4-68.9,38.5"/> 	<path class="st3" d="M409,414.3c0,15.8-12.8,28.7-28.7,28.7c-15.8,0-28.7-12.8-28.7-28.7c0-15.8,28.7-77.6,28.7-77.6 		S409,398.4,409,414.3z"/> </symbol><symbol id="frame09"> 	<circle class="st0" cx="250" cy="250" r="240.1"/> 	<circle class="st2" cx="358.9" cy="273.6" r="35"/> 	<path class="st1" d="M356.8,199.3c11,0,31.5-2.2,49,20.8"/> 	<circle class="st2" cx="141.1" cy="273.6" r="35"/> 	<path class="st1" d="M143.2,199.3c-11,0-31.5-2.2-49,20.8"/> 	<path class="st1" d="M318.9,405.1c-14.3-23.1-39.8-38.5-68.9-38.5s-54.7,15.4-68.9,38.5"/> 	<path class="st3" d="M409,420.3c0,15.8-12.8,28.7-28.7,28.7c-15.8,0-28.7-12.8-28.7-28.7c0-15.8,28.7-77.6,28.7-77.6 		S409,404.4,409,420.3z"/> </symbol><symbol id="frame10"> 	<circle class="st0" cx="250" cy="250" r="240.1"/> 	<ellipse class="st2" cx="358.9" cy="273.6" rx="35" ry="26.2"/> 	<path class="st1" d="M356.8,199.3c11,0,31.5-2.2,49,20.8"/> 	<ellipse class="st2" cx="141.1" cy="273.6" rx="35" ry="26.2"/> 	<path class="st1" d="M143.2,199.3c-11,0-31.5-2.2-49,20.8"/> 	<path class="st1" d="M318.9,405.1c-14.3-23.1-39.8-38.5-68.9-38.5s-54.7,15.4-68.9,38.5"/> 	<path class="st3" d="M409,425.3c0,15.8-12.8,28.7-28.7,28.7c-15.8,0-28.7-12.8-28.7-28.7c0-15.8,28.7-77.6,28.7-77.6 		S409,409.4,409,425.3z"/> </symbol><symbol id="frame11"> 	<circle class="st0" cx="250" cy="250" r="240.1"/> 	<path class="st1" d="M356.8,196.3c11,0,31.5-2.2,49,20.8"/> 	<line class="st1" x1="106.1" y1="273.6" x2="176.1" y2="273.6"/> 	<line class="st1" x1="393.9" y1="273.6" x2="323.9" y2="273.6"/> 	<path class="st1" d="M143.2,196.3c-11,0-31.5-2.2-49,20.8"/> 	<path class="st1" d="M318.9,403.1c-14.3-23.1-39.8-38.5-68.9-38.5s-54.7,15.4-68.9,38.5"/> 	<path class="st3" d="M409,432.3c0,15.8-12.8,28.7-28.7,28.7c-15.8,0-28.7-12.8-28.7-28.7c0-15.8,28.7-77.6,28.7-77.6 		S409,416.4,409,432.3z"/> </symbol><symbol id="frame12"> 	<circle class="st0" cx="250" cy="250" r="240.1"/> 	<circle class="st0" cx="250" cy="250" r="240.1"/> 	<path class="st1" d="M356.8,193.3c11,0,31.5-2.2,49,20.8"/> 	<path class="st1" d="M143.2,193.3c-11,0-31.5-2.2-49,20.8"/> 	<path class="st1" d="M318.9,401.1c-14.3-23.1-39.8-38.5-68.9-38.5c-29.1,0-54.7,15.4-68.9,38.5"/> 	<ellipse class="st2" cx="358.9" cy="268.6" rx="35" ry="18.6"/> 	<ellipse class="st2" cx="141.1" cy="268.6" rx="35" ry="18.6"/> 	<path class="st3" d="M409,438.3c0,15.8-12.8,28.7-28.7,28.7c-15.8,0-28.7-12.8-28.7-28.7c0-15.8,28.7-77.6,28.7-77.6 		S409,422.4,409,438.3z"/> </symbol><symbol id="frame13"> 	<circle class="st0" cx="250" cy="250" r="240.1"/> 	<path class="st3" d="M409,443.3c0,15.8-12.8,28.7-28.7,28.7c-15.8,0-28.7-12.8-28.7-28.7c0-15.8,28.7-77.6,28.7-77.6 		S409,427.4,409,443.3z"/> 	<path class="st1" d="M356.8,193.3c11,0,31.5-2.2,49,20.8"/> 	<path class="st1" d="M143.2,193.3c-11,0-31.5-2.2-49,20.8"/> 	<path class="st1" d="M318.9,400.1c-14.3-23.1-39.8-38.5-68.9-38.5c-29.1,0-54.7,15.4-68.9,38.5"/> 	<circle class="st2" cx="358.9" cy="266.6" r="35"/> 	<circle class="st2" cx="141.1" cy="266.6" r="35"/> </symbol><symbol id="frame14"> 	<circle class="st0" cx="250" cy="250" r="240.1"/> 	<path class="st3" d="M409,452.3c0,15.8-12.8,28.7-28.7,28.7c-15.8,0-28.7-12.8-28.7-28.7c0-15.8,28.7-77.6,28.7-77.6 		S409,436.4,409,452.3z"/> 	<path class="st1" d="M356.8,191.3c11,0,31.5-2.2,49,20.8"/> 	<path class="st1" d="M143.2,191.3c-11,0-31.5-2.2-49,20.8"/> 	<path class="st1" d="M318.9,398.1c-14.3-23.1-39.8-38.5-68.9-38.5s-54.7,15.4-68.9,38.5"/> 	<circle class="st2" cx="358.9" cy="264.6" r="35"/> 	<circle class="st2" cx="141.1" cy="264.6" r="35"/> </symbol><symbol id="frame15"> 	<circle class="st0" cx="250" cy="250" r="240.1"/> 	<path class="st3" d="M409,457.3c0,15.8-12.8,28.7-28.7,28.7c-15.8,0-28.7-12.8-28.7-28.7c0-15.8,28.7-77.6,28.7-77.6 		S409,441.4,409,457.3z"/> 	<path class="st1" d="M356.8,191.3c11,0,31.5-2.2,49,20.8"/> 	<path class="st1" d="M143.2,191.3c-11,0-31.5-2.2-49,20.8"/> 	<path class="st1" d="M318.9,396.1c-14.3-23.1-39.8-38.5-68.9-38.5s-54.7,15.4-68.9,38.5"/> 	<circle class="st2" cx="358.9" cy="264.6" r="35"/> 	<circle class="st2" cx="141.1" cy="264.6" r="35"/> </symbol><symbol id="frame16"> 	<circle class="st0" cx="250" cy="250" r="240.1"/> 	<path class="st3" d="M409,462.3c0,15.8-12.8,28.7-28.7,28.7c-15.8,0-28.7-12.8-28.7-28.7c0-15.8,28.7-75.6,28.7-75.6 		S409,446.4,409,462.3z"/> 	<path class="st1" d="M356.8,191.3c11,0,31.5-2.2,49,20.8"/> 	<path class="st1" d="M143.2,191.3c-11,0-31.5-2.2-49,20.8"/> 	<path class="st1" d="M318.9,396.1c-14.3-23.1-39.8-38.5-68.9-38.5s-54.7,15.4-68.9,38.5"/> 	<circle class="st2" cx="358.9" cy="264.6" r="35"/> 	<circle class="st2" cx="141.1" cy="264.6" r="35"/> </symbol><symbol id="frame17"> 	<circle class="st0" cx="250" cy="250" r="240.1"/> 	<path class="st3" d="M409,466.3c0,15.8-12.8,28.7-28.7,28.7c-15.8,0-28.7-12.8-28.7-28.7c0-15.8,28.7-71.6,28.7-71.6 		S409,450.4,409,466.3z"/> 	<path class="st1" d="M356.8,191.3c11,0,31.5-2.2,49,20.8"/> 	<path class="st1" d="M143.2,191.3c-11,0-31.5-2.2-49,20.8"/> 	<path class="st1" d="M318.9,398.1c-14.3-23.1-39.8-38.5-68.9-38.5s-54.7,15.4-68.9,38.5"/> 	<circle class="st2" cx="358.9" cy="264.6" r="35"/> 	<circle class="st2" cx="141.1" cy="264.6" r="35"/> </symbol><symbol id="frame18"> 	<circle class="st0" cx="250" cy="250" r="240.1"/> 	<path class="st1" d="M356.8,194.3c11,0,31.5-2.2,49,20.8"/> 	<path class="st1" d="M143.2,194.3c-11,0-31.5-2.2-49,20.8"/> 	<path class="st1" d="M318.9,398.1c-14.3-23.1-39.8-38.5-68.9-38.5s-54.7,15.4-68.9,38.5"/> 	<circle class="st2" cx="358.9" cy="267.6" r="35"/> 	<circle class="st2" cx="141.1" cy="267.6" r="35"/> 	<path class="st3" d="M380.3,486.7c-13.6,0-24.2-12.9-18.4-25.2c7.8-16.5,18.4-38.4,18.4-38.4s10.5,21.9,18.4,38.4 		C404.5,473.8,393.9,486.7,380.3,486.7z"/> 	<path class="st3" d="M131.5,355.6c8.2-1.1,6.6-3.3,0.5-7.4l-12.3-8.4l-12.3,8.4c-6.1,4.2-7.7,6.3,0.5,7.4c3.1,0.4,6.9,0.7,11.8,0.7 		C124.6,356.2,128.4,356,131.5,355.6z"/> </symbol><symbol id="frame19"> 	<circle class="st0" cx="250" cy="250" r="240.1"/> 	<path class="st3" d="M118.7,377.3c-13.6,0-24.2-12.9-18.4-25.2c7.8-16.5,18.4-26.4,18.4-26.4s10.5,9.9,18.4,26.4 		C142.9,364.4,132.2,377.3,118.7,377.3z"/> 	<path class="st3" d="M392.2,470.7c8.2-1.1,6.6-3.3,0.5-7.4l-12.3-8.4l-12.3,8.4c-6.1,4.2-7.7,6.3,0.5,7.4c3.1,0.4,6.9,0.7,11.8,0.7 		C385.2,471.4,389.1,471.1,392.2,470.7z"/> 	<path class="st1" d="M356.8,197.3c11,0,31.5-2.2,49,20.8"/> 	<path class="st1" d="M143.2,197.3c-11,0-31.5-2.2-49,20.8"/> 	<path class="st1" d="M318.9,401.1c-14.3-23.1-39.8-38.5-68.9-38.5s-54.7,15.4-68.9,38.5"/> 	<circle class="st2" cx="358.9" cy="270.6" r="35"/> 	<circle class="st2" cx="141.1" cy="270.6" r="35"/> </symbol><symbol id="frame20"> 	<circle class="st0" cx="250" cy="250" r="240.1"/> 	<path class="st3" d="M147.3,377.2c0,15.8-12.8,28.7-28.7,28.7c-15.8,0-28.7-12.8-28.7-28.7c0-15.8,28.7-71.6,28.7-71.6 		S147.3,361.3,147.3,377.2z"/> 	<path class="st1" d="M318.9,405.1c-14.3-23.1-39.8-38.5-68.9-38.5s-54.7,15.4-68.9,38.5"/> 	<circle class="st2" cx="358.9" cy="272.6" r="35"/> 	<circle class="st2" cx="141.1" cy="272.6" r="35"/> 	<path class="st1" d="M356.8,197.3c11,0,31.5-2.2,49,20.8"/> 	<path class="st1" d="M143.2,197.3c-11,0-31.5-2.2-49,20.8"/> </symbol><symbol id="frame21"> 	<circle class="st0" cx="250" cy="250" r="240.1"/> 	<path class="st3" d="M147.3,380.2c0,15.8-12.8,28.7-28.7,28.7c-15.8,0-28.7-12.8-28.7-28.7c0-15.8,28.7-71.6,28.7-71.6 		S147.3,364.3,147.3,380.2z"/> 	<path class="st1" d="M318.9,408.1c-14.3-23.1-39.8-38.5-68.9-38.5s-54.7,15.4-68.9,38.5"/> 	<circle class="st2" cx="358.9" cy="275.6" r="35"/> 	<circle class="st2" cx="141.1" cy="275.6" r="35"/> 	<path class="st1" d="M356.8,200.3c11,0,31.5-2.2,49,20.8"/> 	<path class="st1" d="M143.2,200.3c-11,0-31.5-2.2-49,20.8"/> </symbol><symbol id="frame22"> 	<circle class="st0" cx="250" cy="250" r="240.1"/> 	<path class="st3" d="M147.3,383.2c0,15.8-12.8,28.7-28.7,28.7c-15.8,0-28.7-12.8-28.7-28.7c0-15.8,28.7-71.6,28.7-71.6 		S147.3,367.3,147.3,383.2z"/> 	<path class="st1" d="M318.9,411.1c-14.3-23.1-39.8-38.5-68.9-38.5s-54.7,15.4-68.9,38.5"/> 	<circle class="st2" cx="358.9" cy="278.6" r="35"/> 	<circle class="st2" cx="141.1" cy="278.6" r="35"/> 	<path class="st1" d="M356.8,203.3c11,0,31.5-2.2,49,20.8"/> 	<path class="st1" d="M143.2,203.3c-11,0-31.5-2.2-49,20.8"/> </symbol><symbol id="frame23"> 	<circle class="st0" cx="250" cy="250" r="240.1"/> 	<path class="st3" d="M147.3,391.2c0,15.8-12.8,28.7-28.7,28.7c-15.8,0-28.7-12.8-28.7-28.7c0-15.8,28.7-71.6,28.7-71.6 		S147.3,375.3,147.3,391.2z"/> 	<path class="st1" d="M318.9,413.1c-14.3-23.1-39.8-38.5-68.9-38.5s-54.7,15.4-68.9,38.5"/> 	<circle class="st2" cx="358.9" cy="280.6" r="35"/> 	<circle class="st2" cx="141.1" cy="280.6" r="35"/> 	<path class="st1" d="M356.8,205.3c11,0,31.5-2.2,49,20.8"/> 	<path class="st1" d="M143.2,205.3c-11,0-31.5-2.2-49,20.8"/> </symbol><symbol id="frame24"> 	<circle class="st0" cx="250" cy="250" r="240.1"/> 	<path class="st1" d="M318.9,416.1c-14.3-23.1-39.8-38.5-68.9-38.5s-54.7,15.4-68.9,38.5"/> 	<circle class="st2" cx="358.9" cy="283.6" r="35"/> 	<circle class="st2" cx="141.1" cy="283.6" r="35"/> 	<path class="st1" d="M356.8,208.3c11,0,31.5-2.2,49,20.8"/> 	<path class="st1" d="M143.2,208.3c-11,0-31.5-2.2-49,20.8"/> 	<path class="st3" d="M147.3,399.2c0,15.8-12.8,28.7-28.7,28.7c-15.8,0-28.7-12.8-28.7-28.7c0-15.8,28.7-71.6,28.7-71.6 		S147.3,383.3,147.3,399.2z"/> </symbol><symbol id="frame25"> 	<circle class="st0" cx="250" cy="250" r="240.1"/> 	<path class="st1" d="M318.9,416.1c-14.3-23.1-39.8-38.5-68.9-38.5s-54.7,15.4-68.9,38.5"/> 	<circle class="st2" cx="358.9" cy="286.6" r="35"/> 	<circle class="st2" cx="141.1" cy="286.6" r="35"/> 	<path class="st1" d="M356.8,211.3c11,0,31.5-2.2,49,20.8"/> 	<path class="st1" d="M143.2,211.3c-11,0-31.5-2.2-49,20.8"/> 	<path class="st3" d="M147.3,406.2c0,15.8-12.8,28.7-28.7,28.7c-15.8,0-28.7-12.8-28.7-28.7c0-15.8,28.7-71.6,28.7-71.6 		S147.3,390.3,147.3,406.2z"/> </symbol><symbol id="frame26"> 	<circle class="st0" cx="250" cy="250" r="240.1"/> 	<path class="st1" d="M318.9,418.1c-14.3-23.1-39.8-38.5-68.9-38.5s-54.7,15.4-68.9,38.5"/> 	<circle class="st2" cx="358.9" cy="288.6" r="35"/> 	<circle class="st2" cx="141.1" cy="288.6" r="35"/> 	<path class="st1" d="M356.8,213.3c11,0,31.5-2.2,49,20.8"/> 	<path class="st1" d="M143.2,213.3c-11,0-31.5-2.2-49,20.8"/> 	<path class="st3" d="M147.3,412.2c0,15.8-12.8,28.7-28.7,28.7c-15.8,0-28.7-12.8-28.7-28.7c0-15.8,28.7-71.6,28.7-71.6 		S147.3,396.3,147.3,412.2z"/> </symbol><symbol id="frame27"> 	<circle class="st0" cx="250" cy="250" r="240.1"/> 	<path class="st1" d="M318.9,420.1c-14.3-23.1-39.8-38.5-68.9-38.5s-54.7,15.4-68.9,38.5"/> 	<circle class="st2" cx="358.9" cy="290.6" r="35"/> 	<circle class="st2" cx="141.1" cy="290.6" r="35"/> 	<path class="st1" d="M356.8,215.3c11,0,31.5-2.2,49,20.8"/> 	<path class="st1" d="M143.2,215.3c-11,0-31.5-2.2-49,20.8"/> 	<path class="st3" d="M147.3,421.2c0,15.8-12.8,28.7-28.7,28.7c-15.8,0-28.7-12.8-28.7-28.7c0-15.8,28.7-71.6,28.7-71.6 		S147.3,405.3,147.3,421.2z"/> </symbol><symbol id="frame28"> 	<circle class="st0" cx="250" cy="250" r="240.1"/> 	<path class="st1" d="M318.9,423.1c-14.3-23.1-39.8-38.5-68.9-38.5s-54.7,15.4-68.9,38.5"/> 	<circle class="st2" cx="358.9" cy="290.6" r="35"/> 	<circle class="st2" cx="141.1" cy="290.6" r="35"/> 	<path class="st1" d="M356.8,215.3c11,0,31.5-2.2,49,20.8"/> 	<path class="st1" d="M143.2,215.3c-11,0-31.5-2.2-49,20.8"/> 	<path class="st3" d="M147.3,428.2c0,15.8-12.8,28.7-28.7,28.7c-15.8,0-28.7-12.8-28.7-28.7c0-15.8,28.7-71.6,28.7-71.6 		S147.3,412.3,147.3,428.2z"/> </symbol><symbol id="frame29"> 	<circle class="st0" cx="250" cy="250" r="240.1"/> 	<path class="st1" d="M318.9,423.1c-14.3-23.1-39.8-38.5-68.9-38.5s-54.7,15.4-68.9,38.5"/> 	<circle class="st2" cx="358.9" cy="290.6" r="35"/> 	<circle class="st2" cx="141.1" cy="290.6" r="35"/> 	<path class="st1" d="M356.8,215.3c11,0,31.5-2.2,49,20.8"/> 	<path class="st1" d="M143.2,215.3c-11,0-31.5-2.2-49,20.8"/> 	<path class="st3" d="M147.3,435.2c0,15.8-12.8,28.7-28.7,28.7c-15.8,0-28.7-12.8-28.7-28.7c0-15.8,28.7-71.6,28.7-71.6 		S147.3,419.3,147.3,435.2z"/> </symbol><symbol id="frame30"> 	<circle class="st0" cx="250" cy="250" r="240.1"/> 	<path class="st1" d="M318.9,423.1c-14.3-23.1-39.8-38.5-68.9-38.5s-54.7,15.4-68.9,38.5"/> 	<circle class="st2" cx="358.9" cy="290.6" r="35"/> 	<circle class="st2" cx="141.1" cy="290.6" r="35"/> 	<path class="st1" d="M356.8,215.3c11,0,31.5-2.2,49,20.8"/> 	<path class="st1" d="M143.2,215.3c-11,0-31.5-2.2-49,20.8"/> 	<path class="st3" d="M147.3,443.2c0,15.8-12.8,28.7-28.7,28.7c-15.8,0-28.7-12.8-28.7-28.7c0-15.8,28.7-71.6,28.7-71.6 		S147.3,427.3,147.3,443.2z"/> </symbol><symbol id="frame31"> 	<circle class="st0" cx="250" cy="250" r="240.1"/> 	<path class="st1" d="M318.9,418.1c-14.3-23.1-39.8-38.5-68.9-38.5s-54.7,15.4-68.9,38.5"/> 	<circle class="st2" cx="358.9" cy="285.6" r="35"/> 	<circle class="st2" cx="141.1" cy="285.6" r="35"/> 	<path class="st1" d="M356.8,210.3c11,0,31.5-2.2,49,20.8"/> 	<path class="st1" d="M143.2,210.3c-11,0-31.5-2.2-49,20.8"/> 	<path class="st3" d="M147.3,451.2c0,15.8-12.8,28.7-28.7,28.7c-15.8,0-28.7-12.8-28.7-28.7c0-15.8,28.7-71.6,28.7-71.6 		S147.3,435.3,147.3,451.2z"/> </symbol><symbol id="frame32"> 	<circle class="st0" cx="250" cy="250" r="240.1"/> 	<path class="st1" d="M318.9,408.1c-14.3-23.1-39.8-38.5-68.9-38.5s-54.7,15.4-68.9,38.5"/> 	<circle class="st2" cx="358.9" cy="275.6" r="35"/> 	<circle class="st2" cx="141.1" cy="275.6" r="35"/> 	<path class="st1" d="M147.5,200.3c-11-0.5-31.4-3.7-49.9,18.4"/> 	<path class="st1" d="M352.5,200.3c11-0.5,31.4-3.7,49.9,18.4"/> 	<path class="st3" d="M147.3,457.2c0,15.8-12.8,28.7-28.7,28.7c-15.8,0-28.7-12.8-28.7-28.7c0-15.8,28.7-71.6,28.7-71.6 		S147.3,441.3,147.3,457.2z"/> </symbol><symbol id="frame33"> 	<circle class="st0" cx="250" cy="250" r="240.1"/> 	<path class="st1" d="M318.9,397.1c-14.3-23.1-39.8-38.5-68.9-38.5s-54.7,15.4-68.9,38.5"/> 	<circle class="st2" cx="358.9" cy="264.6" r="35"/> 	<circle class="st2" cx="141.1" cy="264.6" r="35"/> 	<path class="st3" d="M147.3,464.2c0,15.8-12.8,28.7-28.7,28.7c-15.8,0-28.7-12.8-28.7-28.7c0-15.8,28.7-71.6,28.7-71.6 		S147.3,448.3,147.3,464.2z"/> 	<path class="st1" d="M151.7,189.5c-10.9-1.5-30.9-6.5-51.4,13.8"/> 	<path class="st1" d="M348.3,189.5c10.9-1.5,30.9-6.5,51.4,13.8"/> </symbol><symbol id="frame34"> 	<circle class="st0" cx="250" cy="250" r="240.1"/> 	<path class="st1" d="M312.9,385.2c-13-23.1-36.3-38.5-62.9-38.5c-26.6,0-49.9,15.4-62.9,38.5"/> 	<ellipse class="st2" cx="358.9" cy="253.6" rx="35" ry="16"/> 	<ellipse class="st2" cx="141.1" cy="253.6" rx="35" ry="16"/> 	<path class="st3" d="M147.3,464.2c0,15.8-12.8,28.7-28.7,28.7c-15.8,0-28.7-12.8-28.7-28.7c0-15.8,28.7-55.6,28.7-55.6 		S147.3,448.3,147.3,464.2z"/> 	<path class="st1" d="M157.5,176.5c-10.8-2.1-30.5-8.1-52,11.3"/> 	<path class="st1" d="M342.5,176.5c10.8-2.1,30.5-8.1,52,11.3"/> </symbol><symbol id="frame35"> 	<circle class="st0" cx="250" cy="250" r="240.1"/> 	<path class="st1" d="M312.9,375.2c-13-23.1-36.3-38.5-62.9-38.5c-26.6,0-49.9,15.4-62.9,38.5"/> 	<ellipse class="st2" cx="358.9" cy="243.6" rx="35" ry="16"/> 	<ellipse class="st2" cx="141.1" cy="243.6" rx="35" ry="16"/> 	<path class="st1" d="M163,165.5c-10.7-2.7-30-9.9-52.6,8.1"/> 	<path class="st1" d="M337,165.5c10.7-2.7,30-9.9,52.6,8.1"/> 	<path class="st3" d="M106.8,475.6c-8.2-1.5-6.6-13.4-0.5-19l12.3-15.3l12.3,15.3c6.1,5.6,7.7,17.5-0.5,19 		c-3.1,0.6-6.9,0.9-11.8,0.9C113.8,476.5,109.9,476.2,106.8,475.6z"/> </symbol><symbol id="frame36"> 	<circle class="st0" cx="250" cy="250" r="240.1"/> 	<path class="st1" d="M310.3,368.2c-12.5-23.1-34.8-38.5-60.3-38.5c-25.5,0-47.8,15.4-60.3,38.5"/> 	<path class="st1" d="M163,156.5c-10.7-2.7-30-9.9-52.6,8.1"/> 	<path class="st1" d="M337,156.5c10.7-2.7,30-9.9,52.6,8.1"/> 	<circle class="st2" cx="358.9" cy="236.6" r="35"/> 	<circle class="st2" cx="141.1" cy="236.6" r="35"/> 	<line class="st3" x1="104.3" y1="467" x2="133.1" y2="467"/> </symbol><symbol id="frame37"> 	<circle class="st0" cx="250" cy="250" r="240.1"/> 	<path class="st1" d="M305.3,356.2c-11.4-20.7-31.9-34.5-55.3-34.5c-23.4,0-43.8,13.8-55.3,34.5"/> 	<path class="st1" d="M171,148.5c-10.5-3.4-29.2-11.9-53,4.5"/> 	<path class="st1" d="M329,148.5c10.5-3.4,29.2-11.9,53,4.5"/> 	<circle class="st2" cx="358.9" cy="228.6" r="35"/> 	<circle class="st2" cx="141.1" cy="228.6" r="35"/> </symbol><symbol id="frame38"> 	<circle class="st0" cx="250" cy="250" r="240.1"/> 	<path class="st1" d="M300.3,346.7c-10.4-17.4-29-29-50.3-29c-21.2,0-39.9,11.6-50.3,29"/> 	<path class="st1" d="M171,144.5c-10.5-3.4-29.2-11.9-53,4.5"/> 	<path class="st1" d="M329,144.5c10.5-3.4,29.2-11.9,53,4.5"/> 	<circle class="st2" cx="358.9" cy="224.6" r="35"/> 	<circle class="st2" cx="141.1" cy="224.6" r="35"/> </symbol><symbol id="frame39"> 	<circle class="st0" cx="250" cy="250" r="240.1"/> 	<path class="st1" d="M300.3,343.7c-10.4-17.4-29-29-50.3-29c-21.2,0-39.9,11.6-50.3,29"/> 	<path class="st1" d="M171,141.5c-10.5-3.4-29.2-11.9-53,4.5"/> 	<path class="st1" d="M329,141.5c10.5-3.4,29.2-11.9,53,4.5"/> 	<circle class="st2" cx="358.9" cy="221.6" r="35"/> 	<circle class="st2" cx="141.1" cy="221.6" r="35"/> </symbol><symbol id="frame40"> 	<circle class="st0" cx="250" cy="250" r="240.1"/> 	<path class="st1" d="M293.8,338.7c-9.1-14.4-25.3-24-43.8-24c-18.5,0-34.7,9.6-43.8,24"/> 	<path class="st1" d="M171,140.5c-10.5-3.4-29.2-11.9-53,4.5"/> 	<path class="st1" d="M329,140.5c10.5-3.4,29.2-11.9,53,4.5"/> 	<circle class="st2" cx="358.9" cy="221.6" r="35"/> 	<circle class="st2" cx="141.1" cy="221.6" r="35"/> </symbol><symbol id="frame41"> 	<circle class="st0" cx="250" cy="250" r="240.1"/> 	<path class="st1" d="M289.8,338.7c-8.2-14.4-23-24-39.8-24c-16.8,0-31.5,9.6-39.8,24"/> 	<path class="st1" d="M171,143.5c-10.5-3.4-29.2-11.9-53,4.5"/> 	<path class="st1" d="M329,143.5c10.5-3.4,29.2-11.9,53,4.5"/> 	<circle class="st2" cx="358.9" cy="223.6" r="35"/> 	<circle class="st2" cx="141.1" cy="223.6" r="35"/> </symbol><symbol id="frame42"> 	<circle class="st0" cx="250" cy="250" r="240.1"/> 	<path class="st1" d="M286.7,337.8c-7.6-13.3-21.2-22.1-36.7-22.1c-15.5,0-29.1,8.9-36.7,22.1"/> 	<path class="st1" d="M171,145.5c-10.5-3.4-29.2-11.9-53,4.5"/> 	<path class="st1" d="M329,145.5c10.5-3.4,29.2-11.9,53,4.5"/> 	<circle class="st2" cx="358.9" cy="225.6" r="35"/> 	<circle class="st2" cx="141.1" cy="225.6" r="35"/> </symbol><symbol id="frame43"> 	<circle class="st0" cx="250" cy="250" r="240.1"/> 	<path class="st1" d="M286.7,340.8c-7.6-13.3-21.2-22.1-36.7-22.1c-15.5,0-29.1,8.9-36.7,22.1"/> 	<path class="st1" d="M171,148.5c-10.5-3.4-29.2-11.9-53,4.5"/> 	<path class="st1" d="M329,148.5c10.5-3.4,29.2-11.9,53,4.5"/> 	<circle class="st2" cx="358.9" cy="228.6" r="35"/> 	<circle class="st2" cx="141.1" cy="228.6" r="35"/> </symbol><symbol id="frame44"> 	<circle class="st0" cx="250" cy="250" r="240.1"/> 	<path class="st1" d="M286.7,345.8c-7.6-13.3-21.2-22.1-36.7-22.1c-15.5,0-29.1,8.9-36.7,22.1"/> 	<path class="st1" d="M171,151.5c-10.5-3.4-29.2-11.9-53,4.5"/> 	<path class="st1" d="M329,151.5c10.5-3.4,29.2-11.9,53,4.5"/> 	<circle class="st2" cx="358.9" cy="231.6" r="35"/> 	<circle class="st2" cx="141.1" cy="231.6" r="35"/> </symbol><symbol id="frame45"> 	<circle class="st0" cx="250" cy="250" r="240.1"/> 	<path class="st1" d="M286.7,349.8c-7.6-13.3-21.2-22.1-36.7-22.1c-15.5,0-29.1,8.9-36.7,22.1"/> 	<path class="st1" d="M171,155.5c-10.5-3.4-29.2-11.9-53,4.5"/> 	<path class="st1" d="M329,155.5c10.5-3.4,29.2-11.9,53,4.5"/> 	<circle class="st2" cx="358.9" cy="235.6" r="35"/> 	<circle class="st2" cx="141.1" cy="235.6" r="35"/> </symbol><symbol id="frame46"> 	<circle class="st0" cx="250" cy="250" r="240.1"/> 	<path class="st1" d="M286.7,355.8c-7.6-13.3-21.2-22.1-36.7-22.1c-15.5,0-29.1,8.9-36.7,22.1"/> 	<path class="st1" d="M171,161.5c-10.5-3.4-29.2-11.9-53,4.5"/> 	<path class="st1" d="M329,161.5c10.5-3.4,29.2-11.9,53,4.5"/> 	<circle class="st2" cx="358.9" cy="241.6" r="35"/> 	<circle class="st2" cx="141.1" cy="241.6" r="35"/> </symbol><symbol id="frame47"> 	<circle class="st0" cx="250" cy="250" r="240.1"/> 	<path class="st1" d="M286.7,360.8c-7.6-13.3-21.2-22.1-36.7-22.1c-15.5,0-29.1,8.9-36.7,22.1"/> 	<path class="st1" d="M171,166.5c-10.5-3.4-29.2-11.9-53,4.5"/> 	<path class="st1" d="M329,166.5c10.5-3.4,29.2-11.9,53,4.5"/> 	<circle class="st2" cx="358.9" cy="246.6" r="35"/> 	<circle class="st2" cx="141.1" cy="246.6" r="35"/> </symbol><symbol id="frame48"> 	<circle class="st0" cx="250" cy="250" r="240.1"/> 	<path class="st1" d="M293.2,367.8c-8.9-13.3-25-22.1-43.2-22.1c-18.3,0-34.3,8.9-43.2,22.1"/> 	<path class="st1" d="M168,173.5c-10.5-3.4-29.2-11.9-53,4.5"/> 	<path class="st1" d="M332,173.5c10.5-3.4,29.2-11.9,53,4.5"/> 	<circle class="st2" cx="358.9" cy="251.6" r="35"/> 	<circle class="st2" cx="141.1" cy="251.6" r="35"/> </symbol><symbol id="frame49"> 	<circle class="st0" cx="250" cy="250" r="240.1"/> 	<path class="st1" d="M298.6,379.4c-10.1-16.1-28-26.8-48.6-26.8c-20.5,0-38.5,10.7-48.6,26.8"/> 	<path class="st1" d="M164,181.5c-10.5-3.4-29.2-11.9-53,4.5"/> 	<path class="st1" d="M336,181.5c10.5-3.4,29.2-11.9,53,4.5"/> 	<circle class="st2" cx="358.9" cy="258.6" r="35"/> 	<circle class="st2" cx="141.1" cy="258.6" r="35"/> </symbol><symbol id="frame50"> 	<circle class="st0" cx="250" cy="250" r="240.1"/> 	<path class="st1" d="M301.9,385.4c-10.7-16.1-30-26.8-51.9-26.8s-41.2,10.7-51.9,26.8"/> 	<path class="st1" d="M159,187.5c-10.8-2-30.6-7.9-52,11.6"/> 	<path class="st1" d="M341,187.5c10.8-2,30.6-7.9,52,11.6"/> 	<circle class="st2" cx="358.9" cy="264.6" r="35"/> 	<circle class="st2" cx="141.1" cy="264.6" r="35"/> </symbol><symbol id="frame51"> 	<circle class="st0" cx="250" cy="250" r="240.1"/> 	<path class="st1" d="M307.2,397.4c-11.8-19.7-33-32.8-57.2-32.8s-45.4,13.1-57.2,32.8"/> 	<path class="st1" d="M155,193.5c-10.8-2-30.6-7.9-52,11.6"/> 	<path class="st1" d="M345,193.5c10.8-2,30.6-7.9,52,11.6"/> 	<circle class="st2" cx="358.9" cy="270.6" r="35"/> 	<circle class="st2" cx="141.1" cy="270.6" r="35"/> </symbol><symbol id="frame52"> 	<circle class="st0" cx="250" cy="250" r="240.1"/> 	<path class="st1" d="M311.2,403.4c-12.7-19.7-35.3-32.8-61.2-32.8c-25.9,0-48.6,13.1-61.2,32.8"/> 	<path class="st1" d="M152,200.5c-11-0.8-31.2-4.6-50.5,16.9"/> 	<path class="st1" d="M348,200.5c11-0.8,31.2-4.6,50.5,16.9"/> 	<circle class="st2" cx="358.9" cy="276.6" r="35"/> 	<circle class="st2" cx="141.1" cy="276.6" r="35"/> </symbol><symbol id="frame53"> 	<circle class="st0" cx="250" cy="250" r="240.1"/> 	<path class="st1" d="M316.7,414.9c-13.8-23.6-38.5-39.3-66.7-39.3c-28.2,0-52.9,15.7-66.7,39.3"/> 	<path class="st1" d="M149,206.5c-11-0.8-31.2-4.6-50.5,16.9"/> 	<path class="st1" d="M351,206.5c11-0.8,31.2-4.6,50.5,16.9"/> 	<circle class="st2" cx="358.9" cy="281.6" r="35"/> 	<circle class="st2" cx="141.1" cy="281.6" r="35"/> </symbol><symbol id="frame54"> 	<circle class="st0" cx="250" cy="250" r="240.1"/> 	<path class="st1" d="M318.3,419.9c-14.1-23.6-39.4-39.3-68.3-39.3c-28.9,0-54.2,15.7-68.3,39.3"/> 	<path class="st1" d="M146,212.5c-11-0.8-31.2-4.6-50.5,16.9"/> 	<path class="st1" d="M354,212.5c11-0.8,31.2-4.6,50.5,16.9"/> 	<circle class="st2" cx="358.9" cy="286.6" r="35"/> 	<circle class="st2" cx="141.1" cy="286.6" r="35"/> </symbol><symbol id="frame55"> 	<circle class="st0" cx="250" cy="250" r="240.1"/> 	<path class="st1" d="M318.3,422.9c-14.1-23.6-39.4-39.3-68.3-39.3c-28.9,0-54.2,15.7-68.3,39.3"/> 	<path class="st1" d="M146,215.5c-11-0.8-31.2-4.6-50.5,16.9"/> 	<path class="st1" d="M354,215.5c11-0.8,31.2-4.6,50.5,16.9"/> 	<circle class="st2" cx="358.9" cy="289.6" r="35"/> 	<circle class="st2" cx="141.1" cy="289.6" r="35"/> </symbol>
</g>
<g class="animation__scene">
	<use xmlns:xlink="http://www.w3.org/1999/xlink" xlink:href="#frame01"/>
</g><script type="application/javascript">
	<![CDATA[

	(function(exportType) {
	  var SVGlib = {
	    utils: {
	      loadDoc: function(url, callback) {
	        var xhttp = new XMLHttpRequest();
	          xhttp.onreadystatechange = function() {
	            if (xhttp.readyState == 4 && xhttp.status == 200) {
	              callback.call(null, xhttp);
	            }
	          };
	          xhttp.open("GET", url, true);
	          xhttp.send();
	      },
	      ready: function(fn) {
	        if (document.readyState != 'loading'){
	          fn();
	        } else {
	          document.addEventListener('DOMContentLoaded', fn);
	        }
	      }
	    },
	    animationConfig: {
	      interval: null,
	      looped: true,
	      scene: null,
	      frameTime: 77,
	      delay: 0,
	      onOver: false,
	      reverse: false,
	      direction: 'forward'
	    },
	    currentFrame: 1,
	    animationStarted: false,
	    step: 1,
	    startFrame: 1,
	    endFrame: 13,
	    firstOut: false,
	    reversed: false,

	    format: function(num) {
	      if(num < 10) {
	        return '0' + num;
	      }
	      return num.toString();
	    },

	    encodeForInsertion: function(string) {
	      return "data:image/svg+xml," + encodeURIComponent(string);
	    },

	    nextFrame: function () {
	      if(this.currentFrame === this.endFrame) {

	        if(!this.animationConfig.looped) this.stopAnimation();

	        this.currentFrame = this.startFrame;
	      }

	      this.animationConfig.scene.setAttribute('xlink:href', '#frame' + this.format(this.currentFrame));
	      this.currentFrame += this.step;

	      if(this.animationConfig.image) {
	        this.animationConfig.image.setAttribute('src', this.encodeForInsertion(this.animationConfig.root.outerHTML));
	      }
	    },

	    startAnimation: function(ev) {
	      var self = this;
	      setTimeout(function() {
	        self.animationStarted = true;
	        self.interval = setInterval(function() {
	          self.nextFrame();
	        },self.animationConfig.frameTime);
	      }, this.animationConfig.delay);
	    },

	    stopAnimation: function(ev) {
	      clearInterval(this.interval);
	      this.animationStarted = false;
	      if(this.reversed) this.reverseAnimation();

	    },

	    isInside: function(mouseEvent, clientRect) {
	      return (
	        (mouseEvent.clientX >= clientRect.left) && (mouseEvent.clientX <= clientRect.right)
	        &&
	        (mouseEvent.clientY >= clientRect.top) && (mouseEvent.clientY <= clientRect.bottom)
	      );
	    },

	    reverseAnimation: function() {
	        this.startFrame = this.startFrame === 1 ? this.endFrame : 1;
	        this.endFrame = this.endFrame !== 1 ? 1 : this.animationConfig.frameCount;
	        this.step = this.step === -1 ? 1 : -1;
	        if(!this.animationStarted) {
	            this.currentFrame = this.startFrame;
	        }
	        this.reversed = !this.reversed;
	    },

	    handleMouseMove: function(ev, isInside) {

	      var self = this;

	      if(typeof isInside === 'undefined') isInside = self.isInside(ev, self.animationConfig.scene.getBoundingClientRect());

	      if(isInside && !self.animationStarted && !self.firstOut) {
	        self.startAnimation();
	        self.firstOut = true;
	      } else if(!isInside && self.animationStarted && self.animationConfig.reverse && self.firstOut) {
	        self.reverseAnimation();
	      } else if(!isInside && self.animationStarted && self.firstOut) {
	        self.stopAnimation();
	      }

	      if(!isInside && self.firstOut) {
	        self.firstOut = false;
	      }
	    },

	    init: function(config) {
	      for(var setting in config){
	        if(config.hasOwnProperty(setting)) {
	          this.animationConfig[setting] = config[setting]
	        }
	      }

	      if(config.frameCount) this.endFrame = config.frameCount;

	      if(this.animationConfig.direction !== 'forward') {
	        this.reverseAnimation();
			this.reversed = false;
	      }

	      var self = this;

	      if(this.animationConfig.onOver && this.animationConfig.image) {
	        this.animationConfig.image.addEventListener('mouseenter', function(ev){
	          self.handleMouseMove(ev, true);
	        });

	        this.animationConfig.image.addEventListener('mouseleave', function(ev){
	          self.handleMouseMove(ev, false);
	        });

	      } else if (this.animationConfig.onOver) {
	        window.addEventListener('mousemove', function(ev){
	          self.handleMouseMove(ev);
	        });
	      } else {
	        self.startAnimation();
	      }
	    },

	    initEmbedded: function() {
	      var elem = document.querySelector('.animation');
	          this.init({
	            scene: elem.querySelector('.animation__scene use'),
	            delay: parseInt(elem.getAttribute('data-delay'), 10),
	            frameTime: parseInt(elem.getAttribute('data-frame'), 10),
	            looped: (elem.getAttribute('data-looped') === 'true'),
	            onOver: (elem.getAttribute('data-onover') === 'true'),
	            reverse: (elem.getAttribute('data-reverse') === 'true'),
	            direction: elem.getAttribute('data-direction'),
	            frameCount: elem.querySelectorAll('symbol').length
	          });
	    },

	    initAsImg: function(xml) {
	      var i,
	          xmlDoc = xml.responseXML,
	          elem = xmlDoc.querySelector('.animation');

	      this.init({
	        root: elem,
	        scene: elem.querySelector('.animation__scene use'),
	        delay: parseInt(elem.getAttribute('data-delay'), 10),
	        frameTime: parseInt(elem.getAttribute('data-frame'), 10),
	        looped: (elem.getAttribute('data-looped') === 'true'),
	        onOver: (elem.getAttribute('data-onover') === 'true'),
	        reverse: (elem.getAttribute('data-reverse') === 'true'),
	        direction: elem.getAttribute('data-direction'),
	        image:  document.querySelector('#svg__holder'),
	        frameCount: elem.querySelectorAll('symbol').length
	      });
	    }
	  };

	  var utils = SVGlib.utils;

	  utils.ready(function(){
	    if(exportType === 'embedded') {
	      SVGlib.initEmbedded();
	    } else if(exportType === 'image') {
	      var image = document.querySelector('#svg__holder');
	      utils.loadDoc(image.getAttribute('src'), function(resp){
	        SVGlib.initAsImg(resp);
	      });
	    }
	  });
	})((window.state && window.state.exportType) || 'embedded');

]]>
</script>
</svg>