<?xml version="1.0" encoding="utf-8"?>
<!-- Generator: Adobe Illustrator 19.0.0, SVG Export Plug-In . SVG Version: 6.00 Build 0)  -->
<svg version="1.1" id="graph" xmlns="http://www.w3.org/2000/svg" xmlns:xlink="http://www.w3.org/1999/xlink" x="0px" y="0px"
	 viewBox="0 0 500 500" style="enable-background:new 0 0 500 500;" xml:space="preserve">
<style type="text/css">
	.st0{fill:#FFD56C;stroke:#020100;stroke-width:9;stroke-miterlimit:10;}
	.st1{fill:none;stroke:#000000;stroke-width:10;stroke-linecap:round;stroke-miterlimit:10;}
	.st2{fill:#5C9FF9;}
	.st3{fill:#5C9FF9;stroke:#000000;stroke-width:9;stroke-miterlimit:10;}
</style>
<g id="frame55">
	<circle class="st0" cx="6750" cy="750" r="240.1"/>
	<path class="st1" d="M6818.3,922.9c-14.1-23.6-39.4-39.3-68.3-39.3c-28.9,0-54.2,15.7-68.3,39.3"/>
	<path class="st1" d="M6646,715.5c-11-0.8-31.2-4.6-50.5,16.9"/>
	<path class="st1" d="M6854,715.5c11-0.8,31.2-4.6,50.5,16.9"/>
	<circle class="st2" cx="6858.9" cy="789.6" r="35"/>
	<circle class="st2" cx="6641.1" cy="789.6" r="35"/>
</g>
<g id="frame54">
	<circle class="st0" cx="6250" cy="750" r="240.1"/>
	<path class="st1" d="M6318.3,919.9c-14.1-23.6-39.4-39.3-68.3-39.3c-28.9,0-54.2,15.7-68.3,39.3"/>
	<path class="st1" d="M6146,712.5c-11-0.8-31.2-4.6-50.5,16.9"/>
	<path class="st1" d="M6354,712.5c11-0.8,31.2-4.6,50.5,16.9"/>
	<circle class="st2" cx="6358.9" cy="786.6" r="35"/>
	<circle class="st2" cx="6141.1" cy="786.6" r="35"/>
</g>
<g id="frame53">
	<circle class="st0" cx="5750" cy="750" r="240.1"/>
	<path class="st1" d="M5816.7,914.9c-13.8-23.6-38.5-39.3-66.7-39.3c-28.2,0-52.9,15.7-66.7,39.3"/>
	<path class="st1" d="M5649,706.5c-11-0.8-31.2-4.6-50.5,16.9"/>
	<path class="st1" d="M5851,706.5c11-0.8,31.2-4.6,50.5,16.9"/>
	<circle class="st2" cx="5858.9" cy="781.6" r="35"/>
	<circle class="st2" cx="5641.1" cy="781.6" r="35"/>
</g>
<g id="frame52">
	<circle class="st0" cx="5250" cy="750" r="240.1"/>
	<path class="st1" d="M5311.2,903.4c-12.7-19.7-35.3-32.8-61.2-32.8c-25.9,0-48.6,13.1-61.2,32.8"/>
	<path class="st1" d="M5152,700.5c-11-0.8-31.2-4.6-50.5,16.9"/>
	<path class="st1" d="M5348,700.5c11-0.8,31.2-4.6,50.5,16.9"/>
	<circle class="st2" cx="5358.9" cy="776.6" r="35"/>
	<circle class="st2" cx="5141.1" cy="776.6" r="35"/>
</g>
<g id="frame51">
	<circle class="st0" cx="4750" cy="750" r="240.1"/>
	<path class="st1" d="M4807.2,897.4c-11.8-19.7-33-32.8-57.2-32.8s-45.4,13.1-57.2,32.8"/>
	<path class="st1" d="M4655,693.5c-10.8-2-30.6-7.9-52,11.6"/>
	<path class="st1" d="M4845,693.5c10.8-2,30.6-7.9,52,11.6"/>
	<circle class="st2" cx="4858.9" cy="770.6" r="35"/>
	<circle class="st2" cx="4641.1" cy="770.6" r="35"/>
</g>
<g id="frame50">
	<circle class="st0" cx="4250" cy="750" r="240.1"/>
	<path class="st1" d="M4301.9,885.4c-10.7-16.1-30-26.8-51.9-26.8s-41.2,10.7-51.9,26.8"/>
	<path class="st1" d="M4159,687.5c-10.8-2-30.6-7.9-52,11.6"/>
	<path class="st1" d="M4341,687.5c10.8-2,30.6-7.9,52,11.6"/>
	<circle class="st2" cx="4358.9" cy="764.6" r="35"/>
	<circle class="st2" cx="4141.1" cy="764.6" r="35"/>
</g>
<g id="frame49">
	<circle class="st0" cx="3750" cy="750" r="240.1"/>
	<path class="st1" d="M3798.6,879.4c-10.1-16.1-28-26.8-48.6-26.8c-20.5,0-38.5,10.7-48.6,26.8"/>
	<path class="st1" d="M3664,681.5c-10.5-3.4-29.2-11.9-53,4.5"/>
	<path class="st1" d="M3836,681.5c10.5-3.4,29.2-11.9,53,4.5"/>
	<circle class="st2" cx="3858.9" cy="758.6" r="35"/>
	<circle class="st2" cx="3641.1" cy="758.6" r="35"/>
</g>
<g id="frame48">
	<circle class="st0" cx="3250" cy="750" r="240.1"/>
	<path class="st1" d="M3293.2,867.8c-8.9-13.3-25-22.1-43.2-22.1c-18.3,0-34.3,8.9-43.2,22.1"/>
	<path class="st1" d="M3168,673.5c-10.5-3.4-29.2-11.9-53,4.5"/>
	<path class="st1" d="M3332,673.5c10.5-3.4,29.2-11.9,53,4.5"/>
	<circle class="st2" cx="3358.9" cy="751.6" r="35"/>
	<circle class="st2" cx="3141.1" cy="751.6" r="35"/>
</g>
<g id="frame47">
	<circle class="st0" cx="2750" cy="750" r="240.1"/>
	<path class="st1" d="M2786.7,860.8c-7.6-13.3-21.2-22.1-36.7-22.1c-15.5,0-29.1,8.9-36.7,22.1"/>
	<path class="st1" d="M2671,666.5c-10.5-3.4-29.2-11.9-53,4.5"/>
	<path class="st1" d="M2829,666.5c10.5-3.4,29.2-11.9,53,4.5"/>
	<circle class="st2" cx="2858.9" cy="746.6" r="35"/>
	<circle class="st2" cx="2641.1" cy="746.6" r="35"/>
</g>
<g id="frame46">
	<circle class="st0" cx="2250" cy="750" r="240.1"/>
	<path class="st1" d="M2286.7,855.8c-7.6-13.3-21.2-22.1-36.7-22.1c-15.5,0-29.1,8.9-36.7,22.1"/>
	<path class="st1" d="M2171,661.5c-10.5-3.4-29.2-11.9-53,4.5"/>
	<path class="st1" d="M2329,661.5c10.5-3.4,29.2-11.9,53,4.5"/>
	<circle class="st2" cx="2358.9" cy="741.6" r="35"/>
	<circle class="st2" cx="2141.1" cy="741.6" r="35"/>
</g>
<g id="frame45">
	<circle class="st0" cx="1750" cy="750" r="240.1"/>
	<path class="st1" d="M1786.7,849.8c-7.6-13.3-21.2-22.1-36.7-22.1c-15.5,0-29.1,8.9-36.7,22.1"/>
	<path class="st1" d="M1671,655.5c-10.5-3.4-29.2-11.9-53,4.5"/>
	<path class="st1" d="M1829,655.5c10.5-3.4,29.2-11.9,53,4.5"/>
	<circle class="st2" cx="1858.9" cy="735.6" r="35"/>
	<circle class="st2" cx="1641.1" cy="735.6" r="35"/>
</g>
<g id="frame44">
	<circle class="st0" cx="1250" cy="750" r="240.1"/>
	<path class="st1" d="M1286.7,845.8c-7.6-13.3-21.2-22.1-36.7-22.1c-15.5,0-29.1,8.9-36.7,22.1"/>
	<path class="st1" d="M1171,651.5c-10.5-3.4-29.2-11.9-53,4.5"/>
	<path class="st1" d="M1329,651.5c10.5-3.4,29.2-11.9,53,4.5"/>
	<circle class="st2" cx="1358.9" cy="731.6" r="35"/>
	<circle class="st2" cx="1141.1" cy="731.6" r="35"/>
</g>
<g id="frame43">
	<circle class="st0" cx="750" cy="750" r="240.1"/>
	<path class="st1" d="M786.7,840.8c-7.6-13.3-21.2-22.1-36.7-22.1c-15.5,0-29.1,8.9-36.7,22.1"/>
	<path class="st1" d="M671,648.5c-10.5-3.4-29.2-11.9-53,4.5"/>
	<path class="st1" d="M829,648.5c10.5-3.4,29.2-11.9,53,4.5"/>
	<circle class="st2" cx="858.9" cy="728.6" r="35"/>
	<circle class="st2" cx="641.1" cy="728.6" r="35"/>
</g>
<g id="frame42">
	<circle class="st0" cx="250" cy="750" r="240.1"/>
	<path class="st1" d="M286.7,837.8c-7.6-13.3-21.2-22.1-36.7-22.1c-15.5,0-29.1,8.9-36.7,22.1"/>
	<path class="st1" d="M171,645.5c-10.5-3.4-29.2-11.9-53,4.5"/>
	<path class="st1" d="M329,645.5c10.5-3.4,29.2-11.9,53,4.5"/>
	<circle class="st2" cx="358.9" cy="725.6" r="35"/>
	<circle class="st2" cx="141.1" cy="725.6" r="35"/>
</g>
<g id="frame41">
	<circle class="st0" cx="-250" cy="750" r="240.1"/>
	<path class="st1" d="M-210.2,838.7c-8.2-14.4-23-24-39.8-24c-16.8,0-31.5,9.6-39.8,24"/>
	<path class="st1" d="M-329,643.5c-10.5-3.4-29.2-11.9-53,4.5"/>
	<path class="st1" d="M-171,643.5c10.5-3.4,29.2-11.9,53,4.5"/>
	<circle class="st2" cx="-141.1" cy="723.6" r="35"/>
	<circle class="st2" cx="-358.9" cy="723.6" r="35"/>
</g>
<g id="frame40">
	<circle class="st0" cx="-750" cy="750" r="240.1"/>
	<path class="st1" d="M-706.2,838.7c-9.1-14.4-25.3-24-43.8-24c-18.5,0-34.7,9.6-43.8,24"/>
	<path class="st1" d="M-829,640.5c-10.5-3.4-29.2-11.9-53,4.5"/>
	<path class="st1" d="M-671,640.5c10.5-3.4,29.2-11.9,53,4.5"/>
	<circle class="st2" cx="-641.1" cy="721.6" r="35"/>
	<circle class="st2" cx="-858.9" cy="721.6" r="35"/>
</g>
<g id="frame39">
	<circle class="st0" cx="-1250" cy="750" r="240.1"/>
	<path class="st1" d="M-1199.7,843.7c-10.4-17.4-29-29-50.3-29c-21.2,0-39.9,11.6-50.3,29"/>
	<path class="st1" d="M-1329,641.5c-10.5-3.4-29.2-11.9-53,4.5"/>
	<path class="st1" d="M-1171,641.5c10.5-3.4,29.2-11.9,53,4.5"/>
	<circle class="st2" cx="-1141.1" cy="721.6" r="35"/>
	<circle class="st2" cx="-1358.9" cy="721.6" r="35"/>
</g>
<g id="frame38">
	<circle class="st0" cx="-1750" cy="750" r="240.1"/>
	<path class="st1" d="M-1699.7,846.7c-10.4-17.4-29-29-50.3-29c-21.2,0-39.9,11.6-50.3,29"/>
	<path class="st1" d="M-1829,644.5c-10.5-3.4-29.2-11.9-53,4.5"/>
	<path class="st1" d="M-1671,644.5c10.5-3.4,29.2-11.9,53,4.5"/>
	<circle class="st2" cx="-1641.1" cy="724.6" r="35"/>
	<circle class="st2" cx="-1858.9" cy="724.6" r="35"/>
</g>
<g id="frame37">
	<circle class="st0" cx="-2250" cy="750" r="240.1"/>
	<path class="st1" d="M-2194.7,856.2c-11.4-20.7-31.9-34.5-55.3-34.5c-23.4,0-43.8,13.8-55.3,34.5"/>
	<path class="st1" d="M-2329,648.5c-10.5-3.4-29.2-11.9-53,4.5"/>
	<path class="st1" d="M-2171,648.5c10.5-3.4,29.2-11.9,53,4.5"/>
	<circle class="st2" cx="-2141.1" cy="728.6" r="35"/>
	<circle class="st2" cx="-2358.9" cy="728.6" r="35"/>
</g>
<g id="frame36">
	<circle class="st0" cx="-2750" cy="750" r="240.1"/>
	<path class="st1" d="M-2689.7,868.2c-12.5-23.1-34.8-38.5-60.3-38.5c-25.5,0-47.8,15.4-60.3,38.5"/>
	<path class="st1" d="M-2837,656.5c-10.7-2.7-30-9.9-52.6,8.1"/>
	<path class="st1" d="M-2663,656.5c10.7-2.7,30-9.9,52.6,8.1"/>
	<circle class="st2" cx="-2641.1" cy="736.6" r="35"/>
	<circle class="st2" cx="-2858.9" cy="736.6" r="35"/>
	<line class="st3" x1="-2895.7" y1="967" x2="-2866.9" y2="967"/>
</g>
<g id="frame35">
	<circle class="st0" cx="-3250" cy="750" r="240.1"/>
	<path class="st1" d="M-3187.1,875.2c-13-23.1-36.3-38.5-62.9-38.5c-26.6,0-49.9,15.4-62.9,38.5"/>
	<ellipse class="st2" cx="-3141.1" cy="743.6" rx="35" ry="16"/>
	<ellipse class="st2" cx="-3358.9" cy="743.6" rx="35" ry="16"/>
	<path class="st1" d="M-3337,665.5c-10.7-2.7-30-9.9-52.6,8.1"/>
	<path class="st1" d="M-3163,665.5c10.7-2.7,30-9.9,52.6,8.1"/>
	<path class="st3" d="M-3393.2,975.6c-8.2-1.5-6.6-13.4-0.5-19l12.3-15.3l12.3,15.3c6.1,5.6,7.7,17.5-0.5,19
		c-3.1,0.6-6.9,0.9-11.8,0.9S-3390.1,976.2-3393.2,975.6z"/>
</g>
<g id="frame34">
	<circle class="st0" cx="-3750" cy="750" r="240.1"/>
	<path class="st1" d="M-3687.1,885.2c-13-23.1-36.3-38.5-62.9-38.5c-26.6,0-49.9,15.4-62.9,38.5"/>
	<ellipse class="st2" cx="-3641.1" cy="753.6" rx="35" ry="16"/>
	<ellipse class="st2" cx="-3858.9" cy="753.6" rx="35" ry="16"/>
	<path class="st3" d="M-3852.7,964.2c0,15.8-12.8,28.7-28.7,28.7s-28.7-12.8-28.7-28.7c0-15.8,28.7-55.6,28.7-55.6
		S-3852.7,948.3-3852.7,964.2z"/>
	<path class="st1" d="M-3842.5,676.5c-10.8-2.1-30.5-8.1-52,11.3"/>
	<path class="st1" d="M-3657.5,676.5c10.8-2.1,30.5-8.1,52,11.3"/>
</g>
<g id="frame33">
	<circle class="st0" cx="-4250" cy="750" r="240.1"/>
	<path class="st1" d="M-4181.1,897.1c-14.3-23.1-39.8-38.5-68.9-38.5s-54.7,15.4-68.9,38.5"/>
	<circle class="st2" cx="-4141.1" cy="764.6" r="35"/>
	<circle class="st2" cx="-4358.9" cy="764.6" r="35"/>
	<path class="st3" d="M-4352.7,964.2c0,15.8-12.8,28.7-28.7,28.7s-28.7-12.8-28.7-28.7c0-15.8,28.7-71.6,28.7-71.6
		S-4352.7,948.3-4352.7,964.2z"/>
	<path class="st1" d="M-4348.3,689.5c-10.9-1.5-30.9-6.5-51.4,13.8"/>
	<path class="st1" d="M-4151.7,689.5c10.9-1.5,30.9-6.5,51.4,13.8"/>
</g>
<g id="frame32">
	<circle class="st0" cx="-4750" cy="750" r="240.1"/>
	<path class="st1" d="M-4681.1,908.1c-14.3-23.1-39.8-38.5-68.9-38.5s-54.7,15.4-68.9,38.5"/>
	<circle class="st2" cx="-4641.1" cy="775.6" r="35"/>
	<circle class="st2" cx="-4858.9" cy="775.6" r="35"/>
	<path class="st1" d="M-4852.5,700.3c-11-0.5-31.4-3.7-49.9,18.4"/>
	<path class="st1" d="M-4647.5,700.3c11-0.5,31.4-3.7,49.9,18.4"/>
	<path class="st3" d="M-4852.7,957.2c0,15.8-12.8,28.7-28.7,28.7s-28.7-12.8-28.7-28.7c0-15.8,28.7-71.6,28.7-71.6
		S-4852.7,941.3-4852.7,957.2z"/>
</g>
<g id="frame31">
	<circle class="st0" cx="-5250" cy="750" r="240.1"/>
	<path class="st1" d="M-5181.1,918.1c-14.3-23.1-39.8-38.5-68.9-38.5s-54.7,15.4-68.9,38.5"/>
	<circle class="st2" cx="-5141.1" cy="785.6" r="35"/>
	<circle class="st2" cx="-5358.9" cy="785.6" r="35"/>
	<path class="st1" d="M-5143.2,710.3c11,0,31.5-2.2,49,20.8"/>
	<path class="st1" d="M-5356.8,710.3c-11,0-31.5-2.2-49,20.8"/>
	<path class="st3" d="M-5352.7,951.2c0,15.8-12.8,28.7-28.7,28.7s-28.7-12.8-28.7-28.7c0-15.8,28.7-71.6,28.7-71.6
		S-5352.7,935.3-5352.7,951.2z"/>
</g>
<g id="frame30">
	<circle class="st0" cx="9250" cy="250" r="240.1"/>
	<path class="st1" d="M9318.9,423.1c-14.3-23.1-39.8-38.5-68.9-38.5s-54.7,15.4-68.9,38.5"/>
	<circle class="st2" cx="9358.9" cy="290.6" r="35"/>
	<circle class="st2" cx="9141.1" cy="290.6" r="35"/>
	<path class="st1" d="M9356.8,215.3c11,0,31.5-2.2,49,20.8"/>
	<path class="st1" d="M9143.2,215.3c-11,0-31.5-2.2-49,20.8"/>
	<path class="st3" d="M9147.3,443.2c0,15.8-12.8,28.7-28.7,28.7S9090,459,9090,443.2c0-15.8,28.7-71.6,28.7-71.6
		S9147.3,427.3,9147.3,443.2z"/>
</g>
<g id="frame29">
	<circle class="st0" cx="8750" cy="250" r="240.1"/>
	<path class="st1" d="M8818.9,423.1c-14.3-23.1-39.8-38.5-68.9-38.5s-54.7,15.4-68.9,38.5"/>
	<circle class="st2" cx="8858.9" cy="290.6" r="35"/>
	<circle class="st2" cx="8641.1" cy="290.6" r="35"/>
	<path class="st1" d="M8856.8,215.3c11,0,31.5-2.2,49,20.8"/>
	<path class="st1" d="M8643.2,215.3c-11,0-31.5-2.2-49,20.8"/>
	<path class="st3" d="M8647.3,435.2c0,15.8-12.8,28.7-28.7,28.7S8590,451,8590,435.2c0-15.8,28.7-71.6,28.7-71.6
		S8647.3,419.3,8647.3,435.2z"/>
</g>
<g id="frame28">
	<circle class="st0" cx="8250" cy="250" r="240.1"/>
	<path class="st1" d="M8318.9,423.1c-14.3-23.1-39.8-38.5-68.9-38.5s-54.7,15.4-68.9,38.5"/>
	<circle class="st2" cx="8358.9" cy="290.6" r="35"/>
	<circle class="st2" cx="8141.1" cy="290.6" r="35"/>
	<path class="st1" d="M8356.8,215.3c11,0,31.5-2.2,49,20.8"/>
	<path class="st1" d="M8143.2,215.3c-11,0-31.5-2.2-49,20.8"/>
	<path class="st3" d="M8147.3,428.2c0,15.8-12.8,28.7-28.7,28.7S8090,444,8090,428.2c0-15.8,28.7-71.6,28.7-71.6
		S8147.3,412.3,8147.3,428.2z"/>
</g>
<g id="frame27">
	<circle class="st0" cx="7750" cy="250" r="240.1"/>
	<path class="st1" d="M7818.9,420.1c-14.3-23.1-39.8-38.5-68.9-38.5s-54.7,15.4-68.9,38.5"/>
	<circle class="st2" cx="7858.9" cy="290.6" r="35"/>
	<circle class="st2" cx="7641.1" cy="290.6" r="35"/>
	<path class="st1" d="M7856.8,215.3c11,0,31.5-2.2,49,20.8"/>
	<path class="st1" d="M7643.2,215.3c-11,0-31.5-2.2-49,20.8"/>
	<path class="st3" d="M7647.3,421.2c0,15.8-12.8,28.7-28.7,28.7S7590,437,7590,421.2c0-15.8,28.7-71.6,28.7-71.6
		S7647.3,405.3,7647.3,421.2z"/>
</g>
<g id="frame26">
	<circle class="st0" cx="7250" cy="250" r="240.1"/>
	<path class="st1" d="M7318.9,418.1c-14.3-23.1-39.8-38.5-68.9-38.5s-54.7,15.4-68.9,38.5"/>
	<circle class="st2" cx="7358.9" cy="288.6" r="35"/>
	<circle class="st2" cx="7141.1" cy="288.6" r="35"/>
	<path class="st1" d="M7356.8,213.3c11,0,31.5-2.2,49,20.8"/>
	<path class="st1" d="M7143.2,213.3c-11,0-31.5-2.2-49,20.8"/>
	<path class="st3" d="M7147.3,412.2c0,15.8-12.8,28.7-28.7,28.7S7090,428,7090,412.2c0-15.8,28.7-71.6,28.7-71.6
		S7147.3,396.3,7147.3,412.2z"/>
</g>
<g id="frame25">
	<circle class="st0" cx="6750" cy="250" r="240.1"/>
	<path class="st1" d="M6818.9,416.1c-14.3-23.1-39.8-38.5-68.9-38.5s-54.7,15.4-68.9,38.5"/>
	<circle class="st2" cx="6858.9" cy="286.6" r="35"/>
	<circle class="st2" cx="6641.1" cy="286.6" r="35"/>
	<path class="st1" d="M6856.8,211.3c11,0,31.5-2.2,49,20.8"/>
	<path class="st1" d="M6643.2,211.3c-11,0-31.5-2.2-49,20.8"/>
	<path class="st3" d="M6647.3,406.2c0,15.8-12.8,28.7-28.7,28.7S6590,422,6590,406.2c0-15.8,28.7-71.6,28.7-71.6
		S6647.3,390.3,6647.3,406.2z"/>
</g>
<g id="frame24">
	<circle class="st0" cx="6250" cy="250" r="240.1"/>
	<path class="st1" d="M6318.9,416.1c-14.3-23.1-39.8-38.5-68.9-38.5s-54.7,15.4-68.9,38.5"/>
	<circle class="st2" cx="6358.9" cy="283.6" r="35"/>
	<circle class="st2" cx="6141.1" cy="283.6" r="35"/>
	<path class="st1" d="M6356.8,208.3c11,0,31.5-2.2,49,20.8"/>
	<path class="st1" d="M6143.2,208.3c-11,0-31.5-2.2-49,20.8"/>
	<path class="st3" d="M6147.3,399.2c0,15.8-12.8,28.7-28.7,28.7S6090,415,6090,399.2c0-15.8,28.7-71.6,28.7-71.6
		S6147.3,383.3,6147.3,399.2z"/>
</g>
<g id="frame23">
	<path class="st3" d="M5647.3,391.2c0,15.8-12.8,28.7-28.7,28.7S5590,407,5590,391.2c0-15.8,28.7-71.6,28.7-71.6
		S5647.3,375.3,5647.3,391.2z"/>
	<circle class="st0" cx="5750" cy="250" r="240.1"/>
	<path class="st1" d="M5818.9,413.1c-14.3-23.1-39.8-38.5-68.9-38.5s-54.7,15.4-68.9,38.5"/>
	<circle class="st2" cx="5858.9" cy="280.6" r="35"/>
	<circle class="st2" cx="5641.1" cy="280.6" r="35"/>
	<path class="st1" d="M5856.8,205.3c11,0,31.5-2.2,49,20.8"/>
	<path class="st1" d="M5643.2,205.3c-11,0-31.5-2.2-49,20.8"/>
</g>
<g id="frame22">
	<path class="st3" d="M5147.3,383.2c0,15.8-12.8,28.7-28.7,28.7S5090,399,5090,383.2c0-15.8,28.7-71.6,28.7-71.6
		S5147.3,367.3,5147.3,383.2z"/>
	<circle class="st0" cx="5250" cy="250" r="240.1"/>
	<path class="st1" d="M5318.9,411.1c-14.3-23.1-39.8-38.5-68.9-38.5s-54.7,15.4-68.9,38.5"/>
	<circle class="st2" cx="5358.9" cy="278.6" r="35"/>
	<circle class="st2" cx="5141.1" cy="278.6" r="35"/>
	<path class="st1" d="M5356.8,203.3c11,0,31.5-2.2,49,20.8"/>
	<path class="st1" d="M5143.2,203.3c-11,0-31.5-2.2-49,20.8"/>
</g>
<g id="frame21">
	<path class="st3" d="M4647.3,380.2c0,15.8-12.8,28.7-28.7,28.7S4590,396,4590,380.2c0-15.8,28.7-71.6,28.7-71.6
		S4647.3,364.3,4647.3,380.2z"/>
	<circle class="st0" cx="4750" cy="250" r="240.1"/>
	<path class="st1" d="M4818.9,408.1c-14.3-23.1-39.8-38.5-68.9-38.5s-54.7,15.4-68.9,38.5"/>
	<circle class="st2" cx="4858.9" cy="275.6" r="35"/>
	<circle class="st2" cx="4641.1" cy="275.6" r="35"/>
	<path class="st1" d="M4856.8,200.3c11,0,31.5-2.2,49,20.8"/>
	<path class="st1" d="M4643.2,200.3c-11,0-31.5-2.2-49,20.8"/>
</g>
<g id="frame20">
	<path class="st3" d="M4147.3,377.2c0,15.8-12.8,28.7-28.7,28.7S4090,393,4090,377.2c0-15.8,28.7-71.6,28.7-71.6
		S4147.3,361.3,4147.3,377.2z"/>
	<circle class="st0" cx="4250" cy="250" r="240.1"/>
	<path class="st1" d="M4318.9,405.1c-14.3-23.1-39.8-38.5-68.9-38.5s-54.7,15.4-68.9,38.5"/>
	<circle class="st2" cx="4358.9" cy="272.6" r="35"/>
	<circle class="st2" cx="4141.1" cy="272.6" r="35"/>
	<path class="st1" d="M4356.8,197.3c11,0,31.5-2.2,49,20.8"/>
	<path class="st1" d="M4143.2,197.3c-11,0-31.5-2.2-49,20.8"/>
</g>
<g id="frame19">
	<circle class="st0" cx="3750" cy="250" r="240.1"/>
	<path class="st3" d="M3618.7,377.3c-13.6,0-24.2-12.9-18.4-25.2c7.8-16.5,18.4-26.4,18.4-26.4s10.5,9.9,18.4,26.4
		C3642.9,364.4,3632.2,377.3,3618.7,377.3z"/>
	<path class="st3" d="M3892.2,470.7c8.2-1.1,6.6-3.3,0.5-7.4l-12.3-8.4l-12.3,8.4c-6.1,4.2-7.7,6.3,0.5,7.4
		c3.1,0.4,6.9,0.7,11.8,0.7S3889.1,471.1,3892.2,470.7z"/>
	<path class="st1" d="M3856.8,197.3c11,0,31.5-2.2,49,20.8"/>
	<path class="st1" d="M3643.2,197.3c-11,0-31.5-2.2-49,20.8"/>
	<path class="st1" d="M3818.9,401.1c-14.3-23.1-39.8-38.5-68.9-38.5s-54.7,15.4-68.9,38.5"/>
	<circle class="st2" cx="3858.9" cy="270.6" r="35"/>
	<circle class="st2" cx="3641.1" cy="270.6" r="35"/>
</g>
<g id="frame18">
	<circle class="st0" cx="3250" cy="250" r="240.1"/>
	<path class="st1" d="M3356.8,194.3c11,0,31.5-2.2,49,20.8"/>
	<path class="st1" d="M3143.2,194.3c-11,0-31.5-2.2-49,20.8"/>
	<path class="st1" d="M3318.9,398.1c-14.3-23.1-39.8-38.5-68.9-38.5s-54.7,15.4-68.9,38.5"/>
	<circle class="st2" cx="3358.9" cy="267.6" r="35"/>
	<circle class="st2" cx="3141.1" cy="267.6" r="35"/>
	<path class="st3" d="M3380.3,486.7c-13.6,0-24.2-12.9-18.4-25.2c7.8-16.5,18.4-38.4,18.4-38.4s10.5,21.9,18.4,38.4
		C3404.5,473.8,3393.9,486.7,3380.3,486.7z"/>
	<path class="st3" d="M3131.5,355.6c8.2-1.1,6.6-3.3,0.5-7.4l-12.3-8.4l-12.3,8.4c-6.1,4.2-7.7,6.3,0.5,7.4
		c3.1,0.4,6.9,0.7,11.8,0.7S3128.4,356,3131.5,355.6z"/>
</g>
<g id="frame17">
	<circle class="st0" cx="2750" cy="250" r="240.1"/>
	<path class="st3" d="M2909,466.3c0,15.8-12.8,28.7-28.7,28.7s-28.7-12.8-28.7-28.7c0-15.8,28.7-71.6,28.7-71.6
		S2909,450.4,2909,466.3z"/>
	<path class="st1" d="M2856.8,191.3c11,0,31.5-2.2,49,20.8"/>
	<path class="st1" d="M2643.2,191.3c-11,0-31.5-2.2-49,20.8"/>
	<path class="st1" d="M2818.9,398.1c-14.3-23.1-39.8-38.5-68.9-38.5s-54.7,15.4-68.9,38.5"/>
	<circle class="st2" cx="2858.9" cy="264.6" r="35"/>
	<circle class="st2" cx="2641.1" cy="264.6" r="35"/>
</g>
<g id="frame16">
	<circle class="st0" cx="2250" cy="250" r="240.1"/>
	<path class="st3" d="M2409,462.3c0,15.8-12.8,28.7-28.7,28.7s-28.7-12.8-28.7-28.7c0-15.8,28.7-75.6,28.7-75.6
		S2409,446.4,2409,462.3z"/>
	<path class="st1" d="M2356.8,191.3c11,0,31.5-2.2,49,20.8"/>
	<path class="st1" d="M2143.2,191.3c-11,0-31.5-2.2-49,20.8"/>
	<path class="st1" d="M2318.9,396.1c-14.3-23.1-39.8-38.5-68.9-38.5s-54.7,15.4-68.9,38.5"/>
	<circle class="st2" cx="2358.9" cy="264.6" r="35"/>
	<circle class="st2" cx="2141.1" cy="264.6" r="35"/>
</g>
<g id="frame15">
	<circle class="st0" cx="1750" cy="250" r="240.1"/>
	<path class="st3" d="M1909,457.3c0,15.8-12.8,28.7-28.7,28.7s-28.7-12.8-28.7-28.7c0-15.8,28.7-77.6,28.7-77.6
		S1909,441.4,1909,457.3z"/>
	<path class="st1" d="M1856.8,191.3c11,0,31.5-2.2,49,20.8"/>
	<path class="st1" d="M1643.2,191.3c-11,0-31.5-2.2-49,20.8"/>
	<path class="st1" d="M1818.9,396.1c-14.3-23.1-39.8-38.5-68.9-38.5s-54.7,15.4-68.9,38.5"/>
	<circle class="st2" cx="1858.9" cy="264.6" r="35"/>
	<circle class="st2" cx="1641.1" cy="264.6" r="35"/>
</g>
<g id="frame14">
	<circle class="st0" cx="1250" cy="250" r="240.1"/>
	<path class="st3" d="M1409,452.3c0,15.8-12.8,28.7-28.7,28.7s-28.7-12.8-28.7-28.7c0-15.8,28.7-77.6,28.7-77.6
		S1409,436.4,1409,452.3z"/>
	<path class="st1" d="M1356.8,191.3c11,0,31.5-2.2,49,20.8"/>
	<path class="st1" d="M1143.2,191.3c-11,0-31.5-2.2-49,20.8"/>
	<path class="st1" d="M1318.9,398.1c-14.3-23.1-39.8-38.5-68.9-38.5s-54.7,15.4-68.9,38.5"/>
	<circle class="st2" cx="1358.9" cy="264.6" r="35"/>
	<circle class="st2" cx="1141.1" cy="264.6" r="35"/>
</g>
<g id="frame13">
	<circle class="st0" cx="750" cy="250" r="240.1"/>
	<path class="st3" d="M909,443.3c0,15.8-12.8,28.7-28.7,28.7c-15.8,0-28.7-12.8-28.7-28.7c0-15.8,28.7-77.6,28.7-77.6
		S909,427.4,909,443.3z"/>
	<path class="st1" d="M856.8,193.3c11,0,31.5-2.2,49,20.8"/>
	<path class="st1" d="M643.2,193.3c-11,0-31.5-2.2-49,20.8"/>
	<path class="st1" d="M818.9,400.1c-14.3-23.1-39.8-38.5-68.9-38.5c-29.1,0-54.7,15.4-68.9,38.5"/>
	<circle class="st2" cx="858.9" cy="266.6" r="35"/>
	<circle class="st2" cx="641.1" cy="266.6" r="35"/>
</g>
<g id="frame12">
	<circle class="st0" cx="250" cy="250" r="240.1"/>
	<circle class="st0" cx="250" cy="250" r="240.1"/>
	<path class="st1" d="M356.8,193.3c11,0,31.5-2.2,49,20.8"/>
	<path class="st1" d="M143.2,193.3c-11,0-31.5-2.2-49,20.8"/>
	<path class="st1" d="M318.9,401.1c-14.3-23.1-39.8-38.5-68.9-38.5c-29.1,0-54.7,15.4-68.9,38.5"/>
	<ellipse class="st2" cx="358.9" cy="268.6" rx="35" ry="18.6"/>
	<ellipse class="st2" cx="141.1" cy="268.6" rx="35" ry="18.6"/>
	<path class="st3" d="M409,438.3c0,15.8-12.8,28.7-28.7,28.7c-15.8,0-28.7-12.8-28.7-28.7c0-15.8,28.7-77.6,28.7-77.6
		S409,422.4,409,438.3z"/>
</g>
<g id="frame11">
	<circle class="st0" cx="-250" cy="250" r="240.1"/>
	<path class="st1" d="M-143.2,196.3c11,0,31.5-2.2,49,20.8"/>
	<line class="st1" x1="-393.9" y1="273.6" x2="-323.9" y2="273.6"/>
	<line class="st1" x1="-106.1" y1="273.6" x2="-176.1" y2="273.6"/>
	<path class="st1" d="M-356.8,196.3c-11,0-31.5-2.2-49,20.8"/>
	<path class="st1" d="M-181.1,403.1c-14.3-23.1-39.8-38.5-68.9-38.5s-54.7,15.4-68.9,38.5"/>
	<path class="st3" d="M-91,432.3c0,15.8-12.8,28.7-28.7,28.7s-28.7-12.8-28.7-28.7c0-15.8,28.7-77.6,28.7-77.6S-91,416.4-91,432.3z"
		/>
</g>
<g id="frame10">
	<circle class="st0" cx="-750" cy="250" r="240.1"/>
	<ellipse class="st2" cx="-641.1" cy="273.6" rx="35" ry="26.2"/>
	<path class="st1" d="M-643.2,199.3c11,0,31.5-2.2,49,20.8"/>
	<ellipse class="st2" cx="-858.9" cy="273.6" rx="35" ry="26.2"/>
	<path class="st1" d="M-856.8,199.3c-11,0-31.5-2.2-49,20.8"/>
	<path class="st1" d="M-681.1,405.1c-14.3-23.1-39.8-38.5-68.9-38.5s-54.7,15.4-68.9,38.5"/>
	<path class="st3" d="M-591,425.3c0,15.8-12.8,28.7-28.7,28.7c-15.8,0-28.7-12.8-28.7-28.7c0-15.8,28.7-77.6,28.7-77.6
		S-591,409.4-591,425.3z"/>
</g>
<g id="frame09">
	<circle class="st0" cx="-1250" cy="250" r="240.1"/>
	<circle class="st2" cx="-1141.1" cy="273.6" r="35"/>
	<path class="st1" d="M-1143.2,199.3c11,0,31.5-2.2,49,20.8"/>
	<circle class="st2" cx="-1358.9" cy="273.6" r="35"/>
	<path class="st1" d="M-1356.8,199.3c-11,0-31.5-2.2-49,20.8"/>
	<path class="st1" d="M-1181.1,405.1c-14.3-23.1-39.8-38.5-68.9-38.5s-54.7,15.4-68.9,38.5"/>
	<path class="st3" d="M-1091,420.3c0,15.8-12.8,28.7-28.7,28.7s-28.7-12.8-28.7-28.7c0-15.8,28.7-77.6,28.7-77.6
		S-1091,404.4-1091,420.3z"/>
</g>
<g id="frame08">
	<circle class="st0" cx="-1750" cy="250" r="240.1"/>
	<circle class="st2" cx="-1641.1" cy="276.6" r="35"/>
	<path class="st1" d="M-1643.2,202.3c11,0,31.5-2.2,49,20.8"/>
	<circle class="st2" cx="-1858.9" cy="276.6" r="35"/>
	<path class="st1" d="M-1856.8,202.3c-11,0-31.5-2.2-49,20.8"/>
	<path class="st1" d="M-1681.1,408.1c-14.3-23.1-39.8-38.5-68.9-38.5s-54.7,15.4-68.9,38.5"/>
	<path class="st3" d="M-1591,414.3c0,15.8-12.8,28.7-28.7,28.7s-28.7-12.8-28.7-28.7c0-15.8,28.7-77.6,28.7-77.6
		S-1591,398.4-1591,414.3z"/>
</g>
<g id="frame07">
	<circle class="st0" cx="-2250" cy="250" r="240.1"/>
	<circle class="st2" cx="-2141.1" cy="280.6" r="35"/>
	<path class="st1" d="M-2143.2,206.3c11,0,31.5-2.2,49,20.8"/>
	<circle class="st2" cx="-2358.9" cy="280.6" r="35"/>
	<path class="st1" d="M-2356.8,206.3c-11,0-31.5-2.2-49,20.8"/>
	<path class="st1" d="M-2181.1,412.1c-14.3-23.1-39.8-38.5-68.9-38.5s-54.7,15.4-68.9,38.5"/>
	<path class="st3" d="M-2091,408.3c0,15.8-12.8,28.7-28.7,28.7s-28.7-12.8-28.7-28.7c0-15.8,28.7-77.6,28.7-77.6
		S-2091,392.4-2091,408.3z"/>
</g>
<g id="frame06">
	<circle class="st0" cx="-2750" cy="250" r="240.1"/>
	<circle class="st2" cx="-2641.1" cy="280.6" r="35"/>
	<path class="st1" d="M-2643.2,206.3c11,0,31.5-2.2,49,20.8"/>
	<circle class="st2" cx="-2858.9" cy="280.6" r="35"/>
	<path class="st1" d="M-2856.8,206.3c-11,0-31.5-2.2-49,20.8"/>
	<path class="st1" d="M-2681.1,412.1c-14.3-23.1-39.8-38.5-68.9-38.5s-54.7,15.4-68.9,38.5"/>
	<path class="st3" d="M-2591,402.3c0,15.8-12.8,28.7-28.7,28.7c-15.8,0-28.7-12.8-28.7-28.7c0-15.8,28.7-77.6,28.7-77.6
		S-2591,386.4-2591,402.3z"/>
</g>
<g id="frame05">
	<circle class="st0" cx="-3250" cy="250" r="240.1"/>
	<circle class="st2" cx="-3141.1" cy="282.6" r="35"/>
	<path class="st1" d="M-3143.2,208.3c11,0,31.5-2.2,49,20.8"/>
	<circle class="st2" cx="-3358.9" cy="282.6" r="35"/>
	<path class="st1" d="M-3356.8,208.3c-11,0-31.5-2.2-49,20.8"/>
	<path class="st1" d="M-3181.1,414.1c-14.3-23.1-39.8-38.5-68.9-38.5s-54.7,15.4-68.9,38.5"/>
	<path class="st3" d="M-3091,396.3c0,15.8-12.8,28.7-28.7,28.7c-15.8,0-28.7-12.8-28.7-28.7c0-15.8,28.7-77.6,28.7-77.6
		S-3091,380.4-3091,396.3z"/>
</g>
<g id="frame04">
	<circle class="st0" cx="-3750" cy="250" r="240.1"/>
	<circle class="st2" cx="-3641.1" cy="284.6" r="35"/>
	<path class="st1" d="M-3643.2,210.3c11,0,31.5-2.2,49,20.8"/>
	<circle class="st2" cx="-3858.9" cy="284.6" r="35"/>
	<path class="st1" d="M-3856.8,210.3c-11,0-31.5-2.2-49,20.8"/>
	<path class="st1" d="M-3681.1,416.1c-14.3-23.1-39.8-38.5-68.9-38.5s-54.7,15.4-68.9,38.5"/>
	<path class="st3" d="M-3591,390.3c0,15.8-12.8,28.7-28.7,28.7s-28.7-12.8-28.7-28.7c0-15.8,28.7-71.6,28.7-71.6
		S-3591,374.4-3591,390.3z"/>
</g>
<g id="frame03">
	<circle class="st0" cx="-4250" cy="250" r="240.1"/>
	<circle class="st2" cx="-4141.1" cy="289.6" r="35"/>
	<path class="st1" d="M-4143.2,215.3c11,0,31.5-2.2,49,20.8"/>
	<circle class="st2" cx="-4358.9" cy="289.6" r="35"/>
	<path class="st1" d="M-4356.8,215.3c-11,0-31.5-2.2-49,20.8"/>
	<path class="st1" d="M-4181.1,421.1c-14.3-23.1-39.8-38.5-68.9-38.5s-54.7,15.4-68.9,38.5"/>
	<path class="st3" d="M-4119.7,395.3c-13.6,0-24.2-12.9-18.4-25.2c7.8-16.5,18.4-38.4,18.4-38.4s10.5,21.9,18.4,38.4
		C-4095.5,382.3-4106.1,395.3-4119.7,395.3z"/>
</g>
<g id="frame02">
	<circle class="st0" cx="-4750" cy="250" r="240.1"/>
	<circle class="st2" cx="-4641.1" cy="289.6" r="35"/>
	<path class="st1" d="M-4643.2,215.3c11,0,31.5-2.2,49,20.8"/>
	<circle class="st2" cx="-4858.9" cy="289.6" r="35"/>
	<path class="st1" d="M-4856.8,215.3c-11,0-31.5-2.2-49,20.8"/>
	<path class="st1" d="M-4681.1,421.1c-14.3-23.1-39.8-38.5-68.9-38.5s-54.7,15.4-68.9,38.5"/>
	<path class="st3" d="M-4631.5,374.3c-8.2-1.5-6.6-12.4-0.5-18l12.3-11.3l12.3,11.3c6.1,5.6,7.7,16.5-0.5,18
		c-3.1,0.6-6.9,0.9-11.8,0.9S-4628.4,374.9-4631.5,374.3z"/>
</g>
<g id="frame01">
	<circle class="st0" cx="-5250" cy="253" r="240.1"/>
	<circle class="st2" cx="-5141.1" cy="292.6" r="35"/>
	<path class="st1" d="M-5143.2,218.3c11,0,31.5-2.2,49,20.8"/>
	<circle class="st2" cx="-5358.9" cy="292.6" r="35"/>
	<path class="st1" d="M-5356.8,218.3c-11,0-31.5-2.2-49,20.8"/>
	<path class="st1" d="M-5181.1,424.1c-14.3-23.1-39.8-38.5-68.9-38.5s-54.7,15.4-68.9,38.5"/>
</g>
</svg>
