<?xml version="1.0" encoding="utf-8"?>
<svg version="1.1" id="graphics"
	class="animation"
	xmlns="http://www.w3.org/2000/svg"
	xmlns:xlink="http://www.w3.org/1999/xlink"
	x="0px" y="0px"
	data-frame="77"
	data-delay="0"
	data-looped="true"
	data-onover="false"
	data-reverse="false"
	data-direction="forward"
	viewBox="0 0 500 500"
	style="enable-background:new 0 0 500 500;"
	>
	<style> 	.st0{fill:#F82D4F;} 	.st1{fill:#FFFFFF;} 
</style>
<g class="animation__source">
<symbol id="frame01"> 	<circle class="st0" cx="250" cy="250" r="243.2"/> 	<path class="st1" d="M411.6,237.9c0-50.2-40.7-90.9-90.9-90.9c-28.6,0-54,13.2-70.7,33.8c-16.7-20.6-42.1-33.8-70.7-33.8 		c-50.2,0-90.9,40.7-90.9,90.9c0,80.6,119.7,150.6,158.1,155.5c2.1,0.4,5.3,0.4,7.1,0C291.9,388.5,411.6,318.5,411.6,237.9z"/> </symbol><symbol id="frame02"> 	<circle class="st0" cx="250" cy="250" r="243.2"/> 	<path class="st1" d="M405.1,239.2c0-48.2-39.1-87.2-87.2-87.2c-27.4,0-51.8,12.7-67.8,32.4c-16-19.8-40.4-32.4-67.8-32.4 		c-48.2,0-87.2,39-87.2,87.2c0,77.3,114.8,144.5,151.7,149.2c2,0.4,5,0.3,6.8,0C290.2,383.7,405.1,316.5,405.1,239.2z"/> </symbol><symbol id="frame03"> 	<circle class="st0" cx="250" cy="250" r="243.2"/> 	<path class="st1" d="M385.9,243.1c0-42.2-34.2-76.4-76.4-76.4c-24,0-45.4,11.1-59.4,28.4c-14-17.3-35.4-28.4-59.4-28.4 		c-42.2,0-76.4,34.2-76.4,76.4c0,67.7,100.6,126.6,132.9,130.7c1.8,0.4,4.4,0.3,6,0C285.2,369.6,385.9,310.8,385.9,243.1z"/> </symbol><symbol id="frame04"> 	<circle class="st0" cx="250" cy="250" r="243.2"/> 	<path class="st1" d="M389.2,242.4c0-43.2-35.1-78.3-78.3-78.3c-24.6,0-46.5,11.4-60.9,29.1c-14.3-17.8-36.3-29.1-60.9-29.1 		c-43.2,0-78.3,35-78.3,78.3c0,69.4,103.1,129.7,136.2,133.9c1.8,0.4,4.5,0.3,6.1,0C286.1,372.1,389.2,311.8,389.2,242.4z"/> </symbol><symbol id="frame05"> 	<circle class="st0" cx="250" cy="250" r="243.2"/> 	<path class="st1" d="M404.9,239.2c0-48.1-39-87.1-87.2-87.1c-27.4,0-51.8,12.7-67.8,32.4c-16-19.8-40.4-32.4-67.8-32.4 		c-48.1,0-87.2,39-87.2,87.1c0,77.2,114.7,144.3,151.5,149.1c2,0.4,5,0.3,6.8,0C290.2,383.6,404.9,316.5,404.9,239.2z"/> </symbol><symbol id="frame06"> 	<circle class="st0" cx="250" cy="250" r="243.2"/> 	<path class="st1" d="M427.6,234.7c0-55.2-44.7-99.9-99.9-99.9c-31.4,0-59.4,14.5-77.7,37.2c-18.3-22.7-46.3-37.2-77.7-37.2 		c-55.2,0-99.9,44.7-99.9,99.9c0,88.6,131.5,165.5,173.7,170.9c2.3,0.5,5.8,0.4,7.8,0C296.1,400.2,427.6,323.3,427.6,234.7z"/> </symbol><symbol id="frame07"> 	<circle class="st0" cx="250" cy="250" r="243.2"/> 	<path class="st1" d="M441,232c0-59.3-48.1-107.4-107.4-107.4c-33.8,0-63.9,15.6-83.5,40c-19.7-24.4-49.8-40-83.5-40 		C107.1,124.6,59,172.7,59,232c0,95.2,141.4,177.9,186.8,183.8c2.5,0.5,6.2,0.4,8.4,0C299.5,409.9,441,327.2,441,232z"/> </symbol><symbol id="frame08"> 	<circle class="st0" cx="250" cy="250" r="243.2"/> 	<path class="st1" d="M442.7,233c0-59.9-48.5-108.4-108.4-108.4c-34.1,0-64.4,15.7-84.3,40.3c-19.9-24.6-50.2-40.3-84.3-40.3 		c-59.9,0-108.4,48.5-108.4,108.4c0,96.1,142.7,179.5,188.5,185.5c2.5,0.5,6.3,0.4,8.4,0C300,412.5,442.7,329.1,442.7,233z"/> </symbol><symbol id="frame09"> 	<circle class="st0" cx="250" cy="250" r="243.2"/> 	<path class="st1" d="M432.3,235.1c0-56.6-45.9-102.5-102.5-102.5c-32.2,0-60.9,14.9-79.7,38.1c-18.8-23.2-47.5-38.1-79.7-38.1 		c-56.6,0-102.5,45.9-102.5,102.5c0,90.9,135,169.8,178.3,175.4c2.4,0.5,5.9,0.4,8,0C297.3,404.9,432.3,326,432.3,235.1z"/> </symbol><symbol id="frame10"> 	<circle class="st0" cx="250" cy="250" r="243.2"/> 	<path class="st1" d="M413.3,238.9c0-50.7-41.1-91.8-91.9-91.8c-28.9,0-54.6,13.3-71.4,34.2c-16.8-20.8-42.6-34.2-71.4-34.2 		c-50.7,0-91.9,41.1-91.9,91.8c0,81.4,120.9,152.1,159.7,157.1c2.1,0.4,5.3,0.4,7.2,0C292.4,391,413.3,320.3,413.3,238.9z"/> </symbol><symbol id="frame11"> 	<circle class="st0" cx="250" cy="250" r="243.2"/> 	<path class="st1" d="M409.6,239.7c0-49.6-40.2-89.8-89.8-89.8c-28.2,0-53.4,13-69.8,33.4c-16.5-20.4-41.6-33.4-69.8-33.4 		c-49.6,0-89.8,40.2-89.8,89.8c0,79.6,118.2,148.6,156.1,153.5c2.1,0.4,5.2,0.4,7,0C291.4,388.3,409.6,319.2,409.6,239.7z"/> </symbol><symbol id="frame12"> 	<circle class="st0" cx="250" cy="250" r="243.2"/> 	<path class="st1" d="M417.7,238c0-52.1-42.2-94.3-94.3-94.3c-29.7,0-56.1,13.7-73.4,35.1c-17.3-21.4-43.7-35.1-73.3-35.1 		c-52.1,0-94.3,42.2-94.3,94.3c0,83.6,124.2,156.2,164,161.3c2.2,0.4,5.5,0.4,7.4,0C293.5,394.2,417.7,321.7,417.7,238z"/> </symbol><symbol id="frame13"> 	<circle class="st0" cx="250" cy="250" r="243.2"/> 	<path class="st1" d="M434.6,234.6c0-57.4-46.5-103.9-103.9-103.9c-32.7,0-61.7,15.1-80.8,38.6c-19-23.6-48.1-38.6-80.8-38.6 		c-57.4,0-103.9,46.5-103.9,103.9c0,92.1,136.7,172,180.6,177.7c2.4,0.5,6,0.4,8.1,0C297.9,406.6,434.6,326.7,434.6,234.6z"/> </symbol><symbol id="frame14"> 	<circle class="st0" cx="250" cy="250" r="243.2"/> 	<path class="st1" d="M440.4,233.5c0-59.1-47.9-107.1-107.1-107.1c-33.7,0-63.7,15.6-83.3,39.8c-19.6-24.3-49.6-39.8-83.3-39.8 		c-59.1,0-107.1,47.9-107.1,107.1c0,94.9,141,177.3,186.2,183.2c2.5,0.5,6.2,0.4,8.3,0C299.4,410.8,440.4,328.4,440.4,233.5z"/> </symbol><symbol id="frame15"> 	<circle class="st0" cx="250" cy="250" r="243.2"/> 	<path class="st1" d="M443.9,232.8c0-60.2-48.8-109-109.1-109c-34.3,0-64.8,15.8-84.8,40.6c-20-24.7-50.5-40.6-84.8-40.6 		c-60.2,0-109.1,48.8-109.1,109c0,96.7,143.6,180.6,189.6,186.5c2.5,0.5,6.3,0.4,8.5,0C300.3,413.4,443.9,329.5,443.9,232.8z"/> </symbol><symbol id="frame16"> 	<circle class="st0" cx="250" cy="250" r="243.2"/> 	<path class="st1" d="M439.5,233.7c0-58.9-47.7-106.6-106.6-106.6c-33.5,0-63.4,15.5-82.9,39.7c-19.5-24.2-49.4-39.7-82.9-39.7 		c-58.9,0-106.6,47.7-106.6,106.6c0,94.5,140.4,176.6,185.4,182.4c2.5,0.5,6.2,0.4,8.3,0C299.2,410.2,439.5,328.2,439.5,233.7z"/> </symbol><symbol id="frame17"> 	<circle class="st0" cx="250" cy="250" r="243.2"/> 	<path class="st1" d="M433.8,234.8c0-57.1-46.3-103.4-103.4-103.4c-32.5,0-61.5,15-80.4,38.5c-18.9-23.4-47.9-38.5-80.4-38.5 		c-57.1,0-103.4,46.3-103.4,103.4c0,91.7,136.1,171.2,179.8,176.9c2.4,0.5,6,0.4,8.1,0C297.7,406,433.8,326.5,433.8,234.8z"/> </symbol><symbol id="frame18"> 	<circle class="st0" cx="250" cy="250" r="243.2"/> 	<path class="st1" d="M424.6,236.6c0-54.3-44-98.2-98.2-98.2c-30.9,0-58.4,14.3-76.4,36.5c-18-22.3-45.5-36.5-76.4-36.5 		c-54.2,0-98.2,44-98.2,98.2c0,87.1,129.3,162.7,170.8,168c2.3,0.5,5.7,0.4,7.7,0C295.3,399.3,424.6,323.7,424.6,236.6z"/> </symbol><symbol id="frame19"> 	<circle class="st0" cx="250" cy="250" r="243.2"/> 	<path class="st1" d="M416.8,238.2c0-51.8-42-93.8-93.8-93.8c-29.5,0-55.8,13.6-73,34.9c-17.2-21.3-43.5-34.9-72.9-34.9 		c-51.8,0-93.8,42-93.8,93.8c0,83.2,123.5,155.3,163.1,160.5c2.2,0.4,5.4,0.4,7.3,0C293.3,393.6,416.8,321.4,416.8,238.2z"/> </symbol><symbol id="frame20"> 	<circle class="st0" cx="250" cy="250" r="243.2"/> 	<path class="st1" d="M412.4,239.1c0-50.5-40.9-91.3-91.4-91.3c-28.7,0-54.3,13.3-71.1,34c-16.7-20.7-42.3-34-71-34 		c-50.4,0-91.4,40.9-91.4,91.3c0,81,120.3,151.3,158.8,156.3c2.1,0.4,5.3,0.4,7.1,0C292.1,390.4,412.4,320.1,412.4,239.1z"/> </symbol><symbol id="frame21"> 	<circle class="st0" cx="250" cy="250" r="243.2"/> 	<path class="st1" d="M412.4,239.1c0-50.5-40.9-91.3-91.4-91.3c-28.7,0-54.3,13.3-71.1,34c-16.7-20.7-42.3-34-71-34 		c-50.4,0-91.4,40.9-91.4,91.3c0,81,120.3,151.3,158.8,156.3c2.1,0.4,5.3,0.4,7.1,0C292.1,390.4,412.4,320.1,412.4,239.1z"/> </symbol><symbol id="frame22"> 	<circle class="st0" cx="250" cy="250" r="243.2"/> 	<path class="st1" d="M412.4,239.1c0-50.5-40.9-91.3-91.4-91.3c-28.7,0-54.3,13.3-71.1,34c-16.7-20.7-42.3-34-71-34 		c-50.4,0-91.4,40.9-91.4,91.3c0,81,120.3,151.3,158.8,156.3c2.1,0.4,5.3,0.4,7.1,0C292.1,390.4,412.4,320.1,412.4,239.1z"/> </symbol><symbol id="frame23"> 	<circle class="st0" cx="250" cy="250" r="243.2"/> 	<path class="st1" d="M412.4,239.1c0-50.5-40.9-91.3-91.4-91.3c-28.7,0-54.3,13.3-71.1,34c-16.7-20.7-42.3-34-71-34 		c-50.4,0-91.4,40.9-91.4,91.3c0,81,120.3,151.3,158.8,156.3c2.1,0.4,5.3,0.4,7.1,0C292.1,390.4,412.4,320.1,412.4,239.1z"/> </symbol><symbol id="frame24"> 	<circle class="st0" cx="250" cy="250" r="243.2"/> 	<path class="st1" d="M412.4,239.1c0-50.5-40.9-91.3-91.4-91.3c-28.7,0-54.3,13.3-71.1,34c-16.7-20.7-42.3-34-71-34 		c-50.4,0-91.4,40.9-91.4,91.3c0,81,120.3,151.3,158.8,156.3c2.1,0.4,5.3,0.4,7.1,0C292.1,390.4,412.4,320.1,412.4,239.1z"/> </symbol><symbol id="frame25"> 	<circle class="st0" cx="250" cy="250" r="243.2"/> 	<path class="st1" d="M412.4,239.1c0-50.5-40.9-91.3-91.4-91.3c-28.7,0-54.3,13.3-71.1,34c-16.7-20.7-42.3-34-71-34 		c-50.4,0-91.4,40.9-91.4,91.3c0,81,120.3,151.3,158.8,156.3c2.1,0.4,5.3,0.4,7.1,0C292.1,390.4,412.4,320.1,412.4,239.1z"/> </symbol><symbol id="frame26"> 	<circle class="st0" cx="250" cy="250" r="243.2"/> 	<path class="st1" d="M412.4,239.1c0-50.5-40.9-91.3-91.4-91.3c-28.7,0-54.3,13.3-71.1,34c-16.7-20.7-42.3-34-71-34 		c-50.4,0-91.4,40.9-91.4,91.3c0,81,120.3,151.3,158.8,156.3c2.1,0.4,5.3,0.4,7.1,0C292.1,390.4,412.4,320.1,412.4,239.1z"/> </symbol><symbol id="frame27"> 	<circle class="st0" cx="250" cy="250" r="243.2"/> 	<path class="st1" d="M412.4,239.1c0-50.5-40.9-91.3-91.4-91.3c-28.7,0-54.3,13.3-71.1,34c-16.7-20.7-42.3-34-71-34 		c-50.4,0-91.4,40.9-91.4,91.3c0,81,120.3,151.3,158.8,156.3c2.1,0.4,5.3,0.4,7.1,0C292.1,390.4,412.4,320.1,412.4,239.1z"/> </symbol><symbol id="frame28"> 	<circle class="st0" cx="250" cy="250" r="243.2"/> 	<path class="st1" d="M412.4,239.1c0-50.5-40.9-91.3-91.4-91.3c-28.7,0-54.3,13.3-71.1,34c-16.7-20.7-42.3-34-71-34 		c-50.4,0-91.4,40.9-91.4,91.3c0,81,120.3,151.3,158.8,156.3c2.1,0.4,5.3,0.4,7.1,0C292.1,390.4,412.4,320.1,412.4,239.1z"/> </symbol><symbol id="frame29"> 	<circle class="st0" cx="250" cy="250" r="243.2"/> 	<path class="st1" d="M412.4,239.1c0-50.5-40.9-91.3-91.4-91.3c-28.7,0-54.3,13.3-71.1,34c-16.7-20.7-42.3-34-71-34 		c-50.4,0-91.4,40.9-91.4,91.3c0,81,120.3,151.3,158.8,156.3c2.1,0.4,5.3,0.4,7.1,0C292.1,390.4,412.4,320.1,412.4,239.1z"/> </symbol><symbol id="frame30"> 	<circle class="st0" cx="250" cy="250" r="243.2"/> 	<path class="st1" d="M412.4,239.1c0-50.5-40.9-91.3-91.4-91.3c-28.7,0-54.3,13.3-71.1,34c-16.7-20.7-42.3-34-71-34 		c-50.4,0-91.4,40.9-91.4,91.3c0,81,120.3,151.3,158.8,156.3c2.1,0.4,5.3,0.4,7.1,0C292.1,390.4,412.4,320.1,412.4,239.1z"/> </symbol><symbol id="frame31"> 	<circle class="st0" cx="250" cy="250" r="243.2"/> 	<path class="st1" d="M412.4,239.1c0-50.5-40.9-91.3-91.4-91.3c-28.7,0-54.3,13.3-71.1,34c-16.7-20.7-42.3-34-71-34 		c-50.4,0-91.4,40.9-91.4,91.3c0,81,120.3,151.3,158.8,156.3c2.1,0.4,5.3,0.4,7.1,0C292.1,390.4,412.4,320.1,412.4,239.1z"/> </symbol>
</g>
<g class="animation__scene">
	<use xmlns:xlink="http://www.w3.org/1999/xlink" xlink:href="#frame01"/>
</g><script type="application/javascript">
	<![CDATA[

	(function(exportType) {
	  var SVGlib = {
	    utils: {
	      loadDoc: function(url, callback) {
	        var xhttp = new XMLHttpRequest();
	          xhttp.onreadystatechange = function() {
	            if (xhttp.readyState == 4 && xhttp.status == 200) {
	              callback.call(null, xhttp);
	            }
	          };
	          xhttp.open("GET", url, true);
	          xhttp.send();
	      },
	      ready: function(fn) {
	        if (document.readyState != 'loading'){
	          fn();
	        } else {
	          document.addEventListener('DOMContentLoaded', fn);
	        }
	      }
	    },
	    animationConfig: {
	      interval: null,
	      looped: true,
	      scene: null,
	      frameTime: 77,
	      delay: 0,
	      onOver: false,
	      reverse: false,
	      direction: 'forward'
	    },
	    currentFrame: 1,
	    animationStarted: false,
	    step: 1,
	    startFrame: 1,
	    endFrame: 13,
	    firstOut: false,
	    reversed: false,

	    format: function(num) {
	      if(num < 10) {
	        return '0' + num;
	      }
	      return num.toString();
	    },

	    encodeForInsertion: function(string) {
	      return "data:image/svg+xml," + encodeURIComponent(string);
	    },

	    nextFrame: function () {
	      if(this.currentFrame === this.endFrame) {

	        if(!this.animationConfig.looped) this.stopAnimation();

	        this.currentFrame = this.startFrame;
	      }

	      this.animationConfig.scene.setAttribute('xlink:href', '#frame' + this.format(this.currentFrame));
	      this.currentFrame += this.step;

	      if(this.animationConfig.image) {
	        this.animationConfig.image.setAttribute('src', this.encodeForInsertion(this.animationConfig.root.outerHTML));
	      }
	    },

	    startAnimation: function(ev) {
	      var self = this;
	      setTimeout(function() {
	        self.animationStarted = true;
	        self.interval = setInterval(function() {
	          self.nextFrame();
	        },self.animationConfig.frameTime);
	      }, this.animationConfig.delay);
	    },

	    stopAnimation: function(ev) {
	      clearInterval(this.interval);
	      this.animationStarted = false;
	      if(this.reversed) this.reverseAnimation();

	    },

	    isInside: function(mouseEvent, clientRect) {
	      return (
	        (mouseEvent.clientX >= clientRect.left) && (mouseEvent.clientX <= clientRect.right)
	        &&
	        (mouseEvent.clientY >= clientRect.top) && (mouseEvent.clientY <= clientRect.bottom)
	      );
	    },

	    reverseAnimation: function() {
	        this.startFrame = this.startFrame === 1 ? this.endFrame : 1;
	        this.endFrame = this.endFrame !== 1 ? 1 : this.animationConfig.frameCount;
	        this.step = this.step === -1 ? 1 : -1;
	        if(!this.animationStarted) {
	            this.currentFrame = this.startFrame;
	        }
	        this.reversed = !this.reversed;
	    },

	    handleMouseMove: function(ev, isInside) {

	      var self = this;

	      if(typeof isInside === 'undefined') isInside = self.isInside(ev, self.animationConfig.scene.getBoundingClientRect());

	      if(isInside && !self.animationStarted && !self.firstOut) {
	        self.startAnimation();
	        self.firstOut = true;
	      } else if(!isInside && self.animationStarted && self.animationConfig.reverse && self.firstOut) {
	        self.reverseAnimation();
	      } else if(!isInside && self.animationStarted && self.firstOut) {
	        self.stopAnimation();
	      }

	      if(!isInside && self.firstOut) {
	        self.firstOut = false;
	      }
	    },

	    init: function(config) {
	      for(var setting in config){
	        if(config.hasOwnProperty(setting)) {
	          this.animationConfig[setting] = config[setting]
	        }
	      }

	      if(config.frameCount) this.endFrame = config.frameCount;

	      if(this.animationConfig.direction !== 'forward') {
	        this.reverseAnimation();
			this.reversed = false;
	      }

	      var self = this;

	      if(this.animationConfig.onOver && this.animationConfig.image) {
	        this.animationConfig.image.addEventListener('mouseenter', function(ev){
	          self.handleMouseMove(ev, true);
	        });

	        this.animationConfig.image.addEventListener('mouseleave', function(ev){
	          self.handleMouseMove(ev, false);
	        });

	      } else if (this.animationConfig.onOver) {
	        window.addEventListener('mousemove', function(ev){
	          self.handleMouseMove(ev);
	        });
	      } else {
	        self.startAnimation();
	      }
	    },

	    initEmbedded: function() {
	      var elem = document.querySelector('.animation');
	          this.init({
	            scene: elem.querySelector('.animation__scene use'),
	            delay: parseInt(elem.getAttribute('data-delay'), 10),
	            frameTime: parseInt(elem.getAttribute('data-frame'), 10),
	            looped: (elem.getAttribute('data-looped') === 'true'),
	            onOver: (elem.getAttribute('data-onover') === 'true'),
	            reverse: (elem.getAttribute('data-reverse') === 'true'),
	            direction: elem.getAttribute('data-direction'),
	            frameCount: elem.querySelectorAll('symbol').length
	          });
	    },

	    initAsImg: function(xml) {
	      var i,
	          xmlDoc = xml.responseXML,
	          elem = xmlDoc.querySelector('.animation');

	      this.init({
	        root: elem,
	        scene: elem.querySelector('.animation__scene use'),
	        delay: parseInt(elem.getAttribute('data-delay'), 10),
	        frameTime: parseInt(elem.getAttribute('data-frame'), 10),
	        looped: (elem.getAttribute('data-looped') === 'true'),
	        onOver: (elem.getAttribute('data-onover') === 'true'),
	        reverse: (elem.getAttribute('data-reverse') === 'true'),
	        direction: elem.getAttribute('data-direction'),
	        image:  document.querySelector('#svg__holder'),
	        frameCount: elem.querySelectorAll('symbol').length
	      });
	    }
	  };

	  var utils = SVGlib.utils;

	  utils.ready(function(){
	    if(exportType === 'embedded') {
	      SVGlib.initEmbedded();
	    } else if(exportType === 'image') {
	      var image = document.querySelector('#svg__holder');
	      utils.loadDoc(image.getAttribute('src'), function(resp){
	        SVGlib.initAsImg(resp);
	      });
	    }
	  });
	})((window.state && window.state.exportType) || 'embedded');

]]>
</script>
</svg>