<?xml version="1.0" encoding="utf-8"?>
<!-- Generator: Adobe Illustrator 19.0.0, SVG Export Plug-In . SVG Version: 6.00 Build 0)  -->
<svg version="1.1" id="graphics"
	class="animation"
	xmlns="http://www.w3.org/2000/svg"
	xmlns:xlink="http://www.w3.org/1999/xlink"
	x="0px" y="0px"
	data-frame="77"
	data-delay="0"
	data-looped="true"
	data-onover="false"
	data-reverse="false"
	data-direction="forward"
	viewBox="0 0 500 500"
	style="enable-background:new 0 0 500 500;"
	>
<style type="text/css">
	.st0{fill:#F82D4F;}
	.st1{fill:#FFFFFF;}
</style>
<g class="animation__source">
	<symbol id="frame01">
		<circle fill="#F82D4F" cx="250" cy="250" r="243.194"/>
		<path fill="#FFFFFF" d="M411.626,237.904c0-50.213-40.705-90.908-90.923-90.908c-28.581,0-54.038,13.206-70.709,33.82
			c-16.661-20.614-42.121-33.82-70.697-33.82c-50.207,0-90.923,40.695-90.923,90.908c0,80.59,119.683,150.553,158.081,155.519
			c2.114,0.433,5.261,0.358,7.084,0C291.935,388.457,411.626,318.494,411.626,237.904z"/>
	</symbol>
	<symbol viewBox="0 0 500 500" id="frame02">
		<circle fill="#F82D4F" cx="250" cy="250" r="243.194"/>
		<path fill="#FFFFFF" d="M405.075,239.22c0-48.178-39.055-87.224-87.238-87.224c-27.422,0-51.848,12.671-67.843,32.449
			c-15.985-19.778-40.414-32.449-67.832-32.449c-48.172,0-87.238,39.046-87.238,87.224c0,77.323,114.832,144.45,151.674,149.216
			c2.029,0.414,5.048,0.344,6.797,0C290.236,383.67,405.075,316.543,405.075,239.22z"/>
	</symbol>
	<symbol viewBox="0 0 500 500" id="frame03">
		<circle fill="#F82D4F" cx="250" cy="250" r="243.194"/>
		<path fill="#FFFFFF" d="M385.859,243.078c0-42.208-34.216-76.416-76.428-76.416c-24.024,0-45.423,11.101-59.437,28.429
			c-14.005-17.328-35.406-28.429-59.426-28.429c-42.203,0-76.428,34.208-76.428,76.416c0,67.742,100.603,126.552,132.879,130.726
			c1.777,0.364,4.422,0.302,5.955,0C285.25,369.63,385.859,310.82,385.859,243.078z"/>
	</symbol>
	<symbol viewBox="0 0 500 500" id="frame04">
		<circle fill="#F82D4F" cx="250" cy="250" r="243.193"/>
		<path fill="#FFFFFF" d="M389.206,242.406c0-43.248-35.059-78.298-78.311-78.298c-24.616,0-46.543,11.374-60.901,29.129
			c-14.349-17.755-36.277-29.129-60.89-29.129c-43.243,0-78.311,35.05-78.311,78.298c0,69.41,103.082,129.669,136.152,133.945
			c1.821,0.373,4.531,0.309,6.102,0C286.118,372.075,389.206,311.816,389.206,242.406z"/>
	</symbol>
	<symbol viewBox="0 0 500 500" id="frame05">
		<circle fill="#F82D4F" cx="250" cy="250" r="243.193"/>
		<path fill="#FFFFFF" d="M404.928,239.25c0-48.133-39.018-87.142-87.154-87.142c-27.396,0-51.8,12.658-67.779,32.419
			c-15.97-19.761-40.375-32.419-67.768-32.419c-48.127,0-87.154,39.009-87.154,87.142c0,77.25,114.724,144.313,151.529,149.073
			c2.027,0.415,5.043,0.343,6.791,0C290.197,383.563,404.928,316.5,404.928,239.25z"/>
	</symbol>
	<symbol viewBox="0 0 500 500" id="frame06">
		<circle fill="#F82D4F" cx="250" cy="250" r="243.193"/>
		<path fill="#FFFFFF" d="M427.637,234.689c0-55.188-44.736-99.914-99.928-99.914c-31.413,0-59.393,14.514-77.715,37.171
			c-18.311-22.657-46.293-37.171-77.7-37.171c-55.182,0-99.93,44.727-99.93,99.914c0,88.573,131.539,165.468,173.74,170.925
			c2.324,0.476,5.782,0.394,7.786,0C296.09,400.157,427.637,323.263,427.637,234.689z"/>
	</symbol>
	<symbol viewBox="0 0 500 500" id="frame07">
		<circle fill="#F82D4F" cx="250" cy="250" r="243.193"/>
		<path fill="#FFFFFF" d="M440.97,232.013c0-59.331-48.094-107.414-107.429-107.414c-33.771,0-63.851,15.604-83.549,39.961
			c-19.685-24.357-49.768-39.961-83.532-39.961c-59.323,0-107.43,48.083-107.43,107.414c0,95.222,141.413,177.888,186.781,183.754
			c2.499,0.511,6.216,0.423,8.37,0C299.549,409.9,440.97,327.234,440.97,232.013z"/>
	</symbol>
	<symbol viewBox="0 0 500 500" id="frame08">
		<circle fill="#F82D4F" cx="250" cy="250" r="243.194"/>
		<path fill="#FFFFFF" d="M442.743,233.01c0-59.882-48.541-108.411-108.426-108.411c-34.085,0-64.443,15.748-84.324,40.332
			c-19.868-24.584-50.229-40.332-84.308-40.332c-59.875,0-108.428,48.529-108.428,108.411c0,96.105,142.725,179.539,188.515,185.459
			c2.521,0.517,6.273,0.428,8.448,0C300.009,412.549,442.743,329.115,442.743,233.01z"/>
	</symbol>
	<symbol viewBox="0 0 500 500" id="frame09">
		<circle fill="#F82D4F" cx="250" cy="250" r="243.193"/>
		<path fill="#FFFFFF" d="M432.261,235.114c0-56.625-45.901-102.516-102.53-102.516c-32.231,0-60.939,14.892-79.738,38.139
			c-18.788-23.247-47.498-38.139-79.723-38.139c-56.618,0-102.531,45.891-102.531,102.516c0,90.879,134.964,169.775,178.264,175.374
			c2.384,0.488,5.932,0.404,7.989,0C297.29,404.89,432.261,325.993,432.261,235.114z"/>
	</symbol>
	<symbol viewBox="0 0 500 500" id="frame10">
		<circle fill="#F82D4F" cx="250" cy="250" r="243.193"/>
		<path fill="#FFFFFF" d="M413.279,238.926c0-50.728-41.121-91.839-91.852-91.839c-28.875,0-54.592,13.341-71.434,34.166
			c-16.832-20.825-42.552-34.166-71.421-34.166c-50.721,0-91.853,41.111-91.853,91.839c0,81.414,120.908,152.094,159.698,157.109
			c2.136,0.438,5.315,0.361,7.157,0C292.364,391.02,413.279,320.34,413.279,238.926z"/>
	</symbol>
	<symbol viewBox="0 0 500 500" id="frame11">
		<circle fill="#F82D4F" cx="250" cy="250" r="243.193"/>
		<path fill="#FFFFFF" d="M409.574,239.67c0-49.577-40.188-89.755-89.768-89.755c-28.22,0-53.353,13.038-69.813,33.391
			c-16.45-20.353-41.586-33.391-69.8-33.391c-49.569,0-89.769,40.178-89.769,89.755c0,79.566,118.165,148.642,156.073,153.543
			c2.089,0.428,5.195,0.354,6.995,0C291.402,388.312,409.574,319.236,409.574,239.67z"/>
	</symbol>
	<symbol viewBox="0 0 500 500" id="frame12">
		<circle fill="#F82D4F" cx="250" cy="250" r="243.193"/>
		<path fill="#FFFFFF" d="M417.679,238.043c0-52.096-42.229-94.314-94.327-94.314c-29.652,0-56.062,13.701-73.357,35.087
			c-17.286-21.386-43.698-35.087-73.346-35.087c-52.086,0-94.327,42.219-94.327,94.314c0,83.607,124.166,156.19,164,161.342
			c2.194,0.449,5.459,0.371,7.351,0C293.505,394.233,417.679,321.65,417.679,238.043z"/>
	</symbol>
	<symbol viewBox="0 0 500 500" id="frame13">
		<circle fill="#F82D4F" cx="250" cy="250" r="243.193"/>
		<path fill="#FFFFFF" d="M434.645,234.635c0-57.365-46.502-103.856-103.871-103.856c-32.653,0-61.734,15.087-80.78,38.637
			c-19.035-23.55-48.119-38.637-80.767-38.637c-57.356,0-103.871,46.491-103.871,103.856c0,92.067,136.729,171.995,180.594,177.667
			c2.416,0.496,6.011,0.408,8.094,0C297.907,406.63,434.645,326.702,434.645,234.635z"/>
	</symbol>
	<symbol viewBox="0 0 500 500" id="frame14">
		<circle fill="#F82D4F" cx="250" cy="250" r="243.193"/>
		<path fill="#FFFFFF" d="M440.376,233.484c0-59.146-47.946-107.08-107.096-107.08c-33.667,0-63.65,15.556-83.288,39.838
			c-19.626-24.282-49.613-39.838-83.274-39.838c-59.137,0-107.096,47.935-107.096,107.08c0,94.925,140.974,177.333,186.2,183.183
			c2.491,0.51,6.198,0.42,8.346,0C299.395,410.817,440.376,328.409,440.376,233.484z"/>
	</symbol>
	<symbol viewBox="0 0 500 500" id="frame15">
		<circle fill="#F82D4F" cx="250" cy="250" r="243.193"/>
		<path fill="#FFFFFF" d="M443.875,232.782c0-60.233-48.827-109.049-109.064-109.049c-34.285,0-64.82,15.842-84.818,40.569
			c-19.987-24.728-50.525-40.569-84.805-40.569c-60.224,0-109.064,48.815-109.064,109.049c0,96.67,143.565,180.592,189.622,186.549
			c2.537,0.52,6.312,0.428,8.499,0C300.302,413.374,443.875,329.452,443.875,232.782z"/>
	</symbol>
	<symbol viewBox="0 0 500 500" id="frame16">
		<circle fill="#F82D4F" cx="250" cy="250" r="243.193"/>
		<path fill="#FFFFFF" d="M439.543,233.652c0-58.887-47.736-106.611-106.627-106.611c-33.52,0-63.371,15.487-82.922,39.663
			c-19.542-24.176-49.396-39.663-82.909-39.663c-58.877,0-106.626,47.724-106.626,106.611c0,94.509,140.355,176.556,185.383,182.378
			c2.48,0.51,6.172,0.42,8.311,0C299.178,410.208,439.543,328.161,439.543,233.652z"/>
	</symbol>
	<symbol viewBox="0 0 500 500" id="frame17">
		<circle fill="#F82D4F" cx="250" cy="250" r="243.193"/>
		<path fill="#FFFFFF" d="M433.811,234.803c0-57.105-46.291-103.387-103.402-103.387c-32.504,0-61.455,15.019-80.414,38.463
			c-18.949-23.444-47.902-38.463-80.402-38.463c-57.098,0-103.402,46.281-103.402,103.387c0,91.651,136.111,171.218,179.777,176.864
			c2.406,0.494,5.986,0.406,8.059,0C297.691,406.021,433.811,326.454,433.811,234.803z"/>
	</symbol>
	<symbol viewBox="0 0 500 500" id="frame18">
		<circle fill="#F82D4F" cx="250" cy="250" r="243.193"/>
		<path fill="#FFFFFF" d="M424.633,236.646c0-54.255-43.98-98.225-98.238-98.225c-30.883,0-58.387,14.269-76.4,36.543
			c-18.004-22.274-45.51-36.543-76.387-36.543c-54.248,0-98.24,43.97-98.24,98.225c0,87.074,129.316,162.67,170.801,168.033
			c2.287,0.469,5.688,0.387,7.656,0C295.311,399.315,424.633,323.72,424.633,236.646z"/>
	</symbol>
	<symbol viewBox="0 0 500 500" id="frame19">
		<circle fill="#F82D4F" cx="250" cy="249.999" r="243.193"/>
		<path fill="#FFFFFF" d="M416.771,238.223c0-51.813-42-93.803-93.816-93.803c-29.492,0-55.759,13.626-72.961,34.898
			c-17.193-21.272-43.462-34.898-72.949-34.898c-51.805,0-93.816,41.99-93.816,93.803c0,83.157,123.494,155.349,163.111,160.47
			c2.184,0.449,5.432,0.371,7.313,0C293.27,393.571,416.771,321.38,416.771,238.223z"/>
	</symbol>
	<symbol viewBox="0 0 500 500" id="frame20">
		<circle fill="#F82D4F" cx="250" cy="250" r="243.193"/>
		<path fill="#FFFFFF" d="M412.405,239.1c0-50.456-40.901-91.347-91.36-91.347c-28.721,0-54.299,13.27-71.051,33.984
			c-16.743-20.715-42.324-33.984-71.039-33.984c-50.448,0-91.36,40.891-91.36,91.347c0,80.979,120.261,151.28,158.841,156.268
			c2.127,0.436,5.289,0.359,7.121,0C292.137,390.38,412.405,320.079,412.405,239.1z"/>
	</symbol>
	<symbol viewBox="0 0 500 500" id="frame21">
		<circle fill="#F82D4F" cx="250" cy="250" r="243.193"/>
		<path fill="#FFFFFF" d="M412.406,239.1c0-50.456-40.902-91.347-91.361-91.347c-28.72,0-54.299,13.27-71.051,33.984
			c-16.741-20.715-42.323-33.984-71.038-33.984c-50.448,0-91.36,40.891-91.36,91.347c0,80.979,120.261,151.28,158.841,156.268
			c2.126,0.436,5.288,0.359,7.12,0C292.138,390.38,412.406,320.079,412.406,239.1z"/>
	</symbol>
	<symbol viewBox="0 0 500 500" id="frame22">
		<circle fill="#F82D4F" cx="250" cy="250" r="243.193"/>
		<path fill="#FFFFFF" d="M412.405,239.1c0-50.456-40.901-91.347-91.36-91.347c-28.721,0-54.299,13.27-71.051,33.984
			c-16.741-20.715-42.324-33.984-71.039-33.984c-50.448,0-91.36,40.891-91.36,91.347c0,80.979,120.261,151.28,158.841,156.268
			c2.127,0.436,5.289,0.359,7.121,0C292.137,390.38,412.405,320.079,412.405,239.1z"/>
	</symbol>
	<symbol viewBox="0 0 500 500" id="frame23">
		<circle fill="#F82D4F" cx="250" cy="250" r="243.193"/>
		<path fill="#FFFFFF" d="M412.405,239.1c0-50.456-40.901-91.347-91.36-91.347c-28.721,0-54.299,13.27-71.051,33.984
			c-16.741-20.715-42.324-33.984-71.039-33.984c-50.448,0-91.36,40.891-91.36,91.347c0,80.979,120.261,151.28,158.841,156.268
			c2.127,0.436,5.289,0.359,7.121,0C292.137,390.38,412.405,320.079,412.405,239.1z"/>
	</symbol>
	<symbol viewBox="0 0 500 500" id="frame24">
		<circle fill="#F82D4F" cx="250" cy="250" r="243.193"/>
		<path fill="#FFFFFF" d="M412.405,239.1c0-50.456-40.901-91.347-91.36-91.347c-28.721,0-54.299,13.27-71.051,33.984
			c-16.741-20.715-42.324-33.984-71.039-33.984c-50.448,0-91.36,40.891-91.36,91.347c0,80.979,120.261,151.28,158.841,156.268
			c2.127,0.436,5.289,0.359,7.121,0C292.137,390.38,412.405,320.079,412.405,239.1z"/>
	</symbol>
	<symbol viewBox="0 0 500 500" id="frame25">
		<circle fill="#F82D4F" cx="250" cy="250" r="243.193"/>
		<path fill="#FFFFFF" d="M412.405,239.1c0-50.456-40.901-91.347-91.36-91.347c-28.721,0-54.299,13.27-71.051,33.984
			c-16.741-20.715-42.324-33.984-71.039-33.984c-50.448,0-91.36,40.891-91.36,91.347c0,80.978,120.261,151.281,158.841,156.267
			c2.127,0.438,5.289,0.361,7.121,0C292.137,390.381,412.405,320.078,412.405,239.1z"/>
	</symbol>
	<symbol viewBox="0 0 500 500" id="frame26">
		<circle fill="#F82D4F" cx="250" cy="250" r="243.193"/>
		<path fill="#FFFFFF" d="M412.405,239.1c0-50.456-40.901-91.347-91.36-91.347c-28.721,0-54.299,13.27-71.051,33.984
			c-16.741-20.715-42.324-33.984-71.039-33.984c-50.448,0-91.36,40.891-91.36,91.347c0,80.978,120.261,151.281,158.841,156.267
			c2.127,0.438,5.289,0.361,7.121,0C292.137,390.381,412.405,320.078,412.405,239.1z"/>
	</symbol>
	<symbol viewBox="0 0 500 500" id="frame27">
		<circle fill="#F82D4F" cx="250" cy="250" r="243.193"/>
		<path fill="#FFFFFF" d="M412.406,239.101c0-50.456-40.902-91.347-91.361-91.347c-28.721,0-54.299,13.27-71.051,33.984
			c-16.741-20.715-42.324-33.984-71.039-33.984c-50.447,0-91.359,40.891-91.359,91.347c0,80.978,120.26,151.28,158.84,156.267
			c2.127,0.438,5.289,0.361,7.121,0C292.137,390.381,412.406,320.078,412.406,239.101z"/>
	</symbol>
	<symbol viewBox="0 0 500 500" id="frame28">
		<circle fill="#F82D4F" cx="250" cy="250" r="243.193"/>
		<path fill="#FFFFFF" d="M412.405,239.101c0-50.456-40.901-91.347-91.36-91.347c-28.721,0-54.299,13.27-71.051,33.984
			c-16.741-20.715-42.324-33.984-71.039-33.984c-50.448,0-91.36,40.891-91.36,91.347c0,80.978,120.261,151.28,158.841,156.267
			c2.127,0.438,5.289,0.361,7.121,0C292.137,390.381,412.405,320.078,412.405,239.101z"/>
	</symbol>
	<symbol viewBox="0 0 500 500" id="frame29">
		<circle fill="#F82D4F" cx="250" cy="250" r="243.193"/>
		<path fill="#FFFFFF" d="M412.405,239.1c0-50.456-40.901-91.347-91.36-91.347c-28.721,0-54.299,13.27-71.051,33.984
			c-16.741-20.715-42.324-33.984-71.039-33.984c-50.448,0-91.36,40.891-91.36,91.347c0,80.978,120.261,151.281,158.841,156.267
			c2.127,0.438,5.289,0.361,7.121,0C292.137,390.381,412.405,320.078,412.405,239.1z"/>
	</symbol>
	<symbol viewBox="0 0 500 500" id="frame30">
		<circle fill="#F82D4F" cx="250" cy="250" r="243.193"/>
		<path fill="#FFFFFF" d="M412.405,239.1c0-50.456-40.901-91.347-91.36-91.347c-28.721,0-54.299,13.27-71.051,33.984
			c-16.741-20.715-42.324-33.984-71.039-33.984c-50.448,0-91.36,40.891-91.36,91.347c0,80.978,120.261,151.281,158.841,156.267
			c2.127,0.438,5.289,0.361,7.121,0C292.137,390.381,412.405,320.078,412.405,239.1z"/>
	</symbol>
	<symbol viewBox="0 0 500 500" id="frame31">
		<circle fill="#F82D4F" cx="250" cy="250" r="243.193"/>
		<path fill="#FFFFFF" d="M412.406,239.1c0-50.456-40.902-91.347-91.361-91.347c-28.721,0-54.299,13.27-71.051,33.984
			c-16.741-20.715-42.324-33.984-71.039-33.984c-50.448,0-91.36,40.891-91.36,91.347c0,80.978,120.261,151.281,158.841,156.267
			c2.127,0.438,5.289,0.361,7.121,0C292.137,390.381,412.406,320.078,412.406,239.1z"/>
	</symbol>
</g>
<g class="animation__scene">
	<use xmlns:xlink="http://www.w3.org/1999/xlink" xlink:href="#frame01"/>
</g>
<script type="application/javascript">
	<![CDATA[

	(function(exportType) {
	  var SVGlib = {
	    utils: {
	      loadDoc: function(url, callback) {
	        var xhttp = new XMLHttpRequest();
	          xhttp.onreadystatechange = function() {
	            if (xhttp.readyState == 4 && xhttp.status == 200) {
	              callback.call(null, xhttp);
	            }
	          };
	          xhttp.open("GET", url, true);
	          xhttp.send();
	      },
	      ready: function(fn) {
	        if (document.readyState != 'loading'){
	          fn();
	        } else {
	          document.addEventListener('DOMContentLoaded', fn);
	        }
	      }
	    },
	    animationConfig: {
	      interval: null,
	      looped: true,
	      scene: null,
	      frameTime: 77,
	      delay: 0,
	      onOver: false,
	      reverse: false,
	      direction: 'forward'
	    },
	    currentFrame: 1,
	    animationStarted: false,
	    step: 1,
	    startFrame: 1,
	    endFrame: 13,
	    firstOut: false,
	    reversed: false,

	    format: function(num) {
	      if(num < 10) {
	        return '0' + num;
	      }
	      return num.toString();
	    },

	    encodeForInsertion: function(string) {
	      return "data:image/svg+xml," + encodeURIComponent(string);
	    },

	    nextFrame: function () {
	      if(this.currentFrame === this.endFrame) {

	        if(!this.animationConfig.looped) this.stopAnimation();

	        this.currentFrame = this.startFrame;
	      }

	      this.animationConfig.scene.setAttribute('xlink:href', '#frame' + this.format(this.currentFrame));
	      this.currentFrame += this.step;

	      if(this.animationConfig.image) {
	        this.animationConfig.image.setAttribute('src', this.encodeForInsertion(this.animationConfig.root.outerHTML));
	      }
	    },

	    startAnimation: function(ev) {
	      var self = this;
	      setTimeout(function() {
	        self.animationStarted = true;
	        self.interval = setInterval(function() {
	          self.nextFrame();
	        },self.animationConfig.frameTime);
	      }, this.animationConfig.delay);
	    },

	    stopAnimation: function(ev) {
	      clearInterval(this.interval);
	      this.animationStarted = false;
	      if(this.reversed) this.reverseAnimation();

	    },

	    isInside: function(mouseEvent, clientRect) {
	      return (
	        (mouseEvent.clientX >= clientRect.left) && (mouseEvent.clientX <= clientRect.right)
	        &&
	        (mouseEvent.clientY >= clientRect.top) && (mouseEvent.clientY <= clientRect.bottom)
	      );
	    },

	    reverseAnimation: function() {
	        this.startFrame = this.startFrame === 1 ? this.endFrame : 1;
	        this.endFrame = this.endFrame !== 1 ? 1 : this.animationConfig.frameCount;
	        this.step = this.step === -1 ? 1 : -1;
	        if(!this.animationStarted) {
	            this.currentFrame = this.startFrame;
	        }
	        this.reversed = !this.reversed;
	    },

	    handleMouseMove: function(ev, isInside) {

	      var self = this;

	      if(typeof isInside === 'undefined') isInside = self.isInside(ev, self.animationConfig.scene.getBoundingClientRect());

	      if(isInside && !self.animationStarted && !self.firstOut) {
	        self.startAnimation();
	        self.firstOut = true;
	      } else if(!isInside && self.animationStarted && self.animationConfig.reverse && self.firstOut) {
	        self.reverseAnimation();
	      } else if(!isInside && self.animationStarted && self.firstOut) {
	        self.stopAnimation();
	      }

	      if(!isInside && self.firstOut) {
	        self.firstOut = false;
	      }
	    },

	    init: function(config) {
	      for(var setting in config){
	        if(config.hasOwnProperty(setting)) {
	          this.animationConfig[setting] = config[setting]
	        }
	      }

	      if(config.frameCount) this.endFrame = config.frameCount;

	      if(this.animationConfig.direction !== 'forward') {
	        this.reverseAnimation();
			this.reversed = false;
	      }

	      var self = this;

	      if(this.animationConfig.onOver && this.animationConfig.image) {
	        this.animationConfig.image.addEventListener('mouseenter', function(ev){
	          self.handleMouseMove(ev, true);
	        });

	        this.animationConfig.image.addEventListener('mouseleave', function(ev){
	          self.handleMouseMove(ev, false);
	        });

	      } else if (this.animationConfig.onOver) {
	        window.addEventListener('mousemove', function(ev){
	          self.handleMouseMove(ev);
	        });
	      } else {
	        self.startAnimation();
	      }
	    },

	    initEmbedded: function() {
	      var elem = document.querySelector('.animation');
	          this.init({
	            scene: elem.querySelector('.animation__scene use'),
	            delay: parseInt(elem.getAttribute('data-delay'), 10),
	            frameTime: parseInt(elem.getAttribute('data-frame'), 10),
	            looped: (elem.getAttribute('data-looped') === 'true'),
	            onOver: (elem.getAttribute('data-onover') === 'true'),
	            reverse: (elem.getAttribute('data-reverse') === 'true'),
	            direction: elem.getAttribute('data-direction'),
	            frameCount: elem.querySelectorAll('symbol').length
	          });
	    },

	    initAsImg: function(xml) {
	      var i,
	          xmlDoc = xml.responseXML,
	          elem = xmlDoc.querySelector('.animation');

	      this.init({
	        root: elem,
	        scene: elem.querySelector('.animation__scene use'),
	        delay: parseInt(elem.getAttribute('data-delay'), 10),
	        frameTime: parseInt(elem.getAttribute('data-frame'), 10),
	        looped: (elem.getAttribute('data-looped') === 'true'),
	        onOver: (elem.getAttribute('data-onover') === 'true'),
	        reverse: (elem.getAttribute('data-reverse') === 'true'),
	        direction: elem.getAttribute('data-direction'),
	        image:  document.querySelector('#svg__holder'),
	        frameCount: elem.querySelectorAll('symbol').length
	      });
	    }
	  };

	  var utils = SVGlib.utils;

	  utils.ready(function(){
	    if(exportType === 'embedded') {
	      SVGlib.initEmbedded();
	    } else if(exportType === 'image') {
	      var image = document.querySelector('#svg__holder');
	      utils.loadDoc(image.getAttribute('src'), function(resp){
	        SVGlib.initAsImg(resp);
	      });
	    }
	  });
	})((window.state && window.state.exportType) || 'embedded');

]]>
</script>
</svg>
