<?xml version="1.0" encoding="utf-8"?>
<svg version="1.1" id="graphics"
	class="animation"
	xmlns="http://www.w3.org/2000/svg"
	xmlns:xlink="http://www.w3.org/1999/xlink"
	x="0px" y="0px"
	data-frame="77"
	data-delay="0"
	data-looped="true"
	data-onover="false"
	data-reverse="false"
	data-direction="forward"
	viewBox="0 0 500 500"
	style="enable-background:new 0 0 500 500;"
	>
	<style> 	.st0{fill:#FFD56C;stroke:#000000;stroke-width:9;stroke-linecap:round;stroke-linejoin:round;stroke-miterlimit:10;} 	.st1{fill:none;stroke:#000000;stroke-width:9;stroke-linecap:round;stroke-linejoin:round;stroke-miterlimit:10;} 	.st2{fill:#E84261;stroke:#000102;stroke-width:9;stroke-linecap:round;stroke-linejoin:round;stroke-miterlimit:10;} 	.st3{fill:#EF7089;stroke:#000102;stroke-width:9;stroke-linecap:round;stroke-linejoin:round;stroke-miterlimit:10;} 	.st4{fill:none;stroke:#000102;stroke-width:9;stroke-linecap:round;stroke-linejoin:round;stroke-miterlimit:10;} 
</style>
<g class="animation__source">
<symbol id="frame01"> 	<circle class="st0" cx="250" cy="250" r="244"/> 	<path class="st1" d="M386.1,230.4c0,0-11.8-13.5-38.8-11.5s-37,18.4-37,18.4s9.9-40.8,48.4-45.5c35-4.2,55.8,17.3,55.8,17.3"/> 	<path class="st1" d="M115.3,230.6c0,0,11-13.8,38-11.8s38.2,18.2,38.2,18.2s-11.2-40-49.7-44.7c-35-4.2-56.3,17-56.3,17"/> 	<path class="st2" d="M99.8,295c-0.1,2.2-0.1,4.3-0.1,6.5c0,83.6,67.8,151.3,151.3,151.3s151.3-67.8,151.3-151.3 		c0-2.2-0.1-4.3-0.1-6.5H99.8z"/> 	<path class="st3" d="M132.3,395.4c27.7,35,70.6,57.4,118.7,57.4c48.4,0,91.5-22.7,119.2-58.1C328.6,375.3,172.1,373.3,132.3,395.4z 		"/> </symbol><symbol id="frame02"> 	<circle class="st0" cx="250" cy="250" r="244"/> 	<path class="st1" d="M385.5,227.4c0,0-12.4-13.8-39.4-11.8s-35,18.5-35,18.5s8-41.5,46.5-46.2c35-4.2,57.8,17.8,57.8,17.8"/> 	<path class="st1" d="M115.7,228.2c0,0,11-12.8,38-10.8s36.2,17,36.2,17s-12.1-40.9-50.6-45.6c-35-4.2-55.4,19.6-55.4,19.6"/> 	<path class="st2" d="M99.8,295c-0.1,2.2-0.1,4.3-0.1,6.5c0,83.6,67.8,151.3,151.3,151.3c83.6,0,151.3-67.8,151.3-151.3 		c0-2.2-0.1-4.3-0.1-6.5H99.8z"/> 	<path class="st3" d="M129.2,392.7c27.7,35,73.7,60.2,121.8,60.2c48.4,0,93.7-24.8,121.4-60.2c0,0-51.3-15.7-122.8-15.7 		S129.2,392.7,129.2,392.7z"/> </symbol><symbol id="frame03"> 	<circle class="st0" cx="250" cy="250" r="244"/> 	<path class="st1" d="M385.3,215.5c0,0-9.8-12.2-36.8-10.2s-37.2,14-37.2,14s9.4-36.8,47.8-42.4c30.5-4.5,54.5,15.8,54.5,15.8"/> 	<path class="st1" d="M115.4,221.3c0,0,10.7-14.2,37.7-12.2s36.5,14.6,36.5,14.6s-8.7-36.9-47.2-41.6c-35-4.2-56.7,17.7-56.7,17.7" 		/> 	<path class="st2" d="M99.7,286.8c-0.1,2.2-0.1,12.5,0,14.7c3.9,75.3,67.9,144.7,151.5,144.7c70.5,0,148.3-53.3,153.3-152.5 		c0.3-6.4-0.3-14.1-0.3-14.8L99.7,286.8z"/> 	<path class="st3" d="M134.2,389.8c30.3,35.3,73.7,58.3,117,56.3c60.1-2.8,96.3-26.2,122.6-62.4c0,0-40.6-18.8-124.2-17.2 		C178,367.8,134.2,389.8,134.2,389.8z"/> </symbol><symbol id="frame04"> 	<circle class="st0" cx="250" cy="250" r="244"/> 	<path class="st1" d="M387.3,197.2c0,0-11.2-13-38.2-11s-39,16-39,16s14-41,47.8-44.8c30.6-3.4,51,13.8,51,13.8"/> 	<path class="st1" d="M115,204.1c0,0,10.7-14.2,37.7-12.2s36.5,14.6,36.5,14.6s-8.7-36.9-47.2-41.6c-35-4.2-55.3,19.7-55.3,19.7"/> 	<path class="st2" d="M96.5,269.5c-0.1,2.2,1,14.8,1.1,17c3.9,75.3,73.8,151.6,157.1,145c89.8-7.2,148-59.1,153-158.2 		c0.3-6.4-0.2-14.8-0.2-15.5L96.5,269.5z"/> 	<path class="st3" d="M133.5,375.8c44.5,47.1,75.2,57.3,125,55.5c54.5-2,90.5-28.2,121.5-64.1c0,0-43.7-20.7-132.7-17.4 		C175.8,352.4,133.5,375.8,133.5,375.8z"/> </symbol><symbol id="frame05"> 	<circle class="st0" cx="250" cy="250" r="244"/> 	<path class="st1" d="M387.9,175.9c0,0-11.2-13-38.2-11s-39,16-39,16s14-41,47.8-44.8c30.6-3.4,51,13.8,51,13.8"/> 	<path class="st1" d="M111,186.3c0,0,13-17.7,40-15.7s38,16,38,16s-7.5-37.7-46-42.3c-35-4.2-51,14.7-51,14.7"/> 	<path class="st2" d="M93.9,251.5c-0.1,2.2,1,14.8,1.1,17c3.9,75.3,77.9,155.9,161.3,149.2c89.8-7.2,149.3-64.4,154.3-163.6 		c0.3-6.4-0.2-14.8-0.2-15.5c0,0-54.7-2.3-158,1C149,243,93.9,251.5,93.9,251.5z"/> 	<path class="st3" d="M133.5,360.5c40.3,46.5,83.2,59,126.5,57c60.1-2.8,91.8-31.2,118-67.5c0,0-39.7-25.2-128.7-22 		C177.9,330.6,133.5,360.5,133.5,360.5z"/> </symbol><symbol id="frame06"> 	<circle class="st0" cx="250" cy="250" r="244"/> 	<path class="st1" d="M391,165c0,0-15.2-16.5-42.2-14.5S310.7,167,310.7,167s9.8-37.8,43.6-44.2c30.3-5.8,51.4,11.9,51.4,11.9"/> 	<path class="st1" d="M111.5,170.2c0,0,13-17.7,40-15.7s38,16,38,16s-7.5-37.7-46-42.3c-35-4.2-51,14.7-51,14.7"/> 	<path class="st2" d="M88.5,235.8c-0.1,2.2,1.7,29.6,2,31.8c9.5,76.2,88.6,145.6,172,140c86.2-5.8,148.3-79.4,152-152.8 		c0.3-6.4-0.2-30-0.2-30.8c0,0-60.9-7.7-164.2-4.3C146.7,223,88.5,235.8,88.5,235.8z"/> 	<path class="st3" d="M129,350.3c30.3,35.3,85.7,59.7,129,57.7c60.1-2.8,97.5-32,123.8-68.2c0,0-41.8-30.8-130.8-27.5 		C179.5,314.9,129,350.3,129,350.3z"/> </symbol><symbol id="frame07"> 	<g> 		<circle class="st0" cx="250" cy="250" r="244"/> 		<path class="st1" d="M83.4,220.9c-2.3,22.9,2.3,67.9,32,110.1c27.4,39,77,75,147.9,73.5c94.9-2,148.1-90.2,154.8-154.8 			c1.2-12.9,1.4-33.6,1.3-34.3c0,0-69-15.7-172.3-12.3C143.7,206.3,83.4,220.9,83.4,220.9z"/> 		<g> 			<circle class="st0" cx="250" cy="250" r="244"/> 			<path class="st1" d="M108.2,160c0,0,13.4-16.6,40.5-16c27.9,0.6,42,14.5,42,14.5s-12.8-38-46-42.5c-29.5-4-48.8,12-48.8,12"/> 			<path class="st2" d="M83.4,220.9c-2.3,22.9,2.3,67.9,32,110.1c27.4,39,77,75,147.9,73.5c94.9-2,148.1-90.2,154.8-154.8 				c1.2-12.9,1.4-33.6,1.3-34.3c0,0-69-15.7-172.3-12.3C143.7,206.3,83.4,220.9,83.4,220.9z"/> 			<path class="st3" d="M124,343c41.3,46,87.7,61.5,131.1,61.5c70.2,0.2,104.8-34,131.1-70.3c0,0-49.4-37.2-138.4-34 				C176.2,302.9,124,343,124,343z"/> 		</g> 		<path class="st1" d="M390.5,154.4c0,0-14.8-16.1-41.8-14.1c-27,2-37.1,15.2-37.1,15.2s8.3-36.8,42.1-43.2 			c30.3-5.8,48.5,9.5,48.5,9.5"/> 	</g> </symbol><symbol id="frame08"> 	<g> 		<g> 			<circle class="st0" cx="250" cy="250" r="244"/> 			<path class="st1" d="M106.2,151.5c0,0,15.2-18.9,42.2-18.3c27.9,0.6,42.2,16.8,42.2,16.8s-12.6-39.1-45.8-43.6 				c-29.5-4-45.8,10.9-45.8,10.9"/> 			<path class="st1" d="M393.2,150.9c0,0-15.1-19.5-42.1-17.5c-27,2-40.8,16.5-40.8,16.5s8.1-36.9,41.9-43.4c30.3-5.8,50,9.5,50,9.5 				"/> 		</g> 		<path class="st2" d="M77.5,212.5c-0.4,30.8,8.4,82.6,35.5,119.7c30.4,41.5,79.5,76.2,150.2,72.3c86.8-4.8,142.5-76.2,160.4-156.4 			c3.1-25.1-0.1-39.3-0.2-40.1c0,0-71.9-19.8-175.2-16.5C144.9,194.8,77.5,212.5,77.5,212.5z"/> 		<path class="st3" d="M117.5,338c43,52.2,92.9,66.2,136.3,66.8c62.5,0.8,105.5-33.5,131.7-69.8c0,0-46.9-51-139.1-43.7 			C162.7,297.9,117.5,338,117.5,338z"/> 	</g> </symbol><symbol id="frame09"> 	<g> 		<g> 			<circle class="st0" cx="250" cy="250" r="244"/> 			<path class="st1" d="M105.5,145.8c0,0,15.6-20.4,42.6-19.8c27.9,0.6,42.6,19.4,42.6,19.4s-9.6-38.9-42.6-44.9 				c-24.8-4.5-42.6,4.6-42.6,4.6"/> 		</g> 		<path class="st2" d="M71.5,204.5c-0.4,30.8,6.2,93.5,41.5,133.1c34.2,38.4,75.7,74.4,146.5,70.5c86.8-4.8,148.9-71.9,166.8-152.1 			c2.9-17.6,2.7-48.4,2.7-49.1c0,0-82.6-25.3-186-25.5C130,181.2,71.5,204.5,71.5,204.5z"/> 		<path class="st3" d="M113,337.6c44.7,54.2,82.6,70.1,137,70.8c62.5,0.8,112.8-34.2,139-70.5c0,0-56.3-59.8-148.5-52.5 			C156.8,292.1,113,337.6,113,337.6z"/> 		<path class="st1" d="M393.2,147.4c0,0-9.8-18.8-42.2-16.9c-27,1.5-40.6,15.9-40.6,15.9s8.3-36.8,42-43.3 			c30.3-5.8,45.7,6.8,45.7,6.8"/> 	</g> </symbol><symbol id="frame10"> 	<g> 		<g> 			<circle class="st0" cx="250" cy="250" r="244"/> 			<path class="st1" d="M105.5,139.4c0,0,15.6-20.4,42.6-19.8c27.9,0.6,42.6,19.4,42.6,19.4s-10.2-36.4-42.6-44.9 				c-21.6-5.6-39.8,7.5-39.8,7.5"/> 		</g> 		<path class="st2" d="M63.2,197.8c-0.4,30.8,0,87.1,42.2,142.8c31.1,41,79.4,74.4,150.2,70.5c86.8-4.8,155.9-73.6,173.8-153.8 			c1.2-12.9,3.8-49.5,3.8-50.2c0,0-83.9-35.1-187.3-35.3C132.9,171.4,63.2,197.8,63.2,197.8z"/> 		<path class="st3" d="M102.9,337c43,52.2,96.4,73.7,139.7,74.3c62.5,0.8,120-38.1,146.3-74.3c0,0-54-62.3-156.6-55.2 			C148.6,287.5,102.9,337,102.9,337z"/> 		<path class="st1" d="M398.1,150c0,0-11.4-24.5-43.9-22.7c-27,1.5-43.9,19.1-43.9,19.1s7.4-38.5,41.1-45 			c30.3-5.8,43.9,6.7,43.9,6.7"/> 	</g> </symbol><symbol id="frame11"> 	<g> 		<g> 			<circle class="st0" cx="250" cy="250" r="244"/> 			<path class="st1" d="M101.5,139.4c0,0,17.6-23.7,44.6-23C174,117,190.8,139,190.8,139s-6.5-39.4-39.2-46.9 				c-20.8-4.8-39.8,1.2-39.8,1.2"/> 			<path class="st1" d="M398.1,150c0,0-11.4-24.5-43.9-22.7c-27,1.5-43.9,19.1-43.9,19.1s7.4-38.5,41.1-45 				c30.3-5.8,43.9,6.7,43.9,6.7"/> 		</g> 		<path class="st2" d="M57.7,193.3c-0.4,30.8-2.6,93.4,39.7,149c31.1,41,84.9,81.5,155.7,77.7c127.3-7,172.4-114,180.3-161 			c3.6-21.8,5.6-53.4,5.6-53.4s-87.3-38.9-190.7-39.1C135.2,166.2,57.7,193.3,57.7,193.3z"/> 		<path class="st3" d="M97.3,342.3c44.7,59,103,77.4,146.3,77.9c62.5,0.8,124.4-38.5,150.7-74.8c0,0-49.3-77.5-161.8-67 			C140.2,287.1,97.3,342.3,97.3,342.3z"/> 	</g> </symbol><symbol id="frame12"> 	<g> 		<g> 			<circle class="st0" cx="250" cy="250" r="244"/> 			<path class="st1" d="M101.5,139.4c0,0,17.6-23.7,44.6-23C174,117,190.8,139,190.8,139s-6.7-38.8-39.2-46.9 				c-20.5-5.1-39.8,1.2-39.8,1.2"/> 			<path class="st1" d="M398.1,150c0,0-11.4-24.5-43.9-22.7c-27,1.5-43.9,19.1-43.9,19.1s7.4-38.5,41.1-45 				c30.3-5.8,43.9,6.7,43.9,6.7"/> 		</g> 		<path class="st2" d="M53.2,190.5c-0.4,30.8-1.3,98.9,41,154.5c31.1,41,87.7,83.1,158.5,79.2C380,417.3,430.2,307,438,260 			c3.6-21.8,6-54,6-54s-102.9-44.4-206.3-44.7C124.7,161.1,53.2,190.5,53.2,190.5z"/> 		<path class="st3" d="M91.4,341.2c41.9,59.2,107.8,82.8,151.2,83.3c62.5,0.8,129.7-37.2,151.2-75.6c0,0-33.1-75.6-164.8-71.4 			C139,280.4,91.4,341.2,91.4,341.2z"/> 	</g> </symbol><symbol id="frame13"> 	<g> 		<g> 			<circle class="st0" cx="250" cy="250" r="244"/> 			<path class="st1" d="M103.8,136.9c0,0,14.6-23.6,41.7-23c27.9,0.6,47.6,22.6,47.6,22.6s-12.2-40.6-39.2-46.9 				c-21.1-4.9-39.8,1.2-39.8,1.2"/> 			<path class="st1" d="M400.2,150c0,0-13.7-26.9-46.2-25.1c-27,1.5-41.7,13.8-41.7,13.8s3.9-30.5,37.7-37 				c30.3-5.8,41.5,3.8,41.5,3.8"/> 		</g> 		<path class="st2" d="M49,189c-0.4,30.8,1.5,105.2,43.8,160.8c31.1,41,90.5,82,161.2,78.2c127.3-7,179.2-119,187-166 			c3.6-21.8,6-54,6-54s-106.3-49.4-209.7-49.7C124.3,158.1,49,189,49,189z"/> 		<path class="st3" d="M87.7,342.9c31.1,65.3,122.9,84.6,166.3,85.1c62.5,0.8,116.2-37.5,142.5-73.8c0,0-35.8-81-167.5-76.8 			C139,280.4,87.7,342.9,87.7,342.9z"/> 	</g> </symbol><symbol id="frame14"> 	<g> 		<g> 			<circle class="st0" cx="250" cy="250" r="244"/> 			<path class="st0" d="M103.8,149.3c0,0,14.6-23.6,41.7-23c27.9,0.6,47.6,22.6,47.6,22.6s-6.4-40.2-39.2-46.9 				c-19.1-3.9-39.8,1.2-39.8,1.2"/> 		</g> 		<path class="st2" d="M52.1,203.4c-0.4,30.8-1.6,90.8,40.7,146.4c37.8,49.8,84.5,85.9,159.8,81.8c127.3-7,173.7-123.7,181.5-170.7 			c3.6-21.8,4.9-41.4,4.9-41.4s-94.8-40.9-198.2-41.2C127.8,178.1,52.1,203.4,52.1,203.4z"/> 		<path class="st3" d="M90.4,346.7c56,75.2,113.1,84.4,156.4,85c62.5,0.8,122.4-44,148.6-80.2c0,0-38-52.4-169.8-48.1 			C135.7,306.2,90.4,346.7,90.4,346.7z"/> 		<path class="st1" d="M398.9,160c0,0-13.6-24.8-46.1-23c-27,1.5-41.7,15.5-41.7,15.5s4.3-32.7,37.7-41c22.2-5.5,41.5,3.8,41.5,3.8" 			/> 	</g> </symbol><symbol id="frame15"> 	<g> 		<g> 			<circle class="st0" cx="250" cy="250" r="244"/> 			<path class="st1" d="M101.5,157.9c0,0,15.9-19,43-18.4c27.9,0.6,48.5,18,48.5,18s-11.6-39.1-44.5-45.8 				c-19.1-3.9-35.1,1.9-35.1,1.9"/> 		</g> 		<path class="st2" d="M71,215c-0.4,30.8-0.7,71.5,29.5,122c23.8,39.8,81.6,84.3,159.7,75.6C376,399.6,406.7,304.1,413.5,263 			c3.6-21.8,4.9-41.4,4.9-41.4s-88.4-10-191.8-10.2C113.7,211.1,71,215,71,215z"/> 		<path class="st3" d="M100.5,337c33.2,49.5,85.1,82.1,154,75.6c24.3-2.3,40.9-8.3,61-18.6c28-14.3,49.8-29.3,67.6-55.4 			c0,0-30.6-7.1-147.6-8.1C137.4,329.7,100.5,337,100.5,337z"/> 		<path class="st1" d="M398.9,169c0,0-13.7-25.2-46.2-23.3c-27,1.5-41.6,16.3-41.6,16.3s6.5-35.8,39.9-44.1 			c22.2-5.5,39.7,5.7,39.7,5.7"/> 	</g> </symbol><symbol id="frame16"> 	<g> 		<g> 			<circle class="st0" cx="250" cy="250" r="244"/> 			<path class="st1" d="M101.5,157.9c0,0,15.9-19,43-18.4c27.9,0.6,46.5,18.4,46.5,18.4s-9.6-39.5-42.5-46.1 				c-19.1-3.9-36.5,4.7-36.5,4.7"/> 			<path class="st1" d="M398.9,165c0,0-13.7-24.3-46.2-22.5c-27,1.5-41.7,19.5-41.7,19.5s6.5-35.8,39.9-44.1 				c22.2-5.5,37.5,1.3,37.5,1.3"/> 		</g> 		<path class="st2" d="M75.7,216.5c-0.4,30.8-0.4,68.5,29.8,119c23.8,39.8,79.3,84.7,157.3,76c103.9-11.6,140.4-112,146.7-149.5 			c3.6-21.8,2.3-41.5,2.3-41.5s-80.9-3.7-184.3-4C114.5,216.2,75.7,216.5,75.7,216.5z"/> 		<path class="st3" d="M105.5,335.5c33.2,49.5,82.8,82.6,151.7,76c58.2-5.5,91.8-30.1,122.5-75.1c0,0-4-3.1-49-1.6 			c-31.2,1-63.9,6.6-85.6,6.1c-21.7-0.5-71.4-5.7-92.9-6.1C113.6,334.1,105.5,335.5,105.5,335.5z"/> 	</g> </symbol><symbol id="frame17"> 	<g> 		<g> 			<circle class="st0" cx="250" cy="250" r="244"/> 			<path class="st1" d="M101.5,148.1c0,0,15.9-19,43-18.4c27.9,0.6,46.5,18.4,46.5,18.4s-9.6-39.5-42.5-46.1 				c-19.1-3.9-36.5,4.7-36.5,4.7"/> 			<path class="st1" d="M398.9,149.2c0,0-13.7-24.3-46.2-22.5c-27,1.5-41.7,19.5-41.7,19.5s6.5-35.8,39.9-44.1 				c22.2-5.5,37.5,1.3,37.5,1.3"/> 		</g> 		<path class="st2" d="M67.8,208.5c-0.4,30.8,7.5,77.5,37.8,128c23.8,39.8,79.2,82.8,157.3,75c123.2-12.2,151.8-118.9,157.8-151 			c4.2-22.8,2.9-58.4,2.9-58.4s-65.2-15.5-177.9-10.5C132.8,196.7,67.8,208.5,67.8,208.5z"/> 		<path class="st3" d="M103.7,333.5c20.7,30.9,47,55.7,81.6,68.5c20.9,7.7,45.8,10.1,71.8,9.5C324,410,372,368.8,398.9,322.8 			c0,0-43.4-14.8-148.9-13.3S103.7,333.5,103.7,333.5z"/> 	</g> </symbol><symbol id="frame18"> 	<g> 		<g> 			<circle class="st0" cx="250" cy="250" r="244"/> 			<path class="st0" d="M101.5,148.1c0,0,16.9-21.7,43.9-21.1c27.9,0.6,43.9,15.6,43.9,15.6s-8.3-36.8-41.2-43.5 				c-19.1-3.9-36.5,4.7-36.5,4.7"/> 			<path class="st1" d="M394.4,134.7c0,0-13.7-18.1-46.2-16.2c-27,1.5-38.6,19.5-38.6,19.5s3.2-38.2,36.6-46.5 				c22.2-5.5,40,2.4,40,2.4"/> 		</g> 		<path class="st2" d="M60.3,207.3c-0.4,30.8,11,80.2,41.2,130.7c23.8,39.8,83.1,88.4,161.2,80.6c123.2-12.2,162-121.2,168.8-153.1 			c9.5-44.5,6.8-73,6.8-73c-36-11.1-93.9-29.7-203.2-22.5C122.2,177.4,60.3,207.3,60.3,207.3z"/> 		<path class="st3" d="M106,345c22.7,33.8,52.6,56.5,91.2,67c11.4,3.1,22.7,6,35.6,7c7.5,0.6,16.1-0.1,24.2-0.3 			c66.8-1.5,120.7-44.6,147.5-90.5c0,0-37.1-40.7-142.6-39.2S106,345,106,345z"/> 	</g> </symbol><symbol id="frame19"> 	<g> 		<g> 			<circle class="st0" cx="250" cy="250" r="244"/> 			<path class="st0" d="M101.5,149.2c0,0,17.7-23.3,44.8-22.7c27.9,0.6,44.8,16.2,44.8,16.2s-9.6-39.5-42.5-46.1 				c-19.1-3.9-41,7.7-41,7.7"/> 		</g> 		<path class="st2" d="M55,210.5c-0.4,30.8,5.3,70.5,34,121.8c29.9,53.5,100.5,103.5,178.7,95.8C402.1,414.7,432,305.5,448.5,245 			c7.2-39.5,2.9-58.4,2.9-58.4s-88.8-34.6-201.4-29C153,162.5,55,210.5,55,210.5z"/> 		<path class="st3" d="M109.7,361.5c31.1,38.8,84.2,68.6,153.3,67c66.8-1.5,127.2-48.3,150.1-93.3c0,0-40.3-65.1-145.1-59.9 			C140,281.8,109.7,361.5,109.7,361.5z"/> 		<path class="st1" d="M398.7,134.8c0,0-14.8-21.7-47.3-19.8c-27,1.5-42.2,20.7-42.2,20.7s5.8-37.5,39.2-45.8 			c22.2-5.5,37.5,1.3,37.5,1.3"/> 	</g> </symbol><symbol id="frame20"> 	<g> 		<g> 			<circle class="st0" cx="250" cy="250" r="244"/> 			<path class="st0" d="M100.4,160.3c0,0,17.7-23.3,44.8-22.7c27.9,0.6,44.8,16.2,44.8,16.2s-9.6-39.5-42.5-46.1 				c-19.1-3.9-41,7.7-41,7.7"/> 			<path class="st0" d="M400.8,145.5c0,0-17.5-20.8-50-19c-27,1.5-40.7,18.6-40.7,18.6s5.1-36.7,38.4-45c22.2-5.5,39.5,3.1,39.5,3.1 				"/> 		</g> 		<path class="st2" d="M55.1,219C54.7,249.9,60.3,281,89,332.3c29.9,53.5,100.5,103.5,178.7,95.8C402.1,414.7,436.4,296.9,442.3,261 			c4.2-25,2.9-58.4,2.9-58.4s-82.6-31.9-195.3-26.3C153,181.2,55.1,219,55.1,219z"/> 		<path class="st3" d="M109.7,361.5c31.1,38.8,84.2,68.6,153.3,67c66.8-1.5,127.2-45.4,150.1-90.3c0,0-46.9-45.4-151.7-40.2 			C133.4,304.4,109.7,361.5,109.7,361.5z"/> 	</g> </symbol><symbol id="frame21"> 	<g> 		<g> 			<circle class="st0" cx="250" cy="250" r="244"/> 			<path class="st0" d="M100.4,167.5c0,0,15.9-24.9,43-24.3c27.9,0.6,46.5,17.1,46.5,17.1s-8-37.3-40.9-44c-19.1-3.9-41,7.7-41,7.7" 				/> 			<path class="st0" d="M400.8,160.3c0,0-17.5-20.8-50-19c-27,1.5-40.7,18.6-40.7,18.6s5.1-36.7,38.4-45c22.2-5.5,39.5,3.1,39.5,3.1 				"/> 		</g> 		<path class="st2" d="M73.7,221.7c-0.4,30.8-2,60.6,26.7,112c29.9,53.5,87.3,93.7,165.4,85.9c88.9-8.8,144.1-91.6,153.5-162.6 			c2.9-22.2,0-41.5,0-41.5s-60.2-9.1-172.9-3.5C149.4,216.8,73.7,221.7,73.7,221.7z"/> 		<path class="st3" d="M106.6,343.9c26.4,41.7,85.6,80.8,154.6,76.1c66.1-4.5,104.1-45.3,131.2-86.6c0,0-44.2-7-142.4-6.3 			S106.6,343.9,106.6,343.9z"/> 	</g> </symbol><symbol id="frame22"> 	<g> 		<g> 			<circle class="st0" cx="250" cy="250" r="244"/> 			<path class="st0" d="M101.5,157.9c0,0,15.9-19,43-18.4c27.9,0.6,46.5,18.4,46.5,18.4s-9.6-39.5-42.5-46.1 				c-19.1-3.9-36.5,4.7-36.5,4.7"/> 			<path class="st0" d="M398.9,165c0,0-13.7-24.3-46.2-22.5c-27,1.5-41.7,19.5-41.7,19.5s6.5-35.8,39.9-44.1 				c22.2-5.5,37.5,1.3,37.5,1.3"/> 		</g> 		<path class="st2" d="M75.7,216.5c-0.4,30.8-0.4,68.5,29.8,119c23.8,39.8,79.3,84.7,157.3,76c103.9-11.6,140.4-112,146.7-149.5 			c3.6-21.8,2.3-41.5,2.3-41.5s-80.9-3.7-184.3-4C114.5,216.2,75.7,216.5,75.7,216.5z"/> 		<path class="st3" d="M105.5,335.5c33.2,49.5,82.8,82.6,151.7,76c58.2-5.5,91.8-30.1,122.5-75.1c0,0-4-3.1-49-1.6 			c-31.2,1-60.3,6-85.6,6.1c-25.3,0.2-71.4-5.7-92.9-6.1C113.6,334.1,105.5,335.5,105.5,335.5z"/> 	</g> </symbol><symbol id="frame23"> 	<g> 		<g> 			<circle class="st0" cx="250" cy="250" r="244"/> 			<path class="st0" d="M102.8,147c0,0,18.3-18.8,45.3-18.2c27.9,0.6,42.8,19,42.8,19s-6.4-39.1-39.2-45.7c-19.1-3.9-40,3-40,3"/> 			<path class="st0" d="M398.9,154.3c0,0-13.7-24.3-46.2-22.5c-27,1.5-41.7,19.5-41.7,19.5s6.5-35.8,39.9-44.1 				c22.2-5.5,37.5,1.3,37.5,1.3"/> 		</g> 		<path class="st2" d="M67,203c-0.4,30.8,1.4,97.8,40.5,141.8c29.9,33.7,53.9,59.5,125.2,65.5C354.4,420.5,407.3,309.2,417.5,265 			c8-28,6.8-56,6.8-56s-69.3-14.5-187.8-14C123.5,195.5,67,203,67,203z"/> 		<path class="st3" d="M95.8,330c24.4,36.3,53.5,74,139,80.2c66.7,4.8,124-35.1,151.4-76.2c0,0-34.3-26.5-166.5-22 			C114.2,315.6,95.8,330,95.8,330z"/> 	</g> </symbol><symbol id="frame24"> 	<g> 		<g> 			<circle class="st0" cx="250" cy="250" r="244"/> 			<path class="st0" d="M102.8,136.2c0,0,18.3-18.8,45.3-18.2c27.9,0.6,42.8,19,42.8,19s-6.4-39.1-39.2-45.7c-19.1-3.9-40,3-40,3"/> 			<path class="st0" d="M398.9,149.2c0,0-13.7-24.3-46.2-22.5c-27,1.5-41.7,19.5-41.7,19.5s6.5-35.8,39.9-44.1 				c22.2-5.5,37.5,1.3,37.5,1.3"/> 		</g> 		<path class="st2" d="M57.7,195c-0.4,30.8,6.1,108.8,45.2,152.8c29.9,33.7,53.3,63.6,131.7,69.2c121.8,8.7,184-103.6,193.2-148 			c9.6-31.5,6.8-62.3,6.8-62.3s-74.9-36.8-193.5-36.3C128,170.8,57.7,195,57.7,195z"/> 		<path class="st3" d="M91.2,333c25.8,40.5,57.8,78.4,143.3,84c76.6,5,132.6-38.3,160-79.5c0,0-41.3-51.8-173.5-46.9 			C130,293.9,91.2,333,91.2,333z"/> 	</g> </symbol><symbol id="frame25"> 	<g> 		<g> 			<circle class="st0" cx="250" cy="250" r="244"/> 			<path class="st0" d="M102.8,136.2c0,0,18.3-18.8,45.3-18.2c27.9,0.6,42.8,19,42.8,19s-6.4-39.1-39.2-45.7c-19.1-3.9-40,3-40,3"/> 			<path class="st0" d="M398.9,149.2c0,0-13.7-24.3-46.2-22.5c-27,1.5-41.7,19.5-41.7,19.5s6.5-35.8,39.9-44.1 				c22.2-5.5,37.5,1.3,37.5,1.3"/> 		</g> 		<path class="st2" d="M49.5,190C49.1,220.8,55,308.9,94,352.9c29.9,33.7,60.7,71.5,139,77.1c121.8,8.7,191.5-100.1,204.9-158.9 			c6.8-29.8,8.8-65.2,8.8-65.2s-88.5-48.8-207-48.3C126.8,158,49.5,190,49.5,190z"/> 		<path class="st3" d="M88.6,344.8c14.2,25.7,58.8,79.6,144.4,85.2c76.6,5,136.1-35.3,163.5-76.5c0,0-38.2-80.6-170.3-75.7 			C135.2,281.2,88.6,344.8,88.6,344.8z"/> 	</g> </symbol><symbol id="frame26"> 	<g> 		<g> 			<circle class="st0" cx="250" cy="250" r="244"/> 			<path class="st1" d="M102.8,142.9c0,0,18.3-18.8,45.3-18.2c27.9,0.6,42.8,19,42.8,19s-6.4-39.1-39.2-45.7c-19.1-3.9-40,3-40,3"/> 		</g> 		<path class="st2" d="M51.4,200.4C51,231.2,55,308.9,94,352.9c16.4,26.7,60.7,71.5,139,77.1c121.8,8.7,187-98.5,200.3-157.3 			c6.8-29.7,7.9-54.2,7.9-54.2s-88.5-48.3-207-47.8C121.2,171.2,51.4,200.4,51.4,200.4z"/> 		<path class="st3" d="M88.2,345.5C106.5,374,147.5,424.4,233,430c76.6,5,135-37.1,162.3-78.3c0,0-34.8-62.6-167-57.7 			C137.3,297.3,88.2,345.5,88.2,345.5z"/> 		<path class="st1" d="M398.9,155.3c0,0-13.7-24.3-46.2-22.5c-27,1.5-41.7,19.5-41.7,19.5s6.5-35.8,39.9-44.1 			c22.2-5.5,42.3,5.3,42.3,5.3"/> 	</g> </symbol><symbol id="frame27"> 	<g> 		<g> 			<circle class="st0" cx="250" cy="250" r="244"/> 			<path class="st1" d="M102.8,155.8c0,0,18.3-18.8,45.3-18.2c27.9,0.6,42.8,19,42.8,19s-6.4-39.1-39.2-45.7c-19.1-3.9-40,3-40,3"/> 		</g> 		<path class="st2" d="M69,211.8c-0.4,30.8,14,98.4,28,124.1c14,25.7,32.3,48.9,67.2,66c17.6,8.6,41.1,15.7,79.8,17.9 			c61.2,3.5,109.1-34.6,137-77.2c16.4-25,30.4-61.5,34.2-77.8c4.7-20.5,5.8-42.2,5.8-42.2s-90.2-15.3-208.7-14.8 			C99.3,208.2,69,211.8,69,211.8z"/> 		<path class="st3" d="M98.5,338.1c8.5,25.3,55,80.1,139.8,81.1s122.5-46.2,144.5-81.5c0,0-33.8-8.1-141.8-8.4 			C133,329,98.5,338.1,98.5,338.1z"/> 		<path class="st1" d="M398.5,165.8c0,0-16.3-22.4-48.8-20.6c-27,1.5-39.5,16.8-39.5,16.8c4-22,26.9-39.9,40.3-43.2 			c22.2-5.5,39.7,4.5,39.7,4.5"/> 	</g> </symbol><symbol id="frame28"> 	<g> 		<g> 			<circle class="st0" cx="250" cy="250" r="244"/> 			<path class="st1" d="M101.5,161.2c0,0,17.7-20.3,44.8-19.7c27.9,0.6,44.8,16.4,44.8,16.4s-11.9-37.2-44.8-43.9 				c-19.1-3.9-36.5,4.7-36.5,4.7"/> 		</g> 		<path class="st2" d="M75.7,216.5c-0.4,30.8-0.4,68.5,29.8,119c23.8,39.8,79.3,84.7,157.3,76c103.9-11.6,140.4-112,146.7-149.5 			c3.6-21.8,2.3-41.5,2.3-41.5s-80.9-3.7-184.3-4C114.5,216.2,75.7,216.5,75.7,216.5z"/> 		<path class="st3" d="M105.5,335.5c33.2,49.5,82.8,82.6,151.7,76c58.2-5.5,91.8-30.1,122.5-75.1c0,0-4-3.1-49-1.6 			c-31.2,1-63.8,6.5-85.6,6.1c-21.8-0.3-71.4-5.7-92.9-6.1C113.6,334.1,105.5,335.5,105.5,335.5z"/> 		<path class="st1" d="M398.9,165c0,0-13.7-24.3-46.2-22.5c-27,1.5-41.7,19.5-41.7,19.5s6.5-35.8,39.9-44.1 			c22.2-5.5,37.5,1.3,37.5,1.3"/> 	</g> </symbol><symbol id="frame29"> 	<g> 		<g> 			<circle class="st0" cx="250" cy="250" r="244"/> 			<path class="st1" d="M102,156c0,0,14.9-22.1,42-21.5c27.9,0.6,45.8,14.8,45.8,14.8s-10.9-37.1-43.8-43.8 				c-19.1-3.9-36.5,4.7-36.5,4.7"/> 		</g> 		<path class="st2" d="M67.8,208.5c-0.4,30.8,7.5,77.5,37.8,128c23.8,39.8,79.2,82.8,157.3,75c123.2-12.2,152.4-118.8,157.8-151 			c3.6-21.8,2.9-58.4,2.9-58.4s-73.2-9.5-185.9-4.5C124.8,202.7,67.8,208.5,67.8,208.5z"/> 		<path class="st3" d="M103.7,333.5C137,383,188,413.1,257.2,411.5C324,410,372,368.8,398.9,322.8c0,0-44.4-6.8-149.9-4.5 			C149,320.5,103.7,333.5,103.7,333.5z"/> 		<path class="st1" d="M398.9,149.2c0,0-12.8-22-45.3-20.2c-27,1.5-41.7,19.5-41.7,19.5s6.5-35.8,39.9-44.1 			c22.2-5.5,37.1,2.9,37.1,2.9"/> 	</g> </symbol><symbol id="frame30"> 	<g> 		<g> 			<circle class="st0" cx="250" cy="250" r="244"/> 			<path class="st1" d="M100.8,148.8c0,0,14.9-22.1,42-21.5c27.9,0.6,45.8,14.8,45.8,14.8s-10.9-37.1-43.8-43.8 				c-19.1-3.9-36.5,4.7-36.5,4.7"/> 			<path class="st1" d="M396.9,138.2c0,0-12.8-22-45.3-20.2c-27,1.5-41.3,19.7-41.3,19.7s5-37.9,38.3-46.2 				c22.2-5.5,38.7,2.3,38.7,2.3"/> 		</g> 		<path class="st2" d="M61.5,209c-0.4,30.8,8.5,79.3,38.7,129.8c11.7,19.6,32.7,42.8,60.7,58.2c28.9,15.8,65.3,23.4,105,19.5 			C389,404.2,427.6,282.8,435,251c8-34.5,4.9-58.4,4.9-58.4s-76.8-25.1-189.4-20.1C137.6,177.5,61.5,209,61.5,209z"/> 		<path class="st3" d="M106.8,347.2c33.3,49.5,86.3,71.3,155.5,69.8c66.8-1.5,113.9-43.6,140.8-89.5c0,0-39.2-40.9-144.7-38.6 			C158.5,291.1,106.8,347.2,106.8,347.2z"/> 	</g> </symbol><symbol id="frame31"> 	<g> 		<g> 			<circle class="st0" cx="250" cy="250" r="244"/> 			<path class="st1" d="M398.5,134.4c0,0-17.6-18.6-44.6-18c-27.9,0.6-44.6,18-44.6,18s6.7-38.9,39.2-47c20.5-5.1,39.8,1.2,39.8,1.2 				"/> 			<path class="st1" d="M101.9,150c0,0,11.4-24.5,43.9-22.7c27,1.5,43.9,19.1,43.9,19.1s-7.4-38.5-41.1-45 				c-30.3-5.8-43.9,6.7-43.9,6.7"/> 		</g> 		<path class="st2" d="M451,189.1c0.4,30.8,0.3,103.2-41.9,158.9c-31.1,41-96.2,84.1-167,80.2C126.7,421.9,67.2,295.1,59.3,263.3 			c-7.8-31.7-6-54-6-54S159.6,158,263,157.8C376,157.5,451,189.1,451,189.1z"/> 		<path class="st3" d="M416.8,336.9c-42,58.2-109.7,91.2-164.7,91.6c-62.5,0.4-115.4-38.1-140.5-73c0,0,45.3-80,165-80 			C376.4,275.4,416.8,336.9,416.8,336.9z"/> 	</g> </symbol><symbol id="frame32"> 	<g> 		<g> 			<circle class="st0" cx="250" cy="250" r="244"/> 			<path class="st1" d="M398.2,137.5c0,0-15.4-20.7-42.5-20.1c-27.9,0.6-46.8,19.8-46.8,19.8s8.4-39.8,41.2-46.5 				c19.1-3.9,36.8,2.8,36.8,2.8"/> 			<path class="st1" d="M99.1,148.5c0,0,13.6-24.8,46.1-23c27,1.5,43.8,14.6,43.8,14.6s-6.4-31.8-39.8-40.1 				c-22.2-5.5-41.5,3.8-41.5,3.8"/> 		</g> 		<path class="st2" d="M445.7,191.8c0.4,30.8-3.7,95-38.3,145.7c-35.3,51.6-88.1,95.7-163.3,91.6c-127.3-7-173.8-120.7-181.7-167.6 			c-3.6-21.7-7-55.7-7-55.7s99.8-41.4,203.2-41.7C371.5,163.9,445.7,191.8,445.7,191.8z"/> 		<path class="st3" d="M407.3,337.4c-56,75.2-105.3,90-157.7,91.7c-62.5,2-117.2-37.6-143.5-73.9c0,0,41.7-74.3,173.5-70.8 			C380.3,287.1,407.3,337.4,407.3,337.4z"/> 	</g> </symbol><symbol id="frame33"> 	<g> 		<g> 			<circle class="st0" cx="250" cy="250" r="244"/> 			<path class="st1" d="M400,143.5c0,0-15.4-20.7-42.5-20.1c-27.9,0.6-46.8,19.8-46.8,19.8s8.4-39.8,41.2-46.5 				c19.1-3.9,36.8,2.8,36.8,2.8"/> 		</g> 		<path class="st2" d="M421.7,199.8c-3.3,30-1.3,69.3-30,119.3c-18.8,32.7-42.9,56.9-74.7,71.5c-20.9,9.6-44.3,16.1-74.2,14.5 			c-54.5-3-112.7-35.7-140.1-79.2C69,272.3,72.5,206.1,72.5,206.1s73.1-15.3,176.5-15.5C362,190.4,421.7,199.8,421.7,199.8z"/> 		<path class="st3" d="M390,322.8c-28.7,42.8-57.3,61.8-82,71.7c-21.4,8.5-39.4,10.4-59.5,10.7c-62.5,0.8-113.8-38.2-140-74.5 			c0,0,43.4-26.3,175.2-22.8C384.3,310.4,390,322.8,390,322.8z"/> 		<path class="st1" d="M99.1,151.6c0,0,17.6-27.6,50.1-25.8c27,1.5,40.6,19.5,40.6,19.5s-7.2-37.1-40.5-45.4 			c-22.2-5.5-37.7,5.4-37.7,5.4"/> 	</g> </symbol><symbol id="frame34"> 	<g> 		<g> 			<circle class="st0" cx="250" cy="250" r="244"/> 			<path class="st1" d="M102,151.6c0,0,15.9-19,43-18.4c27.9,0.6,46.5,18.4,46.5,18.4s-9.6-39.5-42.5-46.1 				c-19.1-3.9-36.5,4.7-36.5,4.7"/> 			<path class="st1" d="M397,155.1c0,0-13.7-24.3-46.2-22.5c-27,1.5-41.7,19.5-41.7,19.5s6.5-35.8,39.9-44.1 				c22.2-5.5,37.5,1.3,37.5,1.3"/> 		</g> 		<path class="st2" d="M76,209.4c-0.4,30.8-0.7,64.4,29.5,114.9c23.8,39.8,77.5,85,155.5,76.2c103.9-11.6,141-101.5,147.2-139 			c3.6-21.8,2.2-53.5,2.2-53.5s-78.1,0.7-181.5,0.5C116,208.4,76,209.4,76,209.4z"/> 		<path class="st3" d="M106,326.4c33.2,49.5,83.4,80.7,152.2,74.2c58.2-5.5,94.8-32.8,125.5-77.8c0,0-7.7,2.2-52.8,3.8 			c-31.2,1-63.9,6.6-85.6,6.1c-21.7-0.5-71.4-5.7-92.9-6.1C114,325.9,106,326.4,106,326.4z"/> 	</g> </symbol><symbol id="frame35"> 	<g> 		<g> 			<circle class="st0" cx="250" cy="250" r="244"/> 			<path class="st1" d="M100.5,165.6c0,0,18.7-23.4,45.8-22.8c27.9,0.6,42.8,16.8,42.8,16.8s-5.8-37.2-38.7-43.8 				c-19.1-3.9-38.3,4.6-38.3,4.6"/> 			<path class="st1" d="M398.9,165c0,0-13.7-24.3-46.2-22.5c-27,1.5-41.7,19.5-41.7,19.5s6.5-35.8,39.9-44.1c22.2-5.5,40.7,4,40.7,4 				"/> 		</g> 		<path class="st2" d="M75.7,216.5c-0.4,30.8,4.1,68.5,34.3,119c14.8,24.7,44.6,48.4,79.7,62.9c21.5,8.9,45.3,10.1,73.5,8.4 			c95.3-5.7,137.8-97.2,146.3-144.8c3.9-21.7,2.3-41.5,2.3-41.5s-80.9-3.7-184.3-4C114.5,216.2,75.7,216.5,75.7,216.5z"/> 		<path class="st3" d="M110,335.5c33.2,49.5,78.6,77.9,147.5,71.4c31.1-2.9,53.4-12.3,74.5-26.4c18.4-12.3,32.7-23.9,47-44.8 			c0,0-3.4-2.2-48.4-0.7c-31.2,1-63.9,6.6-85.6,6.1c-21.7-0.5-71.4-5.7-92.9-6.1C113.6,334.1,110,335.5,110,335.5z"/> 	</g> </symbol><symbol id="frame36"> 	<g> 		<g> 			<circle class="st0" cx="250" cy="250" r="244"/> 			<path class="st1" d="M102.5,176.1c0,0,18.7-23.4,45.8-22.8c27.9,0.6,42.8,16.8,42.8,16.8s-11.4-37-44.2-43.7 				c-19.1-3.9-36.5,4.7-36.5,4.7"/> 			<path class="st1" d="M398.2,174.6c0,0-13.7-24.3-46.2-22.5c-27,1.5-41.7,19.5-41.7,19.5s6.5-35.8,39.9-44.1 				c22.2-5.5,41.6,4.1,41.6,4.1"/> 		</g> 		<path class="st2" d="M80.5,231.1c-0.4,30.8-0.7,53.9,29.5,104.4c14.8,24.7,42.7,55.2,77.8,69.7c21.5,8.9,48.6,10.6,76.8,8.9 			c95.3-5.7,134.8-94.9,143.3-142.5c3.9-21.7,2.5-42,2.5-42s-78.1-0.8-181.5-1C116,228.4,80.5,231.1,80.5,231.1z"/> 		<path class="st3" d="M115.3,344.9c19.7,29.4,48.1,50.5,76.7,61.8c19.5,7.8,39,10,67,7.4c31.1-2.9,51.8-8.7,72.9-22.8 			c18.4-12.3,32.3-25.8,46.6-46.7c0,0-4.3-3-49.3-1.5c-31.2,1-63.9,6.6-85.6,6.1c-21.7-0.5-71.4-5.7-92.9-6.1 			C112.1,342.4,115.3,344.9,115.3,344.9z"/> 	</g> </symbol><symbol id="frame37"> 	<g> 		<g> 			<circle class="st0" cx="250" cy="250" r="244"/> 			<path class="st1" d="M106.4,184.2c0,0,14.7-19.1,41.8-18.5c27.9,0.6,42.8,16.8,42.8,16.8s-11.4-37.7-44.2-44.3 				c-19.1-3.9-44.2,8-44.2,8"/> 			<path class="st1" d="M398.2,186.5c0,0-13.7-24.3-46.2-22.5c-27,1.5-41.7,19.5-41.7,19.5s7.2-33.6,39.9-44.1 				c30.4-9.7,47.9,6.6,47.9,6.6"/> 		</g> 		<path class="st2" d="M82.5,243.1c3.5,31.5,5.5,72,31.5,104c18.1,22.3,39.2,48,74.3,62.6c21.5,8.9,48.6,13.6,76.8,11.9 			c84.7-5.1,131.9-90.9,139.8-135c3.9-21.7,3-46,3-46s-73.6,0.2-177,0C118,240.4,82.5,243.1,82.5,243.1z"/> 		<path class="st3" d="M116.8,352.9c19.7,29.4,47.2,47.1,75.8,58.4c19.5,7.8,39,13,67,10.3c31.1-2.9,50.7-9.1,71.8-23.2 			c18.4-12.3,32.4-24.6,46.7-45.6c0,0-5.5-4.3-50.5-2.8c-31.2,1-55.8,4.6-77.5,4.1c-21.7-0.5-64.3-3.6-85.8-4.1 			C132.6,349.3,116.8,352.9,116.8,352.9z"/> 	</g> </symbol><symbol id="frame38"> 	<g> 		<g> 			<circle class="st0" cx="250" cy="250" r="244"/> 			<path class="st1" d="M105.4,197.1c0,0,14.7-19.1,41.8-18.5c27.9,0.6,42.8,16.8,42.8,16.8s-11.4-37.7-44.2-44.3 				c-19.1-3.9-44.2,8-44.2,8"/> 			<path class="st1" d="M398.2,198.7c0,0-13.7-24.3-46.2-22.5c-27,1.5-41.7,19.5-41.7,19.5s7.2-33.6,39.9-44.1 				c30.4-9.7,47.9,6.6,47.9,6.6"/> 		</g> 		<path class="st2" d="M87.8,254.9c3.5,31.5,0,55.6,23.5,98.1c13.9,25.1,41.1,52.1,76.2,66.6c21.5,8.9,52.1,12.6,80.4,10.9 			c93.3-5.6,128.6-95.9,137.1-143.9c3.9-21.7,1-32.8,1-32.8L87.8,254.9z"/> 		<path class="st3" d="M119.8,364.3c19.7,29.4,43.3,45.5,71.9,56.9c19.5,7.8,42.6,12,70.5,9.3c31.1-2.9,52-12.4,73.1-26.5 			c18.4-12.3,27.6-22.1,41.9-43.1c0,0-6.2-3-51.2-1.5c-31.2,1-55.8,4.6-77.5,4.1s-64.3-3.6-85.8-4.1 			C131.1,358.6,119.8,364.3,119.8,364.3z"/> 	</g> </symbol><symbol id="frame39"> 	<g> 		<g> 			<circle class="st0" cx="250" cy="250" r="244"/> 			<path class="st1" d="M105,210.2c0,0,14.7-19.1,41.8-18.5c27.9,0.6,42.8,16.8,42.8,16.8s-11.4-37.7-44.2-44.3 				c-19.1-3.9-50.3,9.6-50.3,9.6"/> 			<path class="st1" d="M397.7,211.8c0,0-13.7-24.3-46.2-22.5c-27,1.5-41.7,19.5-41.7,19.5s7.2-33.6,39.9-44.1 				c30.4-9.7,57.2,10.9,57.2,10.9"/> 		</g> 		<path class="st2" d="M91.8,267.1c-1.8,21.7-0.1,63.6,28.2,103.2c16.8,23.5,34.9,41.4,70,56c12.6,5.2,27.1,9.6,43.2,11 			c11.4,1,24.1,0.1,35.8-0.6c57.5-3.4,96.3-41.9,116.3-80c12.7-24.2,18.3-48.4,19.3-64.7c1.2-20.2-0.7-25.7-0.7-25.7L91.8,267.1z"/> 		<path class="st3" d="M121,371.8c19.7,29.4,44.6,44.8,73.2,56.2c19.5,7.8,42.6,12,70.5,9.3c31.1-2.9,49.7-9.8,69.6-25.5 			c19.2-15.1,27.7-20.1,42-41c0,0-43.8-3.2-126.3-2.9C174,368.1,121,371.8,121,371.8z"/> 	</g> </symbol><symbol id="frame40"> 	<circle class="st0" cx="250" cy="250" r="244"/> 	<path class="st1" d="M388.7,214.8c0,0-12.4-13.8-39.4-11.8s-39,17.1-39,17.1s10.4-40.2,48.9-44.9c35-4.2,55,16.7,55,16.7"/> 	<path class="st1" d="M113.2,215.4c0,0,12.3-14.3,39.3-12.3s37.8,18.7,37.8,18.7s-9.6-42.6-48.1-47.3c-35-4.2-55.4,19.6-55.4,19.6" 		/> 	<path class="st2" d="M96.1,276.9c-0.1,2.2,0,5.8-0.2,8c-6.4,86.5,65.2,160.2,149.4,160.2C338,445.1,404,368.4,404,284.9 		c0-2.2-0.1-4.3-0.1-6.5L96.1,276.9z"/> 	<path class="st3" d="M125.7,380.4c27.7,35,70.2,65.1,118.3,65.1c25.8,0,53.9-6.6,76.4-19.7c19.8-11.6,43.4-30.5,56.3-47 		c0,0-53.8-6-125.3-6S125.7,380.4,125.7,380.4z"/> </symbol><symbol id="frame41"> 	<circle class="st0" cx="250" cy="250" r="244"/> 	<path class="st4" d="M387.7,225.8c0,0-12.4-13.8-39.4-11.8s-39,17.1-39,17.1s10.4-40.2,48.9-44.9c35-4.2,55,16.7,55,16.7"/> 	<path class="st4" d="M114.3,226.1c0,0,12.3-14.3,39.3-12.3s37.7,18.7,37.7,18.7s-9.4-42.6-47.9-47.3c-35-4.2-55.4,19.6-55.4,19.6" 		/> 	<path class="st2" d="M96.9,287.4c-0.1,2.2-0.1,5.8-0.2,8c-1,92.7,74.8,155.5,150.4,155.5c92.7-0.1,154-71,154-154.6 		c0-2.2-0.1-4.3-0.1-6.5L96.9,287.4z"/> 	<path class="st3" d="M127.5,389.1c27.7,35,71.5,61.7,119.6,61.7c25.8,0,53.9-6.6,76.4-19.7c19.8-11.6,36.8-26.7,49.8-43.2 		c0,0-52.5-9.5-124-9.5S127.5,389.1,127.5,389.1z"/> </symbol><symbol id="frame42"> 	<circle class="st0" cx="250" cy="250" r="244"/> 	<path class="st4" d="M387.7,225.8c0,0-12.4-13.8-39.4-11.8s-39,17.1-39,17.1s10.4-40.2,48.9-44.9c35-4.2,55,16.7,55,16.7"/> 	<path class="st4" d="M114.3,226.1c0,0,12.3-14.3,39.3-12.3s37.7,18.7,37.7,18.7s-9.4-42.6-47.9-47.3c-35-4.2-55.4,19.6-55.4,19.6" 		/> 	<path class="st2" d="M96.9,287.4c-0.1,2.2-0.1,5.8-0.2,8c-1,90,70.7,157.5,154.2,157.5c92.7-0.1,150.1-73,150.1-156.6 		c0-2.2-0.1-4.3-0.1-6.5L96.9,287.4z"/> 	<path class="st3" d="M124.5,388.1c27.7,35,78.4,64.7,126.5,64.7c25.8,0,53.9-6.6,76.4-19.7c19.8-11.6,34.7-28.6,47.6-45.1 		c0,0-54.2-9.6-125.8-9.6S124.5,388.1,124.5,388.1z"/> </symbol><symbol id="frame43"> 	<circle class="st0" cx="250" cy="250" r="244"/> 	<path class="st4" d="M387.7,225.8c0,0-12.4-13.8-39.4-11.8s-39,17.1-39,17.1s10.4-40.2,48.9-44.9c35-4.2,55,16.7,55,16.7"/> 	<path class="st4" d="M114.3,226.1c0,0,12.3-14.3,39.3-12.3s37.7,18.7,37.7,18.7s-9.4-42.6-47.9-47.3c-35-4.2-55.4,19.6-55.4,19.6" 		/> 	<path class="st2" d="M96.9,287.4c-0.1,2.2-0.1,5.8-0.2,8c-1,90,70.7,157.5,154.2,157.5c92.7-0.1,150.1-73,150.1-156.6 		c0-2.2-0.1-4.3-0.1-6.5L96.9,287.4z"/> 	<path class="st3" d="M124.5,388.1c27.7,35,78.4,64.7,126.5,64.7c25.8,0,53.9-6.6,76.4-19.7c19.8-11.6,34.7-28.6,47.6-45.1 		c0,0-54.2-9.6-125.8-9.6S124.5,388.1,124.5,388.1z"/> </symbol><symbol id="frame44"> 	<circle class="st0" cx="250" cy="250" r="244"/> 	<path class="st4" d="M386.1,230.4c0,0-11.8-13.5-38.8-11.5s-37,18.4-37,18.4s9.9-40.8,48.4-45.5c35-4.2,55.8,17.3,55.8,17.3"/> 	<path class="st4" d="M115.3,230.6c0,0,11-13.8,38-11.8s38.2,18.2,38.2,18.2s-11.2-40-49.7-44.7c-35-4.2-56.3,17-56.3,17"/> 	<path class="st2" d="M99.8,295c-0.1,2.2-0.1,4.3-0.1,6.5c0,83.6,67.8,151.3,151.3,151.3s151.3-67.8,151.3-151.3 		c0-2.2-0.1-4.3-0.1-6.5H99.8z"/> 	<path class="st3" d="M132.3,395.4c27.7,35,70.6,57.4,118.7,57.4c48.4,0,91.5-22.7,119.2-58.1C328.6,375.3,172.1,373.3,132.3,395.4z 		"/> </symbol>
</g>
<g class="animation__scene">
	<use xmlns:xlink="http://www.w3.org/1999/xlink" xlink:href="#frame01"/>
</g><script type="application/javascript">
	<![CDATA[

	(function(exportType) {
	  var SVGlib = {
	    utils: {
	      loadDoc: function(url, callback) {
	        var xhttp = new XMLHttpRequest();
	          xhttp.onreadystatechange = function() {
	            if (xhttp.readyState == 4 && xhttp.status == 200) {
	              callback.call(null, xhttp);
	            }
	          };
	          xhttp.open("GET", url, true);
	          xhttp.send();
	      },
	      ready: function(fn) {
	        if (document.readyState != 'loading'){
	          fn();
	        } else {
	          document.addEventListener('DOMContentLoaded', fn);
	        }
	      }
	    },
	    animationConfig: {
	      interval: null,
	      looped: true,
	      scene: null,
	      frameTime: 77,
	      delay: 0,
	      onOver: false,
	      reverse: false,
	      direction: 'forward'
	    },
	    currentFrame: 1,
	    animationStarted: false,
	    step: 1,
	    startFrame: 1,
	    endFrame: 13,
	    firstOut: false,
	    reversed: false,

	    format: function(num) {
	      if(num < 10) {
	        return '0' + num;
	      }
	      return num.toString();
	    },

	    encodeForInsertion: function(string) {
	      return "data:image/svg+xml," + encodeURIComponent(string);
	    },

	    nextFrame: function () {
	      if(this.currentFrame === this.endFrame) {

	        if(!this.animationConfig.looped) this.stopAnimation();

	        this.currentFrame = this.startFrame;
	      }

	      this.animationConfig.scene.setAttribute('xlink:href', '#frame' + this.format(this.currentFrame));
	      this.currentFrame += this.step;

	      if(this.animationConfig.image) {
	        this.animationConfig.image.setAttribute('src', this.encodeForInsertion(this.animationConfig.root.outerHTML));
	      }
	    },

	    startAnimation: function(ev) {
	      var self = this;
	      setTimeout(function() {
	        self.animationStarted = true;
	        self.interval = setInterval(function() {
	          self.nextFrame();
	        },self.animationConfig.frameTime);
	      }, this.animationConfig.delay);
	    },

	    stopAnimation: function(ev) {
	      clearInterval(this.interval);
	      this.animationStarted = false;
	      if(this.reversed) this.reverseAnimation();

	    },

	    isInside: function(mouseEvent, clientRect) {
	      return (
	        (mouseEvent.clientX >= clientRect.left) && (mouseEvent.clientX <= clientRect.right)
	        &&
	        (mouseEvent.clientY >= clientRect.top) && (mouseEvent.clientY <= clientRect.bottom)
	      );
	    },

	    reverseAnimation: function() {
	        this.startFrame = this.startFrame === 1 ? this.endFrame : 1;
	        this.endFrame = this.endFrame !== 1 ? 1 : this.animationConfig.frameCount;
	        this.step = this.step === -1 ? 1 : -1;
	        if(!this.animationStarted) {
	            this.currentFrame = this.startFrame;
	        }
	        this.reversed = !this.reversed;
	    },

	    handleMouseMove: function(ev, isInside) {

	      var self = this;

	      if(typeof isInside === 'undefined') isInside = self.isInside(ev, self.animationConfig.scene.getBoundingClientRect());

	      if(isInside && !self.animationStarted && !self.firstOut) {
	        self.startAnimation();
	        self.firstOut = true;
	      } else if(!isInside && self.animationStarted && self.animationConfig.reverse && self.firstOut) {
	        self.reverseAnimation();
	      } else if(!isInside && self.animationStarted && self.firstOut) {
	        self.stopAnimation();
	      }

	      if(!isInside && self.firstOut) {
	        self.firstOut = false;
	      }
	    },

	    init: function(config) {
	      for(var setting in config){
	        if(config.hasOwnProperty(setting)) {
	          this.animationConfig[setting] = config[setting]
	        }
	      }

	      if(config.frameCount) this.endFrame = config.frameCount;

	      if(this.animationConfig.direction !== 'forward') {
	        this.reverseAnimation();
			this.reversed = false;
	      }

	      var self = this;

	      if(this.animationConfig.onOver && this.animationConfig.image) {
	        this.animationConfig.image.addEventListener('mouseenter', function(ev){
	          self.handleMouseMove(ev, true);
	        });

	        this.animationConfig.image.addEventListener('mouseleave', function(ev){
	          self.handleMouseMove(ev, false);
	        });

	      } else if (this.animationConfig.onOver) {
	        window.addEventListener('mousemove', function(ev){
	          self.handleMouseMove(ev);
	        });
	      } else {
	        self.startAnimation();
	      }
	    },

	    initEmbedded: function() {
	      var elem = document.querySelector('.animation');
	          this.init({
	            scene: elem.querySelector('.animation__scene use'),
	            delay: parseInt(elem.getAttribute('data-delay'), 10),
	            frameTime: parseInt(elem.getAttribute('data-frame'), 10),
	            looped: (elem.getAttribute('data-looped') === 'true'),
	            onOver: (elem.getAttribute('data-onover') === 'true'),
	            reverse: (elem.getAttribute('data-reverse') === 'true'),
	            direction: elem.getAttribute('data-direction'),
	            frameCount: elem.querySelectorAll('symbol').length
	          });
	    },

	    initAsImg: function(xml) {
	      var i,
	          xmlDoc = xml.responseXML,
	          elem = xmlDoc.querySelector('.animation');

	      this.init({
	        root: elem,
	        scene: elem.querySelector('.animation__scene use'),
	        delay: parseInt(elem.getAttribute('data-delay'), 10),
	        frameTime: parseInt(elem.getAttribute('data-frame'), 10),
	        looped: (elem.getAttribute('data-looped') === 'true'),
	        onOver: (elem.getAttribute('data-onover') === 'true'),
	        reverse: (elem.getAttribute('data-reverse') === 'true'),
	        direction: elem.getAttribute('data-direction'),
	        image:  document.querySelector('#svg__holder'),
	        frameCount: elem.querySelectorAll('symbol').length
	      });
	    }
	  };

	  var utils = SVGlib.utils;

	  utils.ready(function(){
	    if(exportType === 'embedded') {
	      SVGlib.initEmbedded();
	    } else if(exportType === 'image') {
	      var image = document.querySelector('#svg__holder');
	      utils.loadDoc(image.getAttribute('src'), function(resp){
	        SVGlib.initAsImg(resp);
	      });
	    }
	  });
	})((window.state && window.state.exportType) || 'embedded');

]]>
</script>
</svg>