<?xml version="1.0" encoding="UTF-8" standalone="no"?>
<!DOCTYPE svg PUBLIC "-//W3C//DTD SVG 1.1//EN" "http://www.w3.org/Graphics/SVG/1.1/DTD/svg11.dtd">
<svg width="100%" height="100%" viewBox="0 0 123 123" version="1.1" xmlns="http://www.w3.org/2000/svg" xmlns:xlink="http://www.w3.org/1999/xlink" xml:space="preserve" style="fill-rule:evenodd;clip-rule:evenodd;stroke-linejoin:round;stroke-miterlimit:1.41421;">
    <g transform="matrix(1,0,0,1,-288.75,-1468.75)">
        <g id="upload-button" transform="matrix(0.897656,0,0,0.94875,-396.25,910.75)">
            <g transform="matrix(1,0,0,1,1.11401,0)">
                <g transform="matrix(1.11401,0,0,1.05402,-207.206,-1.49785e-14)">
                    <circle cx="931.25" cy="619.25" r="61.25" style="fill:rgb(243,89,70);"/>
                </g>
                <g id="_-Ellipse-" transform="matrix(0.954868,0,0,0.903444,-59.0029,93.243)">
                    <circle cx="931.25" cy="619.25" r="61.25" style="fill:white;"/>
                </g>
            </g>
            <g id="icon-upload" transform="matrix(1,0,0,1,81.3229,-62.1871)">
                <g transform="matrix(1.07623,0,0,1.01827,-470.147,88.9241)">
                    <circle cx="1133.38" cy="614.375" r="43.375" style="fill:rgb(123,123,123);"/>
                </g>
                <g transform="matrix(1.07623,0,0,1.01827,-470.147,88.9241)">
                    <path d="M1143.83,601.018L1173.46,629.635C1173.69,629.854 1173.75,630.193 1173.62,630.478C1170.83,636.393 1166.51,646.302 1152.11,653.809L1125.19,624.826L1143.83,601.018Z" style="fill:rgb(103,103,103);"/>
                </g>
                <g transform="matrix(1.0754,0.0398966,-0.0421675,1.01749,-475.047,62.6851)">
                    <path d="M1143.83,601.018L1154.57,611.001C1154.57,611.001 1182.93,625.329 1188.04,627.909C1188.23,628.006 1188.37,628.182 1188.42,628.391C1188.47,628.599 1188.43,628.82 1188.3,628.994C1184.47,633.414 1171.31,638.561 1160.83,638.526L1138.66,617.149L1143.83,601.018Z" style="fill:rgb(103,103,103);"/>
                </g>
                <g transform="matrix(1,0,0,1,-87.301,60.2412)">
                    <g transform="matrix(1.11401,0,0,1.05402,-597.367,1.05402)">
                        <path d="M1312,639.178C1312,640.099 1311.25,640.846 1310.33,640.846L1264.67,640.846C1263.75,640.846 1263,640.099 1263,639.178L1263,625.75C1263,624.784 1263.78,624 1264.75,624L1268.25,624C1269.22,624 1270,624.784 1270,625.75L1270,634.173L1305,634.173L1305,625.75C1305,624.784 1305.78,624 1306.75,624L1310.25,624C1311.22,624 1312,624.784 1312,625.75L1312,639.178Z" style="fill:white;"/>
                    </g>
                    <g transform="matrix(1.11401,-0,0,-1.05402,-596.962,1294.17)">
                        <path d="M1279,609L1276.52,609C1276.1,609 1275.72,608.745 1275.56,608.355C1275.4,607.964 1275.49,607.515 1275.78,607.216C1279.35,603.654 1287,596 1287,596C1287,596 1295.15,604.154 1298.55,607.547C1298.79,607.79 1298.86,608.156 1298.73,608.474C1298.6,608.793 1298.29,609 1297.94,609L1296,609L1296,628.1C1296,629.149 1295.15,630 1294.1,630L1280.9,630C1279.85,630 1279,629.149 1279,628.1L1279,609Z" style="fill:white;"/>
                    </g>
                </g>
            </g>
        </g>
    </g>
</svg>
