<?xml version="1.0" encoding="UTF-8" standalone="no"?>
<!DOCTYPE svg PUBLIC "-//W3C//DTD SVG 1.1//EN" "http://www.w3.org/Graphics/SVG/1.1/DTD/svg11.dtd">
<svg width="100%" height="100%" viewBox="0 0 123 123" version="1.1" xmlns="http://www.w3.org/2000/svg" xmlns:xlink="http://www.w3.org/1999/xlink" xml:space="preserve" style="fill-rule:evenodd;clip-rule:evenodd;stroke-linejoin:round;stroke-miterlimit:1.41421;">
    <g transform="matrix(1,0,0,1,-542.997,-536.73)">
        <g transform="matrix(1.56667,0,0,1.3307,847.567,1.89104e-14)">
            <g id="retake-button" transform="matrix(0.572972,0,0,0.712972,-631.64,-15.9841)">
                <g transform="matrix(1,0,0,1,1.11401,0)">
                    <g transform="matrix(1.11401,0,0,1.05402,-207.206,-1.49785e-14)">
                        <circle cx="931.25" cy="619.25" r="61.25" style="fill:rgb(243,89,70);"/>
                    </g>
                    <g id="_-Ellipse-" transform="matrix(0.954868,0,0,0.903444,-59.0029,93.243)">
                        <circle cx="931.25" cy="619.25" r="61.25" style="fill:white;"/>
                    </g>
                </g>
                <g id="icon-upload" transform="matrix(1,0,0,1,81.3229,-62.1871)">
                    <g transform="matrix(1.07623,0,0,1.01827,-470.147,88.9241)">
                        <circle cx="1133.38" cy="614.375" r="43.375" style="fill:rgb(123,123,123);"/>
                    </g>
                    <g transform="matrix(1.07623,0,0,1.01827,-470.147,88.9241)">
                        <path d="M1151.07,625.105L1153.14,598.192C1153.14,598.192 1173.42,615.7 1175.71,617.678C1175.84,617.795 1175.93,617.958 1175.95,618.135C1177.74,632.437 1160.59,658.044 1138.65,657.78L1114.85,634.421L1151.07,625.105Z" style="fill:rgb(103,103,103);"/>
                    </g>
                    <g transform="matrix(1.0754,0.0398966,-0.0421675,1.01749,-467.696,35.1476)">
                        <path d="M1148.72,609.57L1173.62,610.665C1173.62,610.665 1186.1,625.147 1188.44,627.867C1188.66,628.121 1188.68,628.492 1188.49,628.767C1184.92,633.237 1171.49,638.562 1160.83,638.526L1138.66,617.149L1148.72,609.57Z" style="fill:rgb(103,103,103);"/>
                    </g>
                </g>
                <g transform="matrix(1.11401,0,0,1.05402,157.669,22.175)">
                    <path d="M600,579C604.665,578.863 609.341,578.727 614,579C617.676,579.216 621.645,580.319 624.514,582.781C631.987,589.197 633.83,601.719 630,610C628.671,612.873 625.581,616.276 622.775,617.74C618.754,619.837 606.938,619.727 604.942,619.802C601.297,619.939 600.646,620.106 597,620C592.482,619.868 585.944,621.608 586,615C586.058,608.255 590.794,609.042 599,609C610.826,608.939 618.19,610.73 620.375,602.313C621.321,598.669 620.194,590.129 616,590C610.669,589.836 605.332,589.873 600,590C600,590 599.875,596.47 599.61,596.559C598.095,597.069 598.225,597.343 594,596C589.355,594.523 585.85,591.891 582.133,588.638C580.945,587.599 579.121,586.002 579,584C578.918,582.643 581.363,580.67 582,580C582.656,579.31 599.954,568.267 600,572C600.041,575.354 600,579 600,579Z" style="fill:white;"/>
                </g>
            </g>
        </g>
    </g>
</svg>
