<?xml version="1.0" encoding="utf-8"?>
<svg version="1.1" id="graphics"
	class="animation"
	xmlns="http://www.w3.org/2000/svg"
	xmlns:xlink="http://www.w3.org/1999/xlink"
	x="0px" y="0px"
	data-frame="42"
	data-delay="100"
	data-looped="true"
	data-onover="false"
	data-reverse="false"
	data-direction="forward"
	viewBox="0 0 500 500"
	style="enable-background:new 0 0 500 500;"
	>
	<style> 	.st0{fill:#5C9FF9;stroke:#231F20;stroke-width:9;stroke-miterlimit:10;} 	.st1{fill:#FFFFFF;stroke:#231F20;stroke-width:9;stroke-miterlimit:10;} 
</style>
<g class="animation__source">
<symbol id="frame01"> 	<circle class="st0" cx="250" cy="250" r="243.3"/> 	<path class="st1" d="M357.9,366.8h-93.6c-31.8-1.6-44.8-19.1-44.8-19.1h-18.6v-90.9h14.8c0,0,9.6-39.4,46.7-53.9 		c23.5-9.2,41.8-50.4,41.8-50.4s8.7-14.5,23.2-9.4c14,4.9,13.5,21,7.3,32.9c-5.9,11.3-16.8,32.9-29.7,48.3c-0.7,0.8-0.1,2.1,1,2.1 		l62.6,0.2c9.8,0,17.8,8,17.8,17.8c0,9.5-7.1,15.3-11,17.8c-0.7,0.4-0.4,1.5,0.4,1.6c9.2,1.4,16.2,9.3,16.2,18.9 		c0,9.5-6.2,17.2-14.5,18.8c-0.9,0.2-1.3,1.4-0.6,2c3,2.5,7.8,7.7,7,14.9c-1.8,15.9-10.9,18.5-15.9,19c-1.2,0.1-1.8,1.4-1.1,2.4 		c2,2.9,5.1,8.1,5,12.4c-0.2,8.1-6.6,14.7-14.7,14.7"/> 	<path class="st1" d="M119,365.3V237h60c3.1,0,5.7,2.5,5.7,5.7v117c0,3.1-2.5,5.7-5.7,5.7H119z"/> </symbol><symbol id="frame02"> 	<circle class="st0" cx="250" cy="250" r="243.3"/> 	<path class="st1" d="M357.9,366.8h-93.6c-31.8-1.6-44.8-19.1-44.8-19.1h-18.6v-90.9h14.8c0,0,9.6-39.4,46.7-53.9 		c23.5-9.2,41.8-50.4,41.8-50.4s8.7-14.5,23.2-9.4c14,4.9,13.5,21,7.3,32.9c-5.9,11.3-16.8,32.9-29.7,48.3c-0.7,0.8-0.1,2.1,1,2.1 		l62.6,0.2c9.8,0,17.8,8,17.8,17.8c0,9.5-7.1,15.3-11,17.8c-0.7,0.4-0.4,1.5,0.4,1.6c9.2,1.4,16.2,9.3,16.2,18.9 		c0,9.5-6.2,17.2-14.5,18.8c-0.9,0.2-1.3,1.4-0.6,2c3,2.5,7.8,7.7,7,14.9c-1.8,15.9-10.9,18.5-15.9,19c-1.2,0.1-1.8,1.4-1.1,2.4 		c2,2.9,5.1,8.1,5,12.4c-0.2,8.1-6.6,14.7-14.7,14.7"/> 	<path class="st1" d="M119,365.3V237h60c3.1,0,5.7,2.5,5.7,5.7v117c0,3.1-2.5,5.7-5.7,5.7H119z"/> </symbol><symbol id="frame03"> 	<circle class="st0" cx="250" cy="250" r="243.3"/> 	<path class="st1" d="M357.9,366.8h-93.6c-31.8-1.6-44.8-19.1-44.8-19.1h-18.6v-90.9h14.8c0,0,9.6-39.4,46.7-53.9 		c23.5-9.2,41.8-50.4,41.8-50.4s8.7-14.5,23.2-9.4c14,4.9,13.5,21,7.3,32.9c-5.9,11.3-16.8,32.9-29.7,48.3c-0.7,0.8-0.1,2.1,1,2.1 		l62.6,0.2c9.8,0,17.8,8,17.8,17.8c0,9.5-7.1,15.3-11,17.8c-0.7,0.4-0.4,1.5,0.4,1.6c9.2,1.4,16.2,9.3,16.2,18.9 		c0,9.5-6.2,17.2-14.5,18.8c-0.9,0.2-1.3,1.4-0.6,2c3,2.5,7.8,7.7,7,14.9c-1.8,15.9-10.9,18.5-15.9,19c-1.2,0.1-1.8,1.4-1.1,2.4 		c2,2.9,5.1,8.1,5,12.4c-0.2,8.1-6.6,14.7-14.7,14.7"/> 	<path class="st1" d="M119,365.3V237h60c3.1,0,5.7,2.5,5.7,5.7v117c0,3.1-2.5,5.7-5.7,5.7H119z"/> </symbol><symbol id="frame04"> 	<circle class="st0" cx="250" cy="250" r="243.3"/> 	<path class="st1" d="M357.9,366.8h-93.6c-31.8-1.6-44.8-19.1-44.8-19.1h-18.6v-90.9h14.8c0,0,9.6-39.4,46.7-53.9 		c23.5-9.2,41.8-50.4,41.8-50.4s8.7-14.5,23.2-9.4c14,4.9,13.5,21,7.3,32.9c-5.9,11.3-16.8,32.9-29.7,48.3c-0.7,0.8-0.1,2.1,1,2.1 		l62.6,0.2c9.8,0,17.8,8,17.8,17.8c0,9.5-7.1,15.3-11,17.8c-0.7,0.4-0.4,1.5,0.4,1.6c9.2,1.4,16.2,9.3,16.2,18.9 		c0,9.5-6.2,17.2-14.5,18.8c-0.9,0.2-1.3,1.4-0.6,2c3,2.5,7.8,7.7,7,14.9c-1.8,15.9-10.9,18.5-15.9,19c-1.2,0.1-1.8,1.4-1.1,2.4 		c2,2.9,5.1,8.1,5,12.4c-0.2,8.1-6.6,14.7-14.7,14.7"/> 	<path class="st1" d="M119,365.3V237h60c3.1,0,5.7,2.5,5.7,5.7v117c0,3.1-2.5,5.7-5.7,5.7H119z"/> </symbol><symbol id="frame05"> 	<circle class="st0" cx="250" cy="250" r="243.3"/> 	<path class="st1" d="M357.9,366.8h-93.6c-31.8-1.6-44.8-19.1-44.8-19.1h-18.6v-90.9h14.8c0,0,9.6-39.4,46.7-53.9 		c23.5-9.2,41.8-50.4,41.8-50.4s8.7-14.5,23.2-9.4c14,4.9,13.5,21,7.3,32.9c-5.9,11.3-16.8,32.9-29.7,48.3c-0.7,0.8-0.1,2.1,1,2.1 		l62.6,0.2c9.8,0,17.8,8,17.8,17.8c0,9.5-7.1,15.3-11,17.8c-0.7,0.4-0.4,1.5,0.4,1.6c9.2,1.4,16.2,9.3,16.2,18.9 		c0,9.5-6.2,17.2-14.5,18.8c-0.9,0.2-1.3,1.4-0.6,2c3,2.5,7.8,7.7,7,14.9c-1.8,15.9-10.9,18.5-15.9,19c-1.2,0.1-1.8,1.4-1.1,2.4 		c2,2.9,5.1,8.1,5,12.4c-0.2,8.1-6.6,14.7-14.7,14.7"/> 	<path class="st1" d="M119,365.3V237h60c3.1,0,5.7,2.5,5.7,5.7v117c0,3.1-2.5,5.7-5.7,5.7H119z"/> </symbol><symbol id="frame06"> 	<circle class="st0" cx="250" cy="250" r="243.3"/> 	<path class="st1" d="M357.9,366.8h-93.6c-31.8-1.6-44.8-19.1-44.8-19.1h-18.6v-90.9h14.8c0,0,9.6-39.4,46.7-53.9 		c23.5-9.2,41.8-50.4,41.8-50.4s8.7-14.5,23.2-9.4c14,4.9,13.5,21,7.3,32.9c-5.9,11.3-16.8,32.9-29.7,48.3c-0.7,0.8-0.1,2.1,1,2.1 		l62.6,0.2c9.8,0,17.8,8,17.8,17.8c0,9.5-7.1,15.3-11,17.8c-0.7,0.4-0.4,1.5,0.4,1.6c9.2,1.4,16.2,9.3,16.2,18.9 		c0,9.5-6.2,17.2-14.5,18.8c-0.9,0.2-1.3,1.4-0.6,2c3,2.5,7.8,7.7,7,14.9c-1.8,15.9-10.9,18.5-15.9,19c-1.2,0.1-1.8,1.4-1.1,2.4 		c2,2.9,5.1,8.1,5,12.4c-0.2,8.1-6.6,14.7-14.7,14.7"/> 	<path class="st1" d="M119,365.3V237h60c3.1,0,5.7,2.5,5.7,5.7v117c0,3.1-2.5,5.7-5.7,5.7H119z"/> </symbol><symbol id="frame07"> 	<circle class="st0" cx="250" cy="250" r="243.3"/> 	<path class="st1" d="M357.9,366.8h-93.6c-31.8-1.6-44.8-19.1-44.8-19.1h-18.6v-90.9h14.8c0,0,9.6-39.4,46.7-53.9 		c23.5-9.2,41.8-50.4,41.8-50.4s8.7-14.5,23.2-9.4c14,4.9,13.5,21,7.3,32.9c-5.9,11.3-16.8,32.9-29.7,48.3c-0.7,0.8-0.1,2.1,1,2.1 		l62.6,0.2c9.8,0,17.8,8,17.8,17.8c0,9.5-7.1,15.3-11,17.8c-0.7,0.4-0.4,1.5,0.4,1.6c9.2,1.4,16.2,9.3,16.2,18.9 		c0,9.5-6.2,17.2-14.5,18.8c-0.9,0.2-1.3,1.4-0.6,2c3,2.5,7.8,7.7,7,14.9c-1.8,15.9-10.9,18.5-15.9,19c-1.2,0.1-1.8,1.4-1.1,2.4 		c2,2.9,5.1,8.1,5,12.4c-0.2,8.1-6.6,14.7-14.7,14.7"/> 	<path class="st1" d="M119,365.3V237h60c3.1,0,5.7,2.5,5.7,5.7v117c0,3.1-2.5,5.7-5.7,5.7H119z"/> </symbol><symbol id="frame08"> 	<circle class="st0" cx="250" cy="250" r="243.3"/> 	<path class="st1" d="M357.9,366.8h-93.6c-31.8-1.6-44.8-19.1-44.8-19.1h-18.6v-90.9h14.8c0,0,9.6-39.4,46.7-53.9 		c23.5-9.2,41.8-50.4,41.8-50.4s8.7-14.5,23.2-9.4c14,4.9,13.5,21,7.3,32.9c-5.9,11.3-16.8,32.9-29.7,48.3c-0.7,0.8-0.1,2.1,1,2.1 		l62.6,0.2c9.8,0,17.8,8,17.8,17.8c0,9.5-7.1,15.3-11,17.8c-0.7,0.4-0.4,1.5,0.4,1.6c9.2,1.4,16.2,9.3,16.2,18.9 		c0,9.5-6.2,17.2-14.5,18.8c-0.9,0.2-1.3,1.4-0.6,2c3,2.5,7.8,7.7,7,14.9c-1.8,15.9-10.9,18.5-15.9,19c-1.2,0.1-1.8,1.4-1.1,2.4 		c2,2.9,5.1,8.1,5,12.4c-0.2,8.1-6.6,14.7-14.7,14.7"/> 	<path class="st1" d="M119,365.3V237h60c3.1,0,5.7,2.5,5.7,5.7v117c0,3.1-2.5,5.7-5.7,5.7H119z"/> </symbol><symbol id="frame09"> 	<circle class="st0" cx="250" cy="250" r="243.3"/> 	<path class="st1" d="M357.9,366.8h-93.6c-31.8-1.6-44.8-19.1-44.8-19.1h-18.6v-90.9h14.8c0,0,9.6-39.4,46.7-53.9 		c23.5-9.2,41.8-50.4,41.8-50.4s8.7-14.5,23.2-9.4c14,4.9,13.5,21,7.3,32.9c-5.9,11.3-16.8,32.9-29.7,48.3c-0.7,0.8-0.1,2.1,1,2.1 		l62.6,0.2c9.8,0,17.8,8,17.8,17.8c0,9.5-7.1,15.3-11,17.8c-0.7,0.4-0.4,1.5,0.4,1.6c9.2,1.4,16.2,9.3,16.2,18.9 		c0,9.5-6.2,17.2-14.5,18.8c-0.9,0.2-1.3,1.4-0.6,2c3,2.5,7.8,7.7,7,14.9c-1.8,15.9-10.9,18.5-15.9,19c-1.2,0.1-1.8,1.4-1.1,2.4 		c2,2.9,5.1,8.1,5,12.4c-0.2,8.1-6.6,14.7-14.7,14.7"/> 	<path class="st1" d="M119,365.3V237h60c3.1,0,5.7,2.5,5.7,5.7v117c0,3.1-2.5,5.7-5.7,5.7H119z"/> </symbol><symbol id="frame10"> 	<circle class="st0" cx="250" cy="250" r="243.3"/> 	<path class="st1" d="M357.9,366.8h-93.6c-31.8-1.6-44.8-19.1-44.8-19.1h-18.6v-90.9h14.8c0,0,9.6-39.4,46.7-53.9 		c23.5-9.2,41.8-50.4,41.8-50.4s8.7-14.5,23.2-9.4c14,4.9,13.5,21,7.3,32.9c-5.9,11.3-16.8,32.9-29.7,48.3c-0.7,0.8-0.1,2.1,1,2.1 		l62.6,0.2c9.8,0,17.8,8,17.8,17.8c0,9.5-7.1,15.3-11,17.8c-0.7,0.4-0.4,1.5,0.4,1.6c9.2,1.4,16.2,9.3,16.2,18.9 		c0,9.5-6.2,17.2-14.5,18.8c-0.9,0.2-1.3,1.4-0.6,2c3,2.5,7.8,7.7,7,14.9c-1.8,15.9-10.9,18.5-15.9,19c-1.2,0.1-1.8,1.4-1.1,2.4 		c2,2.9,5.1,8.1,5,12.4c-0.2,8.1-6.6,14.7-14.7,14.7"/> 	<path class="st1" d="M119,365.3V237h60c3.1,0,5.7,2.5,5.7,5.7v117c0,3.1-2.5,5.7-5.7,5.7H119z"/> </symbol><symbol id="frame11"> 	<circle class="st0" cx="250" cy="250" r="243.3"/> 	<path class="st1" d="M358.3,362.7l-93.6,2.4c-31.9-0.8-45.3-18-45.3-18l-18.6,0.5l-2.4-90.9l14.8-0.4c0,0,8.6-39.7,45.2-55.1 		c23.2-9.8,40.5-51.5,40.5-51.5s8.3-14.7,22.9-10c14.1,4.5,14,20.7,8.1,32.7c-5.6,11.5-15.9,33.3-28.5,49.1 		c-0.7,0.9-0.1,2.1,1.1,2.1l62.6-1.4c9.8-0.3,18,7.5,18.3,17.4c0.2,9.5-6.7,15.5-10.6,18.1c-0.7,0.5-0.3,1.5,0.5,1.6 		c9.2,1.2,16.5,8.9,16.7,18.5c0.2,9.5-5.8,17.3-14,19.1c-0.9,0.2-1.3,1.4-0.5,2c3.1,2.4,8,7.5,7.4,14.7 		c-1.4,15.9-10.4,18.8-15.4,19.4c-1.2,0.1-1.7,1.5-1,2.4c2.1,2.9,5.3,8,5.3,12.3c0,8.1-6.2,14.9-14.3,15.1"/> 	<path class="st1" d="M119,365.3V237h60c3.1,0,5.7,2.5,5.7,5.7v117c0,3.1-2.5,5.7-5.7,5.7H119z"/> </symbol><symbol id="frame12"> 	<circle class="st0" cx="250" cy="250" r="243.3"/> 	<path class="st1" d="M355.8,364.6l-93.6-0.5c-31.8-1.8-44.7-19.4-44.7-19.4l-18.6-0.1l0.4-90.9l14.8,0.1c0,0,9.8-39.4,46.9-53.7 		c23.5-9.1,42-50.2,42-50.2s8.8-14.4,23.2-9.3c14,4.9,13.4,21.1,7.1,32.9c-6,11.3-16.9,32.8-30,48.2c-0.7,0.8-0.1,2.1,1,2.1 		l62.6,0.5c9.8,0,17.8,8.1,17.7,17.9c0,9.5-7.2,15.3-11.1,17.8c-0.7,0.4-0.4,1.5,0.4,1.6c9.2,1.4,16.2,9.4,16.1,19 		c0,9.5-6.3,17.2-14.6,18.7c-0.9,0.2-1.3,1.3-0.6,2c3,2.5,7.8,7.7,6.9,14.9c-1.9,15.9-11,18.5-15.9,18.9c-1.2,0.1-1.8,1.4-1.1,2.4 		c2,2.9,5,8.1,4.9,12.5c-0.2,8.1-6.7,14.7-14.8,14.6"/> 	<path class="st1" d="M119,363.3V235h60c3.1,0,5.7,2.5,5.7,5.7v117c0,3.1-2.5,5.7-5.7,5.7H119z"/> </symbol><symbol id="frame13"> 	<circle class="st0" cx="250" cy="250" r="243.3"/> 	<g> 		<path class="st1" d="M352.4,383.5l-93.4-5.4c-31.7-3.4-43.6-21.7-43.6-21.7l-18.6-1.1l5.2-90.7l14.8,0.8c0,0,11.9-38.8,49.7-51.2 			c23.9-7.8,44.6-48,44.6-48s9.5-13.9,23.7-8.1c13.7,5.6,12.3,21.8,5.4,33.3c-6.6,11-18.6,31.9-32.4,46.5c-0.8,0.8-0.2,2.1,0.9,2.2 			l62.5,3.8c9.8,0.6,17.3,9,16.8,18.8c-0.5,9.4-8,14.9-12,17.1c-0.7,0.4-0.5,1.5,0.3,1.6c9.1,1.9,15.7,10.3,15.1,19.8 			c-0.5,9.5-7.2,16.8-15.6,17.9c-1,0.1-1.4,1.3-0.7,1.9c2.9,2.7,7.4,8.1,6.1,15.3c-2.7,15.7-12,17.9-16.9,18c-1.2,0-1.9,1.3-1.2,2.3 			c1.8,3,4.6,8.4,4.2,12.7c-0.6,8.1-7.4,14.3-15.5,13.8"/> 		<path class="st1" d="M119,368.3l1.6-128.3l60,0.8c3.1,0,5.6,2.6,5.6,5.7l-1.5,117c0,3.1-2.6,5.6-5.7,5.6L119,368.3z"/> 	</g> </symbol><symbol id="frame14"> 	<circle class="st0" cx="250" cy="250" r="243.3"/> 	<g> 		<path class="st1" d="M342.2,406.2L249.7,392c-31.2-6.5-41.3-25.8-41.3-25.8l-18.4-2.8l13.9-89.8l14.7,2.3c0,0,15.5-37.5,54.3-46.2 			c24.6-5.5,49-43.5,49-43.5s10.8-13,24.4-5.8c13.1,6.9,10.1,22.8,2.2,33.6c-7.6,10.3-21.6,30-36.7,43.2c-0.8,0.7-0.4,2.1,0.7,2.3 			l61.9,9.8c9.7,1.5,16.4,10.6,14.9,20.3c-1.4,9.3-9.4,14-13.6,15.9c-0.8,0.3-0.6,1.4,0.2,1.7c8.9,2.8,14.6,11.7,13.2,21.2 			c-1.4,9.4-8.8,16-17.2,16.3c-1,0-1.5,1.1-0.9,1.9c2.6,2.9,6.6,8.8,4.6,15.8c-4.2,15.4-13.6,16.7-18.6,16.3c-1.2-0.1-2,1.1-1.5,2.2 			c1.5,3.2,3.8,8.8,3,13c-1.4,8-8.7,13.5-16.8,12.3"/> 		<path class="st1" d="M111.8,372.7L124.3,245l59.7,5.9c3.1,0.3,5.4,3.1,5.1,6.2l-11.5,116.4c-0.3,3.1-3.1,5.4-6.2,5.1L111.8,372.7z 			"/> 	</g> </symbol><symbol id="frame15"> 	<circle class="st0" cx="250" cy="250" r="243.3"/> 	<g> 		<path class="st1" d="M349.3,383.6l-93.3-7.9c-31.6-4.3-43-22.8-43-22.8l-18.5-1.6l7.6-90.6l14.8,1.2c0,0,12.9-38.5,51-49.8 			c24.2-7.2,45.9-46.8,45.9-46.8s9.9-13.7,23.9-7.5c13.6,6,11.7,22.1,4.5,33.4c-6.9,10.8-19.5,31.4-33.7,45.6 			c-0.8,0.8-0.3,2.1,0.8,2.2l62.4,5.5c9.8,0.8,17.1,9.5,16.3,19.3c-0.8,9.4-8.4,14.7-12.5,16.8c-0.7,0.4-0.5,1.5,0.3,1.7 			c9,2.2,15.4,10.7,14.6,20.2c-0.8,9.5-7.7,16.6-16.1,17.5c-1,0.1-1.5,1.2-0.8,1.9c2.8,2.7,7.1,8.3,5.7,15.4 			c-3.1,15.7-12.4,17.6-17.4,17.6c-1.2,0-1.9,1.3-1.3,2.3c1.8,3.1,4.4,8.5,3.9,12.8c-0.9,8.1-7.8,14.1-15.9,13.4"/> 		<path class="st1" d="M118.1,370.5l4.7-128.2l60,2.2c3.1,0.1,5.6,2.7,5.5,5.9l-4.3,116.9c-0.1,3.1-2.7,5.6-5.9,5.5L118.1,370.5z"/> 	</g> </symbol><symbol id="frame16"> 	<circle class="st0" cx="250" cy="250" r="243.3"/> 	<g> 		<path class="st1" d="M346.8,390.2l-93.1-9.7c-31.5-4.9-42.5-23.7-42.5-23.7l-18.5-1.9l9.4-90.4l14.8,1.5c0,0,13.7-38.2,52-48.8 			c24.3-6.7,46.8-45.8,46.8-45.8s10.2-13.5,24-7c13.4,6.3,11.2,22.3,3.8,33.5c-7.1,10.7-20.1,31-34.6,45c-0.8,0.8-0.3,2.1,0.8,2.2 			l62.3,6.7c9.8,1,16.9,9.8,15.9,19.6c-1,9.4-8.7,14.5-12.8,16.6c-0.7,0.4-0.5,1.5,0.3,1.7c9,2.4,15.2,11,14.2,20.5 			c-1,9.5-8,16.5-16.4,17.2c-1,0.1-1.5,1.2-0.8,1.9c2.7,2.8,7,8.5,5.4,15.5c-3.4,15.6-12.8,17.3-17.7,17.2c-1.2,0-1.9,1.2-1.4,2.3 			c1.7,3.1,4.2,8.6,3.6,12.9c-1,8.1-8.1,13.9-16.1,13.1"/> 		<path class="st1" d="M116.8,369.7l3.1-128.3l60,1.5c3.1,0.1,5.6,2.7,5.5,5.8l-2.8,117c-0.1,3.1-2.7,5.6-5.8,5.5L116.8,369.7z"/> 	</g> </symbol><symbol id="frame17"> 	<circle class="st0" cx="250" cy="250" r="243.3"/> 	<g> 		<path class="st1" d="M358.4,335.2l-93.3,7.6c-31.9,1-46.2-15.4-46.2-15.4l-18.5,1.5l-7.4-90.6l14.8-1.2c0,0,6.4-40.1,42.1-57.6 			c22.6-11.1,37.5-53.7,37.5-53.7s7.5-15.1,22.3-11.3c14.4,3.7,15.2,19.9,9.9,32.2c-5,11.8-14,34.2-25.7,50.6 			c-0.6,0.9,0.1,2.1,1.2,2l62.4-4.9c9.8-0.8,18.4,6.5,19.2,16.3c0.8,9.4-5.9,15.8-9.5,18.6c-0.7,0.5-0.3,1.5,0.6,1.6 			c9.3,0.6,16.9,8,17.7,17.5c0.8,9.5-4.8,17.6-13,19.9c-0.9,0.3-1.2,1.5-0.4,2c3.2,2.2,8.4,7,8.2,14.3c-0.5,16-9.4,19.4-14.3,20.2 			c-1.2,0.2-1.7,1.6-0.9,2.5c2.2,2.8,5.7,7.7,6,12c0.5,8.1-5.4,15.2-13.4,15.9"/> 		<path class="st1" d="M125.4,356.3l-12.3-127.7l59.7-5.8c3.1-0.3,5.9,2,6.2,5.1l11.2,116.5c0.3,3.1-2,5.9-5.1,6.2L125.4,356.3z"/> 	</g> </symbol><symbol id="frame18"> 	<circle class="st0" cx="250" cy="250" r="243.3"/> 	<g> 		<path class="st1" d="M361.7,317.1l-92.9,11.7c-31.8,2.4-46.8-13.4-46.8-13.4l-18.5,2.3l-11.4-90.2l14.7-1.9c0,0,6.7-34.1,32-55.1 			c3.7-3.1,23.5-20.2,24.9-28.4c2.8-16.3,7.3-35.7,7.3-35.7s-0.3-14.7,14.8-12c32.1,5.8,13.4,70.8,2.5,87.7c-0.6,0.9,0.2,2.1,1.3,2 			l65.2-7.7c9.8-1.2,18.7,5.7,19.9,15.5c1.2,9.4-5.2,16.1-8.7,19.1c-0.6,0.5-0.2,1.5,0.6,1.6c9.3,0.2,17.3,7.2,18.5,16.7 			c1.2,9.4-4,17.8-12.1,20.4c-0.9,0.3-1.2,1.5-0.3,2c3.3,2.1,8.7,6.7,8.8,13.9c0.2,16-8.5,19.8-13.4,20.8c-1.1,0.2-1.6,1.6-0.8,2.5 			c2.4,2.7,6,7.4,6.5,11.7c0.8,8.1-4.7,15.4-12.7,16.4"/> 		<path class="st1" d="M130.9,350.2l-22.3-126.4l59.1-10.4c3.1-0.5,6,1.5,6.6,4.6l20.4,115.2c0.5,3.1-1.5,6-4.6,6.6L130.9,350.2z"/> 	</g> </symbol><symbol id="frame19"> 	<circle class="st0" cx="250" cy="250" r="243.3"/> 	<g> 		<path class="st1" d="M363.6,292.9l-91.1,21.3c-31.4,5.7-48-8.5-48-8.5l-18.1,4.2l-20.6-88.5l14.4-3.4c0,0,0.4-40.6,33.2-63.1 			c20.8-14.3,18-63.1,18-63.1s-0.8-15.8,14.5-14.2c14.8,1.5,20.8,16.7,21.6,30c0.7,13.3,1.4,40.4-7.7,58.3c-0.5,1,0.4,2.1,1.5,1.9 			l61-14c9.6-2.2,19.2,3.7,21.4,13.3c2.1,9.2-3.5,16.5-6.7,19.8c-0.6,0.6,0,1.5,0.8,1.5c9.3-0.7,17.9,5.4,20.1,14.7 			c2.2,9.3-2.2,18.2-9.9,21.6c-0.9,0.4-1,1.6-0.1,2.1c3.5,1.8,9.4,5.7,10.2,12.9c1.8,15.9-6.4,20.5-11.1,22.1 			c-1.1,0.4-1.4,1.8-0.5,2.6c2.6,2.4,6.8,6.7,7.7,11c1.7,7.9-3.1,15.8-11,17.7"/> 		<path class="st1" d="M131.4,346.3L103.6,221l58.6-13c3.1-0.7,6.1,1.2,6.8,4.3l25.4,114.2c0.7,3.1-1.2,6.1-4.3,6.8L131.4,346.3z"/> 	</g> </symbol><symbol id="frame20"> 	<circle class="st0" cx="250" cy="250" r="243.3"/> 	<g> 		<path class="st1" d="M363.7,293.9l-91.4,20.3c-31.4,5.3-47.9-9-47.9-9l-18.2,4l-19.7-88.7l14.5-3.2c0,0,3.5-34.6,26.7-57.9 			c3.4-3.4,21.5-22.3,22.2-30.6c1.2-16.5,0-35.9,0-35.9s-1.7-14.6,13.6-13.3c32.5,2.8,26.9,68.6,17.6,86.4c-0.5,1,0.4,2.1,1.4,1.9 			l61.2-13.4c9.6-2.1,19.1,3.9,21.3,13.5c2.1,9.2-3.6,16.5-6.9,19.8c-0.6,0.6,0,1.5,0.8,1.5c9.3-0.6,17.9,5.6,20,15 			c2.1,9.3-2.4,18.1-10.1,21.5c-0.9,0.4-1,1.6-0.2,2.1c3.5,1.8,9.3,5.8,10.1,13c1.7,15.9-6.6,20.5-11.4,21.9 			c-1.1,0.3-1.4,1.8-0.6,2.6c2.6,2.4,6.7,6.8,7.5,11.1c1.6,8-3.2,15.8-11.2,17.5"/> 		<path class="st1" d="M130.9,345.2l-26.6-125.6l58.7-12.4c3.1-0.6,6.1,1.3,6.7,4.4L194,326c0.6,3.1-1.3,6.1-4.4,6.7L130.9,345.2z" 			/> 	</g> </symbol><symbol id="frame21"> 	<circle class="st0" cx="250" cy="250" r="243.3"/> 	<g> 		<path class="st1" d="M363.7,291.9l-91.4,20.3c-31.4,5.3-47.9-9-47.9-9l-18.2,4l-19.7-88.7l14.5-3.2c0,0,3.5-34.6,26.7-57.9 			c3.4-3.4,17-22.7,17.6-31.1c1.2-16.5-2.3-35.8-2.3-35.8s-0.6-15.5,14.7-14.1c32.5,2.8,32.6,69.9,23.3,87.7c-0.5,1,0.4,2.1,1.4,1.9 			l61.2-13.4c9.6-2.1,19.1,3.9,21.3,13.5c2.1,9.2-3.6,16.5-6.9,19.8c-0.6,0.6,0,1.5,0.8,1.5c9.3-0.6,17.9,5.6,20,15 			c2.1,9.3-2.4,18.1-10.1,21.5c-0.9,0.4-1,1.6-0.2,2.1c3.5,1.8,9.3,5.8,10.1,13c1.7,15.9-6.6,20.5-11.4,21.9 			c-1.1,0.3-1.4,1.8-0.6,2.6c2.6,2.4,6.7,6.8,7.5,11.1c1.6,8-3.2,15.8-11.2,17.5"/> 		<path class="st1" d="M133.9,344.2l-30.2-124.7l58.3-14.1c3-0.7,6.1,1.1,6.8,4.2l27.6,113.7c0.7,3-1.1,6.1-4.2,6.8L133.9,344.2z"/> 	</g> </symbol><symbol id="frame22"> 	<circle class="st0" cx="250" cy="250" r="243.3"/> 	<g> 		<path class="st1" d="M364.4,288.3l-90.9,22.4c-31.3,6-48.1-7.9-48.1-7.9l-18.1,4.5L185.6,219l14.4-3.5c0,0,2.8-34.6,25.4-58.5 			c3.3-3.5,16.5-23.1,16.9-31.5c0.9-16.5-3.1-35.7-3.1-35.7s-1-15.4,14.3-14.5c32.5,2,34.2,69.1,25.3,87.1c-0.5,1,0.4,2.1,1.5,1.8 			l60.9-14.8c9.6-2.4,19.2,3.5,21.6,13c2.3,9.2-3.3,16.6-6.4,19.9c-0.6,0.6,0,1.5,0.8,1.5c9.3-0.8,18,5.2,20.3,14.5 			c2.3,9.2-1.9,18.2-9.6,21.7c-0.9,0.4-1,1.6-0.1,2.1c3.5,1.7,9.4,5.6,10.4,12.8c2,15.8-6.2,20.6-10.9,22.2 			c-1.1,0.4-1.4,1.8-0.5,2.6c2.7,2.4,6.8,6.7,7.8,10.9c1.8,7.9-2.9,15.8-10.8,17.8"/> 		<path class="st1" d="M132.9,344.2l-31-124.5l58.2-14.5c3-0.8,6.1,1.1,6.9,4.1l28.2,113.5c0.8,3-1.1,6.1-4.1,6.9L132.9,344.2z"/> 	</g> </symbol><symbol id="frame23"> 	<circle class="st0" cx="250" cy="250" r="243.3"/> 	<g> 		<path class="st1" d="M363.7,291.9l-91.4,20.3c-31.4,5.3-47.9-9-47.9-9l-18.2,4l-19.7-88.7l14.5-3.2c0,0,3.5-34.6,26.7-57.9 			c3.4-3.4,17-22.7,17.6-31.1c1.2-16.5-2.3-35.8-2.3-35.8s-0.6-15.5,14.7-14.1c32.5,2.8,32.6,69.9,23.3,87.7c-0.5,1,0.4,2.1,1.4,1.9 			l61.2-13.4c9.6-2.1,19.1,3.9,21.3,13.5c2.1,9.2-3.6,16.5-6.9,19.8c-0.6,0.6,0,1.5,0.8,1.5c9.3-0.6,17.9,5.6,20,15 			c2.1,9.3-2.4,18.1-10.1,21.5c-0.9,0.4-1,1.6-0.2,2.1c3.5,1.8,9.3,5.8,10.1,13c1.7,15.9-6.6,20.5-11.4,21.9 			c-1.1,0.3-1.4,1.8-0.6,2.6c2.6,2.4,6.7,6.8,7.5,11.1c1.6,8-3.2,15.8-11.2,17.5"/> 		<path class="st1" d="M133.9,344.2l-30.2-124.7l58.3-14.1c3-0.7,6.1,1.1,6.8,4.2l27.6,113.7c0.7,3-1.1,6.1-4.2,6.8L133.9,344.2z"/> 	</g> </symbol><symbol id="frame24"> 	<circle class="st0" cx="250" cy="250" r="243.3"/> 	<g> 		<path class="st1" d="M363.1,309.6l-92.3,15.7c-31.6,3.7-47.3-11.4-47.3-11.4l-18.3,3.1l-15.2-89.6l14.6-2.5 			c0,0,5.3-34.3,29.6-56.4c3.6-3.2,18.1-21.8,19.2-30.2c2.1-16.4-0.5-35.9-0.5-35.9S253,87,268.2,89.1c32.3,4.4,29,71.4,18.8,88.8 			c-0.6,1,0.2,2.1,1.3,1.9l61.8-10.3c9.7-1.6,18.9,4.9,20.6,14.6c1.6,9.3-4.5,16.3-7.9,19.4c-0.6,0.6-0.1,1.5,0.7,1.5 			c9.3-0.2,17.6,6.5,19.2,15.9c1.6,9.4-3.3,18-11.2,20.9c-0.9,0.3-1.1,1.6-0.3,2c3.4,2,9,6.3,9.4,13.5c0.9,15.9-7.7,20.1-12.5,21.3 			c-1.1,0.3-1.5,1.7-0.7,2.5c2.5,2.6,6.3,7.1,7,11.4c1.2,8-4,15.6-12,17"/> 		<path class="st1" d="M130.9,350.2L107,224.1l58.9-11.2c3.1-0.6,6,1.4,6.6,4.5l21.8,114.9c0.6,3.1-1.4,6-4.5,6.6L130.9,350.2z"/> 	</g> </symbol><symbol id="frame25"> 	<circle class="st0" cx="250" cy="250" r="243.3"/> 	<g> 		<path class="st1" d="M354.2,346.9l-93.6,1.9c-31.9-1-45.2-18.2-45.2-18.2l-18.6,0.4l-1.9-90.9l14.8-0.3c0,0,10.3-33.2,37.6-51.5 			c4-2.7,22.1-18.8,24.4-26.9c4.5-15.9,8.8-35.2,8.8-35.2s2.4-15.3,17.2-11c31.3,9.1,13.2,74.4,0.6,90.1c-0.7,0.9-0.1,2.1,1,2.1 			l62.6-1.1c9.8-0.2,18,7.6,18.2,17.5c0.2,9.5-6.8,15.5-10.7,18c-0.7,0.5-0.3,1.5,0.5,1.6c9.2,1.2,16.4,9,16.6,18.6 			c0.2,9.5-5.9,17.3-14.1,19.1c-0.9,0.2-1.3,1.4-0.6,2c3.1,2.4,8,7.5,7.3,14.8c-1.5,15.9-10.5,18.8-15.5,19.3 			c-1.2,0.1-1.7,1.5-1.1,2.4c2.1,2.9,5.2,8,5.2,12.3c0,8.1-6.3,14.8-14.4,15"/> 		<path class="st1" d="M123.5,355.9L112.4,228l59.8-5.2c3.1-0.3,5.9,2,6.1,5.2l10.1,116.6c0.3,3.1-2,5.9-5.2,6.1L123.5,355.9z"/> 	</g> </symbol><symbol id="frame26"> 	<circle class="st0" cx="250" cy="250" r="243.3"/> 	<g> 		<path class="st1" d="M359,342.5l-93.5,4.4c-31.9-0.1-45.6-17-45.6-17l-18.6,0.9l-4.3-90.8l14.8-0.7c0,0,9.4-33.5,36.2-52.5 			c3.9-2.8,23.6-19.5,25.7-27.6c4-16,9.9-35.7,9.9-35.7s2-15.3,16.9-11.4c31.5,8.3,11.2,74.4-1,90.4c-0.7,0.9,0,2.1,1.1,2.1 			l62.6-2.8c9.8-0.5,18.2,7.1,18.7,17c0.4,9.4-6.4,15.6-10.2,18.3c-0.7,0.5-0.3,1.5,0.5,1.6c9.2,1,16.7,8.6,17.1,18.1 			c0.5,9.5-5.4,17.5-13.6,19.4c-0.9,0.2-1.3,1.4-0.5,2c3.1,2.4,8.2,7.3,7.7,14.6c-1.1,15.9-10,19-14.9,19.7c-1.2,0.2-1.7,1.5-1,2.4 			c2.1,2.8,5.4,7.9,5.5,12.2c0.2,8.1-5.9,15-14,15.4"/> 		<path class="st1" d="M124.4,357.3l-12.9-127.7l59.7-6c3.1-0.3,5.9,2,6.2,5.1l11.7,116.4c0.3,3.1-2,5.9-5.1,6.2L124.4,357.3z"/> 	</g> </symbol><symbol id="frame27"> 	<circle class="st0" cx="250" cy="250" r="243.3"/> 	<g> 		<path class="st1" d="M353.9,361.7l-93.6-2.3c-31.8-2.4-44.3-20.3-44.3-20.3l-18.6-0.5l2.3-90.9l14.8,0.4c0,0,11.8-32.7,39.9-49.7 			c4.1-2.5,25.4-18.5,29.6-25.8c9.8-16.8,15.4-34.7,15.4-34.7s3.1-15.1,17.6-10.2c30.8,10.5,0.8,75-12.5,90 			c-0.7,0.8-0.2,2.1,0.9,2.2l62.6,1.8c9.8,0.2,17.6,8.4,17.4,18.3c-0.2,9.5-7.5,15.1-11.5,17.5c-0.7,0.4-0.4,1.5,0.4,1.6 			c9.2,1.6,16,9.7,15.8,19.3c-0.2,9.5-6.7,17-15,18.4c-1,0.2-1.4,1.3-0.7,2c2.9,2.6,7.6,7.9,6.6,15.1c-2.2,15.8-11.4,18.3-16.3,18.6 			c-1.2,0.1-1.8,1.4-1.2,2.4c1.9,3,4.9,8.2,4.6,12.5c-0.4,8.1-6.9,14.5-15.1,14.3"/> 		<path class="st1" d="M122.2,360.8l-5.7-128.2l59.9-2.6c3.1-0.1,5.8,2.3,5.9,5.4l5.2,116.9c0.1,3.1-2.3,5.8-5.4,5.9L122.2,360.8z" 			/> 	</g> </symbol><symbol id="frame28"> 	<circle class="st0" cx="250" cy="250" r="243.3"/> 	<g> 		<path class="st1" d="M348.1,380.8l-93.3-7c-31.6-4-43.2-22.5-43.2-22.5l-18.6-1.4l6.8-90.6l14.8,1.1c0,0,12.6-38.6,50.6-50.3 			c24.1-7.4,45.5-47.2,45.5-47.2s9.8-13.8,23.8-7.7c13.6,5.9,11.9,22,4.8,33.4c-6.8,10.9-19.2,31.6-33.3,45.9 			c-0.8,0.8-0.3,2.1,0.8,2.2l62.4,4.9c9.8,0.7,17.2,9.3,16.4,19.1c-0.7,9.4-8.3,14.7-12.3,16.9c-0.7,0.4-0.5,1.5,0.3,1.7 			c9.1,2.1,15.5,10.5,14.8,20.1c-0.7,9.5-7.5,16.7-15.9,17.6c-1,0.1-1.4,1.3-0.7,1.9c2.8,2.7,7.2,8.3,5.9,15.4 			c-3,15.7-12.3,17.7-17.2,17.7c-1.2,0-1.9,1.3-1.3,2.3c1.8,3.1,4.4,8.5,4,12.8c-0.8,8.1-7.7,14.2-15.8,13.6"/> 		<path class="st1" d="M118.1,366.8l0.2-128.3l60,0.1c3.1,0,5.7,2.5,5.7,5.7l-0.2,117c0,3.1-2.5,5.7-5.7,5.7L118.1,366.8z"/> 	</g> </symbol><symbol id="frame29"> 	<circle class="st0" cx="250" cy="250" r="243.3"/> 	<g> 		<path class="st1" d="M334.4,416.4l-91.5-19.7c-30.8-8.3-39.7-28.1-39.7-28.1l-18.2-3.9l19.1-88.9l14.5,3.1 			c0,0,17.6-29.9,48.4-41.4c4.5-1.7,31-13.7,37.8-18.6c17.1-12.2,24.2-25.1,24.2-25.1s7.9-14.2,21.2-6.6 			c28.3,16.1-21.7,66.3-37.6,78.6c-0.9,0.7-0.6,2.1,0.5,2.3l61.2,13.4c9.6,2.1,15.8,11.6,13.7,21.2c-2,9.2-10.2,13.5-14.5,15.1 			c-0.8,0.3-0.7,1.4,0.1,1.7c8.7,3.3,13.9,12.5,11.9,21.9c-2,9.3-9.7,15.5-18.2,15.3c-1,0-1.6,1-1,1.8c2.4,3.1,6,9.2,3.7,16 			c-5.1,15.1-14.6,15.8-19.5,15.2c-1.2-0.1-2,1-1.6,2.1c1.3,3.3,3.2,9,2.2,13.2c-1.9,7.9-9.5,13-17.5,11.3"/> 		<path class="st1" d="M111.5,375.3l13.6-127.6l59.7,6.4c3.1,0.3,5.4,3.1,5,6.2l-12.4,116.3c-0.3,3.1-3.1,5.4-6.2,5L111.5,375.3z"/> 	</g> </symbol><symbol id="frame30"> 	<circle class="st0" cx="250" cy="250" r="243.3"/> 	<g> 		<path class="st1" d="M336.9,415.5l-91.5-19.8c-30.8-8.3-39.7-28.2-39.7-28.2l-18.2-3.9l19.2-88.8l14.5,3.1c0,0,17.8-36.5,57-42.8 			c24.9-4,51.5-40.4,51.5-40.4s11.6-12.3,24.7-4.3c12.7,7.7,8.7,23.4,0.2,33.7c-8.2,9.8-23.4,28.6-39.3,40.9 			c-0.9,0.7-0.6,2.1,0.5,2.3l61.2,13.5c9.6,2.1,15.7,11.6,13.6,21.2c-2,9.2-10.2,13.5-14.6,15.1c-0.8,0.3-0.7,1.4,0.1,1.7 			c8.7,3.3,13.9,12.6,11.9,21.9c-2,9.3-9.7,15.5-18.2,15.3c-1,0-1.6,1-1,1.8c2.4,3.1,6,9.2,3.7,16c-5.1,15.1-14.6,15.8-19.5,15.2 			c-1.2-0.1-2,1-1.6,2.1c1.3,3.3,3.2,9,2.2,13.2c-1.9,7.9-9.5,13-17.5,11.3"/> 		<path class="st1" d="M111.4,375l13.1-127.7l59.7,6.1c3.1,0.3,5.4,3.1,5.1,6.2l-11.9,116.4c-0.3,3.1-3.1,5.4-6.2,5.1L111.4,375z"/> 	</g> </symbol><symbol id="frame31"> 	<circle class="st0" cx="250" cy="250" r="243.3"/> 	<g> 		<path class="st1" d="M332.7,419.9l-91.2-20.8c-30.7-8.7-39.4-28.6-39.4-28.6l-18.1-4.1l20.2-88.6l14.5,3.3c0,0,18-29.7,48.9-40.8 			c4.5-1.6,21.3-4.4,38-18.1c16.2-13.4,24.5-24.8,24.5-24.8s8.1-14.1,21.3-6.3c28.1,16.4-22.5,66-38.5,78.1 			c-0.9,0.7-0.6,2.1,0.5,2.3l61,14.1c9.6,2.2,15.6,11.7,13.4,21.3c-2.1,9.2-10.4,13.3-14.7,14.9c-0.8,0.3-0.7,1.4,0.1,1.7 			c8.6,3.4,13.8,12.7,11.6,22.1c-2.1,9.3-9.9,15.4-18.3,15.1c-1,0-1.6,1-1,1.8c2.4,3.1,5.9,9.2,3.5,16.1 			c-5.3,15.1-14.8,15.6-19.7,15c-1.2-0.2-2,1-1.6,2.1c1.3,3.3,3.1,9,2.1,13.2c-2,7.9-9.7,12.9-17.6,11.1"/> 		<path class="st1" d="M112.1,374.9l15.5-127.4l59.6,7.2c3.1,0.4,5.3,3.2,4.9,6.3L178,377.2c-0.4,3.1-3.2,5.3-6.3,4.9L112.1,374.9z" 			/> 	</g> </symbol><symbol id="frame32"> 	<circle class="st0" cx="250" cy="250" r="243.3"/> 	<g> 		<path class="st1" d="M336.6,416.6L245,397.2c-30.8-8.2-39.8-28-39.8-28l-18.2-3.9l18.8-88.9l14.5,3.1c0,0,17.6-36.6,56.8-43.1 			c24.9-4.1,51.3-40.7,51.3-40.7s11.5-12.3,24.6-4.4c12.7,7.7,8.8,23.4,0.3,33.7c-8.1,9.9-23.2,28.7-39.1,41.1 			c-0.9,0.7-0.5,2.1,0.5,2.3l61.2,13.2c9.6,2,15.8,11.5,13.8,21.1c-2,9.3-10.1,13.5-14.5,15.1c-0.8,0.3-0.7,1.4,0.1,1.7 			c8.7,3.3,13.9,12.5,12,21.9c-2,9.3-9.7,15.5-18.1,15.4c-1,0-1.6,1-1,1.8c2.4,3.1,6.1,9.2,3.8,16c-5.1,15.1-14.5,15.9-19.4,15.3 			c-1.2-0.1-2,1-1.6,2.1c1.4,3.3,3.3,9,2.3,13.2c-1.9,7.9-9.5,13-17.4,11.3"/> 		<path class="st1" d="M111.8,374.7l14.7-127.5l59.6,6.9c3.1,0.4,5.3,3.2,5,6.3l-13.4,116.2c-0.4,3.1-3.2,5.3-6.3,5L111.8,374.7z"/> 	</g> </symbol><symbol id="frame33"> 	<circle class="st0" cx="250" cy="250" r="243.3"/> 	<g> 		<path class="st1" d="M338.1,412.3l-92-17.3c-31-7.5-40.5-27.1-40.5-27.1l-18.3-3.4l16.8-89.3l14.6,2.7c0,0,16.9-30.4,47.3-42.7 			c4.5-1.8,21.1-5.2,37.3-19.5c15.7-14,23.6-25.7,23.6-25.7s7.5-14.4,21.1-7.1c28.8,15.4-20,66.8-35.5,79.5 			c-0.9,0.7-0.5,2.1,0.6,2.3l61.5,11.8c9.7,1.8,16,11.1,14.2,20.8c-1.8,9.3-9.8,13.7-14.1,15.5c-0.8,0.3-0.7,1.4,0.1,1.7 			c8.8,3.1,14.2,12.2,12.4,21.6c-1.8,9.3-9.3,15.7-17.8,15.8c-1,0-1.6,1.1-1,1.8c2.5,3,6.3,9,4.1,15.9 			c-4.7,15.3-14.2,16.2-19.1,15.7c-1.2-0.1-2,1.1-1.5,2.1c1.4,3.3,3.5,8.9,2.6,13.1c-1.7,7.9-9.2,13.2-17.2,11.7"/> 		<path class="st1" d="M112.1,374.9l12.4-127.7l59.7,5.8c3.1,0.3,5.4,3.1,5.1,6.2L178,375.6c-0.3,3.1-3.1,5.4-6.2,5.1L112.1,374.9z" 			/> 	</g> </symbol><symbol id="frame34"> 	<circle class="st0" cx="250" cy="250" r="243.3"/> 	<g> 		<path class="st1" d="M342.2,406.2L249.7,392c-31.2-6.5-41.3-25.8-41.3-25.8l-18.4-2.8l13.9-89.8l14.7,2.3c0,0,15.5-37.5,54.3-46.2 			c24.6-5.5,49-43.5,49-43.5s10.8-13,24.4-5.8c13.1,6.9,10.1,22.8,2.2,33.6c-7.6,10.3-21.6,30-36.7,43.2c-0.8,0.7-0.4,2.1,0.7,2.3 			l61.9,9.8c9.7,1.5,16.4,10.6,14.9,20.3c-1.4,9.3-9.4,14-13.6,15.9c-0.8,0.3-0.6,1.4,0.2,1.7c8.9,2.8,14.6,11.7,13.2,21.2 			c-1.4,9.4-8.8,16-17.2,16.3c-1,0-1.5,1.1-0.9,1.9c2.6,2.9,6.6,8.8,4.6,15.8c-4.2,15.4-13.6,16.7-18.6,16.3c-1.2-0.1-2,1.1-1.5,2.2 			c1.5,3.2,3.8,8.8,3,13c-1.4,8-8.7,13.5-16.8,12.3"/> 		<path class="st1" d="M111.8,372.7L124.3,245l59.7,5.9c3.1,0.3,5.4,3.1,5.1,6.2l-11.5,116.4c-0.3,3.1-3.1,5.4-6.2,5.1L111.8,372.7z 			"/> 	</g> </symbol><symbol id="frame35"> 	<circle class="st0" cx="250" cy="250" r="243.3"/> 	<g> 		<path class="st1" d="M350.5,385.8l-93.4-6.3c-31.6-3.8-43.4-22.1-43.4-22.1l-18.6-1.3l6.1-90.7l14.8,1c0,0,12.3-38.7,50.2-50.7 			c24-7.6,45.1-47.5,45.1-47.5s9.7-13.8,23.8-7.8c13.7,5.8,12,21.9,5,33.3c-6.7,10.9-19,31.7-32.9,46.2c-0.8,0.8-0.3,2.1,0.8,2.2 			l62.5,4.4c9.8,0.7,17.2,9.2,16.6,19c-0.6,9.4-8.2,14.8-12.2,17c-0.7,0.4-0.5,1.5,0.3,1.6c9.1,2,15.6,10.4,14.9,20 			c-0.6,9.5-7.4,16.7-15.8,17.7c-1,0.1-1.4,1.3-0.7,1.9c2.8,2.7,7.3,8.2,6,15.3c-2.9,15.7-12.2,17.8-17.1,17.8 			c-1.2,0-1.9,1.3-1.3,2.3c1.8,3.1,4.5,8.4,4.1,12.7c-0.7,8.1-7.6,14.2-15.7,13.7"/> 		<path class="st1" d="M116.9,368.6l6-128.2l59.9,2.8c3.1,0.1,5.5,2.8,5.4,5.9l-5.5,116.9c-0.1,3.1-2.8,5.5-5.9,5.4L116.9,368.6z"/> 	</g> </symbol><symbol id="frame36"> 	<circle class="st0" cx="250" cy="250" r="243.3"/> 	<path class="st1" d="M353.3,383.2l-93.4-6.2c-31.6-3.7-43.4-22.1-43.4-22.1l-18.6-1.2l6-90.7l14.8,1c0,0,12.2-38.7,50.1-50.7 		c24-7.6,45.1-47.6,45.1-47.6s9.6-13.8,23.8-7.9c13.7,5.8,12.1,21.9,5.1,33.3c-6.7,10.9-18.9,31.7-32.9,46.2 		c-0.8,0.8-0.2,2.1,0.9,2.2l62.5,4.4c9.8,0.7,17.3,9.1,16.6,19c-0.6,9.4-8.1,14.8-12.2,17c-0.7,0.4-0.5,1.5,0.3,1.6 		c9.1,2,15.6,10.4,14.9,20c-0.6,9.5-7.4,16.7-15.7,17.8c-1,0.1-1.4,1.3-0.7,1.9c2.8,2.7,7.3,8.2,6,15.3 		c-2.9,15.7-12.1,17.8-17.1,17.9c-1.2,0-1.9,1.3-1.3,2.3c1.8,3.1,4.5,8.4,4.1,12.7c-0.7,8.1-7.5,14.2-15.6,13.7"/> 	<path class="st1" d="M118,369.3l6.5-128.2l59.9,3c3.1,0.2,5.5,2.8,5.4,6L183.9,367c-0.2,3.1-2.8,5.5-5.9,5.4L118,369.3z"/> </symbol><symbol id="frame37"> 	<circle class="st0" cx="250" cy="250" r="243.3"/> 	<path class="st1" d="M357.3,370.9l-93.6-2.5c-31.8-2.5-44.3-20.3-44.3-20.3l-18.6-0.5l2.4-90.9l14.8,0.4c0,0,10.7-39.2,48.1-52.7 		c23.7-8.6,43.1-49.3,43.1-49.3s9.1-14.2,23.4-8.8c13.9,5.2,12.9,21.4,6.4,33.1c-6.2,11.2-17.6,32.5-31,47.5 		c-0.7,0.8-0.2,2.1,0.9,2.2l62.6,1.8c9.8,0.3,17.6,8.4,17.4,18.3c-0.2,9.5-7.5,15.1-11.5,17.5c-0.7,0.4-0.4,1.5,0.4,1.6 		c9.2,1.6,16,9.8,15.7,19.3c-0.2,9.5-6.7,17-15,18.4c-0.9,0.2-1.4,1.3-0.7,2c2.9,2.6,7.6,7.9,6.6,15.1 		c-2.2,15.8-11.4,18.2-16.3,18.5c-1.2,0.1-1.8,1.4-1.2,2.4c1.9,3,4.8,8.2,4.6,12.6c-0.4,8.1-7,14.5-15.1,14.3"/> 	<path class="st1" d="M119,365.3V237h60c3.1,0,5.7,2.5,5.7,5.7v117c0,3.1-2.5,5.7-5.7,5.7H119z"/> </symbol><symbol id="frame38"> 	<circle class="st0" cx="250" cy="250" r="243.3"/> 	<path class="st1" d="M357.9,366.8h-93.6c-31.8-1.6-44.8-19.1-44.8-19.1h-18.6v-90.9h14.8c0,0,9.6-39.4,46.7-53.9 		c23.5-9.2,41.8-50.4,41.8-50.4s8.7-14.5,23.2-9.4c14,4.9,13.5,21,7.3,32.9c-5.9,11.3-16.8,32.9-29.7,48.3c-0.7,0.8-0.1,2.1,1,2.1 		l62.6,0.2c9.8,0,17.8,8,17.8,17.8c0,9.5-7.1,15.3-11,17.8c-0.7,0.4-0.4,1.5,0.4,1.6c9.2,1.4,16.2,9.3,16.2,18.9 		c0,9.5-6.2,17.2-14.5,18.8c-0.9,0.2-1.3,1.4-0.6,2c3,2.5,7.8,7.7,7,14.9c-1.8,15.9-10.9,18.5-15.9,19c-1.2,0.1-1.8,1.4-1.1,2.4 		c2,2.9,5.1,8.1,5,12.4c-0.2,8.1-6.6,14.7-14.7,14.7"/> 	<path class="st1" d="M119,365.3V237h60c3.1,0,5.7,2.5,5.7,5.7v117c0,3.1-2.5,5.7-5.7,5.7H119z"/> </symbol>
</g>
<g class="animation__scene">
	<use xmlns:xlink="http://www.w3.org/1999/xlink" xlink:href="#frame01"/>
</g><script type="application/javascript">
	<![CDATA[

	(function(exportType) {
	  var SVGlib = {
	    utils: {
	      loadDoc: function(url, callback) {
	        var xhttp = new XMLHttpRequest();
	          xhttp.onreadystatechange = function() {
	            if (xhttp.readyState == 4 && xhttp.status == 200) {
	              callback.call(null, xhttp);
	            }
	          };
	          xhttp.open("GET", url, true);
	          xhttp.send();
	      },
	      ready: function(fn) {
	        if (document.readyState != 'loading'){
	          fn();
	        } else {
	          document.addEventListener('DOMContentLoaded', fn);
	        }
	      }
	    },
	    animationConfig: {
	      interval: null,
	      looped: true,
	      scene: null,
	      frameTime: 77,
	      delay: 0,
	      onOver: false,
	      reverse: false,
	      direction: 'forward'
	    },
	    currentFrame: 1,
	    animationStarted: false,
	    step: 1,
	    startFrame: 1,
	    endFrame: 13,
	    firstOut: false,
	    reversed: false,

	    format: function(num) {
	      if(num < 10) {
	        return '0' + num;
	      }
	      return num.toString();
	    },

	    encodeForInsertion: function(string) {
	      return "data:image/svg+xml," + encodeURIComponent(string);
	    },

	    nextFrame: function () {
	      if(this.currentFrame === this.endFrame) {

	        if(!this.animationConfig.looped) this.stopAnimation();

	        this.currentFrame = this.startFrame;
	      }

	      this.animationConfig.scene.setAttribute('xlink:href', '#frame' + this.format(this.currentFrame));
	      this.currentFrame += this.step;

	      if(this.animationConfig.image) {
	        this.animationConfig.image.setAttribute('src', this.encodeForInsertion(this.animationConfig.root.outerHTML));
	      }
	    },

	    startAnimation: function(ev) {
	      var self = this;
	      setTimeout(function() {
	        self.animationStarted = true;
	        self.interval = setInterval(function() {
	          self.nextFrame();
	        },self.animationConfig.frameTime);
	      }, this.animationConfig.delay);
	    },

	    stopAnimation: function(ev) {
	      clearInterval(this.interval);
	      this.animationStarted = false;
	      if(this.reversed) this.reverseAnimation();

	    },

	    isInside: function(mouseEvent, clientRect) {
	      return (
	        (mouseEvent.clientX >= clientRect.left) && (mouseEvent.clientX <= clientRect.right)
	        &&
	        (mouseEvent.clientY >= clientRect.top) && (mouseEvent.clientY <= clientRect.bottom)
	      );
	    },

	    reverseAnimation: function() {
	        this.startFrame = this.startFrame === 1 ? this.endFrame : 1;
	        this.endFrame = this.endFrame !== 1 ? 1 : this.animationConfig.frameCount;
	        this.step = this.step === -1 ? 1 : -1;
	        if(!this.animationStarted) {
	            this.currentFrame = this.startFrame;
	        }
	        this.reversed = !this.reversed;
	    },

	    handleMouseMove: function(ev, isInside) {

	      var self = this;

	      if(typeof isInside === 'undefined') isInside = self.isInside(ev, self.animationConfig.scene.getBoundingClientRect());

	      if(isInside && !self.animationStarted && !self.firstOut) {
	        self.startAnimation();
	        self.firstOut = true;
	      } else if(!isInside && self.animationStarted && self.animationConfig.reverse && self.firstOut) {
	        self.reverseAnimation();
	      } else if(!isInside && self.animationStarted && self.firstOut) {
	        self.stopAnimation();
	      }

	      if(!isInside && self.firstOut) {
	        self.firstOut = false;
	      }
	    },

	    init: function(config) {
	      for(var setting in config){
	        if(config.hasOwnProperty(setting)) {
	          this.animationConfig[setting] = config[setting]
	        }
	      }

	      if(config.frameCount) this.endFrame = config.frameCount;

	      if(this.animationConfig.direction !== 'forward') {
	        this.reverseAnimation();
			this.reversed = false;
	      }

	      var self = this;

	      if(this.animationConfig.onOver && this.animationConfig.image) {
	        this.animationConfig.image.addEventListener('mouseenter', function(ev){
	          self.handleMouseMove(ev, true);
	        });

	        this.animationConfig.image.addEventListener('mouseleave', function(ev){
	          self.handleMouseMove(ev, false);
	        });

	      } else if (this.animationConfig.onOver) {
	        window.addEventListener('mousemove', function(ev){
	          self.handleMouseMove(ev);
	        });
	      } else {
	        self.startAnimation();
	      }
	    },

	    initEmbedded: function() {
	      var elem = document.querySelector('.animation');
	          this.init({
	            scene: elem.querySelector('.animation__scene use'),
	            delay: parseInt(elem.getAttribute('data-delay'), 10),
	            frameTime: parseInt(elem.getAttribute('data-frame'), 10),
	            looped: (elem.getAttribute('data-looped') === 'true'),
	            onOver: (elem.getAttribute('data-onover') === 'true'),
	            reverse: (elem.getAttribute('data-reverse') === 'true'),
	            direction: elem.getAttribute('data-direction'),
	            frameCount: elem.querySelectorAll('symbol').length
	          });
	    },

	    initAsImg: function(xml) {
	      var i,
	          xmlDoc = xml.responseXML,
	          elem = xmlDoc.querySelector('.animation');

	      this.init({
	        root: elem,
	        scene: elem.querySelector('.animation__scene use'),
	        delay: parseInt(elem.getAttribute('data-delay'), 10),
	        frameTime: parseInt(elem.getAttribute('data-frame'), 10),
	        looped: (elem.getAttribute('data-looped') === 'true'),
	        onOver: (elem.getAttribute('data-onover') === 'true'),
	        reverse: (elem.getAttribute('data-reverse') === 'true'),
	        direction: elem.getAttribute('data-direction'),
	        image:  document.querySelector('#svg__holder'),
	        frameCount: elem.querySelectorAll('symbol').length
	      });
	    }
	  };

	  var utils = SVGlib.utils;

	  utils.ready(function(){
	    if(exportType === 'embedded') {
	      SVGlib.initEmbedded();
	    } else if(exportType === 'image') {
	      var image = document.querySelector('#svg__holder');
	      utils.loadDoc(image.getAttribute('src'), function(resp){
	        SVGlib.initAsImg(resp);
	      });
	    }
	  });
	})((window.state && window.state.exportType) || 'embedded');

]]>
</script>
</svg>