<?xml version="1.0" encoding="utf-8"?>
<svg version="1.1" id="graphics"
	class="animation"
	xmlns="http://www.w3.org/2000/svg"
	xmlns:xlink="http://www.w3.org/1999/xlink"
	x="0px" y="0px"
	data-frame="77"
	data-delay="0"
	data-looped="true"
	data-onover="false"
	data-reverse="false"
	data-direction="forward"
	viewBox="0 0 500 500"
	style="enable-background:new 0 0 500 500;"
	>
	<style> 	.st0{fill:#FFD56C;stroke:#000000;stroke-width:9;stroke-miterlimit:10;} 	.st1{fill:#F25067;stroke:#000102;stroke-width:9;stroke-miterlimit:10;} 	.st2{fill:#367FCE;} 	.st3{fill:none;stroke:#231F20;stroke-width:9;stroke-linecap:round;stroke-linejoin:round;stroke-miterlimit:10;} 
</style>
<g class="animation__source">
<symbol id="frame01"> 	<circle class="st0" cx="250.2" cy="250" r="243.1"/> 	<ellipse class="st1" cx="264.2" cy="357.7" rx="79.4" ry="113.8"/> 	<g> 		<ellipse class="st2" cx="156.4" cy="146.3" rx="33.9" ry="48.6"/> 		<ellipse class="st2" cx="344" cy="146.3" rx="33.9" ry="48.6"/> 	</g> 	<g> 		<path class="st3" d="M307.1,63.6c0,0,8.8-17.5,30-17.5c21.3,0,32.5,20,32.5,20"/> 		<path class="st3" d="M193.3,63.6c0,0-8.8-17.5-30-17.5s-32.5,20-32.5,20"/> 	</g> </symbol><symbol id="frame02"> 	<circle class="st0" cx="250.2" cy="250" r="243.1"/> 	<ellipse class="st1" cx="264" cy="354.5" rx="77" ry="111.5"/> 	<g> 		<ellipse class="st2" cx="156.7" cy="147" rx="33.9" ry="48.6"/> 		<ellipse class="st2" cx="344.3" cy="147" rx="33.9" ry="48.6"/> 	</g> 	<g> 		<path class="st3" d="M308.1,64.3c0,0,8.8-17.5,30-17.5c21.3,0,32.5,20,32.5,20"/> 		<path class="st3" d="M192.6,64.3c0,0-8.5-17.5-29.2-17.5c-20.7,0-31.6,20-31.6,20"/> 	</g> </symbol><symbol id="frame03"> 	<circle class="st0" cx="250.2" cy="250" r="243.1"/> 	<ellipse class="st1" cx="262.2" cy="349" rx="72.2" ry="106"/> 	<g> 		<ellipse class="st2" cx="157.7" cy="147" rx="33.9" ry="48.6"/> 		<ellipse class="st2" cx="345.3" cy="147" rx="33.9" ry="48.6"/> 	</g> 	<g> 		<path class="st3" d="M309,66.3c0,0,8.8-17.5,30-17.5c21.3,0,32.5,20,32.5,20"/> 		<path class="st3" d="M193.6,66.3c0,0-8.5-17.5-29.2-17.5c-20.7,0-31.6,20-31.6,20"/> 	</g> </symbol><symbol id="frame04"> 	<circle class="st0" cx="250.2" cy="250" r="243.1"/> 	<ellipse class="st1" cx="257.4" cy="340.3" rx="63.7" ry="97.3"/> 	<g> 		<ellipse class="st2" cx="158.5" cy="142" rx="33.3" ry="49"/> 		<ellipse class="st2" cx="345.4" cy="149" rx="33.7" ry="48.6"/> 	</g> 	<g> 		<path class="st3" d="M313.6,69.5c0,0,9.1-17.2,29.7-16.4c20.6,0.8,30.7,21.2,30.7,21.2"/> 		<path class="st3" d="M191,68.3c0,0-7.8-17.5-26.6-17.5c-18.9,0-28.9,20-28.9,20"/> 	</g> </symbol><symbol id="frame05"> 	<circle class="st0" cx="250.2" cy="250" r="243.1"/> 	 		<ellipse transform="matrix(4.764280e-02 -0.9989 0.9989 4.764280e-02 -88.4129 565.9731)" class="st1" cx="252.6" cy="329.4" rx="87" ry="54.7"/> 	<g> 		 			<ellipse transform="matrix(9.958295e-02 -0.995 0.995 9.958295e-02 3.1468 280.6949)" class="st2" cx="156.7" cy="138.6" rx="8.2" ry="34.6"/> 	</g> 	<g> 		 			<ellipse transform="matrix(9.958280e-02 -0.995 0.995 9.958280e-02 161.0854 479.2291)" class="st2" cx="345.3" cy="150.6" rx="8.2" ry="34.6"/> 	</g> 	<g> 		<path class="st3" d="M321.9,81.7c0,0,9.9-16.7,30.4-14.9c20.5,1.8,29.6,22.6,29.6,22.6"/> 		<path class="st3" d="M195,73c0,0-6.5-17.8-24.2-18.7c-17.8-0.9-28.1,18.6-28.1,18.6"/> 	</g> </symbol><symbol id="frame06"> 	<circle class="st0" cx="250.2" cy="250" r="243.1"/> 	 		<ellipse transform="matrix(0.1328 -0.9911 0.9911 0.1328 -106.661 511.154)" class="st1" cx="238.8" cy="316.5" rx="76.8" ry="46.2"/> 	<g> 		 			<ellipse transform="matrix(0.1641 -0.9864 0.9864 0.1641 133.9778 474.8797)" class="st2" cx="347.2" cy="158.4" rx="17.4" ry="34.6"/> 	</g> 	<g> 		 			<ellipse transform="matrix(0.1641 -0.9864 0.9864 0.1641 10.9856 268.3992)" class="st2" cx="163.9" cy="127.7" rx="17.4" ry="34.6"/> 	</g> 	<g> 		<path class="st3" d="M326.9,92.1c0,0,12-17.3,33.8-13.8c21.8,3.6,29.9,26.9,29.9,26.9"/> 		<path class="st3" d="M198,75.4c0,0-5.3-18.2-23-20.2c-17.7-2-29.3,16.8-29.3,16.8"/> 	</g> </symbol><symbol id="frame07"> 	<circle class="st0" cx="250.2" cy="250" r="243.1"/> 	<g> 		 			<ellipse transform="matrix(0.2734 -0.9619 0.9619 0.2734 1.0204 237.4164)" class="st2" cx="157.7" cy="118" rx="41.9" ry="28.8"/> 	</g> 	<g> 		<path class="st1" d="M250.2,310.1c-7.5,36.1-30.4,61.9-51.1,57.6c-20.7-4.3-31.3-37.1-23.8-73.2c7.5-36.1,30.4-61.9,51.1-57.6 			C247,241.2,257.7,274,250.2,310.1z"/> 	</g> 	<g> 		 			<ellipse transform="matrix(0.2385 -0.9711 0.9711 0.2385 103.8859 451.216)" class="st2" cx="339.7" cy="159.4" rx="41.9" ry="28.8"/> 	</g> 	<g> 		<path class="st3" d="M324.3,98.2c0,0,12.4-16.8,33.2-12.5c20.8,4.3,27.3,27.9,27.3,27.9"/> 		<path class="st3" d="M194.3,69.4c0,0-3.2-17.8-19.3-21.3c-16.2-3.4-28.7,13.5-28.7,13.5"/> 	</g> </symbol><symbol id="frame08"> 	<circle class="st0" cx="250.2" cy="250" r="243.1"/> 	 		<ellipse transform="matrix(0.3317 -0.9434 0.9434 0.3317 -6.8477 205.4235)" class="st2" cx="141.6" cy="107.5" rx="47.7" ry="27.2"/> 	<g> 		<path class="st1" d="M213.2,293.7c-8,31.2-28.2,53-45.1,48.6c-16.9-4.3-24-33.2-15.9-64.4c8-31.2,28.2-53,45.1-48.6 			C214.1,233.7,221.3,262.5,213.2,293.7z"/> 	</g> 	<g> 		 			<ellipse transform="matrix(0.3216 -0.9469 0.9469 0.3216 69.6928 413.2975)" class="st2" cx="323.3" cy="158" rx="49.7" ry="28.8"/> 	</g> 	<path class="st3" d="M309.1,98.2c0,0,12.4-16.8,33.2-12.5c20.8,4.3,27.3,27.9,27.3,27.9"/> 	<path class="st3" d="M175.9,61c0,0-2.1-16.6-16.2-20.1C145.6,37.4,133.9,53,133.9,53"/> </symbol><symbol id="frame09"> 	<circle class="st0" cx="250.2" cy="250" r="243.1"/> 	 		<ellipse transform="matrix(0.3317 -0.9434 0.9434 0.3317 -4.3677 201.6752)" class="st2" cx="140.2" cy="103.9" rx="37.6" ry="23.3"/> 	<g> 		 			<ellipse transform="matrix(0.2497 -0.9683 0.9683 0.2497 -141.9272 374.4794)" class="st1" cx="170.7" cy="278.8" rx="55.6" ry="28.8"/> 	</g> 	<g> 		 			<ellipse transform="matrix(0.3526 -0.9358 0.9358 0.3526 59.6455 401.8348)" class="st2" cx="320.2" cy="157.8" rx="49.3" ry="32.8"/> 	</g> 	<path class="st3" d="M307.8,97c0,0,13.4-16.1,33.9-10.5c20.5,5.5,25.6,29.5,25.6,29.5"/> 	<path class="st3" d="M173.7,60.3c0,0,0.7-20-14.1-22.5c-13.2-2.3-24.2,12.5-24.2,12.5"/> </symbol><symbol id="frame10"> 	<circle class="st0" cx="250.2" cy="250" r="243.1"/> 	 		<ellipse transform="matrix(0.3714 -0.9285 0.9285 0.3714 -8.4714 193.7344)" class="st2" cx="138.8" cy="103.1" rx="37.6" ry="21.1"/> 	<g> 		<path class="st1" d="M194.1,285.5c-9,28.7-28.1,48.3-42.7,43.8c-14.6-4.6-19.1-31.5-10.1-60.3c9-28.7,28.1-48.3,42.7-43.8 			C198.5,229.8,203,256.8,194.1,285.5z"/> 	</g> 	<g> 		 			<ellipse transform="matrix(0.3526 -0.9358 0.9358 0.3526 58.6453 401.4292)" class="st2" cx="319.4" cy="158.3" rx="48.1" ry="33.9"/> 	</g> 	<path class="st3" d="M309.9,95.3c0,0,14.1-15.3,33.5-8.7c19.4,6.6,22.6,30.7,22.6,30.7"/> 	<path class="st3" d="M174.4,60.3c0,0,0.7-20-14.1-22.5c-13.2-2.3-24.2,12.5-24.2,12.5"/> </symbol><symbol id="frame11"> 	<circle class="st0" cx="250.2" cy="250" r="243.1"/> 	 		<ellipse transform="matrix(0.3921 -0.9199 0.9199 0.3921 -10.5075 190.5992)" class="st2" cx="139" cy="103.2" rx="37.6" ry="20.7"/> 	<g> 		<path class="st1" d="M193.9,285.5c-9,28.7-28.1,48.3-42.7,43.8c-14.6-4.6-19.1-31.5-10.1-60.3c9-28.7,28.1-48.3,42.7-43.8 			C198.3,229.8,202.8,256.8,193.9,285.5z"/> 	</g> 	<g> 		 			<ellipse transform="matrix(0.3995 -0.9167 0.9167 0.3995 46.5619 387.7419)" class="st2" cx="319.2" cy="158.3" rx="48.1" ry="33.9"/> 	</g> 	<path class="st3" d="M308.9,96.4c0,0,14-15.3,32.9-8.9c19,6.5,22,30.5,22,30.5"/> 	<path class="st3" d="M174.2,60.3c0,0,0.7-20-14.1-22.5c-13.2-2.3-24.2,12.5-24.2,12.5"/> </symbol><symbol id="frame12"> 	<path class="st0" d="M493.2,250.7c0,134.3-108.8,243.1-243.1,243.1C115.8,493.8,6.9,385,6.9,250.7C6.9,116.4,115.8,7.6,250.1,7.6 		C384.3,7.6,493.2,116.4,493.2,250.7z"/> 	 		<ellipse transform="matrix(0.3921 -0.9199 0.9199 0.3921 -10.9126 189.9861)" class="st2" cx="138.3" cy="103.2" rx="37.6" ry="20.7"/> 	<g> 		<path class="st1" d="M193.2,285.5c-9,28.7-28.1,48.3-42.7,43.8c-14.6-4.6-19.1-31.5-10.1-60.3c9-28.7,28.1-48.3,42.7-43.8 			C197.6,229.8,202.2,256.8,193.2,285.5z"/> 	</g> 	<g> 		 			<ellipse transform="matrix(0.3995 -0.9167 0.9167 0.3995 46.8681 387.0103)" class="st2" cx="318.8" cy="157.7" rx="48.8" ry="33.9"/> 	</g> 	<path class="st3" d="M310.8,97.3c0,0,13.6-15.5,31.7-9.3c18.1,6.2,20.7,30,20.7,30"/> 	<path class="st3" d="M173.6,59.8c0,0,1.6-20-13.1-23.1C147.4,33.8,135.8,48,135.8,48"/> </symbol><symbol id="frame13"> 	<circle class="st0" cx="250.2" cy="250" r="243.1"/> 	 		<ellipse transform="matrix(0.3921 -0.9199 0.9199 0.3921 -10.5075 190.5992)" class="st2" cx="139" cy="103.2" rx="37.6" ry="20.7"/> 	<g> 		<path class="st1" d="M192,285c-9,28.7-27.7,48.5-41.8,44.1c-14.1-4.4-18.2-31.3-9.2-60c9-28.7,27.7-48.5,41.8-44.1 			C196.9,229.4,201,256.2,192,285z"/> 	</g> 	<g> 		 			<ellipse transform="matrix(0.3995 -0.9167 0.9167 0.3995 47.2684 387.6213)" class="st2" cx="319.5" cy="157.7" rx="48.8" ry="33.9"/> 	</g> 	<path class="st3" d="M311.5,97.3c0,0,13.6-15.5,31.7-9.3c18.1,6.2,20.7,30,20.7,30"/> 	<path class="st3" d="M174.3,59.8c0,0,1.6-20-13.1-23.1C148,33.8,136.4,48,136.4,48"/> </symbol><symbol id="frame14"> 	<circle class="st0" cx="250.2" cy="250" r="243.1"/> 	 		<ellipse transform="matrix(0.3921 -0.9199 0.9199 0.3921 -10.5075 190.5992)" class="st2" cx="139" cy="103.2" rx="37.6" ry="20.7"/> 	<g> 		<path class="st1" d="M192,285c-9,28.7-27.7,48.5-41.8,44.1c-14.1-4.4-18.2-31.3-9.2-60c9-28.7,27.7-48.5,41.8-44.1 			C196.9,229.4,201,256.2,192,285z"/> 	</g> 	<g> 		 			<ellipse transform="matrix(0.3995 -0.9167 0.9167 0.3995 47.2684 387.6213)" class="st2" cx="319.5" cy="157.7" rx="48.8" ry="33.9"/> 	</g> 	<path class="st3" d="M311.4,97.5c0,0,13.1-13.9,31.2-7.7c18.1,6.2,21.3,28.3,21.3,28.3"/> 	<path class="st3" d="M176.7,58c0,0,1.2-20.1-14.8-23.6c-14.3-3.2-26.6,10.9-26.6,10.9"/> </symbol><symbol id="frame15"> 	<circle class="st0" cx="250.2" cy="250" r="243.1"/> 	 		<ellipse transform="matrix(0.3921 -0.9199 0.9199 0.3921 -10.9126 189.9861)" class="st2" cx="138.3" cy="103.2" rx="37.6" ry="20.7"/> 	<g> 		<path class="st1" d="M191.6,284.4c-9,28.9-27.5,48.8-41.4,44.5c-13.8-4.3-17.7-31.2-8.7-60.1c9-28.9,27.5-48.8,41.4-44.5 			C196.7,228.6,200.6,255.5,191.6,284.4z"/> 	</g> 	<g> 		 			<ellipse transform="matrix(0.3995 -0.9167 0.9167 0.3995 46.8681 387.0103)" class="st2" cx="318.8" cy="157.7" rx="48.8" ry="33.9"/> 	</g> 	<path class="st3" d="M310.7,97.5c0,0,13.1-13.9,31.2-7.7c18.1,6.2,21.3,28.3,21.3,28.3"/> 	<path class="st3" d="M178.5,57.2c0,0,1-20.1-15.7-23.9c-14.9-3.4-27.5,10.6-27.5,10.6"/> </symbol><symbol id="frame16"> 	<circle class="st0" cx="250.2" cy="250" r="243.1"/> 	 		<ellipse transform="matrix(0.3921 -0.9199 0.9199 0.3921 -10.102 191.2128)" class="st2" cx="139.6" cy="103.2" rx="37.6" ry="20.7"/> 	<g> 		<path class="st1" d="M192.7,285c-8.9,28.6-27.4,48.4-41.2,44c-13.8-4.3-17.8-31-8.8-59.7c9-28.6,27.4-48.3,41.2-44 			C197.7,229.6,201.7,256.3,192.7,285z"/> 	</g> 	<g> 		<path class="st2" d="M351.3,171.3c-10.8,24.7-33.4,38.6-50.6,31.1c-17.2-7.5-22.4-33.6-11.6-58.3c10.8-24.7,33.4-38.6,50.6-31.1 			C356.8,120.5,362,146.6,351.3,171.3z"/> 	</g> 	<path class="st3" d="M310.8,99.3c0,0,13.6-15.5,31.7-9.3c18.1,6.2,20.7,30.1,20.7,30.1"/> 	<path class="st3" d="M179.8,55.9c0,0,1-20.1-15.7-23.9c-14.9-3.4-27.5,10.6-27.5,10.6"/> </symbol><symbol id="frame17"> 	<circle class="st0" cx="250.2" cy="250" r="243.1"/> 	 		<ellipse transform="matrix(0.3921 -0.9199 0.9199 0.3921 -8.8781 190.9886)" class="st2" cx="140.1" cy="102.2" rx="38.7" ry="20.7"/> 	<g> 		<path class="st1" d="M196.5,288.3c-9.4,29.9-28.9,50.5-43.6,45.9c-14.7-4.6-19.1-32.6-9.7-62.5c9.4-29.9,28.9-50.5,43.6-45.9 			C201.6,230.4,205.9,258.4,196.5,288.3z"/> 	</g> 	<g> 		<path class="st2" d="M351.3,171.3c-10.8,24.7-33.4,38.6-50.6,31.1c-17.2-7.5-22.4-33.6-11.6-58.3c10.8-24.7,33.4-38.6,50.6-31.1 			C356.8,120.5,362,146.6,351.3,171.3z"/> 	</g> 	<path class="st3" d="M310.8,99.3c0,0,13.6-15.5,31.7-9.3c18.1,6.2,20.7,30.1,20.7,30.1"/> 	<path class="st3" d="M181.8,54.5c0,0,1-20.1-15.7-23.9c-14.9-3.4-27.5,10.6-27.5,10.6"/> </symbol><symbol id="frame18"> 	<circle class="st0" cx="250.2" cy="250" r="243.1"/> 	 		<ellipse transform="matrix(0.3921 -0.9199 0.9199 0.3921 -10.4955 195.0898)" class="st2" cx="142.4" cy="105.5" rx="40.4" ry="23.2"/> 	<g> 		<path class="st1" d="M217.5,297.8c-8.5,34.7-30.3,59.2-48.7,54.7c-18.4-4.5-26.3-36.3-17.8-71c8.5-34.7,30.3-59.2,48.7-54.7 			C218.1,231.3,226,263.1,217.5,297.8z"/> 	</g> 	<g> 		<path class="st2" d="M355.5,166.7c-10.7,24.6-33.5,38.5-50.8,30.9c-17.3-7.6-22.7-33.6-12-58.3c10.7-24.6,33.5-38.5,50.8-30.9 			C360.9,116,366.2,142.1,355.5,166.7z"/> 	</g> 	<path class="st3" d="M313.3,93.7c0,0,13.6-15.5,31.7-9.3c18.1,6.2,20.7,30.1,20.7,30.1"/> 	<path class="st3" d="M184.6,53.8c0,0-0.4-20.2-18-23.1c-15.7-2.7-27.8,12-27.8,12"/> </symbol><symbol id="frame19"> 	<circle class="st0" cx="250.2" cy="250" r="243.1"/> 	<path class="st2" d="M186.4,116.2c-5.7,16.7-20.9,26.7-33.9,22.3c-13.1-4.4-19.1-21.6-13.5-38.3c5.7-16.7,20.9-26.7,34-22.3 		C186,82.3,192,99.5,186.4,116.2z"/> 	<g> 		<path class="st1" d="M281.7,304.8c-4.3,40.7-24.8,71.9-45.7,69.7c-21-2.2-34.5-37-30.2-77.7c4.3-40.7,24.8-71.9,45.7-69.7 			C272.5,229.3,286,264.1,281.7,304.8z"/> 	</g> 	<g> 		 			<ellipse transform="matrix(0.3994 -0.9168 0.9168 0.3994 78.6166 407.0051)" class="st2" cx="350" cy="143.5" rx="33.7" ry="30.2"/> 	</g> 	<path class="st3" d="M355.6,84.2c0,0,10.2-17.9,29.2-15.5c19,2.4,26.3,25.3,26.3,25.3"/> 	<path class="st3" d="M228.2,54.9c0,0-2.2-20.2-21.2-22c-17-1.7-28.6,13.7-28.6,13.7"/> </symbol><symbol id="frame20"> 	<circle class="st0" cx="250.2" cy="250" r="243.1"/> 	<g> 		<path class="st1" d="M348.3,307.5c5,47.3-9.7,87.5-32.8,90c-23.1,2.4-45.9-33.9-50.9-81.1c-5-47.2,9.7-87.5,32.8-90 			C320.5,223.9,343.3,260.2,348.3,307.5z"/> 	</g> 	<path class="st3" d="M225,61.6c0,0-11-20.3-31.8-17.4C172.5,47,164.5,73,164.5,73"/> 	<path class="st3" d="M353,70c0,0,1.8-17.7,20.3-19.1c16.5-1.2,28,12.5,28,12.5"/> 	<ellipse class="st2" cx="193" cy="133" rx="34" ry="9"/> 	 		<ellipse transform="matrix(0.9989 -4.592677e-02 4.592677e-02 0.9989 -5.1081 17.6707)" class="st2" cx="382" cy="120" rx="34" ry="9"/> </symbol><symbol id="frame21"> 	<circle class="st0" cx="250.2" cy="250" r="243.1"/> 	<g> 		<path class="st1" d="M386.3,320.1c13.7,58.7,0.2,112-30,119c-30.2,7-65.8-34.9-79.4-93.6c-13.6-58.7-0.2-112,30-119 			C337.1,219.5,372.6,261.4,386.3,320.1z"/> 	</g> 	<path class="st3" d="M203.1,74.3c0,0-13.3-19.8-35.6-16c-22.4,3.8-29.5,30.2-29.5,30.2"/> 	<path class="st3" d="M323,62c0,0,1.8-17.7,20.3-19.1c16.5-1.2,28,12.5,28,12.5"/> 	 		<ellipse transform="matrix(0.9621 -0.2727 0.2727 0.9621 -35.2369 55.1618)" class="st2" cx="180.8" cy="154.3" rx="34" ry="48.3"/> 	 		<ellipse transform="matrix(0.9621 -0.2727 0.2727 0.9621 -17.938 103.4327)" class="st2" cx="363.1" cy="116.2" rx="21.1" ry="43.6"/> </symbol><symbol id="frame22"> 	<circle class="st0" cx="250.2" cy="250" r="243.1"/> 	<g> 		<path class="st1" d="M392.9,315c13.5,58.1,0.7,110.7-28.6,117.6c-29.3,6.8-64-34.8-77.6-92.9c-13.5-58.1-0.7-110.7,28.6-117.5 			C344.6,215.3,379.3,256.9,392.9,315z"/> 	</g> 	<path class="st3" d="M203.1,74.1c0,0-13.2-18.5-34.5-14.3c-21.2,4.2-27.4,29.5-27.4,29.5"/> 	<path class="st3" d="M324,62c0,0,2-19,20.5-20.6c16.6-1.5,27.9,13,27.9,13"/> 	 		<ellipse transform="matrix(0.9587 -0.2844 0.2844 0.9587 -16.9546 108.8185)" class="st2" cx="366.3" cy="112.8" rx="21.1" ry="41.2"/> 	<path class="st2" d="M215.3,145.2c8.4,25.6,0.7,51-17.1,56.9c-17.8,5.8-39-10.2-47.4-35.8c-8.4-25.6-0.7-51,17.1-56.9 		C185.8,103.6,207,119.6,215.3,145.2z"/> </symbol><symbol id="frame23"> 	<circle class="st0" cx="250.2" cy="250" r="243.1"/> 	<g> 		<path class="st1" d="M398.8,312.2c14.3,57.5,2.1,110-27.1,117.2c-29.2,7.2-64.5-33.5-78.7-91c-14.3-57.5-2.1-109.9,27.1-117.2 			C349.3,214,384.5,254.8,398.8,312.2z"/> 	</g> 	<path class="st3" d="M203,74c0,0-14.5-17.5-35.4-11.8c-20.9,5.7-25.2,31.3-25.2,31.3"/> 	<path class="st3" d="M324,62c0,0,2-19,20.5-20.6c16.6-1.5,27.9,13,27.9,13"/> 	 		<ellipse transform="matrix(0.9523 -0.3052 0.3052 0.9523 -16.4134 118.3766)" class="st2" cx="370.4" cy="111.7" rx="20" ry="40.6"/> 	<path class="st2" d="M217.8,144.6c8.1,24.9,0.3,49.8-17.5,55.6c-17.8,5.8-38.8-9.6-47-34.5c-8.2-24.9-0.3-49.8,17.5-55.6 		C188.7,104.2,209.7,119.7,217.8,144.6z"/> </symbol><symbol id="frame24"> 	<circle class="st0" cx="250.2" cy="250" r="243.1"/> 	<g> 		<path class="st1" d="M402.2,308c16.7,56.8,6.8,109.8-22.1,118.2c-28.9,8.5-65.8-30.7-82.5-87.5c-16.7-56.8-6.8-109.7,22.1-118.2 			C348.5,212,385.5,251.2,402.2,308z"/> 	</g> 	<path class="st3" d="M205,74c0,0-14.5-17.5-35.4-11.8c-20.9,5.7-25.2,31.3-25.2,31.3"/> 	<path class="st3" d="M328,60c0,0,2-19,20.5-20.6c16.6-1.5,27.9,13,27.9,13"/> 	 		<ellipse transform="matrix(0.9523 -0.3052 0.3052 0.9523 -16.1082 118.3288)" class="st2" cx="370.4" cy="110.7" rx="20" ry="40.6"/> 	<path class="st2" d="M219.8,143.6c8.1,24.9,0.3,49.8-17.5,55.6c-17.8,5.8-38.8-9.6-47-34.5c-8.2-24.9-0.3-49.8,17.5-55.6 		C190.7,103.2,211.7,118.7,219.8,143.6z"/> </symbol><symbol id="frame25"> 	<circle class="st0" cx="250.2" cy="250" r="243.1"/> 	<g> 		<path class="st1" d="M408.4,305.9c16.9,57.5,7.2,111-21.7,119.5c-28.9,8.5-66-31.3-82.9-88.8c-16.9-57.5-7.2-111,21.7-119.5 			C354.4,208.7,391.5,248.4,408.4,305.9z"/> 	</g> 	<path class="st3" d="M205,74c0,0-14.5-17.5-35.4-11.8c-20.9,5.7-25.2,31.3-25.2,31.3"/> 	<path class="st3" d="M328,60c0,0,2-19,20.5-20.6c16.6-1.5,27.9,13,27.9,13"/> 	 		<ellipse transform="matrix(0.9523 -0.3052 0.3052 0.9523 -16.0605 118.4259)" class="st2" cx="370.7" cy="110.6" rx="20.4" ry="40.6"/> 	<path class="st2" d="M219.4,142.2c8.4,25.7,1.4,51-15.6,56.5c-17,5.6-37.6-10.7-46-36.4c-8.4-25.7-1.4-51,15.6-56.5 		C190.4,100.3,211,116.6,219.4,142.2z"/> </symbol><symbol id="frame26"> 	<circle class="st0" cx="250.2" cy="250" r="243.1"/> 	<g> 		<path class="st1" d="M405.3,305c18,56.4,10.7,109.1-16.3,117.7c-27,8.6-63.4-30.2-81.4-86.6c-18-56.4-10.7-109.1,16.3-117.7 			C350.9,209.8,387.3,248.6,405.3,305z"/> 	</g> 	<path class="st3" d="M208.8,74c0,0-15.7-17-37.4-10.7c-21.7,6.3-25.6,32.1-25.6,32.1"/> 	<path class="st3" d="M331.4,57c0,0,1.2-19,19.7-21.4c16.5-2.2,28.4,11.9,28.4,11.9"/> 	 		<ellipse transform="matrix(0.9523 -0.3052 0.3052 0.9523 -15.6022 119.1835)" class="st2" cx="373.4" cy="109.5" rx="20.4" ry="41.7"/> 	<path class="st2" d="M218.5,143.5c8.4,25.7,2.3,50.7-13.7,55.9c-15.9,5.2-35.6-11.4-44-37c-8.4-25.7-2.3-50.7,13.6-55.9 		C190.4,101.3,210.1,117.8,218.5,143.5z"/> </symbol><symbol id="frame27"> 	<circle class="st0" cx="250.2" cy="250" r="243.1"/> 	<g> 		<path class="st1" d="M406.9,303.8c18,56.4,9.9,109.4-18.1,118.3c-28,8.9-65.2-29.6-83.2-86c-18-56.4-9.8-109.4,18.1-118.3 			C351.7,208.9,389,247.4,406.9,303.8z"/> 	</g> 	<path class="st3" d="M207,75.6c0,0-13.4-17.6-33.7-12.8c-20.4,4.8-25.5,29.7-25.5,29.7"/> 	<path class="st3" d="M332,60.2c0,0,1.3-19.7,19.8-22.3c16.5-2.3,28.4,12.2,28.4,12.2"/> 	 		<ellipse transform="matrix(0.9523 -0.3052 0.3052 0.9523 -15.6976 118.5731)" class="st2" cx="371.4" cy="109.5" rx="20.4" ry="41.7"/> 	<path class="st2" d="M219.7,140.1c8.4,25.7,2.3,50.7-13.7,55.9c-15.9,5.2-35.6-11.4-44-37c-8.4-25.7-2.3-50.7,13.6-55.9 		C191.5,97.9,211.3,114.5,219.7,140.1z"/> </symbol><symbol id="frame28"> 	<circle class="st0" cx="250.2" cy="250" r="243.1"/> 	<g> 		<path class="st1" d="M405.8,303.7C424,360.6,416,413.9,388,422.8c-28,8.9-65.4-30-83.5-86.9c-18.1-56.9-10.1-110.2,17.9-119.1 			C350.3,207.9,387.7,246.8,405.8,303.7z"/> 	</g> 	<path class="st3" d="M209.1,76.3c0,0-13-17.9-33.4-13.6c-20.5,4.3-26.2,29-26.2,29"/> 	<path class="st3" d="M333.6,59.2c0,0,2.1-19.6,20.6-21.5c16.6-1.7,27.9,13.3,27.9,13.3"/> 	 		<ellipse transform="matrix(0.9523 -0.3052 0.3052 0.9523 -15.6022 119.1835)" class="st2" cx="373.4" cy="109.5" rx="20.4" ry="41.7"/> 	 		<ellipse transform="matrix(0.9504 -0.311 0.311 0.9504 -36.8302 66.6994)" class="st2" cx="190.8" cy="148.9" rx="28.6" ry="49.1"/> </symbol><symbol id="frame29"> 	<circle class="st0" cx="250.2" cy="250" r="243.1"/> 	<g> 		<path class="st1" d="M401,303.3c17.6,55.4,9.4,107.4-18.4,116.3c-27.8,8.9-64.7-28.8-82.3-84.2c-17.6-55.4-9.4-107.4,18.4-116.3 			C346.6,210.2,383.4,247.9,401,303.3z"/> 	</g> 	<path class="st3" d="M209,74.5c0,0-13.3-17.6-33.7-12.9C154.9,66.2,149.7,91,149.7,91"/> 	<path class="st3" d="M334.3,60.6c0,0,2.1-19.6,20.6-21.5c16.6-1.7,27.9,13.3,27.9,13.3"/> 	 		<ellipse transform="matrix(0.9659 -0.2588 0.2588 0.9659 -15.73 100.8248)" class="st2" cx="375.1" cy="110.2" rx="20.4" ry="40.9"/> 	<path class="st2" d="M217,140.4c7.2,26.2,0.6,50.8-14.6,54.9c-15.2,4.2-33.4-13.6-40.6-39.8c-7.2-26.2-0.6-50.8,14.6-54.9 		C191.7,96.4,209.9,114.2,217,140.4z"/> </symbol><symbol id="frame30"> 	<circle class="st0" cx="250.2" cy="250" r="243.1"/> 	<g> 		<path class="st1" d="M381.9,304.8c13.4,52.2,3.4,99.8-22.4,106.4c-25.7,6.6-57.4-30.3-70.8-82.5c-13.4-52.2-3.4-99.8,22.4-106.4 			C336.9,215.7,368.6,252.6,381.9,304.8z"/> 	</g> 	<path class="st3" d="M210.4,74.5c0,0-13.3-17.6-33.7-12.9C156.3,66.2,151.1,91,151.1,91"/> 	<path class="st3" d="M337.7,64.3c0,0,2-19.7,22.1-21.3c18-1.4,30.5,13.7,30.5,13.7"/> 	 		<ellipse transform="matrix(0.9659 -0.2588 0.2588 0.9659 -16.7762 101.0546)" class="st2" cx="375.4" cy="114.2" rx="24.6" ry="27.1"/> 	<path class="st2" d="M220.9,132.8c4.5,16.6-5.2,33.7-21.6,38.1c-16.4,4.4-33.3-5.5-37.7-22.2c-4.5-16.6,5.2-33.7,21.6-38.1 		C199.6,106.2,216.5,116.1,220.9,132.8z"/> </symbol><symbol id="frame31"> 	<circle class="st0" cx="250.2" cy="250" r="243.1"/> 	<g> 		<path class="st1" d="M382.4,323.1c12.6,58.9-4.1,112.5-37.5,119.6c-33.3,7.1-70.6-34.8-83.2-93.8c-12.6-58.9,4.1-112.5,37.5-119.6 			C332.6,222.2,369.8,264.1,382.4,323.1z"/> 	</g> 	<path class="st3" d="M200.5,70c0,0-13.5-16.4-35.4-13.3c-21.9,3.1-28.4,25-28.4,25"/> 	<path class="st3" d="M320,67c0,0,2-19.7,22.1-21.3c18-1.4,30.5,13.7,30.5,13.7"/> 	<path class="st2" d="M383.8,115.5c6.4,23.8,2,45.6-9.8,48.7c-11.8,3.2-26.5-13.5-32.9-37.3c-6.4-23.8-2-45.6,9.8-48.7 		C362.7,75,377.4,91.7,383.8,115.5z"/> 	<path class="st2" d="M209,143.7c7,26-2.4,51.2-21,56.1c-18.5,5-39.2-12.1-46.2-38.2c-7-26,2.4-51.2,20.9-56.2 		C181.3,100.6,202,117.7,209,143.7z"/> </symbol><symbol id="frame32"> 	<circle class="st0" cx="250.2" cy="250" r="243.1"/> 	<g> 		<path class="st1" d="M368.5,335.3c8.8,60.4-14.5,113.7-52,119.1c-37.5,5.4-75-39.1-83.7-99.5c-8.8-60.4,14.5-113.7,52-119.1 			C322.2,230.4,359.7,274.9,368.5,335.3z"/> 	</g> 	<path class="st3" d="M197.2,67.7c0,0-12-17.3-33.6-15.7c-21.6,1.6-29.6,23-29.6,23"/> 	<path class="st3" d="M315.1,67.8c0,0,4.2-20.6,25.2-20.4c18.8,0.2,30.1,17.5,30.1,17.5"/> 	<path class="st2" d="M380.3,127.7c3.6,25.1-4.7,47-18.5,49c-13.8,2-27.9-16.8-31.5-41.9c-3.6-25.1,4.7-47,18.5-49 		C362.6,83.9,376.7,102.6,380.3,127.7z"/> 	<path class="st2" d="M202.2,145.1c5.1,26.7-5.6,51.2-24,54.7c-18.4,3.6-37.5-15.2-42.7-41.9c-5.2-26.7,5.6-51.2,24-54.7 		C178,99.7,197.1,118.4,202.2,145.1z"/> </symbol><symbol id="frame33"> 	<circle class="st0" cx="250.2" cy="250" r="243.1"/> 	<g> 		<path class="st1" d="M349,346.5c5.2,62.2-24.4,115.3-66,118.8c-41.6,3.4-79.5-44.2-84.7-106.3c-5.1-62.2,24.4-115.3,66-118.8 			C306,236.8,343.9,284.4,349,346.5z"/> 	</g> 	<path class="st3" d="M193.2,63.7c0,0-12-17.3-33.6-15.7c-21.6,1.6-29.6,23-29.6,23"/> 	<path class="st3" d="M309.4,67.5c0,0,4.9-20.5,27.5-18.9C357.2,50,369.1,68,369.1,68"/> 	<path class="st2" d="M377.7,139.8c2.3,26.1-9.6,48.4-26.6,49.9c-16.9,1.5-32.5-18.5-34.7-44.5C314.1,119,326,96.7,343,95.3 		C359.9,93.8,375.4,113.7,377.7,139.8z"/> 	<path class="st2" d="M193.8,144c3.1,26.5-9.4,49.7-28,51.9c-18.6,2.2-36.3-17.5-39.4-43.9c-3.1-26.5,9.4-49.7,28-51.9 		C173.1,97.8,190.7,117.5,193.8,144z"/> </symbol><symbol id="frame34"> 	<circle class="st0" cx="250.2" cy="250" r="243.1"/> 	<g> 		<path class="st1" d="M345.3,352.7c2.9,62.7-30.5,115.1-74.6,117.2c-44.1,2-82.3-47.1-85.2-109.7c-2.9-62.7,30.5-115.1,74.7-117.1 			C304.2,240.9,342.3,290.1,345.3,352.7z"/> 	</g> 	<path class="st3" d="M193.2,63.7c0,0-12-17.3-33.6-15.7c-21.6,1.6-29.6,23-29.6,23"/> 	<path class="st3" d="M309.4,67.5c0,0,4.9-20.5,27.5-18.9C357.2,50,369.1,68,369.1,68"/> 	<path class="st2" d="M378.2,145.6c0.8,26.8-13.9,49-32.8,49.5c-18.9,0.5-34.8-20.7-35.6-47.5c-0.8-26.8,13.9-49,32.8-49.5 		C361.4,97.6,377.4,118.8,378.2,145.6z"/> 	<path class="st2" d="M191.6,146.2c1.2,27-13.3,49.6-32.5,50.5c-19.2,0.9-35.8-20.3-37-47.3c-1.3-27,13.3-49.6,32.5-50.5 		C173.8,98,190.4,119.2,191.6,146.2z"/> </symbol>
</g>
<g class="animation__scene">
	<use xmlns:xlink="http://www.w3.org/1999/xlink" xlink:href="#frame01"/>
</g><script type="application/javascript">
	<![CDATA[

	(function(exportType) {
	  var SVGlib = {
	    utils: {
	      loadDoc: function(url, callback) {
	        var xhttp = new XMLHttpRequest();
	          xhttp.onreadystatechange = function() {
	            if (xhttp.readyState == 4 && xhttp.status == 200) {
	              callback.call(null, xhttp);
	            }
	          };
	          xhttp.open("GET", url, true);
	          xhttp.send();
	      },
	      ready: function(fn) {
	        if (document.readyState != 'loading'){
	          fn();
	        } else {
	          document.addEventListener('DOMContentLoaded', fn);
	        }
	      }
	    },
	    animationConfig: {
	      interval: null,
	      looped: true,
	      scene: null,
	      frameTime: 77,
	      delay: 0,
	      onOver: false,
	      reverse: false,
	      direction: 'forward'
	    },
	    currentFrame: 1,
	    animationStarted: false,
	    step: 1,
	    startFrame: 1,
	    endFrame: 13,
	    firstOut: false,
	    reversed: false,

	    format: function(num) {
	      if(num < 10) {
	        return '0' + num;
	      }
	      return num.toString();
	    },

	    encodeForInsertion: function(string) {
	      return "data:image/svg+xml," + encodeURIComponent(string);
	    },

	    nextFrame: function () {
	      if(this.currentFrame === this.endFrame) {

	        if(!this.animationConfig.looped) this.stopAnimation();

	        this.currentFrame = this.startFrame;
	      }

	      this.animationConfig.scene.setAttribute('xlink:href', '#frame' + this.format(this.currentFrame));
	      this.currentFrame += this.step;

	      if(this.animationConfig.image) {
	        this.animationConfig.image.setAttribute('src', this.encodeForInsertion(this.animationConfig.root.outerHTML));
	      }
	    },

	    startAnimation: function(ev) {
	      var self = this;
	      setTimeout(function() {
	        self.animationStarted = true;
	        self.interval = setInterval(function() {
	          self.nextFrame();
	        },self.animationConfig.frameTime);
	      }, this.animationConfig.delay);
	    },

	    stopAnimation: function(ev) {
	      clearInterval(this.interval);
	      this.animationStarted = false;
	      if(this.reversed) this.reverseAnimation();

	    },

	    isInside: function(mouseEvent, clientRect) {
	      return (
	        (mouseEvent.clientX >= clientRect.left) && (mouseEvent.clientX <= clientRect.right)
	        &&
	        (mouseEvent.clientY >= clientRect.top) && (mouseEvent.clientY <= clientRect.bottom)
	      );
	    },

	    reverseAnimation: function() {
	        this.startFrame = this.startFrame === 1 ? this.endFrame : 1;
	        this.endFrame = this.endFrame !== 1 ? 1 : this.animationConfig.frameCount;
	        this.step = this.step === -1 ? 1 : -1;
	        if(!this.animationStarted) {
	            this.currentFrame = this.startFrame;
	        }
	        this.reversed = !this.reversed;
	    },

	    handleMouseMove: function(ev, isInside) {

	      var self = this;

	      if(typeof isInside === 'undefined') isInside = self.isInside(ev, self.animationConfig.scene.getBoundingClientRect());

	      if(isInside && !self.animationStarted && !self.firstOut) {
	        self.startAnimation();
	        self.firstOut = true;
	      } else if(!isInside && self.animationStarted && self.animationConfig.reverse && self.firstOut) {
	        self.reverseAnimation();
	      } else if(!isInside && self.animationStarted && self.firstOut) {
	        self.stopAnimation();
	      }

	      if(!isInside && self.firstOut) {
	        self.firstOut = false;
	      }
	    },

	    init: function(config) {
	      for(var setting in config){
	        if(config.hasOwnProperty(setting)) {
	          this.animationConfig[setting] = config[setting]
	        }
	      }

	      if(config.frameCount) this.endFrame = config.frameCount;

	      if(this.animationConfig.direction !== 'forward') {
	        this.reverseAnimation();
			this.reversed = false;
	      }

	      var self = this;

	      if(this.animationConfig.onOver && this.animationConfig.image) {
	        this.animationConfig.image.addEventListener('mouseenter', function(ev){
	          self.handleMouseMove(ev, true);
	        });

	        this.animationConfig.image.addEventListener('mouseleave', function(ev){
	          self.handleMouseMove(ev, false);
	        });

	      } else if (this.animationConfig.onOver) {
	        window.addEventListener('mousemove', function(ev){
	          self.handleMouseMove(ev);
	        });
	      } else {
	        self.startAnimation();
	      }
	    },

	    initEmbedded: function() {
	      var elem = document.querySelector('.animation');
	          this.init({
	            scene: elem.querySelector('.animation__scene use'),
	            delay: parseInt(elem.getAttribute('data-delay'), 10),
	            frameTime: parseInt(elem.getAttribute('data-frame'), 10),
	            looped: (elem.getAttribute('data-looped') === 'true'),
	            onOver: (elem.getAttribute('data-onover') === 'true'),
	            reverse: (elem.getAttribute('data-reverse') === 'true'),
	            direction: elem.getAttribute('data-direction'),
	            frameCount: elem.querySelectorAll('symbol').length
	          });
	    },

	    initAsImg: function(xml) {
	      var i,
	          xmlDoc = xml.responseXML,
	          elem = xmlDoc.querySelector('.animation');

	      this.init({
	        root: elem,
	        scene: elem.querySelector('.animation__scene use'),
	        delay: parseInt(elem.getAttribute('data-delay'), 10),
	        frameTime: parseInt(elem.getAttribute('data-frame'), 10),
	        looped: (elem.getAttribute('data-looped') === 'true'),
	        onOver: (elem.getAttribute('data-onover') === 'true'),
	        reverse: (elem.getAttribute('data-reverse') === 'true'),
	        direction: elem.getAttribute('data-direction'),
	        image:  document.querySelector('#svg__holder'),
	        frameCount: elem.querySelectorAll('symbol').length
	      });
	    }
	  };

	  var utils = SVGlib.utils;

	  utils.ready(function(){
	    if(exportType === 'embedded') {
	      SVGlib.initEmbedded();
	    } else if(exportType === 'image') {
	      var image = document.querySelector('#svg__holder');
	      utils.loadDoc(image.getAttribute('src'), function(resp){
	        SVGlib.initAsImg(resp);
	      });
	    }
	  });
	})((window.state && window.state.exportType) || 'embedded');

]]>
</script>
</svg>