<?xml version="1.0" encoding="utf-8"?>
<svg version="1.1" id="graphics"
	class="animation"
	xmlns="http://www.w3.org/2000/svg"
	xmlns:xlink="http://www.w3.org/1999/xlink"
	x="0px" y="0px"
	data-frame="77"
	data-delay="0"
	data-looped="true"
	data-onover="false"
	data-reverse="false"
	data-direction="forward"
	viewBox="0 0 500 500"
	style="enable-background:new 0 0 500 500;"
	>
	<style> 	.st0{fill:none;stroke:#000000;stroke-width:9;stroke-miterlimit:10;} 	.st1{fill:none;stroke:#000000;stroke-width:9;stroke-linecap:round;stroke-miterlimit:10;} 
</style>
<g class="animation__source">
<symbol id="frame01"> 	<g> 		<circle class="st0" cx="250" cy="250" r="243"/> 		<g> 			<path class="st1" d="M292.2,327c0,0,31.6,1,59.8-10.4c26.2-10.6,43.2-27.3,43.2-27.3"/> 			<path class="st1" d="M352.1,316.6c-13.9,5.6-28.6,8.2-40,9.4c-0.2,1.4-0.3,2.9-0.3,4.4c0,19.8,16.1,35.9,35.9,35.9 				c19.8,0,35.9-16.1,35.9-35.9c0-9.6-3.8-18.4-10-24.8C367.6,309.4,360.3,313.3,352.1,316.6z"/> 		</g> 		<g> 			<path class="st1" d="M207.8,327c0,0-31.6,1-59.8-10.4c-26.2-10.6-43.2-27.3-43.2-27.3"/> 			<path class="st1" d="M147.9,316.6c13.9,5.6,28.6,8.2,40,9.4c0.2,1.4,0.3,2.9,0.3,4.4c0,19.8-16.1,35.9-35.9,35.9 				c-19.8,0-35.9-16.1-35.9-35.9c0-9.6,3.8-18.4,10-24.8C132.4,309.4,139.7,313.3,147.9,316.6z"/> 		</g> 	</g> 	<path class="st1" d="M250,434.9c-34.4,0-51.6,10.8-51.6,18.5c0,6,23.1-1.1,51.6-1.1s51.6,7.1,51.6,1.1 		C301.6,445.6,284.4,434.9,250,434.9z"/> </symbol><symbol id="frame02"> 	<circle class="st1" cx="250" cy="250" r="243"/> 	<g> 		<g> 			<path class="st1" d="M292.2,326c0,0,29.3,0.1,57.8-10.7c28.3-10.7,45.2-27.1,45.2-27.1"/> 			<path class="st1" d="M352.1,315.6c-13.9,5.6-28.6,8.2-40,9.4c-0.2,1.4-0.3,2.9-0.3,4.4c0,19.8,16.1,35.9,35.9,35.9 				c19.8,0,35.9-16.1,35.9-35.9c0-9.6-3.8-18.4-10-24.8C367.6,308.4,360.3,312.3,352.1,315.6z"/> 		</g> 		<g> 			<path class="st1" d="M207.8,326c0,0-29.3,0.1-57.8-10.7c-28.3-10.7-45.2-27.1-45.2-27.1"/> 			<path class="st1" d="M147.9,315.6c13.9,5.6,28.6,8.2,40,9.4c0.2,1.4,0.3,2.9,0.3,4.4c0,19.8-16.1,35.9-35.9,35.9 				c-19.8,0-35.9-16.1-35.9-35.9c0-9.6,3.8-18.4,10-24.8C132.4,308.4,139.7,312.3,147.9,315.6z"/> 		</g> 		<path class="st1" d="M250,432.3c-36.4,0-54.6,11.4-54.6,19.6c0,6.4,24.5-1.2,54.6-1.2c30.2,0,54.6,7.5,54.6,1.2 			C304.6,443.7,286.4,432.3,250,432.3z"/> 	</g> </symbol><symbol id="frame03"> 	<circle class="st1" cx="250" cy="250" r="243"/> 	<g> 		<g> 			<path class="st1" d="M292.2,321.4c0,0,29.3,0.1,57.8-10.7c28.3-10.7,45.2-27.1,45.2-27.1"/> 			<path class="st1" d="M352.1,311c-13.9,5.6-28.6,8.2-40,9.4c-0.2,1.4-0.3,2.9-0.3,4.4c0,19.8,16.1,35.9,35.9,35.9 				c19.8,0,35.9-16.1,35.9-35.9c0-9.6-3.8-18.4-10-24.8C367.6,303.8,360.3,307.7,352.1,311z"/> 		</g> 		<g> 			<path class="st1" d="M207.8,321.4c0,0-29.3,0.1-57.8-10.7c-28.3-10.7-45.2-27.1-45.2-27.1"/> 			<path class="st1" d="M147.9,311c13.9,5.6,28.6,8.2,40,9.4c0.2,1.4,0.3,2.9,0.3,4.4c0,19.8-16.1,35.9-35.9,35.9 				c-19.8,0-35.9-16.1-35.9-35.9c0-9.6,3.8-18.4,10-24.8C132.4,303.8,139.7,307.7,147.9,311z"/> 		</g> 		<path class="st1" d="M250,425.2c-40.8,0-65.5,13.6-61.2,24.9c2.5,6.7,27.4-4.3,61.2-4.3s58.7,11,61.2,4.3 			C315.5,438.8,290.8,425.2,250,425.2z"/> 	</g> </symbol><symbol id="frame04"> 	<circle class="st1" cx="250" cy="250" r="243"/> 	<g> 		<g> 			<path class="st1" d="M294.5,314.1c0,0,27.1,0.1,55.5-10.7c28.3-10.7,45.2-27.1,45.2-27.1"/> 			<path class="st1" d="M352.4,300.8c-13.9,5.6-27.3,8.4-40.2,10.6c-0.2,1.4-0.3,2.9-0.3,4.4c0,19.8,16.1,35.9,35.9,35.9 				c19.8,0,35.9-16.1,35.9-35.9c0-9.6-3.8-18.4-10-24.8C367.6,294.8,360.5,297.5,352.4,300.8z"/> 		</g> 		<g> 			<path class="st1" d="M205.5,314.1c0,0-27.1,0.1-55.5-10.7c-28.3-10.7-45.2-27.1-45.2-27.1"/> 			<path class="st1" d="M147.6,300.8c13.9,5.6,27.3,8.4,40.2,10.6c0.2,1.4,0.3,2.9,0.3,4.4c0,19.8-16.1,35.9-35.9,35.9 				c-19.8,0-35.9-16.1-35.9-35.9c0-9.6,3.8-18.4,10-24.8C132.4,294.8,139.5,297.5,147.6,300.8z"/> 		</g> 		<path class="st1" d="M250,417.3c-42.5,0-70.3,13.7-63.9,27.2c3.2,6.7,28.6-4,63.9-4s60.6,10.7,63.9,4 			C320.3,431,292.5,417.3,250,417.3z"/> 	</g> </symbol><symbol id="frame05"> 	<circle class="st1" cx="250" cy="250" r="243"/> 	<g> 		<path class="st1" d="M294.5,290.6c0,0,25.9-1.5,54.3-12.2c28.3-10.7,46.3-25,46.3-25"/> 		<path class="st1" d="M352.7,280.7c-13.9,5.6-27.3,8.4-40.2,10.6c-0.2,1.4-0.3,2.9-0.3,4.4c0,19.8,16.1,35.9,35.9,35.9 			c19.8,0,35.9-16.1,35.9-35.9c0-9.6-3.8-18.4-10-24.8C367.9,274.7,360.9,277.4,352.7,280.7z"/> 		<path class="st1" d="M205.5,290.6c0,0-25.9-1.5-54.3-12.2c-28.3-10.7-46.3-25-46.3-25"/> 		<path class="st1" d="M147.3,280.7c13.9,5.6,27.3,8.4,40.2,10.6c0.2,1.4,0.3,2.9,0.3,4.4c0,19.8-16.1,35.9-35.9,35.9 			c-19.8,0-35.9-16.1-35.9-35.9c0-9.6,3.8-18.4,10-24.8C132.1,274.7,139.1,277.4,147.3,280.7z"/> 		<path class="st1" d="M250.2,394.2c-42.5,0-72,17.1-67,31.2c3.8,10.5,31.7-3,67-3s63.2,13.5,67,3 			C322.3,411.4,292.8,394.2,250.2,394.2z"/> 	</g> </symbol><symbol id="frame06"> 	<circle class="st1" cx="250" cy="250" r="243"/> 	<g> 		<path class="st1" d="M294.5,262.9c0,0,25.9-1.5,54.3-12.2c28.3-10.7,46.3-25,46.3-25"/> 		<path class="st1" d="M348.8,251.9c-11.7,4.7-24.9,10.2-32.6,16.3c-2.6,2-4,5.2-4,8.4c0.3,19.6,16.3,35.3,35.9,35.3 			c19.8,0,35.9-16.1,35.9-35.9c0-9.6-3.1-20-10.9-24.5C364.5,246.5,357,248.6,348.8,251.9z"/> 		<path class="st1" d="M205.5,262.9c0,0-25.9-1.5-54.3-12.2c-28.3-10.7-46.3-25-46.3-25"/> 		<path class="st1" d="M151.2,251.9c11.7,4.7,24.9,10.2,32.6,16.3c2.6,2,4,5.2,4,8.4c-0.3,19.6-16.3,35.3-35.9,35.3 			c-19.8,0-35.9-16.1-35.9-35.9c0-9.6,3.1-20,10.9-24.5C135.5,246.5,143,248.6,151.2,251.9z"/> 		<path class="st1" d="M250,369.2c-45.2,0-76.8,22.4-70.7,37.2c5.2,12.5,33.1,0.2,70.7,0.2s65.5,12.3,70.7-0.2 			C326.8,391.6,295.2,369.2,250,369.2z"/> 	</g> </symbol><symbol id="frame07"> 	<circle class="st1" cx="250" cy="250" r="243"/> 	<path class="st1" d="M294.4,242.7c0,0,21.9-5.4,50.3-16.2c28.3-10.7,50.3-21.1,50.3-21.1"/> 	<path class="st1" d="M348.8,236.6c-11.7,4.7-24.9,10.2-32.6,16.3c-2.6,2-4,5.2-4,8.4c0.3,19.6,16.3,35.3,35.9,35.3 		c19.8,0,35.9-16.1,35.9-35.9c0-9.6-3.1-20-10.9-24.5C364.4,231.2,356.9,233.3,348.8,236.6z"/> 	<path class="st1" d="M205.4,242.7c0,0-21.9-5.4-50.3-16.2c-28.3-10.7-50.3-21.1-50.3-21.1"/> 	<path class="st1" d="M151.1,236.6c11.7,4.7,24.9,10.2,32.6,16.3c2.6,2,4,5.2,4,8.4c-0.3,19.6-16.3,35.3-35.9,35.3 		c-19.8,0-35.9-16.1-35.9-35.9c0-9.6,3.1-20,10.9-24.5C135.4,231.2,142.9,233.3,151.1,236.6z"/> 	<path class="st1" d="M250.2,350.3L250.2,350.3c-0.1,0-0.1,0-0.2,0c-0.1,0-0.1,0-0.2,0v0c-45.1,0.1-76.4,24.5-70.4,39.2 		c5.2,12.5,33.1,6.6,70.5,6.5c37.4,0,65.4,5.9,70.5-6.5C326.6,374.8,295.2,350.4,250.2,350.3z"/> </symbol><symbol id="frame08"> 	<circle class="st1" cx="250.1" cy="250" r="243"/> 	<path class="st1" d="M294.5,225.7c0,0,20.7-7,49.2-17.8c28.3-10.7,51.5-20.4,51.5-20.4"/> 	<path class="st1" d="M342,219.7c-10.9,2.1-29.8,10.1-29.8,31.6c0,19.6,16.3,35.3,35.9,35.3c19.8,0,35.9-16.1,35.9-35.9 		c0-9.6-3.4-18.8-9.7-25C367.5,218.9,351.3,217.9,342,219.7z"/> 	<path class="st1" d="M205.7,225.7c0,0-20.7-7-49.2-17.8c-28.3-10.7-51.5-20.4-51.5-20.4"/> 	<path class="st1" d="M158.2,219.7c10.9,2.1,29.8,10.1,29.8,31.6c0,19.6-16.3,35.3-35.9,35.3c-19.8,0-35.9-16.1-35.9-35.9 		c0-9.6,3.4-18.8,9.7-25C132.7,218.9,148.9,217.9,158.2,219.7z"/> 	<g> 		<path class="st1" d="M250.3,336.3C250.3,336.3,250.3,336.3,250.3,336.3C250.3,336.3,250.3,336.3,250.3,336.3c-0.1,0-0.1,0-0.1,0 			c0,0,0,0,0,0c-45,0.2-79.6,26.4-73.3,41c7.8,18.2,35.9,13.2,73.3,13.2c37.4,0,65.5,5,73.3-13.2 			C329.9,362.7,295.4,336.5,250.3,336.3z"/> 	</g> </symbol><symbol id="frame09"> 	<circle class="st1" cx="250.1" cy="250" r="243"/> 	<path class="st1" d="M294.5,209.9c0,0,20.6-11.4,49-22.2c28.3-10.7,51.7-16.1,51.7-16.1"/> 	<path class="st1" d="M384,243.7c0-10.7-10.4-20.7-36.2-21v0c0,0,0,0,0,0c0,0,0,0,0,0v0c-25.8,0.3-36.2,10.3-36.2,21 		c0,19.8,16.4,24.9,36.2,24.9l0,0c0,0,0,0,0,0c0,0,0,0,0,0l0,0C367.7,268.6,384,263.5,384,243.7z"/> 	<path class="st1" d="M205.7,209.9c0,0-20.6-11.4-49-22.2C128.3,177,105,171.7,105,171.7"/> 	<path class="st1" d="M116.1,243.7c0-10.7,10.4-20.7,36.2-21v0c0,0,0,0,0,0c0,0,0,0,0,0v0c25.8,0.3,36.2,10.3,36.2,21 		c0,19.8-16.4,24.9-36.2,24.9l0,0c0,0,0,0,0,0c0,0,0,0,0,0l0,0C132.5,268.6,116.1,263.5,116.1,243.7z"/> 	<path class="st1" d="M250.3,325.3c0,0-0.2,0-0.2,0c0,0,0,0,0,0c-45,0.2-82.1,29-75.7,44.4c7.7,18.4,38.5,15.8,75.8,15.8 		c37.4,0,68,2.5,75.7-15.8C332.4,354.3,295.4,325.5,250.3,325.3z"/> </symbol><symbol id="frame10"> 	<circle class="st1" cx="250" cy="250" r="243"/> 	<path class="st1" d="M293.4,196.4c0,0,21.6-13.4,50-24.2c28.3-10.7,50.7-13.1,50.7-13.1"/> 	<path class="st1" d="M384,235.2c0-8.2-10.4-15.9-36.2-16.2v0c0,0,0,0,0,0c0,0,0,0,0,0v0c-25.8,0.3-36.2,7.9-36.2,16.2 		c0,15.2,16.4,19.1,36.2,19.1l0,0c0,0,0,0,0,0c0,0,0,0,0,0l0,0C367.6,254.3,384,250.4,384,235.2z"/> 	<path class="st1" d="M206.6,196.4c0,0-21.6-13.4-50-24.2c-28.3-10.7-50.7-13.1-50.7-13.1"/> 	<path class="st1" d="M116,235.2c0-8.2,10.4-15.9,36.2-16.2v0c0,0,0,0,0,0c0,0,0,0,0,0v0c25.8,0.3,36.2,7.9,36.2,16.2 		c0,15.2-16.4,19.1-36.2,19.1l0,0c0,0,0,0,0,0c0,0,0,0,0,0l0,0C132.4,254.3,116,250.4,116,235.2z"/> 	<path class="st1" d="M250.3,315.3L250.3,315.3C240.3,315.3,260.2,315.3,250.3,315.3L250.3,315.3c-51,0-82.4,32-77.4,48.4 		c5.8,19,39.9,18.9,77.3,18.8c37.4,0,71.5,0.2,77.3-18.8C332.6,347.3,301.2,315.3,250.3,315.3z"/> </symbol><symbol id="frame11"> 	<circle class="st1" cx="250" cy="250" r="243"/> 	<path class="st1" d="M250.2,306.3L250.2,306.3c0,0-0.4,0-0.4,0v0c-50.7,0.2-85.7,35.4-79.2,52.4c8.3,21.6,42.1,21.9,79.4,21.8 		c37.3,0,71.2-0.2,79.4-21.8C335.9,341.7,300.9,306.5,250.2,306.3z"/> 	<g> 		<path class="st1" d="M293.4,184.4c0,0,13.6-13.4,42-24.2c28.3-10.7,58.7-12.1,58.7-12.1"/> 		<circle class="st1" cx="347.3" cy="229.6" r="36"/> 		<path class="st1" d="M206.6,184.4c0,0-13.6-13.4-42-24.2c-28.3-10.7-58.7-12.1-58.7-12.1"/> 		<circle class="st1" cx="152.7" cy="229.6" r="36"/> 	</g> </symbol><symbol id="frame12"> 	<circle class="st1" cx="250" cy="250" r="243"/> 	<path class="st1" d="M250,298.8L250,298.8C250,298.8,250,298.8,250,298.8L250,298.8c-50.3,0.7-86.4,35.5-81.9,55.2 		c4.5,19.7,44.5,26.5,81.8,26.5v0c0,0,0.1,0,0.1,0v0c37.3,0,77.3-6.8,81.8-26.5C336.3,334.3,300.2,299.5,250,298.8z"/> 	<g> 		<path class="st1" d="M293.4,173.4c0,0,13.7-15,42-26.2c30.2-11.9,58.7-11.1,58.7-11.1"/> 		<circle class="st1" cx="347.3" cy="225.6" r="36"/> 		<path class="st1" d="M206.6,173.4c0,0-13.7-15-42-26.2c-30.2-11.9-58.7-11.1-58.7-11.1"/> 		<circle class="st1" cx="152.7" cy="225.6" r="36"/> 	</g> </symbol><symbol id="frame13"> 	<circle class="st1" cx="250" cy="250" r="243"/> 	<path class="st1" d="M293.5,162.4c0,0,13.7-16.7,42-27.9c30.2-11.9,58.7-7.3,58.7-7.3"/> 	<path class="st1" d="M250,291.8L250,291.8C250,291.8,250,291.8,250,291.8C250,291.8,250,291.8,250,291.8L250,291.8 		c-46.8,0-89.2,38.4-83.5,60.2c5.2,19.6,42.7,28.5,83.5,28.5c40.8,0,78.3-8.9,83.5-28.5C339.2,330.3,296.7,291.8,250,291.8z"/> 	<circle class="st1" cx="347.4" cy="223.6" r="36"/> 	<path class="st1" d="M206.7,162.4c0,0-13.7-16.7-42-27.9c-30.2-11.9-58.7-7.3-58.7-7.3"/> 	<circle class="st1" cx="152.8" cy="223.6" r="36"/> </symbol><symbol id="frame14"> 	<circle class="st1" cx="250" cy="250" r="243"/> 	<path class="st1" d="M250,285.8L250,285.8C250,285.8,250,285.8,250,285.8C250,285.8,250,285.8,250,285.8 		C250,285.8,250,285.8,250,285.8C250,285.8,250,285.8,250,285.8C250,285.8,250,285.8,250,285.8C250,285.8,250,285.8,250,285.8 		L250,285.8c-46.8,0-92,40.3-86.7,63.5c4,17.6,39.1,33.7,86.7,33.1c47.6,0.6,82.7-15.5,86.7-33.1C342,326.2,296.7,285.9,250,285.8z" 		/> 	<g> 		<path class="st1" d="M292.4,155.2c0,0,12.7-19.3,41-30.5c30.2-11.9,59.5-6.5,59.5-6.5"/> 		<circle class="st1" cx="347.3" cy="220.6" r="36"/> 		<path class="st1" d="M207.6,155.2c0,0-12.7-19.3-41-30.5c-30.2-11.9-59.5-6.5-59.5-6.5"/> 		<circle class="st1" cx="152.7" cy="220.6" r="36"/> 	</g> </symbol><symbol id="frame15"> 	<circle class="st1" cx="250" cy="250" r="243"/> 	<path class="st1" d="M250.3,281.8L250.3,281.8c0,0-0.3,0-0.3,0v0c-45.6,0.1-92.4,35.2-88.4,65.5c2.3,17.9,37.8,37,88.4,37.1v0 		c0,0,0.3,0,0.3,0v0c50.7-0.1,86.1-19.3,88.4-37.1C342.7,317.1,295.8,282,250.3,281.8z"/> 	<path class="st1" d="M292.4,148.2c0,0,12.7-19.3,41-30.5c30.2-11.9,59.5-6.5,59.5-6.5"/> 	<circle class="st1" cx="347.3" cy="219.6" r="36"/> 	<path class="st1" d="M207.6,148.2c0,0-12.7-19.3-41-30.5c-30.2-11.9-59.5-6.5-59.5-6.5"/> 	<circle class="st1" cx="152.7" cy="219.6" r="36"/> </symbol><symbol id="frame16"> 	<circle class="st1" cx="250" cy="250" r="243"/> 	<path class="st1" d="M250.1,277.8L250.1,277.8L250.1,277.8c0,0-0.3,0-0.3,0v0v0c-45.5,0.3-95.4,38.3-91.4,68.5 		c2.3,17.8,39.8,41.1,91.5,41.1v0c0,0,0.1,0,0.1,0s0.1,0,0.1,0v0c51.7-0.1,89.2-23.3,91.5-41.1C345.5,316.1,295.6,278.1,250.1,277.8 		z"/> 	<g> 		<path class="st1" d="M292.4,143.2c0,0,12.6-21.7,41-32.5c31.7-12,59.5-4.5,59.5-4.5"/> 		<circle class="st1" cx="347.3" cy="218.6" r="36"/> 		<path class="st1" d="M207.6,143.2c0,0-12.6-21.7-41-32.5c-31.7-12-59.5-4.5-59.5-4.5"/> 		<circle class="st1" cx="152.7" cy="218.6" r="36"/> 	</g> </symbol><symbol id="frame17"> 	<circle class="st1" cx="250" cy="250" r="243"/> 	<path class="st1" d="M250,273.8c-44.5,0-97.9,42.3-93.6,72.5c2.8,19.9,49.1,46.5,93.6,44.1c44.5,2.4,90.8-24.3,93.6-44.1 		C347.9,316.2,294.5,273.8,250,273.8z"/> 	<g> 		<path class="st1" d="M292.4,143.2c0,0,12.6-24.7,41-35.5c31.7-12,59.5-3.5,59.5-3.5"/> 		<circle class="st1" cx="347.3" cy="218.6" r="36"/> 	</g> 	<g> 		<path class="st1" d="M207.6,143.2c0,0-12.6-24.7-41-35.5c-31.7-12-59.5-3.5-59.5-3.5"/> 		<circle class="st1" cx="152.7" cy="218.6" r="36"/> 	</g> </symbol><symbol id="frame18"> 	<circle class="st1" cx="250" cy="250" r="243"/> 	<path class="st1" d="M250,276.8c-44.5,0-95.9,39.3-91.6,69.5c2.8,19.9,47.1,43.5,91.6,41.1c44.5,2.4,88.8-21.3,91.6-41.1 		C345.9,316.2,294.5,276.8,250,276.8z"/> 	<g> 		<path class="st1" d="M292.4,143.2c0,0,12.6-24.7,41-35.5c31.7-12,59.5-3.5,59.5-3.5"/> 		<ellipse class="st1" cx="347.3" cy="224.6" rx="36" ry="6.3"/> 		<path class="st1" d="M207.6,143.2c0,0-12.6-24.7-41-35.5c-31.7-12-59.5-3.5-59.5-3.5"/> 		<ellipse class="st1" cx="152.7" cy="224.6" rx="36" ry="6.3"/> 	</g> </symbol><symbol id="frame19"> 	<circle class="st1" cx="250" cy="250" r="243"/> 	<path class="st1" d="M250,281.8c-44.5,0-92.9,34.3-88.6,64.5c2.8,19.9,44.1,39.5,88.6,37.1c44.5,2.4,85.8-17.3,88.6-37.1 		C342.9,316.2,294.5,281.8,250,281.8z"/> 	<g> 		<path class="st1" d="M292.4,143.2c0,0,13.6-22.7,42-33.5c31.7-12,58.5-5.5,58.5-5.5"/> 		<circle class="st1" cx="347.3" cy="218.6" r="36"/> 	</g> 	<g> 		<path class="st1" d="M207.6,143.2c0,0-13.6-22.7-42-33.5c-31.7-12-58.5-5.5-58.5-5.5"/> 		<circle class="st1" cx="152.7" cy="218.6" r="36"/> 	</g> </symbol><symbol id="frame20"> 	<circle class="st1" cx="250" cy="250" r="243"/> 	<path class="st1" d="M250,286.5c-43.4,0-89.8,35.5-86.3,61.2c2.5,18.9,38.6,33.2,86.3,33.2s83.8-14.3,86.3-33.2 		C339.8,322,293.4,286.5,250,286.5z"/> 	<path class="st1" d="M292.4,146.2c0,0,13.6-22.7,42-33.5c31.7-12,60.5-5.5,60.5-5.5"/> 	<circle class="st1" cx="347.3" cy="219.6" r="36"/> 	<path class="st1" d="M207.6,146.2c0,0-13.6-22.7-42-33.5c-31.7-12-60.5-5.5-60.5-5.5"/> 	<circle class="st1" cx="152.7" cy="219.6" r="36"/> </symbol><symbol id="frame21"> 	<circle class="st1" cx="250" cy="250" r="243"/> 	<path class="st1" d="M250,291.2c-42,0-83.6,31.4-83.6,55.3c0,19.9,33.5,31.5,83.6,31.5s83.6-11.6,83.6-31.5 		C333.6,322.7,292,291.2,250,291.2z"/> 	<path class="st1" d="M294.3,148.5c0,0,11.6-19,40.1-29.8c31.7-12,60.5-8.5,60.5-8.5"/> 	<circle class="st1" cx="347.3" cy="221.6" r="36"/> 	<path class="st1" d="M205.7,148.5c0,0-11.6-19-40.1-29.8c-31.7-12-60.5-8.5-60.5-8.5"/> 	<circle class="st1" cx="152.7" cy="221.6" r="36"/> </symbol><symbol id="frame22"> 	<circle class="st1" cx="250" cy="250" r="243"/> 	<path class="st1" d="M250,296.7c-42,0-81.6,27.7-81.6,50.2c0,20.1,28.9,28.8,81.6,28.8s81.6-8.7,81.6-28.8 		C331.6,324.4,292,296.7,250,296.7z"/> 	<g> 		<path class="st1" d="M295.3,152.5c0,0,16.6-18,45.1-28.8c31.7-12,55.5-8.5,55.5-8.5"/> 		<circle class="st1" cx="347.3" cy="222.6" r="36"/> 		<path class="st1" d="M204.7,152.5c0,0-16.6-18-45.1-28.8c-31.7-12-55.5-8.5-55.5-8.5"/> 		<circle class="st1" cx="152.7" cy="222.6" r="36"/> 	</g> </symbol><symbol id="frame23"> 	<circle class="st1" cx="250" cy="250" r="243"/> 	<path class="st1" d="M250,302.7c-42,0-79.6,27.6-79.6,45.2c0,20.1,26.9,26.8,79.6,26.8s79.6-6.7,79.6-26.8 		C329.6,330.2,292,302.7,250,302.7z"/> 	<path class="st1" d="M297.3,158.5c0,0,16.6-15,45.1-25.8c31.7-12,55.5-11.5,55.5-11.5"/> 	<circle class="st1" cx="347.3" cy="225.6" r="36"/> 	<path class="st1" d="M202.7,158.5c0,0-16.6-15-45.1-25.8c-31.7-12-55.5-11.5-55.5-11.5"/> 	<circle class="st1" cx="152.7" cy="225.6" r="36"/> </symbol><symbol id="frame24"> 	<circle class="st1" cx="250" cy="250" r="243"/> 	<path class="st1" d="M327.2,350.2c-2-16.8-40.8-40.2-77.2-40.2s-75.2,23.5-77.2,40.2c-2.4,20,24.6,24.4,77.2,24.4 		S329.6,370.2,327.2,350.2z"/> 	<g> 		<path class="st1" d="M297.3,166.5c0,0,18.2-10.5,46.7-21.2c31.7-12,54.9-16,54.9-16"/> 		<circle class="st1" cx="347.3" cy="228.6" r="36"/> 		<path class="st1" d="M202.7,166.5c0,0-18.2-10.5-46.7-21.2c-31.7-12-54.9-16-54.9-16"/> 		<circle class="st1" cx="152.7" cy="228.6" r="36"/> 	</g> </symbol><symbol id="frame25"> 	<circle class="st1" cx="250" cy="250" r="243"/> 	<path class="st1" d="M250,317c-36.5,0-74.4,22.4-74.5,39.2c-0.1,15.8,21.8,17.4,74.5,17.4c52.7,0,74.6-1.7,74.5-17.4 		C324.4,339.4,286.5,317,250,317z"/> 	<path class="st1" d="M300.3,178.4c0,0,17.3-6.7,45.7-17.5c31.7-12,53.8-18.6,53.8-18.6"/> 	<circle class="st1" cx="347.3" cy="232.6" r="36"/> 	<path class="st1" d="M199.7,178.4c0,0-17.3-6.7-45.7-17.5c-31.7-12-53.8-18.6-53.8-18.6"/> 	<circle class="st1" cx="152.7" cy="232.6" r="36"/> </symbol><symbol id="frame26"> 	<circle class="st1" cx="250" cy="250" r="243"/> 	<path class="st1" d="M250,326c-36.5,0-71.7,19.1-71.8,35.9c-0.1,15.8,19.1,12.7,71.8,12.7c52.7,0,71.9,3,71.8-12.7 		C321.7,345.1,286.5,326,250,326z"/> 	<g> 		<path class="st1" d="M300.3,194.4c0,0,20.3-1.7,48.7-12.5c31.7-12,50.8-23.6,50.8-23.6"/> 		<circle class="st1" cx="347.3" cy="237.6" r="36"/> 		<path class="st1" d="M199.7,194.4c0,0-20.3-1.7-48.7-12.5c-31.7-12-50.8-23.6-50.8-23.6"/> 		<circle class="st1" cx="152.7" cy="237.6" r="36"/> 	</g> </symbol><symbol id="frame27"> 	<circle class="st1" cx="250" cy="250" r="243"/> 	<path class="st1" d="M250,336c-36.5,0-69.7,15.1-69.8,31.9c-0.1,15.8,17.1,10.7,69.8,10.7c52.7,0,69.9,5,69.8-10.7 		C319.7,351.1,286.5,336,250,336z"/> 	<g> 		<path class="st1" d="M296.3,223.7c0,0,20.3-1.7,48.7-12.5c31.7-12,50.8-23.6,50.8-23.6"/> 		<path class="st1" d="M383.3,243.6c0,19.9-16.1,36-36,36c-19.9,0-36-15.1-36-35c0-11.1,17-22,37-28 			C367.3,210.9,383.3,223.7,383.3,243.6z"/> 		<path class="st1" d="M203.7,223.7c0,0-20.3-1.7-48.7-12.5c-31.7-12-50.8-23.6-50.8-23.6"/> 		<path class="st1" d="M116.7,243.6c0,19.9,16.1,36,36,36c19.9,0,36-15.1,36-35c0-11.1-17-22-37-28 			C132.7,210.9,116.7,223.7,116.7,243.6z"/> 	</g> </symbol><symbol id="frame28"> 	<circle class="st1" cx="250" cy="250" r="243"/> 	<path class="st1" d="M250,348c-36.5,0-67.8,11.1-67.8,27.9c0,14.3,15.1,5.7,67.8,5.7c52.7,0,67.8,8.6,67.8-5.7 		C317.8,359.1,286.5,348,250,348z"/> 	<path class="st1" d="M296.3,247c0,0,21.3,3.3,49.8-7.5c31.7-12,49.8-29.6,49.8-29.6"/> 	<path class="st1" d="M371.4,227.5c-7.1,4.1-15.5,8.3-25.3,12c-13,4.9-24.6,6.9-33.3,7.6c-1,1.9-1.5,3.9-1.5,5.8 		c0,20,16.2,35.1,36.1,35.1c20,0,36.1-16.2,36.1-36.1C383.6,241,378.8,232.3,371.4,227.5z"/> 	<path class="st1" d="M203.7,247c0,0-21.3,3.3-49.8-7.5c-31.7-12-49.8-29.6-49.8-29.6"/> 	<path class="st1" d="M128.6,227.5c7.1,4.1,15.5,8.3,25.3,12c13,4.9,24.6,6.9,33.3,7.6c1,1.9,1.5,3.9,1.5,5.8 		c0,20-16.2,35.1-36.1,35.1c-20,0-36.1-16.2-36.1-36.1C116.4,241,121.2,232.3,128.6,227.5z"/> </symbol><symbol id="frame29"> 	<circle class="st1" cx="250" cy="250" r="243"/> 	<path class="st1" d="M250,361c-36.5,0-69.6,14.4-65.7,26.3c3.5,10.5,13,0.3,65.7,0.3c52.7,0,62.2,10.2,65.7-0.3 		C319.6,375.4,286.5,361,250,361z"/> 	<path class="st1" d="M296.3,258c0,0,21.3,3.3,49.8-7.5c31.7-12,49.8-29.6,49.8-29.6"/> 	<path class="st1" d="M371.4,238.5c-7.1,4.1-15.5,8.3-25.3,12c-13,4.9-24.6,6.9-33.3,7.6c-1,1.9-1.5,3.9-1.5,5.8 		c0,20,16.2,35.1,36.1,35.1c20,0,36.1-16.2,36.1-36.1C383.6,252,378.8,243.3,371.4,238.5z"/> 	<path class="st1" d="M203.7,258c0,0-21.3,3.3-49.8-7.5c-31.7-12-49.8-29.6-49.8-29.6"/> 	<path class="st1" d="M128.6,238.5c7.1,4.1,15.5,8.3,25.3,12c13,4.9,24.6,6.9,33.3,7.6c1,1.9,1.5,3.9,1.5,5.8 		c0,20-16.2,35.1-36.1,35.1c-20,0-36.1-16.2-36.1-36.1C116.4,252,121.2,243.3,128.6,238.5z"/> </symbol><symbol id="frame30"> 	<circle class="st1" cx="250" cy="250" r="243"/> 	<path class="st1" d="M250,375c-36.5,0-65.6,13.4-61.7,25.3c3.5,10.5,9,1.3,61.7,1.3c52.7,0,58.2,9.2,61.7-1.3 		C315.6,388.4,286.5,375,250,375z"/> 	<path class="st1" d="M295.3,274c0,0,22.3,1.3,50.8-9.5c31.7-12,49.8-29.6,49.8-29.6"/> 	<path class="st1" d="M371.4,252.5c-7.1,4.1-15.5,8.3-25.3,12c-13,4.9-25.4,7.2-34.4,8.6c-1,1.9-0.4,2.9-0.4,4.8 		c0,20,16.2,35.1,36.1,35.1c20,0,36.1-16.2,36.1-36.1C383.6,266,378.8,257.3,371.4,252.5z"/> 	<path class="st1" d="M204.7,274c0,0-22.3,1.3-50.8-9.5c-31.7-12-49.8-29.6-49.8-29.6"/> 	<path class="st1" d="M128.6,252.5c7.1,4.1,15.5,8.3,25.3,12c13,4.9,25.4,7.2,34.4,8.6c1,1.9,0.4,2.9,0.4,4.8 		c0,20-16.2,35.1-36.1,35.1c-20,0-36.1-16.2-36.1-36.1C116.4,266,121.2,257.3,128.6,252.5z"/> </symbol><symbol id="frame31"> 	<circle class="st1" cx="250" cy="250" r="243"/> 	<path class="st1" d="M250,401c-34.2,0-61.5,10.7-57.7,20.1c3.3,8.3,8.4,1.1,57.7,1.1c49.3,0,54.5,7.3,57.7-1.1 		C311.5,411.7,284.2,401,250,401z"/> 	<path class="st1" d="M295.3,295.4c0,0,22.3,1.3,50.8-9.5c31.7-12,49.8-29.6,49.8-29.6"/> 	<path class="st1" d="M371.4,273.9c-7.1,4.1-15.5,8.3-25.3,12c-13,4.9-25.4,7.2-34.4,8.6c-1,1.9-0.4,2.9-0.4,4.8 		c0,20,16.2,35.1,36.1,35.1c20,0,36.1-16.2,36.1-36.1C383.6,287.5,378.8,278.7,371.4,273.9z"/> 	<path class="st1" d="M204.7,295.4c0,0-22.3,1.3-50.8-9.5c-31.7-12-49.8-29.6-49.8-29.6"/> 	<path class="st1" d="M128.6,273.9c7.1,4.1,15.5,8.3,25.3,12c13,4.9,25.4,7.2,34.4,8.6c1,1.9,0.4,2.9,0.4,4.8 		c0,20-16.2,35.1-36.1,35.1c-20,0-36.1-16.2-36.1-36.1C116.4,287.5,121.2,278.7,128.6,273.9z"/> </symbol><symbol id="frame32"> 	<circle class="st1" cx="250" cy="250" r="243"/> 	<path class="st1" d="M250,433.2c-31.2,0-56.2,10.7-52.8,20.1c3,8.3,7.7,1.1,52.8,1.1s49.8,7.3,52.8-1.1 		C306.2,443.9,281.2,433.2,250,433.2z"/> 	<path class="st1" d="M295.3,328c0,0,22.3,1.3,50.8-9.5c31.7-12,49.8-29.6,49.8-29.6"/> 	<path class="st1" d="M371.4,306.5c-7.1,4.1-15.5,8.3-25.3,12c-13,4.9-25.4,7.2-34.4,8.6c-1,1.9-0.4,2.9-0.4,4.8 		c0,20,16.2,35.1,36.1,35.1c20,0,36.1-16.2,36.1-36.1C383.6,320.1,378.8,311.3,371.4,306.5z"/> 	<path class="st1" d="M204.7,328c0,0-22.3,1.3-50.8-9.5c-31.7-12-49.8-29.6-49.8-29.6"/> 	<path class="st1" d="M128.6,306.5c7.1,4.1,15.5,8.3,25.3,12c13,4.9,25.4,7.2,34.4,8.6c1,1.9,0.4,2.9,0.4,4.8 		c0,20-16.2,35.1-36.1,35.1c-20,0-36.1-16.2-36.1-36.1C116.4,320.1,121.2,311.3,128.6,306.5z"/> </symbol><symbol id="frame33"> 	<circle class="st1" cx="250" cy="250" r="243"/> 	<path class="st1" d="M259,433.2c-31.2,0-56.2,10.7-52.8,20.1c3,8.3,7.7,1.1,52.8,1.1s49.8,7.3,52.8-1.1 		C315.2,443.9,290.2,433.2,259,433.2z"/> 	<path class="st1" d="M304.3,328c0,0,22.3,1.3,50.8-9.5c31.7-12,49.8-29.6,49.8-29.6"/> 	<path class="st1" d="M380.4,306.5c-7.1,4.1-15.5,8.3-25.3,12c-13,4.9-25.4,7.2-34.4,8.6c-1,1.9-0.4,2.9-0.4,4.8 		c0,20,16.2,35.1,36.1,35.1c20,0,36.1-16.2,36.1-36.1C392.6,320.1,387.8,311.3,380.4,306.5z"/> 	<path class="st1" d="M213.7,328c0,0-22.3,1.3-50.8-9.5c-31.7-12-49.8-29.6-49.8-29.6"/> 	<path class="st1" d="M137.6,306.5c7.1,4.1,15.5,8.3,25.3,12c13,4.9,25.4,7.2,34.4,8.6c1,1.9,0.4,2.9,0.4,4.8 		c0,20-16.2,35.1-36.1,35.1c-20,0-36.1-16.2-36.1-36.1C125.4,320.1,130.2,311.3,137.6,306.5z"/> </symbol><symbol id="frame34"> 	<circle class="st1" cx="250" cy="250" r="243"/> 	<path class="st1" d="M265,433.2c-31.2,0-56.2,10.7-52.8,20.1c3,8.3,7.7,1.1,52.8,1.1s49.8,7.3,52.8-1.1 		C321.2,443.9,296.2,433.2,265,433.2z"/> 	<path class="st1" d="M310.3,328c0,0,22.3,1.3,50.8-9.5c31.7-12,49.8-29.6,49.8-29.6"/> 	<path class="st1" d="M386.4,306.5c-7.1,4.1-15.5,8.3-25.3,12c-13,4.9-25.4,7.2-34.4,8.6c-1,1.9-0.4,2.9-0.4,4.8 		c0,20,16.2,35.1,36.1,35.1c20,0,36.1-16.2,36.1-36.1C398.6,320.1,393.8,311.3,386.4,306.5z"/> 	<path class="st1" d="M219.7,328c0,0-22.3,1.3-50.8-9.5c-31.7-12-49.8-29.6-49.8-29.6"/> 	<path class="st1" d="M143.6,306.5c7.1,4.1,15.5,8.3,25.3,12c13,4.9,25.4,7.2,34.4,8.6c1,1.9,0.4,2.9,0.4,4.8 		c0,20-16.2,35.1-36.1,35.1c-20,0-36.1-16.2-36.1-36.1C131.4,320.1,136.2,311.3,143.6,306.5z"/> </symbol><symbol id="frame35"> 	<circle class="st1" cx="250" cy="250" r="243"/> 	<g> 		<path class="st1" d="M251,433.2c-31.2,0-56.2,10.7-52.8,20.1c3,8.3,7.7,1.1,52.8,1.1s49.8,7.3,52.8-1.1 			C307.2,443.9,282.2,433.2,251,433.2z"/> 		<path class="st1" d="M296.3,328c0,0,22.3,1.3,50.8-9.5c31.7-12,49.8-29.6,49.8-29.6"/> 		<path class="st1" d="M372.4,306.5c-7.1,4.1-15.5,8.3-25.3,12c-13,4.9-25.4,7.2-34.4,8.6c-1,1.9-0.4,2.9-0.4,4.8 			c0,20,16.2,35.1,36.1,35.1c20,0,36.1-16.2,36.1-36.1C384.6,320.1,379.8,311.3,372.4,306.5z"/> 		<path class="st1" d="M205.7,328c0,0-22.3,1.3-50.8-9.5c-31.7-12-49.8-29.6-49.8-29.6"/> 		<path class="st1" d="M129.6,306.5c7.1,4.1,15.5,8.3,25.3,12c13,4.9,25.4,7.2,34.4,8.6c1,1.9,0.4,2.9,0.4,4.8 			c0,20-16.2,35.1-36.1,35.1c-20,0-36.1-16.2-36.1-36.1C117.4,320.1,122.2,311.3,129.6,306.5z"/> 	</g> </symbol><symbol id="frame36"> 	<circle class="st1" cx="250" cy="250" r="243"/> 	<g> 		<path class="st1" d="M237,433.2c-31.2,0-56.2,10.7-52.8,20.1c3,8.3,7.7,1.1,52.8,1.1s49.8,7.3,52.8-1.1 			C293.2,443.9,268.2,433.2,237,433.2z"/> 		<path class="st1" d="M282.3,328c0,0,22.3,1.3,50.8-9.5c31.7-12,49.8-29.6,49.8-29.6"/> 		<path class="st1" d="M358.4,306.5c-7.1,4.1-15.5,8.3-25.3,12c-13,4.9-25.4,7.2-34.4,8.6c-1,1.9-0.4,2.9-0.4,4.8 			c0,20,16.2,35.1,36.1,35.1c20,0,36.1-16.2,36.1-36.1C370.6,320.1,365.8,311.3,358.4,306.5z"/> 		<path class="st1" d="M191.7,328c0,0-22.3,1.3-50.8-9.5c-31.7-12-49.8-29.6-49.8-29.6"/> 		<path class="st1" d="M115.6,306.5c7.1,4.1,15.5,8.3,25.3,12c13,4.9,25.4,7.2,34.4,8.6c1,1.9,0.4,2.9,0.4,4.8 			c0,20-16.2,35.1-36.1,35.1c-20,0-36.1-16.2-36.1-36.1C103.4,320.1,108.2,311.3,115.6,306.5z"/> 	</g> </symbol><symbol id="frame37"> 	<circle class="st1" cx="250" cy="250" r="243"/> 	<g> 		<path class="st1" d="M250,433.2c-31.2,0-56.2,10.7-52.8,20.1c3,8.3,7.7,1.1,52.8,1.1s49.8,7.3,52.8-1.1 			C306.2,443.9,281.2,433.2,250,433.2z"/> 		<path class="st1" d="M295.3,328c0,0,22.3,1.3,50.8-9.5c31.7-12,49.8-29.6,49.8-29.6"/> 		<path class="st1" d="M371.4,306.5c-7.1,4.1-15.5,8.3-25.3,12c-13,4.9-25.4,7.2-34.4,8.6c-1,1.9-0.4,2.9-0.4,4.8 			c0,20,16.2,35.1,36.1,35.1c20,0,36.1-16.2,36.1-36.1C383.6,320.1,378.8,311.3,371.4,306.5z"/> 		<path class="st1" d="M204.7,328c0,0-22.3,1.3-50.8-9.5c-31.7-12-49.8-29.6-49.8-29.6"/> 		<path class="st1" d="M128.6,306.5c7.1,4.1,15.5,8.3,25.3,12c13,4.9,25.4,7.2,34.4,8.6c1,1.9,0.4,2.9,0.4,4.8 			c0,20-16.2,35.1-36.1,35.1c-20,0-36.1-16.2-36.1-36.1C116.4,320.1,121.2,311.3,128.6,306.5z"/> 	</g> </symbol><symbol id="frame38"> 	<circle class="st1" cx="250" cy="250" r="243"/> 	<g> 		<path class="st1" d="M264,433.2c-31.2,0-56.2,10.7-52.8,20.1c3,8.3,7.7,1.1,52.8,1.1s49.8,7.3,52.8-1.1 			C320.2,443.9,295.2,433.2,264,433.2z"/> 		<path class="st1" d="M309.3,328c0,0,22.3,1.3,50.8-9.5c31.7-12,49.8-29.6,49.8-29.6"/> 		<path class="st1" d="M385.4,306.5c-7.1,4.1-15.5,8.3-25.3,12c-13,4.9-25.4,7.2-34.4,8.6c-1,1.9-0.4,2.9-0.4,4.8 			c0,20,16.2,35.1,36.1,35.1c20,0,36.1-16.2,36.1-36.1C397.6,320.1,392.8,311.3,385.4,306.5z"/> 		<path class="st1" d="M218.7,328c0,0-22.3,1.3-50.8-9.5c-31.7-12-49.8-29.6-49.8-29.6"/> 		<path class="st1" d="M142.6,306.5c7.1,4.1,15.5,8.3,25.3,12c13,4.9,25.4,7.2,34.4,8.6c1,1.9,0.4,2.9,0.4,4.8 			c0,20-16.2,35.1-36.1,35.1c-20,0-36.1-16.2-36.1-36.1C130.4,320.1,135.2,311.3,142.6,306.5z"/> 	</g> </symbol><symbol id="frame39"> 	<circle class="st1" cx="250" cy="250" r="243"/> 	<g> 		<path class="st1" d="M250,433.2c-31.2,0-56.2,10.7-52.8,20.1c3,8.3,7.7,1.1,52.8,1.1s49.8,7.3,52.8-1.1 			C306.2,443.9,281.2,433.2,250,433.2z"/> 		<path class="st1" d="M295.3,328c0,0,22.3,1.3,50.8-9.5c31.7-12,49.8-29.6,49.8-29.6"/> 		<path class="st1" d="M371.4,306.5c-7.1,4.1-15.5,8.3-25.3,12c-13,4.9-25.4,7.2-34.4,8.6c-1,1.9-0.4,2.9-0.4,4.8 			c0,20,16.2,35.1,36.1,35.1c20,0,36.1-16.2,36.1-36.1C383.6,320.1,378.8,311.3,371.4,306.5z"/> 		<path class="st1" d="M204.7,328c0,0-22.3,1.3-50.8-9.5c-31.7-12-49.8-29.6-49.8-29.6"/> 		<path class="st1" d="M128.6,306.5c7.1,4.1,15.5,8.3,25.3,12c13,4.9,25.4,7.2,34.4,8.6c1,1.9,0.4,2.9,0.4,4.8 			c0,20-16.2,35.1-36.1,35.1c-20,0-36.1-16.2-36.1-36.1C116.4,320.1,121.2,311.3,128.6,306.5z"/> 	</g> </symbol><symbol id="frame40"> 	<circle class="st1" cx="250" cy="250" r="243"/> 	<g> 		<path class="st1" d="M237,433.2c-31.2,0-56.2,10.7-52.8,20.1c3,8.3,7.7,1.1,52.8,1.1s49.8,7.3,52.8-1.1 			C293.2,443.9,268.2,433.2,237,433.2z"/> 		<path class="st1" d="M282.3,328c0,0,22.3,1.3,50.8-9.5c31.7-12,49.8-29.6,49.8-29.6"/> 		<path class="st1" d="M358.4,306.5c-7.1,4.1-15.5,8.3-25.3,12c-13,4.9-25.4,7.2-34.4,8.6c-1,1.9-0.4,2.9-0.4,4.8 			c0,20,16.2,35.1,36.1,35.1c20,0,36.1-16.2,36.1-36.1C370.6,320.1,365.8,311.3,358.4,306.5z"/> 		<path class="st1" d="M191.7,328c0,0-22.3,1.3-50.8-9.5c-31.7-12-49.8-29.6-49.8-29.6"/> 		<path class="st1" d="M115.6,306.5c7.1,4.1,15.5,8.3,25.3,12c13,4.9,25.4,7.2,34.4,8.6c1,1.9,0.4,2.9,0.4,4.8 			c0,20-16.2,35.1-36.1,35.1c-20,0-36.1-16.2-36.1-36.1C103.4,320.1,108.2,311.3,115.6,306.5z"/> 	</g> </symbol><symbol id="frame41"> 	<circle class="st1" cx="250" cy="250" r="243"/> 	<g> 		<path class="st1" d="M250,433.2c-31.2,0-56.2,10.7-52.8,20.1c3,8.3,7.7,1.1,52.8,1.1s49.8,7.3,52.8-1.1 			C306.2,443.9,281.2,433.2,250,433.2z"/> 		<path class="st1" d="M295.3,328c0,0,22.3,1.3,50.8-9.5c31.7-12,49.8-29.6,49.8-29.6"/> 		<path class="st1" d="M371.4,306.5c-7.1,4.1-15.5,8.3-25.3,12c-13,4.9-25.4,7.2-34.4,8.6c-1,1.9-0.4,2.9-0.4,4.8 			c0,20,16.2,35.1,36.1,35.1c20,0,36.1-16.2,36.1-36.1C383.6,320.1,378.8,311.3,371.4,306.5z"/> 		<path class="st1" d="M204.7,328c0,0-22.3,1.3-50.8-9.5c-31.7-12-49.8-29.6-49.8-29.6"/> 		<path class="st1" d="M128.6,306.5c7.1,4.1,15.5,8.3,25.3,12c13,4.9,25.4,7.2,34.4,8.6c1,1.9,0.4,2.9,0.4,4.8 			c0,20-16.2,35.1-36.1,35.1c-20,0-36.1-16.2-36.1-36.1C116.4,320.1,121.2,311.3,128.6,306.5z"/> 	</g> </symbol><symbol id="frame42"> 	<circle class="st1" cx="250" cy="250" r="243"/> 	<g> 		<path class="st1" d="M264,433.2c-31.2,0-56.2,10.7-52.8,20.1c3,8.3,7.7,1.1,52.8,1.1s49.8,7.3,52.8-1.1 			C320.2,443.9,295.2,433.2,264,433.2z"/> 		<path class="st1" d="M309.3,328c0,0,22.3,1.3,50.8-9.5c31.7-12,49.8-29.6,49.8-29.6"/> 		<path class="st1" d="M385.4,306.5c-7.1,4.1-15.5,8.3-25.3,12c-13,4.9-25.4,7.2-34.4,8.6c-1,1.9-0.4,2.9-0.4,4.8 			c0,20,16.2,35.1,36.1,35.1c20,0,36.1-16.2,36.1-36.1C397.6,320.1,392.8,311.3,385.4,306.5z"/> 		<path class="st1" d="M218.7,328c0,0-22.3,1.3-50.8-9.5c-31.7-12-49.8-29.6-49.8-29.6"/> 		<path class="st1" d="M142.6,306.5c7.1,4.1,15.5,8.3,25.3,12c13,4.9,25.4,7.2,34.4,8.6c1,1.9,0.4,2.9,0.4,4.8 			c0,20-16.2,35.1-36.1,35.1c-20,0-36.1-16.2-36.1-36.1C130.4,320.1,135.2,311.3,142.6,306.5z"/> 	</g> </symbol><symbol id="frame43"> 	<circle class="st1" cx="250" cy="250" r="243"/> 	<g> 		<path class="st1" d="M258,433.2c-31.2,0-56.2,10.7-52.8,20.1c3,8.3,7.7,1.1,52.8,1.1s49.8,7.3,52.8-1.1 			C314.2,443.9,289.2,433.2,258,433.2z"/> 		<path class="st1" d="M303.3,328c0,0,22.3,1.3,50.8-9.5c31.7-12,49.8-29.6,49.8-29.6"/> 		<path class="st1" d="M379.4,306.5c-7.1,4.1-15.5,8.3-25.3,12c-13,4.9-25.4,7.2-34.4,8.6c-1,1.9-0.4,2.9-0.4,4.8 			c0,20,16.2,35.1,36.1,35.1c20,0,36.1-16.2,36.1-36.1C391.6,320.1,386.8,311.3,379.4,306.5z"/> 		<path class="st1" d="M212.7,328c0,0-22.3,1.3-50.8-9.5c-31.7-12-49.8-29.6-49.8-29.6"/> 		<path class="st1" d="M136.6,306.5c7.1,4.1,15.5,8.3,25.3,12c13,4.9,25.4,7.2,34.4,8.6c1,1.9,0.4,2.9,0.4,4.8 			c0,20-16.2,35.1-36.1,35.1c-20,0-36.1-16.2-36.1-36.1C124.4,320.1,129.2,311.3,136.6,306.5z"/> 	</g> </symbol><symbol id="frame44"> 	<circle class="st1" cx="250" cy="250" r="243"/> 	<g> 		<path class="st1" d="M251,433.2c-31.2,0-56.2,10.7-52.8,20.1c3,8.3,7.7,1.1,52.8,1.1s49.8,7.3,52.8-1.1 			C307.2,443.9,282.2,433.2,251,433.2z"/> 		<path class="st1" d="M296.3,328c0,0,22.3,1.3,50.8-9.5c31.7-12,49.8-29.6,49.8-29.6"/> 		<path class="st1" d="M372.4,306.5c-7.1,4.1-15.5,8.3-25.3,12c-13,4.9-25.4,7.2-34.4,8.6c-1,1.9-0.4,2.9-0.4,4.8 			c0,20,16.2,35.1,36.1,35.1c20,0,36.1-16.2,36.1-36.1C384.6,320.1,379.8,311.3,372.4,306.5z"/> 		<path class="st1" d="M205.7,328c0,0-22.3,1.3-50.8-9.5c-31.7-12-49.8-29.6-49.8-29.6"/> 		<path class="st1" d="M129.6,306.5c7.1,4.1,15.5,8.3,25.3,12c13,4.9,25.4,7.2,34.4,8.6c1,1.9,0.4,2.9,0.4,4.8 			c0,20-16.2,35.1-36.1,35.1c-20,0-36.1-16.2-36.1-36.1C117.4,320.1,122.2,311.3,129.6,306.5z"/> 	</g> </symbol><symbol id="frame45"> 	<circle class="st1" cx="250" cy="250" r="243"/> 	<g> 		<path class="st1" d="M251,433.2c-31.2,0-56.2,10.7-52.8,20.1c3,8.3,7.7,1.1,52.8,1.1s49.8,7.3,52.8-1.1 			C307.2,443.9,282.2,433.2,251,433.2z"/> 		<path class="st1" d="M296.3,328c0,0,22.3,1.3,50.8-9.5c31.7-12,49.8-29.6,49.8-29.6"/> 		<path class="st1" d="M372.4,306.5c-7.1,4.1-15.5,8.3-25.3,12c-13,4.9-25.4,7.2-34.4,8.6c-1,1.9-0.4,2.9-0.4,4.8 			c0,20,16.2,35.1,36.1,35.1c20,0,36.1-16.2,36.1-36.1C384.6,320.1,379.8,311.3,372.4,306.5z"/> 		<path class="st1" d="M205.7,328c0,0-22.3,1.3-50.8-9.5c-31.7-12-49.8-29.6-49.8-29.6"/> 		<path class="st1" d="M129.6,306.5c7.1,4.1,15.5,8.3,25.3,12c13,4.9,25.4,7.2,34.4,8.6c1,1.9,0.4,2.9,0.4,4.8 			c0,20-16.2,35.1-36.1,35.1c-20,0-36.1-16.2-36.1-36.1C117.4,320.1,122.2,311.3,129.6,306.5z"/> 	</g> </symbol><symbol id="frame46"> 	<circle class="st1" cx="250" cy="250" r="243"/> 	<g> 		<path class="st1" d="M251,433.2c-31.2,0-56.2,10.7-52.8,20.1c3,8.3,7.7,1.1,52.8,1.1s49.8,7.3,52.8-1.1 			C307.2,443.9,282.2,433.2,251,433.2z"/> 		<path class="st1" d="M296.3,328c0,0,22.3,1.3,50.8-9.5c31.7-12,49.8-29.6,49.8-29.6"/> 		<path class="st1" d="M372.4,306.5c-7.1,4.1-15.5,8.3-25.3,12c-13,4.9-25.4,7.2-34.4,8.6c-1,1.9-0.4,2.9-0.4,4.8 			c0,20,16.2,35.1,36.1,35.1c20,0,36.1-16.2,36.1-36.1C384.6,320.1,379.8,311.3,372.4,306.5z"/> 		<path class="st1" d="M205.7,328c0,0-22.3,1.3-50.8-9.5c-31.7-12-49.8-29.6-49.8-29.6"/> 		<path class="st1" d="M129.6,306.5c7.1,4.1,15.5,8.3,25.3,12c13,4.9,25.4,7.2,34.4,8.6c1,1.9,0.4,2.9,0.4,4.8 			c0,20-16.2,35.1-36.1,35.1c-20,0-36.1-16.2-36.1-36.1C117.4,320.1,122.2,311.3,129.6,306.5z"/> 	</g> </symbol><symbol id="frame47"> 	<circle class="st1" cx="250" cy="250" r="243"/> 	<g> 		<path class="st1" d="M251,433.2c-31.2,0-56.2,10.7-52.8,20.1c3,8.3,7.7,1.1,52.8,1.1s49.8,7.3,52.8-1.1 			C307.2,443.9,282.2,433.2,251,433.2z"/> 		<path class="st1" d="M296.3,328c0,0,22.3,1.3,50.8-9.5c31.7-12,49.8-29.6,49.8-29.6"/> 		<path class="st1" d="M372.4,306.5c-7.1,4.1-15.5,8.3-25.3,12c-13,4.9-25.4,7.2-34.4,8.6c-1,1.9-0.4,2.9-0.4,4.8 			c0,20,16.2,35.1,36.1,35.1c20,0,36.1-16.2,36.1-36.1C384.6,320.1,379.8,311.3,372.4,306.5z"/> 		<path class="st1" d="M205.7,328c0,0-22.3,1.3-50.8-9.5c-31.7-12-49.8-29.6-49.8-29.6"/> 		<path class="st1" d="M129.6,306.5c7.1,4.1,15.5,8.3,25.3,12c13,4.9,25.4,7.2,34.4,8.6c1,1.9,0.4,2.9,0.4,4.8 			c0,20-16.2,35.1-36.1,35.1c-20,0-36.1-16.2-36.1-36.1C117.4,320.1,122.2,311.3,129.6,306.5z"/> 	</g> </symbol>
</g>
<g class="animation__scene">
	<use xmlns:xlink="http://www.w3.org/1999/xlink" xlink:href="#frame01"/>
</g><script type="application/javascript">
	<![CDATA[

	(function(exportType) {
	  var SVGlib = {
	    utils: {
	      loadDoc: function(url, callback) {
	        var xhttp = new XMLHttpRequest();
	          xhttp.onreadystatechange = function() {
	            if (xhttp.readyState == 4 && xhttp.status == 200) {
	              callback.call(null, xhttp);
	            }
	          };
	          xhttp.open("GET", url, true);
	          xhttp.send();
	      },
	      ready: function(fn) {
	        if (document.readyState != 'loading'){
	          fn();
	        } else {
	          document.addEventListener('DOMContentLoaded', fn);
	        }
	      }
	    },
	    animationConfig: {
	      interval: null,
	      looped: true,
	      scene: null,
	      frameTime: 77,
	      delay: 0,
	      onOver: false,
	      reverse: false,
	      direction: 'forward'
	    },
	    currentFrame: 1,
	    animationStarted: false,
	    step: 1,
	    startFrame: 1,
	    endFrame: 13,
	    firstOut: false,
	    reversed: false,

	    format: function(num) {
	      if(num < 10) {
	        return '0' + num;
	      }
	      return num.toString();
	    },

	    encodeForInsertion: function(string) {
	      return "data:image/svg+xml," + encodeURIComponent(string);
	    },

	    nextFrame: function () {
	      if(this.currentFrame === this.endFrame) {

	        if(!this.animationConfig.looped) this.stopAnimation();

	        this.currentFrame = this.startFrame;
	      }

	      this.animationConfig.scene.setAttribute('xlink:href', '#frame' + this.format(this.currentFrame));
	      this.currentFrame += this.step;

	      if(this.animationConfig.image) {
	        this.animationConfig.image.setAttribute('src', this.encodeForInsertion(this.animationConfig.root.outerHTML));
	      }
	    },

	    startAnimation: function(ev) {
	      var self = this;
	      setTimeout(function() {
	        self.animationStarted = true;
	        self.interval = setInterval(function() {
	          self.nextFrame();
	        },self.animationConfig.frameTime);
	      }, this.animationConfig.delay);
	    },

	    stopAnimation: function(ev) {
	      clearInterval(this.interval);
	      this.animationStarted = false;
	      if(this.reversed) this.reverseAnimation();

	    },

	    isInside: function(mouseEvent, clientRect) {
	      return (
	        (mouseEvent.clientX >= clientRect.left) && (mouseEvent.clientX <= clientRect.right)
	        &&
	        (mouseEvent.clientY >= clientRect.top) && (mouseEvent.clientY <= clientRect.bottom)
	      );
	    },

	    reverseAnimation: function() {
	        this.startFrame = this.startFrame === 1 ? this.endFrame : 1;
	        this.endFrame = this.endFrame !== 1 ? 1 : this.animationConfig.frameCount;
	        this.step = this.step === -1 ? 1 : -1;
	        if(!this.animationStarted) {
	            this.currentFrame = this.startFrame;
	        }
	        this.reversed = !this.reversed;
	    },

	    handleMouseMove: function(ev, isInside) {

	      var self = this;

	      if(typeof isInside === 'undefined') isInside = self.isInside(ev, self.animationConfig.scene.getBoundingClientRect());

	      if(isInside && !self.animationStarted && !self.firstOut) {
	        self.startAnimation();
	        self.firstOut = true;
	      } else if(!isInside && self.animationStarted && self.animationConfig.reverse && self.firstOut) {
	        self.reverseAnimation();
	      } else if(!isInside && self.animationStarted && self.firstOut) {
	        self.stopAnimation();
	      }

	      if(!isInside && self.firstOut) {
	        self.firstOut = false;
	      }
	    },

	    init: function(config) {
	      for(var setting in config){
	        if(config.hasOwnProperty(setting)) {
	          this.animationConfig[setting] = config[setting]
	        }
	      }

	      if(config.frameCount) this.endFrame = config.frameCount;

	      if(this.animationConfig.direction !== 'forward') {
	        this.reverseAnimation();
			this.reversed = false;
	      }

	      var self = this;

	      if(this.animationConfig.onOver && this.animationConfig.image) {
	        this.animationConfig.image.addEventListener('mouseenter', function(ev){
	          self.handleMouseMove(ev, true);
	        });

	        this.animationConfig.image.addEventListener('mouseleave', function(ev){
	          self.handleMouseMove(ev, false);
	        });

	      } else if (this.animationConfig.onOver) {
	        window.addEventListener('mousemove', function(ev){
	          self.handleMouseMove(ev);
	        });
	      } else {
	        self.startAnimation();
	      }
	    },

	    initEmbedded: function() {
	      var elem = document.querySelector('.animation');
	          this.init({
	            scene: elem.querySelector('.animation__scene use'),
	            delay: parseInt(elem.getAttribute('data-delay'), 10),
	            frameTime: parseInt(elem.getAttribute('data-frame'), 10),
	            looped: (elem.getAttribute('data-looped') === 'true'),
	            onOver: (elem.getAttribute('data-onover') === 'true'),
	            reverse: (elem.getAttribute('data-reverse') === 'true'),
	            direction: elem.getAttribute('data-direction'),
	            frameCount: elem.querySelectorAll('symbol').length
	          });
	    },

	    initAsImg: function(xml) {
	      var i,
	          xmlDoc = xml.responseXML,
	          elem = xmlDoc.querySelector('.animation');

	      this.init({
	        root: elem,
	        scene: elem.querySelector('.animation__scene use'),
	        delay: parseInt(elem.getAttribute('data-delay'), 10),
	        frameTime: parseInt(elem.getAttribute('data-frame'), 10),
	        looped: (elem.getAttribute('data-looped') === 'true'),
	        onOver: (elem.getAttribute('data-onover') === 'true'),
	        reverse: (elem.getAttribute('data-reverse') === 'true'),
	        direction: elem.getAttribute('data-direction'),
	        image:  document.querySelector('#svg__holder'),
	        frameCount: elem.querySelectorAll('symbol').length
	      });
	    }
	  };

	  var utils = SVGlib.utils;

	  utils.ready(function(){
	    if(exportType === 'embedded') {
	      SVGlib.initEmbedded();
	    } else if(exportType === 'image') {
	      var image = document.querySelector('#svg__holder');
	      utils.loadDoc(image.getAttribute('src'), function(resp){
	        SVGlib.initAsImg(resp);
	      });
	    }
	  });
	})((window.state && window.state.exportType) || 'embedded');

]]>
</script>
</svg>