<?xml version="1.0" encoding="utf-8"?>
<svg version="1.1" id="graphics"
	class="animation"
	xmlns="http://www.w3.org/2000/svg"
	xmlns:xlink="http://www.w3.org/1999/xlink"
	x="0px" y="0px"
	data-frame="77"
	data-delay="0"
	data-looped="true"
	data-onover="false"
	data-reverse="false"
	data-direction="forward"
	viewBox="0 0 500 500"
	style="enable-background:new 0 0 500 500;"
	>
	<style> 	.st0{fill:#FFD56C;} 	.st1{fill:none;stroke:#000000;stroke-width:16;stroke-linecap:round;stroke-linejoin:round;stroke-miterlimit:10;} 	.st2{fill:#000205;} 	.st3{fill:#F35169;} 
</style>
<g class="animation__source">
<symbol id="frame01"> 	<circle class="st0" cx="250" cy="250" r="244"/> 	<path class="st1" d="M386.1,230.4c0,0-11.8-13.5-38.8-11.5s-37,18.4-37,18.4s9.9-40.8,48.4-45.5c35-4.2,55.8,17.3,55.8,17.3"/> 	<path class="st1" d="M115.3,230.6c0,0,11-13.8,38-11.8s38.2,18.2,38.2,18.2s-11.2-40-49.7-44.7c-35-4.2-56.3,17-56.3,17"/> 	<path class="st2" d="M99.8,295c-0.1,2.2-0.1,4.3-0.1,6.5c0,83.6,67.8,151.3,151.3,151.3s151.3-67.8,151.3-151.3 		c0-2.2-0.1-4.3-0.1-6.5H99.8z"/> 	<path class="st3" d="M370.2,394.8C370.2,394.8,370.2,394.8,370.2,394.8c-41.6-19.5-198.1-21.5-237.8,0.6 		C192.9,471.9,309.4,472.3,370.2,394.8z"/> </symbol><symbol id="frame02"> 	<circle class="st0" cx="250" cy="250" r="244"/> 	<path class="st1" d="M385.5,227.4c0,0-12.4-13.8-39.4-11.8s-35,18.5-35,18.5s8-41.5,46.5-46.2c35-4.2,57.8,17.8,57.8,17.8"/> 	<path class="st1" d="M115.7,228.2c0,0,11-12.8,38-10.8s36.2,17,36.2,17s-12.1-40.9-50.6-45.6c-35-4.2-55.4,19.6-55.4,19.6"/> 	<path class="st2" d="M99.8,295c-0.1,2.2-0.1,4.3-0.1,6.5c0,83.6,67.8,151.3,151.3,151.3c83.6,0,151.3-67.8,151.3-151.3 		c0-2.2-0.1-4.3-0.1-6.5H99.8z"/> 	<path class="st2" d="M99.8,295c-0.1,2.2-0.1,4.3-0.1,6.5c0,83.6,67.8,151.3,151.3,151.3c83.6,0,151.3-67.8,151.3-151.3 		c0-2.2-0.1-4.3-0.1-6.5H99.8z"/> 	<path class="st3" d="M130,392.4c27.6,36.7,71.5,60.4,121,60.4c49.4,0,93.3-23.7,120.9-60.3c-5.2-1.5-54.8-15.5-122.4-15.5 		C183.4,377,136.7,390.4,130,392.4z"/> </symbol><symbol id="frame03"> 	<circle class="st0" cx="250" cy="250" r="244"/> 	<path class="st1" d="M385.3,215.5c0,0-9.8-12.2-36.8-10.2s-37.2,14-37.2,14s9.4-36.8,47.8-42.4c30.5-4.5,54.5,15.8,54.5,15.8"/> 	<path class="st1" d="M115.4,221.3c0,0,10.7-14.2,37.7-12.2s36.5,14.6,36.5,14.6s-8.7-36.9-47.2-41.6c-35-4.2-56.7,17.7-56.7,17.7" 		/> 	<path class="st2" d="M99.7,286.8c-0.1,2.2-0.1,12.5,0,14.7c3.9,75.3,67.9,144.7,151.5,144.7c70.5,0,148.3-53.3,153.3-152.5 		c0.3-6.4-0.3-14.1-0.3-14.8L99.7,286.8z"/> 	<path class="st3" d="M251.2,446.2c44.7,0,92.3-21.5,122.5-62.4c-1.8-0.8-42.4-18.7-124.2-17.2c-69,1.2-112.2,21.8-115.2,23.2 		C161.8,423.4,203.3,446.2,251.2,446.2z"/> </symbol><symbol id="frame04"> 	<circle class="st0" cx="250" cy="250" r="244"/> 	<path class="st1" d="M387.3,197.2c0,0-11.2-13-38.2-11s-39,16-39,16s14-41,47.8-44.8c30.6-3.4,51,13.8,51,13.8"/> 	<path class="st1" d="M115,204.1c0,0,10.7-14.2,37.7-12.2s36.5,14.6,36.5,14.6s-8.7-36.9-47.2-41.6c-35-4.2-55.3,19.7-55.3,19.7"/> 	<path class="st2" d="M96.5,269.5c-0.1,2.2,1,14.8,1.1,17c3.9,75.3,73.8,151.6,157.1,145c89.8-7.2,148-59.1,153-158.2 		c0.3-6.4-0.2-14.8-0.2-15.5L96.5,269.5z"/> 	<path class="st3" d="M379.5,367c-4.8-2.1-48.5-20.3-132.3-17.2c-69.9,2.6-111.9,25-113.7,26c29,35.6,72.9,59.6,121.2,55.8 		C310,427.1,353.2,405.8,379.5,367z"/> </symbol><symbol id="frame05"> 	<circle class="st0" cx="250" cy="250" r="244"/> 	<path class="st1" d="M387.9,175.9c0,0-11.2-13-38.2-11s-39,16-39,16s14-41,47.8-44.8c30.6-3.4,51,13.8,51,13.8"/> 	<path class="st1" d="M111,186.3c0,0,13-17.7,40-15.7s38,16,38,16s-7.5-37.7-46-42.3c-35-4.2-51,14.7-51,14.7"/> 	<path class="st2" d="M93.9,251.5c-0.1,2.2,1,14.8,1.1,17c3.9,75.3,77.9,155.9,161.3,149.2c89.8-7.2,149.3-64.4,154.3-163.6 		c0.3-6.4-0.2-14.8-0.2-15.5c0,0-54.7-2.3-158,1C149,243,93.9,251.5,93.9,251.5z"/> 	<path class="st3" d="M133.5,360.5c40.3,46.5,83.2,59,126.5,57c60.1-2.8,91.8-31.2,118-67.5c0,0-39.7-25.2-128.7-22 		C177.9,330.6,133.5,360.5,133.5,360.5z"/> </symbol><symbol id="frame06"> 	<circle class="st0" cx="250" cy="250" r="244"/> 	<path class="st1" d="M391,165c0,0-15.2-16.5-42.2-14.5S310.7,167,310.7,167s9.8-37.8,43.6-44.2c30.3-5.8,51.4,11.9,51.4,11.9"/> 	<path class="st1" d="M111.5,170.2c0,0,13-17.7,40-15.7s38,16,38,16s-7.5-37.7-46-42.3c-35-4.2-51,14.7-51,14.7"/> 	<path class="st2" d="M88.5,235.8c-0.1,2.2,1.7,29.6,2,31.8c9.5,76.2,88.6,145.6,172,140c86.2-5.8,148.3-79.4,152-152.8 		c0.3-6.4-0.2-30-0.2-30.8c0,0-60.9-7.7-164.2-4.3C146.7,223,88.5,235.8,88.5,235.8z"/> 	<path class="st3" d="M129,350.3c30.3,35.3,85.7,59.7,129,57.7c60.1-2.8,97.5-32,123.8-68.2c0,0-41.8-30.8-130.8-27.5 		C179.5,314.9,129,350.3,129,350.3z"/> </symbol><symbol id="frame07"> 	<g> 		<circle class="st0" cx="250" cy="250" r="244"/> 		<path class="st1" d="M83.4,220.9c-2.3,22.9,2.3,67.9,32,110.1c27.4,39,77,75,147.9,73.5c94.9-2,148.1-90.2,154.8-154.8 			c1.2-12.9,1.4-33.6,1.3-34.3c0,0-69-15.7-172.3-12.3C143.7,206.3,83.4,220.9,83.4,220.9z"/> 		<g> 			<circle class="st0" cx="250" cy="250" r="244"/> 			<path class="st1" d="M108.2,160c0,0,13.4-16.6,40.5-16c27.9,0.6,42,14.5,42,14.5s-12.8-38-46-42.5c-29.5-4-48.8,12-48.8,12"/> 			<path class="st2" d="M83.4,220.9c-2.3,22.9,2.3,67.9,32,110.1c27.4,39,77,75,147.9,73.5c94.9-2,148.1-90.2,154.8-154.8 				c1.2-12.9,1.4-33.6,1.3-34.3c0,0-69-15.7-172.3-12.3C143.7,206.3,83.4,220.9,83.4,220.9z"/> 			<path class="st3" d="M124,343c41.3,46,87.7,61.5,131.1,61.5c70.2,0.2,104.8-34,131.1-70.3c0,0-49.4-37.2-138.4-34 				C176.2,302.9,124,343,124,343z"/> 		</g> 		<path class="st1" d="M390.5,154.4c0,0-14.8-16.1-41.8-14.1c-27,2-37.1,15.2-37.1,15.2s8.3-36.8,42.1-43.2 			c30.3-5.8,48.5,9.5,48.5,9.5"/> 	</g> </symbol><symbol id="frame08"> 	<g> 		<g> 			<circle class="st0" cx="250" cy="250" r="244"/> 			<path class="st1" d="M106.2,151.5c0,0,15.2-18.9,42.2-18.3c27.9,0.6,42.2,16.8,42.2,16.8s-12.6-39.1-45.8-43.6 				c-29.5-4-45.8,10.9-45.8,10.9"/> 			<path class="st1" d="M393.2,150.9c0,0-15.1-19.5-42.1-17.5c-27,2-40.8,16.5-40.8,16.5s8.1-36.9,41.9-43.4c30.3-5.8,50,9.5,50,9.5 				"/> 		</g> 		<path class="st2" d="M77.5,212.5c-0.4,30.8,8.4,82.6,35.5,119.7c30.4,41.5,79.5,76.2,150.2,72.3c86.8-4.8,142.5-76.2,160.4-156.4 			c3.1-25.1-0.1-39.3-0.2-40.1c0,0-71.9-19.8-175.2-16.5C144.9,194.8,77.5,212.5,77.5,212.5z"/> 		<path class="st3" d="M246.3,291.3c-83.3,6.6-128.4,46.3-128.9,46.7c30.6,38.8,78.3,70.2,145.8,66.5c51.5-2.8,92-29.1,120.2-66.8 			c0.1-0.1,0.1-0.2,0.2-0.2c0.6-0.8,1.2-1.6,1.8-2.5C385.4,334.9,338.4,284.1,246.3,291.3z"/> 	</g> </symbol><symbol id="frame09"> 	<g> 		<g> 			<circle class="st0" cx="250" cy="250" r="244"/> 			<path class="st1" d="M105.5,145.8c0,0,15.6-20.4,42.6-19.8c27.9,0.6,42.6,19.4,42.6,19.4s-9.6-38.9-42.6-44.9 				c-24.8-4.5-42.6,4.6-42.6,4.6"/> 		</g> 		<path class="st2" d="M71.5,204.5c-0.4,30.8,6.2,93.5,41.5,133.1c34.2,38.4,75.7,74.4,146.5,70.5c86.8-4.8,148.9-71.9,166.8-152.1 			c2.9-17.6,2.7-48.4,2.7-49.1c0,0-82.6-25.3-186-25.5C130,181.2,71.5,204.5,71.5,204.5z"/> 		<path class="st3" d="M113,337.6c44.7,54.2,82.6,70.1,137,70.8c62.5,0.8,112.8-34.2,139-70.5c0,0-56.3-59.8-148.5-52.5 			C156.8,292.1,113,337.6,113,337.6z"/> 		<path class="st1" d="M393.2,147.4c0,0-9.8-18.8-42.2-16.9c-27,1.5-40.6,15.9-40.6,15.9s8.3-36.8,42-43.3 			c30.3-5.8,45.7,6.8,45.7,6.8"/> 	</g> </symbol><symbol id="frame10"> 	<g> 		<g> 			<circle class="st0" cx="250" cy="250" r="244"/> 			<path class="st1" d="M105.5,139.4c0,0,15.6-20.4,42.6-19.8c27.9,0.6,42.6,19.4,42.6,19.4s-10.2-36.4-42.6-44.9 				c-21.6-5.6-39.8,7.5-39.8,7.5"/> 		</g> 		<path class="st2" d="M63.2,197.8c-0.4,30.8,0,87.1,42.2,142.8c31.1,41,79.4,74.4,150.2,70.5c86.8-4.8,155.9-73.6,173.8-153.8 			c1.2-12.9,3.8-49.5,3.8-50.2c0,0-83.9-35.1-187.3-35.3C132.9,171.4,63.2,197.8,63.2,197.8z"/> 		<path class="st1" d="M398.1,150c0,0-11.4-24.5-43.9-22.7c-27,1.5-43.9,19.1-43.9,19.1s7.4-38.5,41.1-45 			c30.3-5.8,43.9,6.7,43.9,6.7"/> 		<path class="st3" d="M390.7,338.4c-11.7-11.9-67.5-62.9-158.3-56.7c-75,5.2-120.8,46.6-129.5,55.2c0.9,1.2,1.7,2.4,2.6,3.6 			c31.1,41,79.4,74.4,150.2,70.5C310.6,408,358.4,379.3,390.7,338.4z"/> 	</g> </symbol><symbol id="frame11"> 	<g> 		<g> 			<circle class="st0" cx="250" cy="250" r="244"/> 			<path class="st1" d="M101.5,139.4c0,0,17.6-23.7,44.6-23C174,117,190.8,139,190.8,139s-6.5-39.4-39.2-46.9 				c-20.8-4.8-39.8,1.2-39.8,1.2"/> 			<path class="st1" d="M398.1,150c0,0-11.4-24.5-43.9-22.7c-27,1.5-43.9,19.1-43.9,19.1s7.4-38.5,41.1-45 				c30.3-5.8,43.9,6.7,43.9,6.7"/> 		</g> 		<path class="st2" d="M57.7,193.3c-0.4,30.8-2.6,93.4,39.7,149c31.1,41,84.9,81.5,155.7,77.7c127.3-7,172.4-114,180.3-161 			c3.6-21.8,5.6-53.4,5.6-53.4s-87.3-38.9-190.7-39.1C135.2,166.2,57.7,193.3,57.7,193.3z"/> 	</g> 	<path class="st3" d="M253,420c68.5-3.8,113.2-36.5,141.1-73.3c0.1-0.4,0.1-0.8,0.2-1.2c0,0-49.3-77.5-161.8-67 		c-92.3,8.6-135.2,63.8-135.2,63.8C128.4,383.3,182.2,423.9,253,420z"/> </symbol><symbol id="frame12"> 	<g> 		<g> 			<circle class="st0" cx="250" cy="250" r="244"/> 			<path class="st1" d="M101.5,139.4c0,0,17.6-23.7,44.6-23C174,117,190.8,139,190.8,139s-6.7-38.8-39.2-46.9 				c-20.5-5.1-39.8,1.2-39.8,1.2"/> 			<path class="st1" d="M398.1,150c0,0-11.4-24.5-43.9-22.7c-27,1.5-43.9,19.1-43.9,19.1s7.4-38.5,41.1-45 				c30.3-5.8,43.9,6.7,43.9,6.7"/> 		</g> 		<path class="st2" d="M53.2,190.5c-0.4,30.8-1.3,98.9,41,154.5c31.1,41,87.7,83.1,158.5,79.2C380,417.3,430.2,307,438,260 			c3.6-21.8,6-54,6-54s-102.9-44.4-206.3-44.7C124.7,161.1,53.2,190.5,53.2,190.5z"/> 		<path class="st3" d="M91.4,341.2c41.9,59.2,107.8,82.8,151.2,83.3c62.5,0.8,129.7-37.2,151.2-75.6c0,0-33.1-75.6-164.8-71.4 			C139,280.4,91.4,341.2,91.4,341.2z"/> 	</g> </symbol><symbol id="frame13"> 	<g> 		<g> 			<circle class="st0" cx="250" cy="250" r="244"/> 			<path class="st1" d="M103.8,136.9c0,0,14.6-23.6,41.7-23c27.9,0.6,47.6,22.6,47.6,22.6s-12.2-40.6-39.2-46.9 				c-21.1-4.9-39.8,1.2-39.8,1.2"/> 			<path class="st1" d="M400.2,150c0,0-13.7-26.9-46.2-25.1c-27,1.5-41.7,13.8-41.7,13.8s3.9-30.5,37.7-37 				c30.3-5.8,41.5,3.8,41.5,3.8"/> 		</g> 		<path class="st2" d="M49,189c-0.4,30.8,1.5,105.2,43.8,160.8c31.1,41,90.5,82,161.2,78.2c127.3-7,179.2-119,187-166 			c3.6-21.8,6-54,6-54s-106.3-49.4-209.7-49.7C124.3,158.1,49,189,49,189z"/> 	</g> 	<path class="st3" d="M229,277.5c-89.8,2.9-141.1,65.1-141.3,65.4c1.6,2.3,3.3,4.7,5,7c31.1,41,90.5,82,161.2,78.2 		c62.8-3.4,107.2-32.4,137.1-66.6c1.9-2.4,3.8-4.8,5.4-7.1C396.5,354.2,360.8,273.2,229,277.5z"/> </symbol><symbol id="frame14"> 	<g> 		<g> 			<circle class="st0" cx="250" cy="250" r="244"/> 		</g> 		<path class="st2" d="M52.1,203.4c-0.4,30.8-1.6,90.8,40.7,146.4c37.8,49.8,84.5,85.9,159.8,81.8c127.3-7,173.7-123.7,181.5-170.7 			c3.6-21.8,4.9-41.4,4.9-41.4s-94.8-40.9-198.2-41.2C127.8,178.1,52.1,203.4,52.1,203.4z"/> 		<path class="st1" d="M103.8,149.3c0,0,14.6-23.6,41.7-23c27.9,0.6,47.6,22.6,47.6,22.6s-6.4-40.2-39.2-46.9 			c-19.1-3.9-39.8,1.2-39.8,1.2"/> 		<path class="st1" d="M398.9,160c0,0-13.6-24.8-46.1-23c-27,1.5-41.7,15.5-41.7,15.5s4.3-32.7,37.7-41c22.2-5.5,41.5,3.8,41.5,3.8" 			/> 		<path class="st3" d="M225.7,303.3c-89.9,2.9-135.2,43.3-135.3,43.4c0.8,1.1,1.5,2.1,2.4,3.2c37.8,49.8,84.5,85.9,159.8,81.8 			c69.4-3.8,114.8-40.2,142.9-80.2C395.4,351.4,357.4,299,225.7,303.3z"/> 	</g> </symbol><symbol id="frame15"> 	<g> 		<g> 			<circle class="st0" cx="250" cy="250" r="244"/> 			<path class="st1" d="M101.5,157.9c0,0,15.9-19,43-18.4c27.9,0.6,48.5,18,48.5,18s-11.6-39.1-44.5-45.8 				c-19.1-3.9-35.1,1.9-35.1,1.9"/> 		</g> 		<path class="st2" d="M71,215c-0.4,30.8-0.7,71.5,29.5,122c23.8,39.8,81.6,84.3,159.7,75.6C376,399.6,406.7,304.1,413.5,263 			c3.6-21.8,4.9-41.4,4.9-41.4s-88.4-10-191.8-10.2C113.7,211.1,71,215,71,215z"/> 		<path class="st1" d="M398.9,169c0,0-13.7-25.2-46.2-23.3c-27,1.5-41.6,16.3-41.6,16.3s6.5-35.8,39.9-44.1 			c22.2-5.5,39.7,5.7,39.7,5.7"/> 		<path class="st3" d="M260.2,412.6c64-7.2,102-39.6,124.4-74.1c-10.3-1.7-50.5-7.2-149-8c-98.1-0.8-135,6.5-135,6.5 			c2.6,3.8,5.1,7.6,7.6,11.3C135.3,384.7,189.5,420.5,260.2,412.6z"/> 	</g> </symbol><symbol id="frame16"> 	<g> 		<g> 			<circle class="st0" cx="250" cy="250" r="244"/> 			<path class="st1" d="M101.5,157.9c0,0,15.9-19,43-18.4c27.9,0.6,46.5,18.4,46.5,18.4s-9.6-39.5-42.5-46.1 				c-19.1-3.9-36.5,4.7-36.5,4.7"/> 			<path class="st1" d="M398.9,165c0,0-13.7-24.3-46.2-22.5c-27,1.5-41.7,19.5-41.7,19.5s6.5-35.8,39.9-44.1 				c22.2-5.5,37.5,1.3,37.5,1.3"/> 		</g> 		<path class="st2" d="M75.7,216.5c-0.4,30.8-0.4,68.5,29.8,119c23.8,39.8,79.3,84.7,157.3,76c103.9-11.6,140.4-112,146.7-149.5 			c3.6-21.8,2.3-41.5,2.3-41.5s-80.9-3.7-184.3-4C114.5,216.2,75.7,216.5,75.7,216.5z"/> 	</g> 	<path class="st3" d="M262.8,411.5c50.5-5.7,85.1-32.3,108-62.5c2.9-4.1,5.8-8.2,8.7-12.4c0-0.1,0.1-0.1,0.1-0.2 		c-0.2-0.1-4.9-3.1-49-1.6c-31.2,1-63.9,6.6-85.6,6.1c-21.7-0.5-71.4-5.7-92.9-6.1c-38.5-0.7-46.6,0.6-46.6,0.6 		c4.6,6.9,9.6,13.8,14.9,20.5C148.8,389,198.1,418.7,262.8,411.5z"/> </symbol><symbol id="frame17"> 	<g> 		<g> 			<circle class="st0" cx="250" cy="250" r="244"/> 			<path class="st1" d="M101.5,148.1c0,0,15.9-19,43-18.4c27.9,0.6,46.5,18.4,46.5,18.4s-9.6-39.5-42.5-46.1 				c-19.1-3.9-36.5,4.7-36.5,4.7"/> 			<path class="st1" d="M398.9,149.2c0,0-13.7-24.3-46.2-22.5c-27,1.5-41.7,19.5-41.7,19.5s6.5-35.8,39.9-44.1 				c22.2-5.5,37.5,1.3,37.5,1.3"/> 		</g> 		<path class="st2" d="M67.8,208.5c-0.4,30.8,7.5,77.5,37.8,128c23.8,39.8,79.2,82.8,157.3,75c123.2-12.2,151.8-118.9,157.8-151 			c4.2-22.8,2.9-58.4,2.9-58.4s-65.2-15.5-177.9-10.5C132.8,196.7,67.8,208.5,67.8,208.5z"/> 	</g> 	<path class="st3" d="M398.6,322.8c-3.7-1.2-47.7-14.7-148.6-13.3c-105.1,1.5-145.9,23.8-146.3,24c0,0.1,0.1,0.1,0.1,0.2 		c1.4,2.2,2.9,4.5,4.2,6.9c25.1,38.6,79.3,78.4,154.8,70.9C337.5,404.1,377.4,361.9,398.6,322.8z"/> </symbol><symbol id="frame18"> 	<g> 		<g> 			<circle class="st0" cx="250" cy="250" r="244"/> 			<path class="st1" d="M101.5,148.1c0,0,16.9-21.7,43.9-21.1c27.9,0.6,43.9,15.6,43.9,15.6s-8.3-36.8-41.2-43.5 				c-19.1-3.9-36.5,4.7-36.5,4.7"/> 			<path class="st1" d="M394.4,134.7c0,0-13.7-18.1-46.2-16.2c-27,1.5-38.6,19.5-38.6,19.5s3.2-38.2,36.6-46.5 				c22.2-5.5,40,2.4,40,2.4"/> 		</g> 		<path class="st2" d="M60.3,207.3c-0.4,30.8,11,80.2,41.2,130.7c23.8,39.8,83.1,88.4,161.2,80.6c123.2-12.2,162-121.2,168.8-153.1 			c9.5-44.5,6.8-73,6.8-73c-36-11.1-93.9-29.7-203.2-22.5C122.2,177.4,60.3,207.3,60.3,207.3z"/> 		<path class="st3" d="M262,289c-105.4,1.5-155.9,55.9-156,56c26.2,38.2,83.1,81,156.7,73.6c75-7.5,118.8-50.8,143-90.8 			C392,316.8,347.5,287.8,262,289z"/> 	</g> </symbol><symbol id="frame19"> 	<g> 		<g> 			<circle class="st0" cx="250" cy="250" r="244"/> 			<path class="st1" d="M101.5,149.2c0,0,17.7-23.3,44.8-22.7c27.9,0.6,44.8,16.2,44.8,16.2s-9.6-39.5-42.5-46.1 				c-19.1-3.9-41,7.7-41,7.7"/> 		</g> 		<path class="st2" d="M55,210.5c-0.4,30.8,5.3,70.5,34,121.8c29.9,53.5,100.5,103.5,178.7,95.8C402.1,414.7,432,305.5,448.5,245 			c7.2-39.5,2.9-58.4,2.9-58.4s-88.8-34.6-201.4-29C153,162.5,55,210.5,55,210.5z"/> 		<path class="st1" d="M398.7,134.8c0,0-14.8-21.7-47.3-19.8c-27,1.5-42.2,20.7-42.2,20.7s5.8-37.5,39.2-45.8 			c22.2-5.5,37.5,1.3,37.5,1.3"/> 	</g> 	<path class="st3" d="M109.7,361.5c35.7,41,94.4,73,158,66.7c78-7.8,120.8-47.8,146.2-91.8c-4.8-7.1-47.4-65.9-145.9-61 		C142.2,281.6,110.7,358.8,109.7,361.5z"/> </symbol><symbol id="frame20"> 	<g> 		<g> 			<circle class="st0" cx="250" cy="250" r="244"/> 			<path class="st1" d="M100.4,160.3c0,0,17.7-23.3,44.8-22.7c27.9,0.6,44.8,16.2,44.8,16.2s-9.6-39.5-42.5-46.1 				c-19.1-3.9-41,7.7-41,7.7"/> 			<path class="st1" d="M400.8,145.5c0,0-17.5-20.8-50-19c-27,1.5-40.7,18.6-40.7,18.6s5.1-36.7,38.4-45c22.2-5.5,39.5,3.1,39.5,3.1 				"/> 		</g> 		<path class="st2" d="M55.1,219C54.7,249.9,60.3,281,89,332.3c29.9,53.5,100.5,103.5,178.7,95.8C402.1,414.7,436.4,296.9,442.3,261 			c4.2-25,2.9-58.4,2.9-58.4s-82.6-31.9-195.3-26.3C153,181.2,55.1,219,55.1,219z"/> 		<path class="st3" d="M109.7,361.5c31.1,38.8,84.2,68.6,153.3,67c66.8-1.5,127.2-45.4,150.1-90.3c0,0-46.9-45.4-151.7-40.2 			C133.4,304.4,109.7,361.5,109.7,361.5z"/> 	</g> </symbol><symbol id="frame21"> 	<g> 		<g> 			<circle class="st0" cx="250" cy="250" r="244"/> 			<path class="st1" d="M100.4,167.5c0,0,15.9-24.9,43-24.3c27.9,0.6,46.5,17.1,46.5,17.1s-8-37.3-40.9-44c-19.1-3.9-41,7.7-41,7.7" 				/> 			<path class="st1" d="M400.8,160.3c0,0-17.5-20.8-50-19c-27,1.5-40.7,18.6-40.7,18.6s5.1-36.7,38.4-45c22.2-5.5,39.5,3.1,39.5,3.1 				"/> 		</g> 		<path class="st2" d="M73.7,221.7c-0.4,30.8-2,60.6,26.7,112c29.9,53.5,87.3,93.7,165.4,85.9c88.9-8.8,144.1-91.6,153.5-162.6 			c2.9-22.2,0-41.5,0-41.5s-60.2-9.1-172.9-3.5C149.4,216.8,73.7,221.7,73.7,221.7z"/> 	</g> 	<path class="st3" d="M250,327.2c-98,0.7-143.3,16.7-143.4,16.8c31.3,48.3,86.2,82.9,159.2,75.7c49.9-5,89.2-33.2,115.7-69.6 		c3.8-5.8,7.4-11.3,10.8-16.5c0,0,0,0,0,0C392.2,333.4,348,326.4,250,327.2z"/> </symbol><symbol id="frame22"> 	<g> 		<g> 			<circle class="st0" cx="250" cy="250" r="244"/> 			<path class="st1" d="M101.5,157.9c0,0,15.9-19,43-18.4c27.9,0.6,46.5,18.4,46.5,18.4s-9.6-39.5-42.5-46.1 				c-19.1-3.9-36.5,4.7-36.5,4.7"/> 			<path class="st1" d="M398.9,165c0,0-13.7-24.3-46.2-22.5c-27,1.5-41.7,19.5-41.7,19.5s6.5-35.8,39.9-44.1 				c22.2-5.5,37.5,1.3,37.5,1.3"/> 		</g> 		<path class="st2" d="M75.7,216.5c-0.4,30.8-0.4,68.5,29.8,119c23.8,39.8,79.3,84.7,157.3,76c103.9-11.6,140.4-112,146.7-149.5 			c3.6-21.8,2.3-41.5,2.3-41.5s-80.9-3.7-184.3-4C114.5,216.2,75.7,216.5,75.7,216.5z"/> 		<path class="st3" d="M105.5,335.5c33.2,49.5,82.8,82.6,151.7,76c58.2-5.5,91.8-30.1,122.5-75.1c0,0-4-3.1-49-1.6 			c-31.2,1-60.3,6-85.6,6.1c-25.3,0.2-71.4-5.7-92.9-6.1C113.6,334.1,105.5,335.5,105.5,335.5z"/> 	</g> </symbol><symbol id="frame23"> 	<g> 		<g> 			<circle class="st0" cx="250" cy="250" r="244"/> 			<path class="st1" d="M102.8,147c0,0,18.3-18.8,45.3-18.2c27.9,0.6,42.8,19,42.8,19s-6.4-39.1-39.2-45.7c-19.1-3.9-40,3-40,3"/> 			<path class="st1" d="M398.9,154.3c0,0-13.7-24.3-46.2-22.5c-27,1.5-41.7,19.5-41.7,19.5s6.5-35.8,39.9-44.1 				c22.2-5.5,37.5,1.3,37.5,1.3"/> 		</g> 		<path class="st2" d="M67,203c-0.4,30.8,1.4,97.8,40.5,141.8c29.9,33.7,53.9,59.5,125.2,65.5C354.4,420.5,407.3,309.2,417.5,265 			c8-28,6.8-56,6.8-56s-69.3-14.5-187.8-14C123.5,195.5,67,203,67,203z"/> 	</g> 	<path class="st3" d="M386,333.9c-2.3-1.6-38.6-26.3-166.4-21.9c-97.9,3.3-120.8,16-123.6,17.8c3.4,5.2,7.1,10.3,11.4,15 		c29.9,33.7,53.9,59.5,125.2,65.5C308.3,416.6,357.3,376.1,386,333.9z"/> </symbol><symbol id="frame24"> 	<g> 		<g> 			<circle class="st0" cx="250" cy="250" r="244"/> 			<path class="st1" d="M102.8,136.2c0,0,18.3-18.8,45.3-18.2c27.9,0.6,42.8,19,42.8,19s-6.4-39.1-39.2-45.7c-19.1-3.9-40,3-40,3"/> 			<path class="st1" d="M398.9,149.2c0,0-13.7-24.3-46.2-22.5c-27,1.5-41.7,19.5-41.7,19.5s6.5-35.8,39.9-44.1 				c22.2-5.5,37.5,1.3,37.5,1.3"/> 		</g> 		<path class="st2" d="M57.7,195c-0.4,30.8,6.1,108.8,45.2,152.8c29.9,33.7,53.3,63.6,131.7,69.2c121.8,8.7,184-103.6,193.2-148 			c9.6-31.5,6.8-62.3,6.8-62.3s-74.9-36.8-193.5-36.3C128,170.8,57.7,195,57.7,195z"/> 		<path class="st3" d="M91.2,333c25.8,40.5,57.8,78.4,143.3,84c76.6,5,132.6-38.3,160-79.5c0,0-41.3-51.8-173.5-46.9 			C130,293.9,91.2,333,91.2,333z"/> 	</g> </symbol><symbol id="frame25"> 	<g> 		<g> 			<circle class="st0" cx="250" cy="250" r="244"/> 			<path class="st1" d="M102.8,136.2c0,0,18.3-18.8,45.3-18.2c27.9,0.6,42.8,19,42.8,19s-6.4-39.1-39.2-45.7c-19.1-3.9-40,3-40,3"/> 			<path class="st1" d="M398.9,149.2c0,0-13.7-24.3-46.2-22.5c-27,1.5-41.7,19.5-41.7,19.5s6.5-35.8,39.9-44.1 				c22.2-5.5,37.5,1.3,37.5,1.3"/> 		</g> 		<path class="st2" d="M49.5,190C49.1,220.8,55,308.9,94,352.9c29.9,33.7,60.7,71.5,139,77.1c121.8,8.7,191.5-100.1,204.9-158.9 			c6.8-29.8,8.8-65.2,8.8-65.2s-88.5-48.8-207-48.3C126.8,158,49.5,190,49.5,190z"/> 		<path class="st3" d="M88.6,344.8c14.2,25.7,58.8,79.6,144.4,85.2c76.6,5,136.1-35.3,163.5-76.5c0,0-38.2-80.6-170.3-75.7 			C135.2,281.2,88.6,344.8,88.6,344.8z"/> 	</g> </symbol><symbol id="frame26"> 	<g> 		<g> 			<circle class="st0" cx="250" cy="250" r="244"/> 			<path class="st1" d="M102.8,142.9c0,0,18.3-18.8,45.3-18.2c27.9,0.6,42.8,19,42.8,19s-6.4-39.1-39.2-45.7c-19.1-3.9-40,3-40,3"/> 		</g> 		<path class="st2" d="M51.4,200.4C51,231.2,55,308.9,94,352.9c16.4,26.7,60.7,71.5,139,77.1c121.8,8.7,187-98.5,200.3-157.3 			c6.8-29.7,7.9-54.2,7.9-54.2s-88.5-48.3-207-47.8C121.2,171.2,51.4,200.4,51.4,200.4z"/> 		<path class="st3" d="M88.2,345.5C106.5,374,147.5,424.4,233,430c76.6,5,135-37.1,162.3-78.3c0,0-34.8-62.6-167-57.7 			C137.3,297.3,88.2,345.5,88.2,345.5z"/> 		<path class="st1" d="M398.9,155.3c0,0-13.7-24.3-46.2-22.5c-27,1.5-41.7,19.5-41.7,19.5s6.5-35.8,39.9-44.1 			c22.2-5.5,42.3,5.3,42.3,5.3"/> 	</g> </symbol><symbol id="frame27"> 	<g> 		<g> 			<circle class="st0" cx="250" cy="250" r="244"/> 			<path class="st1" d="M102.8,155.8c0,0,18.3-18.8,45.3-18.2c27.9,0.6,42.8,19,42.8,19s-6.4-39.1-39.2-45.7c-19.1-3.9-40,3-40,3"/> 		</g> 		<path class="st2" d="M69,211.8c-0.4,30.8,14,98.4,28,124.1c14,25.7,32.3,48.9,67.2,66c17.6,8.6,41.1,15.7,79.8,17.9 			c61.2,3.5,109.1-34.6,137-77.2c16.4-25,30.4-61.5,34.2-77.8c4.7-20.5,5.8-42.2,5.8-42.2s-90.2-15.3-208.7-14.8 			C99.3,208.2,69,211.8,69,211.8z"/> 		<path class="st1" d="M398.5,165.8c0,0-16.3-22.4-48.8-20.6c-27,1.5-39.5,16.8-39.5,16.8c4-22,26.9-39.9,40.3-43.2 			c22.2-5.5,39.7,4.5,39.7,4.5"/> 		<path class="st3" d="M241,329.3c-108-0.3-142.5,8.8-142.5,8.8c0.1,0.4,0.2,0.7,0.4,1.1c13.8,24.3,32,46.3,65.3,62.6 			c17.6,8.6,41.1,15.7,79.8,17.9c53.7,3.1,97.1-25.8,125.7-61.6c4.9-7.3,9.2-14.2,13-20.3C382.8,337.8,348.9,329.7,241,329.3z"/> 	</g> </symbol><symbol id="frame28"> 	<g> 		<g> 			<circle class="st0" cx="250" cy="250" r="244"/> 			<path class="st1" d="M101.5,161.2c0,0,17.7-20.3,44.8-19.7c27.9,0.6,44.8,16.4,44.8,16.4s-11.9-37.2-44.8-43.9 				c-19.1-3.9-36.5,4.7-36.5,4.7"/> 		</g> 		<path class="st2" d="M75.7,216.5c-0.4,30.8-0.4,68.5,29.8,119c23.8,39.8,79.3,84.7,157.3,76c103.9-11.6,140.4-112,146.7-149.5 			c3.6-21.8,2.3-41.5,2.3-41.5s-80.9-3.7-184.3-4C114.5,216.2,75.7,216.5,75.7,216.5z"/> 		<path class="st1" d="M398.9,165c0,0-13.7-24.3-46.2-22.5c-27,1.5-41.7,19.5-41.7,19.5s6.5-35.8,39.9-44.1 			c22.2-5.5,37.5,1.3,37.5,1.3"/> 	</g> 	<path class="st3" d="M330.6,334.9c-31.2,1-63.8,6.5-85.6,6.1c-21.8-0.3-71.4-5.7-92.9-6.1c-25.9-0.5-40.1,0.2-46.6,0.7 		c23.8,39.8,79.3,84.7,157.3,75.9c49.6-5.6,83.9-31.4,106.8-60.9c3.3-4.5,6.6-9.2,9.9-14c0-0.1,0.1-0.1,0.1-0.2 		C379.5,336.3,374.8,333.4,330.6,334.9z"/> </symbol><symbol id="frame29"> 	<g> 		<g> 			<circle class="st0" cx="250" cy="250" r="244"/> 			<path class="st1" d="M102,156c0,0,14.9-22.1,42-21.5c27.9,0.6,45.8,14.8,45.8,14.8s-10.9-37.1-43.8-43.8 				c-19.1-3.9-36.5,4.7-36.5,4.7"/> 		</g> 		<path class="st2" d="M67.8,208.5c-0.4,30.8,7.5,77.5,37.8,128c23.8,39.8,79.2,82.8,157.3,75c123.2-12.2,152.4-118.8,157.8-151 			c3.6-21.8,2.9-58.4,2.9-58.4s-73.2-9.5-185.9-4.5C124.8,202.7,67.8,208.5,67.8,208.5z"/> 		<path class="st1" d="M398.9,149.2c0,0-12.8-22-45.3-20.2c-27,1.5-41.7,19.5-41.7,19.5s6.5-35.8,39.9-44.1 			c22.2-5.5,37.1,2.9,37.1,2.9"/> 	</g> 	<path class="st3" d="M249,318.3c-99.6,2.2-144.9,15-145.3,15.1c0.6,1,1.2,2,1.8,3c23.8,39.8,79.2,82.8,157.3,75 		c62.4-6.2,100.7-36.6,124-69.3c4.4-6.6,8.4-13.1,12-19.3c0,0,0,0,0-0.1C398.8,322.8,354.3,316.1,249,318.3z"/> </symbol><symbol id="frame30"> 	<g> 		<g> 			<circle class="st0" cx="250" cy="250" r="244"/> 			<path class="st1" d="M100.8,148.8c0,0,14.9-22.1,42-21.5c27.9,0.6,45.8,14.8,45.8,14.8s-10.9-37.1-43.8-43.8 				c-19.1-3.9-36.5,4.7-36.5,4.7"/> 			<path class="st1" d="M396.9,138.2c0,0-12.8-22-45.3-20.2c-27,1.5-41.3,19.7-41.3,19.7s5-37.9,38.3-46.2 				c22.2-5.5,38.7,2.3,38.7,2.3"/> 		</g> 		<path class="st2" d="M61.5,209c-0.4,30.8,8.5,79.3,38.7,129.8c11.7,19.6,32.7,42.8,60.7,58.2c28.9,15.8,65.3,23.4,105,19.5 			C389,404.2,427.6,282.8,435,251c8-34.5,4.9-58.4,4.9-58.4s-76.8-25.1-189.4-20.1C137.6,177.5,61.5,209,61.5,209z"/> 	</g> 	<path class="st3" d="M258.5,288.9c-100,2.2-151.7,58.3-151.7,58.3c3.4,5.1,7,10.1,10.8,15.1c11.4,12.7,26,25.2,43.2,34.6 		c28.9,15.8,65.3,23.4,105,19.5c69.4-6.9,111.9-48.5,137.2-89.1C400.5,324.8,360.5,286.7,258.5,288.9z"/> </symbol><symbol id="frame31"> 	<g> 		<g> 			<circle class="st0" cx="250" cy="250" r="244"/> 			<path class="st1" d="M398.5,134.4c0,0-17.6-18.6-44.6-18c-27.9,0.6-44.6,18-44.6,18s6.7-38.9,39.2-47c20.5-5.1,39.8,1.2,39.8,1.2 				"/> 			<path class="st1" d="M101.9,150c0,0,11.4-24.5,43.9-22.7c27,1.5,43.9,19.1,43.9,19.1s-7.4-38.5-41.1-45 				c-30.3-5.8-43.9,6.7-43.9,6.7"/> 		</g> 		<path class="st2" d="M451,189.1c0.4,30.8,0.3,103.2-41.9,158.9c-31.1,41-96.2,84.1-167,80.2C126.7,421.9,67.2,295.1,59.3,263.3 			c-7.8-31.7-6-54-6-54S159.6,158,263,157.8C376,157.5,451,189.1,451,189.1z"/> 	</g> 	<path class="st3" d="M416.8,336.9c-0.1-0.1-40.5-61.4-140.2-61.4c-119.7,0-165,80-165,80c2.7,3.7,5.7,7.6,9.1,11.6 		c29.6,31.6,69.9,58.3,121.3,61.1c61.2,3.3,118.1-28.4,152.5-63.5C402.4,355.8,409.9,346.5,416.8,336.9 		C416.8,336.9,416.8,336.9,416.8,336.9z"/> </symbol><symbol id="frame32"> 	<g> 		<g> 			<circle class="st0" cx="250" cy="250" r="244"/> 			<path class="st1" d="M398.2,137.5c0,0-15.4-20.7-42.5-20.1c-27.9,0.6-46.8,19.8-46.8,19.8s8.4-39.8,41.2-46.5 				c19.1-3.9,36.8,2.8,36.8,2.8"/> 			<path class="st1" d="M99.1,148.5c0,0,13.6-24.8,46.1-23c27,1.5,43.8,14.6,43.8,14.6s-6.4-31.8-39.8-40.1 				c-22.2-5.5-41.5,3.8-41.5,3.8"/> 		</g> 		<path class="st2" d="M445.7,191.8c0.4,30.8-3.7,95-38.3,145.7c-35.3,51.6-88.1,95.7-163.3,91.6c-127.3-7-173.8-120.7-181.7-167.6 			c-3.6-21.7-7-55.7-7-55.7s99.8-41.4,203.2-41.7C371.5,163.9,445.7,191.8,445.7,191.8z"/> 	</g> 	<path class="st3" d="M279.7,284.4c-131.8-3.5-173.5,70.8-173.5,70.8c5.6,7.7,12.7,16.3,20.9,25.1c27.8,26,65.9,45.9,116.9,48.7 		c57.8,3.2,102.3-22.1,135.8-57.4c8.9-10.2,18.1-21.6,27.5-34.3C407.3,337.4,380.3,287.1,279.7,284.4z"/> </symbol><symbol id="frame33"> 	<g> 		<g> 			<circle class="st0" cx="250" cy="250" r="244"/> 			<path class="st1" d="M400,143.5c0,0-15.4-20.7-42.5-20.1c-27.9,0.6-46.8,19.8-46.8,19.8s8.4-39.8,41.2-46.5 				c19.1-3.9,36.8,2.8,36.8,2.8"/> 		</g> 		<path class="st2" d="M421.7,199.8c-3.3,30-1.3,69.3-30,119.3c-18.8,32.7-42.9,56.9-74.7,71.5c-20.9,9.6-44.3,16.1-74.2,14.5 			c-54.5-3-112.7-35.7-140.1-79.2C69,272.3,72.5,206.1,72.5,206.1s73.1-15.3,176.5-15.5C362,190.4,421.7,199.8,421.7,199.8z"/> 		<path class="st1" d="M99.1,151.6c0,0,17.6-27.6,50.1-25.8c27,1.5,40.6,19.5,40.6,19.5s-7.2-37.1-40.5-45.4 			c-22.2-5.5-37.7,5.4-37.7,5.4"/> 	</g> 	<path class="st3" d="M389.7,322.4c-1.9-2.1-15.8-12.2-106-14.6c-120.2-3.2-169.2,20-176.9,24.1c28.8,40.5,84,70.4,136,73.2 		c29.9,1.6,53.3-4.9,74.2-14.5C347.6,376.5,371.2,353.4,389.7,322.4z"/> </symbol><symbol id="frame34"> 	<g> 		<g> 			<circle class="st0" cx="250" cy="250" r="244"/> 			<path class="st1" d="M102,151.6c0,0,15.9-19,43-18.4c27.9,0.6,46.5,18.4,46.5,18.4s-9.6-39.5-42.5-46.1 				c-19.1-3.9-36.5,4.7-36.5,4.7"/> 			<path class="st1" d="M397,155.1c0,0-13.7-24.3-46.2-22.5c-27,1.5-41.7,19.5-41.7,19.5s6.5-35.8,39.9-44.1 				c22.2-5.5,37.5,1.3,37.5,1.3"/> 		</g> 		<path class="st2" d="M76,209.4c-0.4,30.8-0.7,64.4,29.5,114.9c23.8,39.8,77.5,85,155.5,76.2c103.9-11.6,141-101.5,147.2-139 			c3.6-21.8,2.2-53.5,2.2-53.5s-78.1,0.7-181.5,0.5C116,208.4,76,209.4,76,209.4z"/> 		<path class="st3" d="M106,326.4c33.2,49.5,83.4,80.7,152.2,74.2c58.2-5.5,94.8-32.8,125.5-77.8c0,0-7.7,2.2-52.8,3.8 			c-31.2,1-63.9,6.6-85.6,6.1c-21.7-0.5-71.4-5.7-92.9-6.1C114,325.9,106,326.4,106,326.4z"/> 	</g> </symbol><symbol id="frame35"> 	<g> 		<g> 			<circle class="st0" cx="250" cy="250" r="244"/> 			<path class="st1" d="M100.5,165.6c0,0,18.7-23.4,45.8-22.8c27.9,0.6,42.8,16.8,42.8,16.8s-5.8-37.2-38.7-43.8 				c-19.1-3.9-38.3,4.6-38.3,4.6"/> 			<path class="st1" d="M398.9,165c0,0-13.7-24.3-46.2-22.5c-27,1.5-41.7,19.5-41.7,19.5s6.5-35.8,39.9-44.1c22.2-5.5,40.7,4,40.7,4 				"/> 		</g> 		<path class="st2" d="M75.7,216.5c-0.4,30.8,4.1,68.5,34.3,119c14.8,24.7,44.6,48.4,79.7,62.9c21.5,8.9,45.3,10.1,73.5,8.4 			c95.3-5.7,137.8-97.2,146.3-144.8c3.9-21.7,2.3-41.5,2.3-41.5s-80.9-3.7-184.3-4C114.5,216.2,75.7,216.5,75.7,216.5z"/> 	</g> 	<path class="st3" d="M189.7,398.4c21.5,8.9,45.3,10.1,73.5,8.4c53-3.2,89.7-32.9,113.3-66.8c0.8-1.6,1.6-3,2.6-4.4 		c0,0-3.4-2.2-48.4-0.7c-31.2,1-63.9,6.6-85.6,6.1c-21.7-0.5-71.4-5.7-92.9-6.1c-38.5-0.7-42.1,0.6-42.1,0.6 		c2.1,3.2,4.3,6.3,6.5,9.5C132.6,366.2,159.1,385.8,189.7,398.4z"/> </symbol><symbol id="frame36"> 	<g> 		<g> 			<circle class="st0" cx="250" cy="250" r="244"/> 			<path class="st1" d="M102.5,176.1c0,0,18.7-23.4,45.8-22.8c27.9,0.6,42.8,16.8,42.8,16.8s-11.4-37-44.2-43.7 				c-19.1-3.9-36.5,4.7-36.5,4.7"/> 			<path class="st1" d="M398.2,174.6c0,0-13.7-24.3-46.2-22.5c-27,1.5-41.7,19.5-41.7,19.5s6.5-35.8,39.9-44.1 				c22.2-5.5,41.6,4.1,41.6,4.1"/> 		</g> 		<path class="st2" d="M80.5,231.1c-0.4,30.8-0.7,53.9,29.5,104.4c14.8,24.7,42.7,55.2,77.8,69.7c21.5,8.9,48.6,10.6,76.8,8.9 			c95.3-5.7,134.8-94.9,143.3-142.5c3.9-21.7,2.5-42,2.5-42s-78.1-0.8-181.5-1C116,228.4,80.5,231.1,80.5,231.1z"/> 		<path class="st3" d="M378.8,344.6c-0.5-0.3-6.8-3-49.7-1.5c-31.2,1-63.9,6.6-85.6,6.1c-21.7-0.5-71.4-5.7-92.9-6.1 			c-26.7-0.5-33.4,0.6-34.9,1.3c15.7,22.7,41.1,48,72.1,60.8c21.5,8.9,48.6,10.6,76.8,8.9C319.8,410.8,356.2,379.6,378.8,344.6z"/> 	</g> </symbol><symbol id="frame37"> 	<g> 		<g> 			<circle class="st0" cx="250" cy="250" r="244"/> 			<path class="st1" d="M106.4,184.2c0,0,14.7-19.1,41.8-18.5c27.9,0.6,42.8,16.8,42.8,16.8s-11.4-37.7-44.2-44.3 				c-19.1-3.9-44.2,8-44.2,8"/> 			<path class="st1" d="M398.2,186.5c0,0-13.7-24.3-46.2-22.5c-27,1.5-41.7,19.5-41.7,19.5s7.2-33.6,39.9-44.1 				c30.4-9.7,47.9,6.6,47.9,6.6"/> 		</g> 		<path class="st2" d="M82.5,243.1c3.5,31.5,5.5,72,31.5,104c18.1,22.3,39.2,48,74.3,62.6c21.5,8.9,48.6,13.6,76.8,11.9 			c84.7-5.1,131.9-90.9,139.8-135c3.9-21.7,3-46,3-46s-73.6,0.2-177,0C118,240.4,82.5,243.1,82.5,243.1z"/> 	</g> 	<path class="st3" d="M327.5,350c-31.2,1-55.8,4.6-77.5,4.1c-21.7-0.5-64.3-3.6-85.8-4.1c-25.7-0.6-41,1.6-45.8,2.5 		c17.2,20.9,37.6,43.8,69.9,57.1c21.5,8.9,48.6,13.6,76.8,11.9c50.5-3,87.8-34.8,111.2-69.4C372.7,351.1,361.2,348.9,327.5,350z"/> </symbol><symbol id="frame38"> 	<g> 		<g> 			<circle class="st0" cx="250" cy="250" r="244"/> 			<path class="st1" d="M105.4,197.1c0,0,14.7-19.1,41.8-18.5c27.9,0.6,42.8,16.8,42.8,16.8s-11.4-37.7-44.2-44.3 				c-19.1-3.9-44.2,8-44.2,8"/> 			<path class="st1" d="M398.2,198.7c0,0-13.7-24.3-46.2-22.5c-27,1.5-41.7,19.5-41.7,19.5s7.2-33.6,39.9-44.1 				c30.4-9.7,47.9,6.6,47.9,6.6"/> 		</g> 		<path class="st2" d="M87.8,254.9c3.5,31.5,0,55.6,23.5,98.1c13.9,25.1,41.1,52.1,76.2,66.6c21.5,8.9,52.1,12.6,80.4,10.9 			c93.3-5.6,128.6-95.9,137.1-143.9c3.9-21.7,1-32.8,1-32.8L87.8,254.9z"/> 	</g> 	<path class="st3" d="M326,359.4c-31.2,1-55.8,4.6-77.5,4.1s-64.3-3.6-85.8-4.1c-31.6-0.8-43,5-43,5c-0.1,0.6-0.1,1.1-0.2,1.7 		c15.2,21,38.8,41.5,67.9,53.6c21.5,8.9,52.1,12.6,80.4,10.9c51-3.1,84.7-31.5,106.1-64.4c1-1.7,2-3.4,3.2-5.1c0,0,0,0,0,0 		C377.2,360.9,370.8,357.9,326,359.4z"/> </symbol><symbol id="frame39"> 	<g> 		<g> 			<circle class="st0" cx="250" cy="250" r="244"/> 			<path class="st1" d="M105,210.2c0,0,14.7-19.1,41.8-18.5c27.9,0.6,42.8,16.8,42.8,16.8s-11.4-37.7-44.2-44.3 				c-19.1-3.9-50.3,9.6-50.3,9.6"/> 			<path class="st1" d="M397.7,211.8c0,0-13.7-24.3-46.2-22.5c-27,1.5-41.7,19.5-41.7,19.5s7.2-33.6,39.9-44.1 				c30.4-9.7,57.2,10.9,57.2,10.9"/> 		</g> 		<path class="st2" d="M91.8,267.1c-1.8,21.7-0.1,63.6,28.2,103.2c16.8,23.5,34.9,41.4,70,56c12.6,5.2,27.1,9.6,43.2,11 			c11.4,1,24.1,0.1,35.8-0.6c57.5-3.4,96.3-41.9,116.3-80c12.7-24.2,18.3-48.4,19.3-64.7c1.2-20.2-0.7-25.7-0.7-25.7L91.8,267.1z"/> 	</g> 	<path class="st3" d="M250,367.9c-75.4,0.2-128.2,3.9-129,3.9c16.5,22.8,34.6,40.3,69,54.6c12.6,5.2,27.1,9.6,43.2,11 		c11.4,1,24.1,0.1,35.8-0.6c46.8-2.8,81.2-28.8,103.2-58.9c1.2-2.4,2.6-4.8,4.2-7.1C376.3,370.8,332.5,367.6,250,367.9z"/> </symbol><symbol id="frame40"> 	<circle class="st0" cx="250" cy="250" r="244"/> 	<path class="st1" d="M388.7,214.8c0,0-12.4-13.8-39.4-11.8s-39,17.1-39,17.1s10.4-40.2,48.9-44.9c35-4.2,55,16.7,55,16.7"/> 	<path class="st1" d="M113.2,215.4c0,0,12.3-14.3,39.3-12.3s37.8,18.7,37.8,18.7s-9.6-42.6-48.1-47.3c-35-4.2-55.4,19.6-55.4,19.6" 		/> 	<path class="st2" d="M96.1,276.9c-0.1,2.2,0,5.8-0.2,8c-6.4,86.5,65.2,160.2,149.4,160.2C338,445.1,404,368.4,404,284.9 		c0-2.2-0.1-4.3-0.1-6.5L96.1,276.9z"/> 	<path class="st3" d="M245.3,445.1c55.1,0,100.7-27.1,128.7-66.6c-11.6-1.2-60.5-5.7-122.7-5.7c-60.7,0-113.4,6.5-128,8.4 		C150.9,419.7,195.9,445.1,245.3,445.1z"/> </symbol><symbol id="frame41"> 	<circle class="st0" cx="250" cy="250" r="244"/> 	<path class="st1" d="M387.7,225.8c0,0-12.4-13.8-39.4-11.8s-39,17.1-39,17.1s10.4-40.2,48.9-44.9c35-4.2,55,16.7,55,16.7"/> 	<path class="st1" d="M114.3,226.1c0,0,12.3-14.3,39.3-12.3s37.7,18.7,37.7,18.7s-9.4-42.6-47.9-47.3c-35-4.2-55.4,19.6-55.4,19.6" 		/> 	<path class="st2" d="M96.9,287.4c-0.1,2.2-0.1,5.8-0.2,8c-1,92.7,74.8,155.5,150.4,155.5c92.7-0.1,154-71,154-154.6 		c0-2.2-0.1-4.3-0.1-6.5L96.9,287.4z"/> 	<path class="st3" d="M372.9,387.8c-4.7-0.8-55.5-9.4-123.7-9.4c-71.5,0-121.8,10.8-121.8,10.8c0.1,0.5,0.2,0.9,0.3,1.4 		c28.9,37.9,74.2,60.4,119.4,60.4C302.2,450.8,346.3,425.7,372.9,387.8z"/> </symbol><symbol id="frame42"> 	<circle class="st0" cx="250" cy="250" r="244"/> 	<path class="st1" d="M387.7,225.8c0,0-12.4-13.8-39.4-11.8s-39,17.1-39,17.1s10.4-40.2,48.9-44.9c35-4.2,55,16.7,55,16.7"/> 	<path class="st1" d="M114.3,226.1c0,0,12.3-14.3,39.3-12.3s37.7,18.7,37.7,18.7s-9.4-42.6-47.9-47.3c-35-4.2-55.4,19.6-55.4,19.6" 		/> 	<path class="st2" d="M96.9,287.4c-0.1,2.2-0.1,5.8-0.2,8c-1,90,70.7,157.5,154.2,157.5c92.7-0.1,150.1-73,150.1-156.6 		c0-2.2-0.1-4.3-0.1-6.5L96.9,287.4z"/> 	<path class="st3" d="M374.7,387.9c-4.5-0.8-57.1-9.6-125.4-9.6c-66.4,0-117,8.4-123.9,9.6c28.3,39.9,74.8,64.9,125.7,64.9 		C306.4,452.8,349.2,426.7,374.7,387.9z"/> </symbol><symbol id="frame43"> 	<circle class="st0" cx="250" cy="250" r="244"/> 	<path class="st1" d="M387.7,225.8c0,0-12.4-13.8-39.4-11.8s-39,17.1-39,17.1s10.4-40.2,48.9-44.9c35-4.2,55,16.7,55,16.7"/> 	<path class="st1" d="M114.3,226.1c0,0,12.3-14.3,39.3-12.3s37.7,18.7,37.7,18.7s-9.4-42.6-47.9-47.3c-35-4.2-55.4,19.6-55.4,19.6" 		/> 	<path class="st2" d="M96.9,287.4c-0.1,2.2-0.1,5.8-0.2,8c-1,90,70.7,157.5,154.2,157.5c92.7-0.1,150.1-73,150.1-156.6 		c0-2.2-0.1-4.3-0.1-6.5L96.9,287.4z"/> 	<path class="st3" d="M374.7,387.9c-4.5-0.8-57.1-9.6-125.4-9.6c-66.4,0-117,8.4-123.9,9.6c28.3,39.9,74.8,64.9,125.7,64.9 		C306.4,452.8,349.2,426.7,374.7,387.9z"/> </symbol><symbol id="frame44"> 	<circle class="st0" cx="250" cy="250" r="244"/> 	<path class="st1" d="M386.1,230.4c0,0-11.8-13.5-38.8-11.5s-37,18.4-37,18.4s9.9-40.8,48.4-45.5c35-4.2,55.8,17.3,55.8,17.3"/> 	<path class="st1" d="M115.3,230.6c0,0,11-13.8,38-11.8s38.2,18.2,38.2,18.2s-11.2-40-49.7-44.7c-35-4.2-56.3,17-56.3,17"/> 	<path class="st2" d="M99.8,295c-0.1,2.2-0.1,4.3-0.1,6.5c0,83.6,67.8,151.3,151.3,151.3s151.3-67.8,151.3-151.3 		c0-2.2-0.1-4.3-0.1-6.5H99.8z"/> 	<path class="st3" d="M132.3,395.4c27.7,35,70.6,57.4,118.7,57.4c48.4,0,91.5-22.7,119.2-58.1C328.6,375.3,172.1,373.3,132.3,395.4z 		"/> </symbol>
</g>
<g class="animation__scene">
	<use xmlns:xlink="http://www.w3.org/1999/xlink" xlink:href="#frame01"/>
</g><script type="application/javascript">
	<![CDATA[

	(function(exportType) {
	  var SVGlib = {
	    utils: {
	      loadDoc: function(url, callback) {
	        var xhttp = new XMLHttpRequest();
	          xhttp.onreadystatechange = function() {
	            if (xhttp.readyState == 4 && xhttp.status == 200) {
	              callback.call(null, xhttp);
	            }
	          };
	          xhttp.open("GET", url, true);
	          xhttp.send();
	      },
	      ready: function(fn) {
	        if (document.readyState != 'loading'){
	          fn();
	        } else {
	          document.addEventListener('DOMContentLoaded', fn);
	        }
	      }
	    },
	    animationConfig: {
	      interval: null,
	      looped: true,
	      scene: null,
	      frameTime: 77,
	      delay: 0,
	      onOver: false,
	      reverse: false,
	      direction: 'forward'
	    },
	    currentFrame: 1,
	    animationStarted: false,
	    step: 1,
	    startFrame: 1,
	    endFrame: 13,
	    firstOut: false,
	    reversed: false,

	    format: function(num) {
	      if(num < 10) {
	        return '0' + num;
	      }
	      return num.toString();
	    },

	    encodeForInsertion: function(string) {
	      return "data:image/svg+xml," + encodeURIComponent(string);
	    },

	    nextFrame: function () {
	      if(this.currentFrame === this.endFrame) {

	        if(!this.animationConfig.looped) this.stopAnimation();

	        this.currentFrame = this.startFrame;
	      }

	      this.animationConfig.scene.setAttribute('xlink:href', '#frame' + this.format(this.currentFrame));
	      this.currentFrame += this.step;

	      if(this.animationConfig.image) {
	        this.animationConfig.image.setAttribute('src', this.encodeForInsertion(this.animationConfig.root.outerHTML));
	      }
	    },

	    startAnimation: function(ev) {
	      var self = this;
	      setTimeout(function() {
	        self.animationStarted = true;
	        self.interval = setInterval(function() {
	          self.nextFrame();
	        },self.animationConfig.frameTime);
	      }, this.animationConfig.delay);
	    },

	    stopAnimation: function(ev) {
	      clearInterval(this.interval);
	      this.animationStarted = false;
	      if(this.reversed) this.reverseAnimation();

	    },

	    isInside: function(mouseEvent, clientRect) {
	      return (
	        (mouseEvent.clientX >= clientRect.left) && (mouseEvent.clientX <= clientRect.right)
	        &&
	        (mouseEvent.clientY >= clientRect.top) && (mouseEvent.clientY <= clientRect.bottom)
	      );
	    },

	    reverseAnimation: function() {
	        this.startFrame = this.startFrame === 1 ? this.endFrame : 1;
	        this.endFrame = this.endFrame !== 1 ? 1 : this.animationConfig.frameCount;
	        this.step = this.step === -1 ? 1 : -1;
	        if(!this.animationStarted) {
	            this.currentFrame = this.startFrame;
	        }
	        this.reversed = !this.reversed;
	    },

	    handleMouseMove: function(ev, isInside) {

	      var self = this;

	      if(typeof isInside === 'undefined') isInside = self.isInside(ev, self.animationConfig.scene.getBoundingClientRect());

	      if(isInside && !self.animationStarted && !self.firstOut) {
	        self.startAnimation();
	        self.firstOut = true;
	      } else if(!isInside && self.animationStarted && self.animationConfig.reverse && self.firstOut) {
	        self.reverseAnimation();
	      } else if(!isInside && self.animationStarted && self.firstOut) {
	        self.stopAnimation();
	      }

	      if(!isInside && self.firstOut) {
	        self.firstOut = false;
	      }
	    },

	    init: function(config) {
	      for(var setting in config){
	        if(config.hasOwnProperty(setting)) {
	          this.animationConfig[setting] = config[setting]
	        }
	      }

	      if(config.frameCount) this.endFrame = config.frameCount;

	      if(this.animationConfig.direction !== 'forward') {
	        this.reverseAnimation();
			this.reversed = false;
	      }

	      var self = this;

	      if(this.animationConfig.onOver && this.animationConfig.image) {
	        this.animationConfig.image.addEventListener('mouseenter', function(ev){
	          self.handleMouseMove(ev, true);
	        });

	        this.animationConfig.image.addEventListener('mouseleave', function(ev){
	          self.handleMouseMove(ev, false);
	        });

	      } else if (this.animationConfig.onOver) {
	        window.addEventListener('mousemove', function(ev){
	          self.handleMouseMove(ev);
	        });
	      } else {
	        self.startAnimation();
	      }
	    },

	    initEmbedded: function() {
	      var elem = document.querySelector('.animation');
	          this.init({
	            scene: elem.querySelector('.animation__scene use'),
	            delay: parseInt(elem.getAttribute('data-delay'), 10),
	            frameTime: parseInt(elem.getAttribute('data-frame'), 10),
	            looped: (elem.getAttribute('data-looped') === 'true'),
	            onOver: (elem.getAttribute('data-onover') === 'true'),
	            reverse: (elem.getAttribute('data-reverse') === 'true'),
	            direction: elem.getAttribute('data-direction'),
	            frameCount: elem.querySelectorAll('symbol').length
	          });
	    },

	    initAsImg: function(xml) {
	      var i,
	          xmlDoc = xml.responseXML,
	          elem = xmlDoc.querySelector('.animation');

	      this.init({
	        root: elem,
	        scene: elem.querySelector('.animation__scene use'),
	        delay: parseInt(elem.getAttribute('data-delay'), 10),
	        frameTime: parseInt(elem.getAttribute('data-frame'), 10),
	        looped: (elem.getAttribute('data-looped') === 'true'),
	        onOver: (elem.getAttribute('data-onover') === 'true'),
	        reverse: (elem.getAttribute('data-reverse') === 'true'),
	        direction: elem.getAttribute('data-direction'),
	        image:  document.querySelector('#svg__holder'),
	        frameCount: elem.querySelectorAll('symbol').length
	      });
	    }
	  };

	  var utils = SVGlib.utils;

	  utils.ready(function(){
	    if(exportType === 'embedded') {
	      SVGlib.initEmbedded();
	    } else if(exportType === 'image') {
	      var image = document.querySelector('#svg__holder');
	      utils.loadDoc(image.getAttribute('src'), function(resp){
	        SVGlib.initAsImg(resp);
	      });
	    }
	  });
	})((window.state && window.state.exportType) || 'embedded');

]]>
</script>
</svg>