<?xml version="1.0" encoding="UTF-8" standalone="no"?>
<!DOCTYPE svg PUBLIC "-//W3C//DTD SVG 1.1//EN" "http://www.w3.org/Graphics/SVG/1.1/DTD/svg11.dtd">
<svg width="100%" height="100%" viewBox="0 0 123 123" version="1.1" xmlns="http://www.w3.org/2000/svg" xmlns:xlink="http://www.w3.org/1999/xlink" xml:space="preserve" style="fill-rule:evenodd;clip-rule:evenodd;stroke-linejoin:round;stroke-miterlimit:1.41421;">
    <g transform="matrix(1,0,0,1,-908.5,-567.5)">
        <g transform="matrix(0.897656,0,0,0.94875,541,1.42109e-14)">
            <g id="url-button" transform="matrix(1,0,0,1,11.1084,10.0132)">
                <g transform="matrix(1,0,0,1,1.11401,0)">
                    <g transform="matrix(1.11401,0,0,1.05402,-572.014,-1.49785e-14)">
                        <circle cx="931.25" cy="619.25" r="61.25" style="fill:rgb(243,89,70);"/>
                    </g>
                    <g id="_-Ellipse-" transform="matrix(0.954868,0,0,0.903444,-423.81,93.243)">
                        <circle cx="931.25" cy="619.25" r="61.25" style="fill:white;"/>
                    </g>
                </g>
                <g id="icon-link" transform="matrix(1,0,0,1,141.48,-55.863)">
                    <g transform="matrix(1.07623,0,0,1.01827,-894.554,83.127)">
                        <circle cx="1133.38" cy="614.375" r="43.375" style="fill:rgb(123,123,123);"/>
                    </g>
                    <g transform="matrix(1.11401,0,0,1.05402,-613.789,-10.0132)">
                        <path d="M860.415,658.357C869.107,665.849 876.926,673.325 885,681.5C883.268,707.208 866.556,723.467 840,724L819,702.5C820.802,692.79 831.617,680.028 842.096,670.595L836.999,667.424C848.797,660.149 850.36,661.378 860,658L860.415,658.357Z" style="fill:rgb(103,103,103);"/>
                    </g>
                    <g transform="matrix(1.11401,0,0,1.05402,-757.498,47.3512)">
                        <path d="M966,613C968.829,612.893 970.797,613.143 974,614C976.489,611.96 980.064,606.646 986,610C989.957,612.235 989.787,618.549 986,622C982.529,625.163 977.271,630.278 976,631C969.341,634.787 966.003,626.328 966,627L961,632C962.941,634.785 965.582,638.236 972,639C975.14,639.374 978.409,637.813 981,636C981.286,635.8 981.624,635.527 982,635.198C985.255,632.359 991.557,625.507 992,625C994.405,622.25 996.045,618.149 996,615C995.953,611.663 993.62,607.477 991,605C988.364,602.508 982.768,601.172 978,603C972.565,605.084 966,613 966,613Z" style="fill:white;"/>
                    </g>
                    <g transform="matrix(-1.11401,0,0,-1.05402,1404.8,1370.3)">
                        <path d="M966,613C968.829,612.893 970.797,613.143 974,614C976.489,611.96 980.064,606.646 986,610C989.957,612.235 989.787,618.549 986,622C982.529,625.163 977.271,630.278 976,631C969.341,634.787 966.003,626.328 966,627L961,632C962.941,634.785 965.582,638.236 972,639C975.14,639.374 978.409,637.813 981,636C981.286,635.8 981.624,635.527 982,635.198C985.255,632.359 991.557,625.507 992,625C994.405,622.25 996.045,618.149 996,615C995.953,611.663 993.62,607.477 991,605C988.364,602.508 982.768,601.172 978,603C972.565,605.084 966,613 966,613Z" style="fill:white;"/>
                    </g>
                </g>
            </g>
        </g>
    </g>
</svg>
