<?xml version="1.0" encoding="UTF-8" standalone="no"?>
<!DOCTYPE svg PUBLIC "-//W3C//DTD SVG 1.1//EN" "http://www.w3.org/Graphics/SVG/1.1/DTD/svg11.dtd">
<svg width="100%" height="100%" viewBox="0 0 1542 1431" version="1.1" xmlns="http://www.w3.org/2000/svg" xmlns:xlink="http://www.w3.org/1999/xlink" xml:space="preserve" style="fill-rule:evenodd;clip-rule:evenodd;stroke-linecap:round;stroke-linejoin:round;stroke-miterlimit:1.41421;">
    <g transform="matrix(4.16667,0,0,4.16667,-3826.79,-732.035)">
        <g transform="matrix(0.897656,0,0,0.94875,541,1.42109e-14)">
            <g id="brain-blue-orange1" transform="matrix(0.719937,0,0,0.719937,167.425,51.6253)">
                <g id="links">
                    <g transform="matrix(1.11401,0,0,1.05402,-775.352,-10.5402)">
                        <path d="M1264,557L1296,551" style="fill:none;stroke-width:1.39px;stroke:rgb(82,179,204);"/>
                    </g>
                    <g transform="matrix(1.11401,0,0,1.05402,-775.352,-10.5402)">
                        <path d="M1264,611L1266,593L1248.5,575" style="fill:none;stroke-width:1.39px;stroke:rgb(82,179,204);"/>
                    </g>
                    <g transform="matrix(1.11401,0,0,1.05402,-775.352,-10.5402)">
                        <path d="M1266,593L1277,599" style="fill:none;stroke-width:2.08px;stroke:rgb(82,179,204);"/>
                    </g>
                    <g transform="matrix(1.11401,0,0,1.05402,-775.352,-10.5402)">
                        <path d="M1284.5,632.5L1287.5,610" style="fill:none;stroke-width:2.08px;stroke:rgb(82,179,204);"/>
                    </g>
                    <g transform="matrix(1.11401,0,0,1.05402,-775.352,-10.5402)">
                        <path d="M1304.75,621.75L1292.5,611" style="fill:none;stroke-width:2.08px;stroke:rgb(82,179,204);"/>
                    </g>
                    <g transform="matrix(-0.0658134,0,0,1.18577,861.483,-63.3729)">
                        <path d="M1246,521L1241,481" style="fill:none;stroke-width:2.62px;stroke:rgb(82,179,204);"/>
                    </g>
                    <g transform="matrix(1.11401,0,0,1.05402,-602.681,-1.49785e-14)">
                        <path d="M1142.75,584L1168,570" style="fill:none;stroke-width:1.32px;stroke:rgb(82,179,204);"/>
                    </g>
                    <g transform="matrix(1.20685,0,0,1.7567,-690.316,-273.342)">
                        <path d="M944,389L980,380" style="fill:none;stroke-width:0.94px;stroke:rgb(82,179,204);"/>
                    </g>
                    <g transform="matrix(1.26255,0,0,0.948617,-741.784,40.0527)">
                        <path d="M936.5,380L944,350" style="fill:none;stroke-width:1.29px;stroke:rgb(82,179,204);"/>
                    </g>
                    <g transform="matrix(1.11401,0,0,1.05402,-602.681,-1.49785e-14)">
                        <path d="M1125,383L1131,416.648" style="fill:none;stroke-width:1.32px;stroke:rgb(82,179,204);"/>
                    </g>
                    <g transform="matrix(1.25326,0,0,0.632411,-743.742,158.314)">
                        <path d="M981,373L1037,383" style="fill:none;stroke-width:1.46px;stroke:rgb(82,179,204);"/>
                    </g>
                    <g transform="matrix(1.11401,0,0,1.05402,-602.681,-1.49785e-14)">
                        <path d="M926,262L900,257" style="fill:none;stroke-width:1.32px;stroke:rgb(82,179,204);"/>
                    </g>
                    <g transform="matrix(1.11401,0,0,1.05402,-602.681,-1.49785e-14)">
                        <path d="M958,238L931,243" style="fill:none;stroke-width:1.32px;stroke:rgb(82,179,204);"/>
                    </g>
                    <g transform="matrix(1.22011,0,0,1.18577,-710.634,-27.141)">
                        <path d="M986,230L1028,222" style="fill:none;stroke-width:1.19px;stroke:rgb(82,179,204);"/>
                    </g>
                    <g transform="matrix(1.16043,0,0,1.58103,-654.946,-98.5507)">
                        <path d="M1102,195L1126,187" style="fill:none;stroke-width:1.02px;stroke:rgb(82,179,204);"/>
                    </g>
                    <g transform="matrix(1.11401,0,0,1.05402,-602.681,-1.49785e-14)">
                        <path d="M1214,262L1224,277" style="fill:none;stroke-width:1.32px;stroke:rgb(82,179,204);"/>
                    </g>
                    <g transform="matrix(1.53177,0,0,1.95303,-1092.85,-167.589)">
                        <path d="M1176,204L1164,187" style="fill:none;stroke-width:0.81px;stroke:rgb(82,179,204);"/>
                    </g>
                    <g transform="matrix(1.11401,0,0,1.05402,-602.681,-1.49785e-14)">
                        <path d="M1282,277L1293,300" style="fill:none;stroke-width:1.32px;stroke:rgb(82,179,204);"/>
                    </g>
                    <g transform="matrix(1.11401,0,0,1.05402,-602.681,-1.49785e-14)">
                        <path d="M1074,411L1102,377" style="fill:none;stroke-width:1.32px;stroke:rgb(82,179,204);"/>
                    </g>
                    <g transform="matrix(1.11401,0,0,1.05402,-602.681,-1.49785e-14)">
                        <path d="M1109,260L1120,240" style="fill:none;stroke-width:1.32px;stroke:rgb(82,179,204);"/>
                    </g>
                    <g transform="matrix(1.11401,0,0,1.05402,-602.681,-1.49785e-14)">
                        <path d="M1290,431.472L1269,463" style="fill:none;stroke-width:1.32px;stroke:rgb(82,179,204);"/>
                    </g>
                    <g transform="matrix(1.11401,0,0,1.05402,-602.681,-1.49785e-14)">
                        <path d="M1081,508L1074,528" style="fill:none;stroke-width:1.32px;stroke:rgb(82,179,204);"/>
                    </g>
                    <g transform="matrix(1.10413,-0.140108,0.173785,1.22599,-632.555,137.301)">
                        <path d="M1269,260L1269,236" style="fill:none;stroke-width:1.21px;stroke:rgb(82,179,204);"/>
                    </g>
                    <g transform="matrix(1.17264,0,0,1.47563,-675.56,-105.402)">
                        <path d="M1262,260L1243,250" style="fill:none;stroke-width:1.07px;stroke:rgb(82,179,204);"/>
                    </g>
                    <g transform="matrix(1.63388,0,0,1.05402,-1281.11,-1.49785e-14)">
                        <path d="M1290,268L1305,268" style="fill:none;stroke-width:1.05px;stroke:rgb(82,179,204);"/>
                    </g>
                    <g transform="matrix(1.20685,0,0,1.61203,-694.215,-110.486)">
                        <path d="M974,215L986,198" style="fill:none;stroke-width:1px;stroke:rgb(82,179,204);"/>
                    </g>
                    <g transform="matrix(0.928343,0,0,1.66886,-401.973,-110.057)">
                        <path d="M1087,191L1081,179" style="fill:none;stroke-width:1.04px;stroke:rgb(82,179,204);"/>
                    </g>
                    <g transform="matrix(1.11401,0,0,1.05402,-602.681,-1.49785e-14)">
                        <path d="M875,353L860,362" style="fill:none;stroke-width:1.32px;stroke:rgb(82,179,204);"/>
                    </g>
                    <g transform="matrix(3.2135,0,0,0.334448,-3447.5,256.37)">
                        <path d="M1350.5,368L1357,342" style="fill:none;stroke-width:0.64px;stroke:rgb(82,179,204);"/>
                    </g>
                    <g transform="matrix(0.810191,0,0,1.09794,-187.053,-13.4827)">
                        <path d="M1357,427L1368,403" style="fill:none;stroke-width:1.47px;stroke:rgb(82,179,204);"/>
                    </g>
                    <g transform="matrix(1.46214,0,0,1.05402,-1078.92,-1.49785e-14)">
                        <path d="M1344,469.5L1368,476" style="fill:none;stroke-width:1.13px;stroke:rgb(82,179,204);"/>
                    </g>
                    <g transform="matrix(1.25522,0,0,1.0239,-794.165,13.6119)">
                        <path d="M1338.25,469.5L1356,452" style="fill:none;stroke-width:1.25px;stroke:rgb(82,179,204);"/>
                    </g>
                    <g transform="matrix(1.11401,0,0,1.05402,-602.681,-1.49785e-14)">
                        <path d="M930,400L923,418" style="fill:none;stroke-width:1.32px;stroke:rgb(82,179,204);"/>
                    </g>
                    <g transform="matrix(1.11401,0,0,1.05402,-602.681,-1.49785e-14)">
                        <path d="M997,435L1000,469" style="fill:none;stroke-width:1.32px;stroke:rgb(82,179,204);"/>
                    </g>
                    <g transform="matrix(1.11401,0,0,1.05402,-602.681,-1.49785e-14)">
                        <path d="M1330,400L1356,387" style="fill:none;stroke-width:1.32px;stroke:rgb(82,179,204);"/>
                    </g>
                    <g transform="matrix(1.11401,0,0,1.05402,-602.681,-1.49785e-14)">
                        <path d="M1318.5,307.5L1343,319" style="fill:none;stroke-width:1.32px;stroke:rgb(82,179,204);"/>
                    </g>
                    <g transform="matrix(1.11401,0,0,1.05402,-602.681,-1.49785e-14)">
                        <path d="M1149,639L1129,623L1113,632" style="fill:none;stroke-width:1.32px;stroke:rgb(82,179,204);"/>
                    </g>
                    <g transform="matrix(1.11401,0,0,1.05402,-602.681,-1.49785e-14)">
                        <path d="M1133.5,416.648L1167.5,446.295" style="fill:none;stroke-width:1.32px;stroke:rgb(82,179,204);"/>
                    </g>
                    <g transform="matrix(0.993578,0,0,0.568399,-479.116,226.856)">
                        <path d="M1026,467.148L1063,478" style="fill:none;stroke-width:1.79px;stroke:rgb(82,179,204);"/>
                    </g>
                    <g transform="matrix(1.11401,0,0,1.05402,-602.681,-1.49785e-14)">
                        <path d="M1207,442L1171,443" style="fill:none;stroke-width:1.32px;stroke:rgb(82,179,204);"/>
                    </g>
                    <g transform="matrix(1.59111,0,0,1.35316,-1181.08,-117.647)">
                        <path d="M1219,428L1203,388" style="fill:none;stroke-width:0.97px;stroke:rgb(82,179,204);"/>
                    </g>
                    <g transform="matrix(1.43891,0,0,2.03814,-999.656,-427.124)">
                        <path d="M1221.85,436L1287,423.148" style="fill:none;stroke-width:0.8px;stroke:rgb(82,179,204);"/>
                    </g>
                    <g transform="matrix(0.835509,0,0,1.09618,-265.413,-20.1528)">
                        <path d="M1219,453L1211,478" style="fill:none;stroke-width:1.46px;stroke:rgb(82,179,204);"/>
                    </g>
                    <g transform="matrix(1.11401,0,0,1.05402,-602.681,-1.49785e-14)">
                        <path d="M1309.15,437.852L1309.15,481" style="fill:none;stroke-width:1.32px;stroke:rgb(82,179,204);"/>
                    </g>
                    <g transform="matrix(1.28991,0,0,0.952017,-786.082,43.7882)">
                        <path d="M1068,410.148L1011,425.648" style="fill:none;stroke-width:1.27px;stroke:rgb(82,179,204);"/>
                    </g>
                    <g transform="matrix(1.11401,0,0,1.05402,-602.681,-1.49785e-14)">
                        <path d="M1087,346L1061,339" style="fill:none;stroke-width:1.32px;stroke:rgb(82,179,204);"/>
                    </g>
                    <g transform="matrix(0.928343,0,0,1.26912,-397.331,-62.3807)">
                        <path d="M1112,339L1106,290" style="fill:none;stroke-width:1.27px;stroke:rgb(82,179,204);"/>
                    </g>
                    <g transform="matrix(1.11401,0,0,1.05402,-602.681,-1.49785e-14)">
                        <path d="M1142,346L1193,334" style="fill:none;stroke-width:1.32px;stroke:rgb(82,179,204);"/>
                    </g>
                    <g transform="matrix(1.11401,0,0,1.11989,-602.681,-25.3623)">
                        <path d="M1142,369L1198,385" style="fill:none;stroke-width:1.28px;stroke:rgb(82,179,204);"/>
                    </g>
                    <g transform="matrix(-1.6417,0,0,0.778644,2731.21,98.7264)">
                        <path d="M1199.5,259L1209,314.5" style="fill:none;stroke-width:1.13px;stroke:rgb(82,179,204);"/>
                    </g>
                    <g transform="matrix(0.89121,0,0,-0.332848,-339.997,325.47)">
                        <path d="M1219,240L1264,259" style="fill:none;stroke-width:2.17px;stroke:rgb(82,179,204);"/>
                    </g>
                    <g transform="matrix(3.40393,0,0,0.538721,-3272.97,126.693)">
                        <path d="M1170,252L1161,297" style="fill:none;stroke-width:0.6px;stroke:rgb(82,179,204);"/>
                    </g>
                    <g transform="matrix(4.33227,0,0,0.374762,-4505.07,197.523)">
                        <path d="M1170,252L1161,297" style="fill:none;stroke-width:0.48px;stroke:rgb(82,179,204);"/>
                    </g>
                    <g transform="matrix(1.40717,0,0,1.80689,-940.461,-158.253)">
                        <path d="M1165.5,220L1137,213" style="fill:none;stroke-width:0.88px;stroke:rgb(82,179,204);"/>
                    </g>
                    <g transform="matrix(1.11401,0,0,1.05402,-602.681,-1.49785e-14)">
                        <path d="M1100,266L1063,240" style="fill:none;stroke-width:1.32px;stroke:rgb(82,179,204);"/>
                    </g>
                    <g transform="matrix(0.402282,0,0,1.45941,172.393,-115.131)">
                        <path d="M1089,284L1017,297" style="fill:none;stroke-width:1.3px;stroke:rgb(82,179,204);"/>
                    </g>
                    <g transform="matrix(1.11401,0,0,1.05402,-602.681,-1.49785e-14)">
                        <path d="M993,314L980,371" style="fill:none;stroke-width:1.32px;stroke:rgb(82,179,204);"/>
                    </g>
                    <g transform="matrix(1.63726,0,0,1.33948,-1143.74,-89.2622)">
                        <path d="M1017,309L1050,333" style="fill:none;stroke-width:0.96px;stroke:rgb(82,179,204);"/>
                    </g>
                    <g transform="matrix(1.11401,0,0,1.05402,-602.681,-1.49785e-14)">
                        <path d="M1163,298L1193,318" style="fill:none;stroke-width:1.32px;stroke:rgb(82,179,204);"/>
                    </g>
                    <g transform="matrix(0.734235,0,0,2.25861,-183.28,-343.158)">
                        <path d="M1119,284L1163,298" style="fill:none;stroke-width:0.83px;stroke:rgb(82,179,204);"/>
                    </g>
                    <g transform="matrix(1.11401,0,0,1.05402,-602.681,-1.49785e-14)">
                        <path d="M1231,324L1266,321" style="fill:none;stroke-width:1.32px;stroke:rgb(82,179,204);"/>
                    </g>
                    <g transform="matrix(1.11401,0,0,1.05402,-602.681,-1.49785e-14)">
                        <path d="M1272,284L1266,318" style="fill:none;stroke-width:1.32px;stroke:rgb(82,179,204);"/>
                    </g>
                    <g transform="matrix(0.59226,0,0,0.819792,69.8584,81.0423)">
                        <path d="M1210,382L1289,346" style="fill:none;stroke-width:1.98px;stroke:rgb(82,179,204);"/>
                    </g>
                    <g transform="matrix(1.11401,0,0,1.05402,-602.681,-1.49785e-14)">
                        <path d="M1269,321L1294,334" style="fill:none;stroke-width:1.32px;stroke:rgb(82,179,204);"/>
                    </g>
                    <g transform="matrix(1.11401,0,0,1.05402,-602.681,-1.49785e-14)">
                        <path d="M1307,349L1307,392" style="fill:none;stroke-width:1.32px;stroke:rgb(82,179,204);"/>
                    </g>
                    <g transform="matrix(1.11401,0,0,1.05402,-602.681,-1.49785e-14)">
                        <path d="M1206,569L1219,577" style="fill:none;stroke-width:1.32px;stroke:rgb(82,179,204);"/>
                    </g>
                    <g transform="matrix(1.11401,0,0,1.05402,-602.681,-1.49785e-14)">
                        <path d="M1311,501L1320,523" style="fill:none;stroke-width:1.32px;stroke:rgb(82,179,204);"/>
                    </g>
                    <g transform="matrix(1.36864,0,0,0.819792,-906.965,115.474)">
                        <path d="M1160,484L1195,493" style="fill:none;stroke-width:1.28px;stroke:rgb(82,179,204);"/>
                    </g>
                    <g transform="matrix(1.16792,0,0,1.65631,-659.334,-146.96)">
                        <path d="M1051,244L1020,251" style="fill:none;stroke-width:0.99px;stroke:rgb(82,179,204);"/>
                    </g>
                    <g transform="matrix(0.860828,0,0,1.10949,-333.799,-11.9825)">
                        <path d="M1062,235L1084,216" style="fill:none;stroke-width:1.43px;stroke:rgb(82,179,204);"/>
                    </g>
                    <g transform="matrix(1.28111,0,0,1.05402,-782.482,-1.49785e-14)">
                        <path d="M1026,192L1076,204" style="fill:none;stroke-width:1.22px;stroke:rgb(82,179,204);"/>
                    </g>
                    <g transform="matrix(1.0645,0,0,1.55536,-555.372,-195.279)">
                        <path d="M1000.5,414L978,379" style="fill:none;stroke-width:1.06px;stroke:rgb(82,179,204);"/>
                    </g>
                    <g transform="matrix(0.961149,-0.0697707,0.0852196,1.05093,-488.986,69.198)">
                        <path d="M989.25,424L958,424" style="fill:none;stroke-width:1.41px;stroke:rgb(82,179,204);"/>
                    </g>
                    <g transform="matrix(1.70719,0,0,1.05402,-1159.97,-1.49785e-14)">
                        <path d="M978,299.5L939.5,299.5" style="fill:none;stroke-width:1.02px;stroke:rgb(82,179,204);"/>
                    </g>
                    <g transform="matrix(1.34937,0,0,0.716733,-803.187,130.003)">
                        <path d="M904,312L939.5,299.5" style="fill:none;stroke-width:1.34px;stroke:rgb(82,179,204);"/>
                    </g>
                    <g transform="matrix(0.749641,0,0,1.18577,-280.296,-53.8867)">
                        <path d="M897,361L904,389" style="fill:none;stroke-width:1.42px;stroke:rgb(82,179,204);"/>
                    </g>
                    <g transform="matrix(1.39252,0,0,2.01946,-848.32,-266.463)">
                        <path d="M890,305.75L882,276" style="fill:none;stroke-width:0.82px;stroke:rgb(82,179,204);"/>
                    </g>
                    <g transform="matrix(-0.605441,0,0,0.903444,991.253,39.4504)">
                        <path d="M904,305.75L927,262" style="fill:none;stroke-width:1.84px;stroke:rgb(82,179,204);"/>
                    </g>
                    <g transform="matrix(1.70815,0,0,1.05402,-1188.21,-1.05402)">
                        <path d="M989.25,290.875L978,247" style="fill:none;stroke-width:1.02px;stroke:rgb(82,179,204);"/>
                    </g>
                    <g transform="matrix(0.77362,0,0,0.974684,-158.128,26.1011)">
                        <path d="M1306,329L1324,305.75" style="fill:none;stroke-width:1.61px;stroke:rgb(82,179,204);"/>
                    </g>
                    <g transform="matrix(0.860828,0,0,0.638799,-279.769,141.175)">
                        <path d="M1315,340L1359,373" style="fill:none;stroke-width:1.9px;stroke:rgb(82,179,204);"/>
                    </g>
                    <g transform="matrix(1.11401,0,0,1.05402,-602.681,-1.49785e-14)">
                        <path d="M1337,423L1359,434" style="fill:none;stroke-width:1.32px;stroke:rgb(82,179,204);"/>
                    </g>
                    <g transform="matrix(-0.928343,0,0,0.955204,2107.9,24.9012)">
                        <path d="M1316,492L1337,508" style="fill:none;stroke-width:1.52px;stroke:rgb(82,179,204);"/>
                    </g>
                    <g transform="matrix(1.11401,0,0,1.05402,-602.681,-1.49785e-14)">
                        <path d="M1175,534L1219,531" style="fill:none;stroke-width:1.32px;stroke:rgb(82,179,204);"/>
                    </g>
                    <g transform="matrix(1.22299,0,0,1.05402,-736.725,-1.49785e-14)">
                        <path d="M1207,567.5L1230,540" style="fill:none;stroke-width:1.26px;stroke:rgb(82,179,204);"/>
                    </g>
                    <g transform="matrix(1.54632,0,0,1.05402,-1113.45,-1.49785e-14)">
                        <path d="M1181.5,574L1198.25,567.5" style="fill:none;stroke-width:1.09px;stroke:rgb(82,179,204);"/>
                    </g>
                    <g transform="matrix(1.06338,0,0,1.0101,-544.549,20.9486)">
                        <path d="M1137,561L1148,549" style="fill:none;stroke-width:1.38px;stroke:rgb(82,179,204);"/>
                    </g>
                    <g transform="matrix(1.11401,0,0,1.05402,-602.681,-1.49785e-14)">
                        <path d="M1215,518L1199,510" style="fill:none;stroke-width:1.32px;stroke:rgb(82,179,204);"/>
                    </g>
                    <g transform="matrix(1.11401,0,0,1.05402,-602.681,-1.49785e-14)">
                        <path d="M1271,514L1309.15,488" style="fill:none;stroke-width:1.32px;stroke:rgb(82,179,204);"/>
                    </g>
                    <g transform="matrix(0.874288,0,0,0.744013,-322.683,138.572)">
                        <path d="M1168,447L1089,481" style="fill:none;stroke-width:1.77px;stroke:rgb(82,179,204);"/>
                    </g>
                    <g transform="matrix(1.8176,0,0,1.05402,-1424.12,-1.49785e-14)">
                        <path d="M1158,488L1167.5,446.295" style="fill:none;stroke-width:0.98px;stroke:rgb(82,179,204);"/>
                    </g>
                    <g transform="matrix(1.69159,0,0,1.60049,-1254.65,-280.235)">
                        <path d="M1144,525L1116.5,500" style="fill:none;stroke-width:0.91px;stroke:rgb(82,179,204);"/>
                    </g>
                </g>
                <g id="nodes" transform="matrix(1,0,0,1,-172.672,-10.5402)">
                    <g transform="matrix(0.846649,0,0,0.801054,-172.137,239.895)">
                        <circle cx="1214.5" cy="352.5" r="12.5" style="fill:rgb(242,89,70);"/>
                    </g>
                    <g transform="matrix(1.11401,0,0,1.05402,-604.909,-108.564)">
                        <circle cx="1214.5" cy="352.5" r="12.5" style="fill:rgb(242,89,70);"/>
                    </g>
                    <g transform="matrix(1.11401,0,0,1.05402,-736.362,-45.3228)">
                        <circle cx="1214.5" cy="352.5" r="12.5" style="fill:rgb(242,89,70);"/>
                    </g>
                    <g transform="matrix(1.11401,0,0,1.05402,-604.909,-4.21607)">
                        <circle cx="1214.5" cy="352.5" r="12.5" style="fill:rgb(242,89,70);"/>
                    </g>
                    <g transform="matrix(0.579286,0,0,0.54809,335.273,141.449)">
                        <circle cx="1214.5" cy="352.5" r="12.5" style="fill:rgb(242,89,70);"/>
                    </g>
                    <g transform="matrix(0.579286,0,0,0.54809,129.181,43.4256)">
                        <circle cx="1214.5" cy="352.5" r="12.5" style="fill:rgb(242,89,70);"/>
                    </g>
                    <g transform="matrix(0.579286,0,0,0.54809,5.5255,21.2912)">
                        <circle cx="1214.5" cy="352.5" r="12.5" style="fill:rgb(242,89,70);"/>
                    </g>
                    <g transform="matrix(0.579286,0,0,0.54809,-132.612,224.717)">
                        <circle cx="1214.5" cy="352.5" r="12.5" style="fill:rgb(242,89,70);"/>
                    </g>
                    <g transform="matrix(0.579286,0,0,0.54809,355.325,312.2)">
                        <circle cx="1214.5" cy="352.5" r="12.5" style="fill:rgb(242,89,70);"/>
                    </g>
                    <g transform="matrix(0.423325,0,0,0.400527,292.139,482.003)">
                        <circle cx="1214.5" cy="352.5" r="12.5" style="fill:rgb(242,89,70);"/>
                    </g>
                    <g transform="matrix(0.423325,0,0,0.400527,527.195,421.397)">
                        <circle cx="1214.5" cy="352.5" r="12.5" style="fill:rgb(242,89,70);"/>
                    </g>
                    <g transform="matrix(0.423325,0,0,0.400527,566.464,345.771)">
                        <circle cx="1214.5" cy="352.5" r="12.5" style="fill:rgb(242,89,70);"/>
                    </g>
                    <g transform="matrix(1.11401,0,0,1.05402,-430.009,10.5402)">
                        <circle cx="1368" cy="406.5" r="2.5" style="fill:rgb(242,89,70);"/>
                    </g>
                    <g transform="matrix(0.423325,0,0,0.400527,571.756,240.105)">
                        <circle cx="1214.5" cy="352.5" r="12.5" style="fill:rgb(242,89,70);"/>
                    </g>
                    <g transform="matrix(0.423325,0,0,0.400527,438.074,376.074)">
                        <circle cx="1214.5" cy="352.5" r="12.5" style="fill:rgb(242,89,70);"/>
                    </g>
                    <g transform="matrix(0.423325,0,0,0.400527,570.642,324.427)">
                        <circle cx="1214.5" cy="352.5" r="12.5" style="fill:rgb(242,89,70);"/>
                    </g>
                    <g transform="matrix(0.423325,0,0,0.400527,336.699,514.15)">
                        <circle cx="1214.5" cy="352.5" r="12.5" style="fill:rgb(242,89,70);"/>
                    </g>
                    <g transform="matrix(0.579286,0,0,0.54809,358.667,198.366)">
                        <circle cx="1214.5" cy="352.5" r="12.5" style="fill:rgb(242,89,70);"/>
                    </g>
                    <g transform="matrix(0.579286,0,0,0.54809,279.572,305.349)">
                        <circle cx="1214.5" cy="352.5" r="12.5" style="fill:rgb(242,89,70);"/>
                    </g>
                    <g transform="matrix(0.579286,0,0,0.54809,277.344,153.043)">
                        <circle cx="1214.5" cy="352.5" r="12.5" style="fill:rgb(242,89,70);"/>
                    </g>
                    <g transform="matrix(0.579286,0,0,0.54809,129.181,256.493)">
                        <circle cx="1214.5" cy="352.5" r="12.5" style="fill:rgb(242,89,70);"/>
                    </g>
                    <g transform="matrix(0.579286,0,0,0.54809,8.86754,307.984)">
                        <circle cx="1214.5" cy="352.5" r="12.5" style="fill:rgb(242,89,70);"/>
                    </g>
                    <g transform="matrix(0.579286,0,0,0.54809,-100.863,92.9644)">
                        <circle cx="1214.5" cy="352.5" r="12.5" style="fill:rgb(242,89,70);"/>
                    </g>
                    <g transform="matrix(0.579286,0,0,0.54809,23.3497,218.393)">
                        <circle cx="1214.5" cy="352.5" r="12.5" style="fill:rgb(242,89,70);"/>
                    </g>
                    <g transform="matrix(0.579286,0,0,0.54809,97.9885,395.468)">
                        <circle cx="1214.5" cy="352.5" r="12.5" style="fill:rgb(242,89,70);"/>
                    </g>
                    <g transform="matrix(0.579286,0,0,0.54809,197.136,353.307)">
                        <circle cx="1214.5" cy="352.5" r="12.5" style="fill:rgb(242,89,70);"/>
                    </g>
                    <g transform="matrix(0.579286,0,0,0.54809,1.06945,86.1133)">
                        <circle cx="1214.5" cy="352.5" r="12.5" style="fill:rgb(242,89,70);"/>
                    </g>
                    <g transform="matrix(0.579286,0,0,0.54809,-151.55,108.775)">
                        <circle cx="1214.5" cy="352.5" r="12.5" style="fill:rgb(242,89,70);"/>
                    </g>
                    <g transform="matrix(0.579286,0,0,0.54809,162.601,131.436)">
                        <circle cx="1214.5" cy="352.5" r="12.5" style="fill:rgb(242,89,70);"/>
                    </g>
                    <g transform="matrix(0.579286,0,0,0.54809,208.554,415.494)">
                        <circle cx="1214.5" cy="352.5" r="12.5" style="fill:rgb(242,89,70);"/>
                    </g>
                    <g transform="matrix(1.11401,0,0,1.05402,-691.802,33.2016)">
                        <circle cx="1214.5" cy="352.5" r="12.5" style="fill:rgb(242,89,70);"/>
                    </g>
                    <g transform="matrix(1.30795,0,0,1.23751,-824.1,8.91314)">
                        <circle cx="1214.5" cy="352.5" r="12.5" style="fill:rgb(242,89,70);"/>
                    </g>
                    <g transform="matrix(1.11401,0,0,1.05402,-482.367,109.402)">
                        <circle cx="1214.5" cy="352.5" r="12.5" style="fill:rgb(242,89,70);"/>
                    </g>
                    <g transform="matrix(1.11401,0,0,1.05402,-446.719,46.3768)">
                        <circle cx="1214.5" cy="352.5" r="12.5" style="fill:rgb(242,89,70);"/>
                    </g>
                    <g transform="matrix(0.222802,0,0,0.210804,657.936,543.874)">
                        <circle cx="1214.5" cy="352.5" r="12.5" style="fill:rgb(242,89,70);"/>
                    </g>
                    <g transform="matrix(0.222802,0,0,0.210804,615.603,541.238)">
                        <circle cx="1214.5" cy="352.5" r="12.5" style="fill:rgb(242,89,70);"/>
                    </g>
                    <g transform="matrix(0.222802,0,0,0.210804,601.121,537.022)">
                        <circle cx="1214.5" cy="352.5" r="12.5" style="fill:rgb(242,89,70);"/>
                    </g>
                    <g transform="matrix(0.222802,0,0,0.210804,630.085,456.39)">
                        <circle cx="1214.5" cy="352.5" r="12.5" style="fill:rgb(242,89,70);"/>
                    </g>
                    <g transform="matrix(0.222802,0,0,0.210804,647.909,440.58)">
                        <circle cx="1214.5" cy="352.5" r="12.5" style="fill:rgb(242,89,70);"/>
                    </g>
                    <g transform="matrix(0.222802,0,0,0.210804,566.587,523.847)">
                        <circle cx="1214.5" cy="352.5" r="12.5" style="fill:rgb(242,89,70);"/>
                    </g>
                    <g transform="matrix(0.222802,0,0,0.210804,823.366,437.945)">
                        <circle cx="1214.5" cy="352.5" r="12.5" style="fill:rgb(242,89,70);"/>
                    </g>
                    <g transform="matrix(0.356484,0,0,0.337286,394.761,549.354)">
                        <circle cx="1214.5" cy="352.5" r="12.5" style="fill:rgb(242,89,70);"/>
                    </g>
                    <g transform="matrix(0.222802,0,0,0.210804,517.57,531.752)">
                        <circle cx="1214.5" cy="352.5" r="12.5" style="fill:rgb(242,89,70);"/>
                    </g>
                    <g transform="matrix(0.222802,0,0,0.210804,534.28,569.17)">
                        <circle cx="1214.5" cy="352.5" r="12.5" style="fill:rgb(242,89,70);"/>
                    </g>
                    <g transform="matrix(1.11401,0,0,1.05402,-430.009,10.5402)">
                        <circle cx="1141.25" cy="314.75" r="4.75" style="fill:rgb(242,89,70);"/>
                    </g>
                    <g transform="matrix(1.11401,0,0,1.05402,-430.009,10.5402)">
                        <circle cx="1029" cy="223" r="4" style="fill:rgb(242,89,70);"/>
                    </g>
                    <g transform="matrix(1.11401,0,0,1.05402,-430.009,10.5402)">
                        <circle cx="930" cy="243.5" r="3" style="fill:rgb(242,89,70);"/>
                    </g>
                    <g transform="matrix(1.11401,0,0,1.05402,-430.009,10.5402)">
                        <circle cx="898" cy="257" r="3" style="fill:rgb(242,89,70);"/>
                    </g>
                    <g transform="matrix(1.11401,0,0,1.05402,-430.009,10.5402)">
                        <circle cx="945" cy="353" r="5" style="fill:rgb(242,89,70);"/>
                    </g>
                    <g transform="matrix(1.11401,0,0,1.05402,-430.009,10.5402)">
                        <circle cx="962.25" cy="326.75" r="7.25" style="fill:rgb(242,89,70);"/>
                    </g>
                    <g transform="matrix(1.11401,0,0,1.05402,-430.009,10.5402)">
                        <circle cx="960.5" cy="425.5" r="5.5" style="fill:rgb(242,89,70);"/>
                    </g>
                    <g transform="matrix(1.11401,0,0,1.05402,-432.237,8.43215)">
                        <circle cx="1150" cy="276" r="9" style="fill:rgb(242,89,70);"/>
                    </g>
                    <g transform="matrix(1.11401,0,0,1.05402,-430.009,10.5402)">
                        <circle cx="1247" cy="227" r="3" style="fill:rgb(242,89,70);"/>
                    </g>
                    <g transform="matrix(1.11401,0,0,1.05402,-430.009,10.5402)">
                        <circle cx="1160.5" cy="187.5" r="3.5" style="fill:rgb(242,89,70);"/>
                    </g>
                    <g transform="matrix(0.557006,0,0,0.527009,174.064,252.701)">
                        <circle cx="1409.5" cy="288.5" r="11.5" style="fill:rgb(242,89,70);"/>
                    </g>
                    <g transform="matrix(1.11401,0,0,1.05402,-430.009,8.43215)">
                        <circle cx="1306" cy="270" r="6" style="fill:rgb(242,89,70);"/>
                    </g>
                    <g transform="matrix(1.11401,0,0,1.05402,-430.009,10.5402)">
                        <circle cx="1245" cy="251" r="6" style="fill:rgb(242,89,70);"/>
                    </g>
                    <g transform="matrix(1.11401,0,0,1.05402,-428.895,10.5402)">
                        <circle cx="1266.5" cy="235.5" r="3.5" style="fill:rgb(242,89,70);"/>
                    </g>
                    <g transform="matrix(1.11401,0,0,1.05402,-427.781,11.5942)">
                        <circle cx="1079" cy="177" r="2" style="fill:rgb(242,89,70);"/>
                    </g>
                    <g transform="matrix(1.11401,0,0,1.05402,-432.237,9.48617)">
                        <circle cx="1075.5" cy="530.5" r="3.5" style="fill:rgb(242,89,70);"/>
                    </g>
                    <g transform="matrix(1.11401,0,0,1.05402,-430.009,10.5402)">
                        <circle cx="986" cy="199" r="4" style="fill:rgb(242,89,70);"/>
                    </g>
                    <g transform="matrix(1.11401,0,0,1.05402,-389.347,6.85112)">
                        <circle cx="823.5" cy="365.5" r="3.5" style="fill:rgb(242,89,70);"/>
                    </g>
                    <g transform="matrix(1.11401,0,0,1.05402,-424.439,14.7563)">
                        <circle cx="1058" cy="298" r="5" style="fill:rgb(242,89,70);"/>
                    </g>
                    <g transform="matrix(1.11401,0,0,1.05402,-434.465,4.21607)">
                        <circle cx="1052.25" cy="282.75" r="10.25" style="fill:rgb(242,89,70);"/>
                    </g>
                    <g transform="matrix(1.11401,0,0,1.05402,-430.009,10.5402)">
                        <circle cx="1125.5" cy="187.5" r="3.5" style="fill:rgb(242,89,70);"/>
                    </g>
                    <g transform="matrix(1.11401,0,0,1.05402,-430.009,10.5402)">
                        <circle cx="1294" cy="302" r="3" style="fill:rgb(242,89,70);"/>
                    </g>
                    <g transform="matrix(1.11401,0,0,1.05402,-427.224,7.37813)">
                        <circle cx="920" cy="421" r="3" style="fill:rgb(242,89,70);"/>
                    </g>
                    <g transform="matrix(1.11401,0,0,1.05402,-430.009,9.48617)">
                        <circle cx="999.5" cy="471.5" r="2.5" style="fill:rgb(242,89,70);"/>
                    </g>
                    <g transform="matrix(1.11401,0,0,1.05402,-432.237,10.5402)">
                        <circle cx="1360" cy="386" r="4" style="fill:rgb(242,89,70);"/>
                    </g>
                    <g transform="matrix(1.11401,0,0,1.05402,-448.947,14.6245)">
                        <circle cx="1360.88" cy="316.125" r="2.875" style="fill:rgb(242,89,70);"/>
                    </g>
                    <g transform="matrix(1.11401,0,0,1.05402,-430.009,7.37813)">
                        <circle cx="1110" cy="637" r="6" style="fill:rgb(242,89,70);"/>
                    </g>
                    <g transform="matrix(1.11401,0,0,1.05402,-476.797,18.9723)">
                        <circle cx="1191" cy="634" r="11" style="fill:rgb(242,89,70);"/>
                    </g>
                    <g transform="matrix(1.11401,0,0,1.05402,-430.009,10.5402)">
                        <circle cx="1120.5" cy="237.5" r="4.5" style="fill:rgb(242,89,70);"/>
                    </g>
                    <g transform="matrix(1.11401,0,0,1.05402,-431.123,10.5402)">
                        <circle cx="1228" cy="280.5" r="11" style="fill:rgb(242,89,70);"/>
                    </g>
                </g>
                <g id="face-nodes" transform="matrix(1,0,0,1,-172.672,-10.5402)">
                    <g id="happy" transform="matrix(1.11401,0,0,1.05402,-591.54,78.5244)">
                        <path d="M1262,257C1281.32,257 1297,272.683 1297,292C1297,311.317 1281.32,327 1262,327C1242.68,327 1227,311.317 1227,292C1227,272.683 1242.68,257 1262,257ZM1253.24,302.28C1256.01,303.557 1259.04,304.124 1262.24,304.205C1265.6,304.241 1268.64,303.656 1271.24,302.205C1273.12,301.381 1275.15,299.898 1277.24,298.205C1278.12,297.899 1278.74,297.967 1279.24,298.205C1279.69,298.999 1279.63,299.65 1279.24,300.205C1277.42,302.149 1275.07,303.832 1272.24,305.278C1269.32,306.403 1266.04,307.101 1262.24,307.205C1259.27,306.934 1255.3,306.378 1252.24,305.278C1249.41,304.326 1247.06,302.981 1245.24,301.205C1244.88,300.268 1244.96,299.693 1245.24,299.282C1245.49,298.723 1246.07,299.102 1247,299C1248.48,299.944 1250.85,301.182 1253.24,302.28ZM1248.31,289.746C1246.32,289.746 1244.71,288.136 1244.71,286.149C1244.71,284.163 1246.32,282.553 1248.31,282.553C1250.3,282.553 1251.9,284.163 1251.9,286.149C1251.9,288.136 1250.3,289.746 1248.31,289.746ZM1275.69,289.119C1273.7,289.119 1272.1,287.509 1272.1,285.523C1272.1,283.536 1273.7,281.926 1275.69,281.926C1277.68,281.926 1279.29,283.536 1279.29,285.523C1279.29,287.509 1277.68,289.119 1275.69,289.119Z" style="fill:rgb(82,179,204);"/>
                    </g>
                    <g id="happy1" transform="matrix(0.557006,0,0,0.527009,285.187,140.711)">
                        <path d="M1262,257C1281.32,257 1297,272.683 1297,292C1297,311.317 1281.32,327 1262,327C1242.68,327 1227,311.317 1227,292C1227,272.683 1242.68,257 1262,257ZM1253.24,302.28C1256.01,303.557 1259.04,304.124 1262.24,304.205C1265.6,304.241 1268.64,303.656 1271.24,302.205C1273.12,301.381 1275.15,299.898 1277.24,298.205C1278.12,297.899 1278.74,297.967 1279.24,298.205C1279.69,298.999 1279.63,299.65 1279.24,300.205C1277.42,302.149 1275.07,303.832 1272.24,305.278C1269.32,306.403 1266.04,307.101 1262.24,307.205C1259.27,306.934 1255.3,306.378 1252.24,305.278C1249.41,304.326 1247.06,302.981 1245.24,301.205C1244.88,300.268 1244.96,299.693 1245.24,299.282C1245.49,298.723 1246.07,299.102 1247,299C1248.48,299.944 1250.85,301.182 1253.24,302.28ZM1248.31,289.746C1246.32,289.746 1244.71,288.136 1244.71,286.149C1244.71,284.163 1246.32,282.553 1248.31,282.553C1250.3,282.553 1251.9,284.163 1251.9,286.149C1251.9,288.136 1250.3,289.746 1248.31,289.746ZM1275.69,289.119C1273.7,289.119 1272.1,287.509 1272.1,285.523C1272.1,283.536 1273.7,281.926 1275.69,281.926C1277.68,281.926 1279.29,283.536 1279.29,285.523C1279.29,287.509 1277.68,289.119 1275.69,289.119Z" style="fill:rgb(82,179,204);"/>
                    </g>
                    <g id="happy2" transform="matrix(0.628621,0,0,0.594768,65.0265,402.085)">
                        <path d="M1262,257C1281.32,257 1297,272.683 1297,292C1297,311.317 1281.32,327 1262,327C1242.68,327 1227,311.317 1227,292C1227,272.683 1242.68,257 1262,257ZM1253.24,302.28C1256.01,303.557 1259.04,304.124 1262.24,304.205C1265.6,304.241 1268.64,303.656 1271.24,302.205C1273.12,301.381 1275.15,299.898 1277.24,298.205C1278.12,297.899 1278.74,297.967 1279.24,298.205C1279.69,298.999 1279.63,299.65 1279.24,300.205C1277.42,302.149 1275.07,303.832 1272.24,305.278C1269.32,306.403 1266.04,307.101 1262.24,307.205C1259.27,306.934 1255.3,306.378 1252.24,305.278C1249.41,304.326 1247.06,302.981 1245.24,301.205C1244.88,300.268 1244.96,299.693 1245.24,299.282C1245.49,298.723 1246.07,299.102 1247,299C1248.48,299.944 1250.85,301.182 1253.24,302.28ZM1248.31,289.746C1246.32,289.746 1244.71,288.136 1244.71,286.149C1244.71,284.163 1246.32,282.553 1248.31,282.553C1250.3,282.553 1251.9,284.163 1251.9,286.149C1251.9,288.136 1250.3,289.746 1248.31,289.746ZM1275.69,289.119C1273.7,289.119 1272.1,287.509 1272.1,285.523C1272.1,283.536 1273.7,281.926 1275.69,281.926C1277.68,281.926 1279.29,283.536 1279.29,285.523C1279.29,287.509 1277.68,289.119 1275.69,289.119Z" style="fill:rgb(82,179,204);"/>
                    </g>
                    <g id="angry" transform="matrix(1.11401,0,0,1.05402,-1088.39,16.8643)">
                        <path d="M1484,292C1503.32,292 1519,307.683 1519,327C1519,346.317 1503.32,362 1484,362C1464.68,362 1449,346.317 1449,327C1449,307.683 1464.68,292 1484,292ZM1495.98,338.996L1469.61,338.996C1468.49,338.996 1467.59,339.901 1467.59,341.015L1467.59,345.054C1467.59,346.168 1468.49,347.073 1469.61,347.073L1495.98,347.073C1497.1,347.073 1498,346.168 1498,345.054L1498,341.015C1498,339.901 1497.1,338.996 1495.98,338.996ZM1496.64,326.53C1496.64,326.53 1496.64,326.53 1496.64,326.53C1493.68,327.879 1491.28,328.988 1492.2,330.997C1493.11,333.006 1496.26,333.542 1499.22,332.192C1502.18,330.843 1503.84,328.117 1502.92,326.108C1502.01,324.099 1499.6,325.181 1496.64,326.53ZM1469.54,326.53C1469.54,326.53 1469.54,326.53 1469.54,326.53C1472.5,327.879 1474.89,328.988 1473.98,330.997C1473.06,333.006 1469.91,333.542 1466.95,332.192C1464,330.843 1462.34,328.117 1463.25,326.108C1464.17,324.099 1466.58,325.181 1469.54,326.53Z" style="fill:rgb(82,179,204);"/>
                    </g>
                    <g id="sad" transform="matrix(1.11401,0,0,1.05402,-582.071,-92.2266)">
                        <path d="M1329,295C1348.87,295 1365,311.131 1365,331C1365,350.869 1348.87,367 1329,367C1309.13,367 1293,350.869 1293,331C1293,311.131 1309.13,295 1329,295ZM1319.96,341.924C1322.73,340.648 1325.76,340.081 1328.96,340C1332.32,339.963 1335.37,340.548 1337.96,342C1339.84,342.824 1341.88,344.307 1343.96,346C1344.84,346.306 1345.46,346.238 1345.96,346C1346.41,345.206 1346.36,344.554 1345.96,344C1344.14,342.056 1341.79,340.372 1338.96,338.926C1336.04,337.802 1332.76,337.104 1328.96,337C1326,337.27 1322.02,337.827 1318.96,338.926C1316.13,339.878 1313.79,341.223 1311.96,343C1311.61,343.937 1311.68,344.512 1311.96,344.922C1312.21,345.482 1312.79,345.103 1313.72,345.205C1315.2,344.261 1317.57,343.023 1319.96,341.924ZM1341.5,322C1343.43,322 1345,323.568 1345,325.5C1345,327.432 1343.43,329 1341.5,329C1339.57,329 1338,327.432 1338,325.5C1338,323.568 1339.57,322 1341.5,322ZM1314.5,322C1316.43,322 1318,323.568 1318,325.5C1318,327.432 1316.43,329 1314.5,329C1312.57,329 1311,327.432 1311,325.5C1311,323.568 1312.57,322 1314.5,322Z" style="fill:rgb(82,179,204);"/>
                    </g>
                    <g id="sad1" transform="matrix(0.719466,0,0,0.68072,-36.832,130.676)">
                        <path d="M1329,295C1348.87,295 1365,311.131 1365,331C1365,350.869 1348.87,367 1329,367C1309.13,367 1293,350.869 1293,331C1293,311.131 1309.13,295 1329,295ZM1319.96,341.924C1322.73,340.648 1325.76,340.081 1328.96,340C1332.32,339.963 1335.37,340.548 1337.96,342C1339.84,342.824 1341.88,344.307 1343.96,346C1344.84,346.306 1345.46,346.238 1345.96,346C1346.41,345.206 1346.36,344.554 1345.96,344C1344.14,342.056 1341.79,340.372 1338.96,338.926C1336.04,337.802 1332.76,337.104 1328.96,337C1326,337.27 1322.02,337.827 1318.96,338.926C1316.13,339.878 1313.79,341.223 1311.96,343C1311.61,343.937 1311.68,344.512 1311.96,344.922C1312.21,345.482 1312.79,345.103 1313.72,345.205C1315.2,344.261 1317.57,343.023 1319.96,341.924ZM1341.5,322C1343.43,322 1345,323.568 1345,325.5C1345,327.432 1343.43,329 1341.5,329C1339.57,329 1338,327.432 1338,325.5C1338,323.568 1339.57,322 1341.5,322ZM1314.5,322C1316.43,322 1318,323.568 1318,325.5C1318,327.432 1316.43,329 1314.5,329C1312.57,329 1311,327.432 1311,325.5C1311,323.568 1312.57,322 1314.5,322Z" style="fill:rgb(82,179,204);"/>
                    </g>
                    <g id="sad2" transform="matrix(0.541534,0,0,0.51237,-109.777,253.594)">
                        <path d="M1329,295C1348.87,295 1365,311.131 1365,331C1365,350.869 1348.87,367 1329,367C1309.13,367 1293,350.869 1293,331C1293,311.131 1309.13,295 1329,295ZM1319.96,341.924C1322.73,340.648 1325.76,340.081 1328.96,340C1332.32,339.963 1335.37,340.548 1337.96,342C1339.84,342.824 1341.88,344.307 1343.96,346C1344.84,346.306 1345.46,346.238 1345.96,346C1346.41,345.206 1346.36,344.554 1345.96,344C1344.14,342.056 1341.79,340.372 1338.96,338.926C1336.04,337.802 1332.76,337.104 1328.96,337C1326,337.27 1322.02,337.827 1318.96,338.926C1316.13,339.878 1313.79,341.223 1311.96,343C1311.61,343.937 1311.68,344.512 1311.96,344.922C1312.21,345.482 1312.79,345.103 1313.72,345.205C1315.2,344.261 1317.57,343.023 1319.96,341.924ZM1341.5,322C1343.43,322 1345,323.568 1345,325.5C1345,327.432 1343.43,329 1341.5,329C1339.57,329 1338,327.432 1338,325.5C1338,323.568 1339.57,322 1341.5,322ZM1314.5,322C1316.43,322 1318,323.568 1318,325.5C1318,327.432 1316.43,329 1314.5,329C1312.57,329 1311,327.432 1311,325.5C1311,323.568 1312.57,322 1314.5,322Z" style="fill:rgb(82,179,204);"/>
                    </g>
                    <g id="sad3" transform="matrix(0.557006,0,0,0.527009,42.8895,53.2279)">
                        <path d="M1329,295C1348.87,295 1365,311.131 1365,331C1365,350.869 1348.87,367 1329,367C1309.13,367 1293,350.869 1293,331C1293,311.131 1309.13,295 1329,295ZM1319.96,341.924C1322.73,340.648 1325.76,340.081 1328.96,340C1332.32,339.963 1335.37,340.548 1337.96,342C1339.84,342.824 1341.88,344.307 1343.96,346C1344.84,346.306 1345.46,346.238 1345.96,346C1346.41,345.206 1346.36,344.554 1345.96,344C1344.14,342.056 1341.79,340.372 1338.96,338.926C1336.04,337.802 1332.76,337.104 1328.96,337C1326,337.27 1322.02,337.827 1318.96,338.926C1316.13,339.878 1313.79,341.223 1311.96,343C1311.61,343.937 1311.68,344.512 1311.96,344.922C1312.21,345.482 1312.79,345.103 1313.72,345.205C1315.2,344.261 1317.57,343.023 1319.96,341.924ZM1341.5,322C1343.43,322 1345,323.568 1345,325.5C1345,327.432 1343.43,329 1341.5,329C1339.57,329 1338,327.432 1338,325.5C1338,323.568 1339.57,322 1341.5,322ZM1314.5,322C1316.43,322 1318,323.568 1318,325.5C1318,327.432 1316.43,329 1314.5,329C1312.57,329 1311,327.432 1311,325.5C1311,323.568 1312.57,322 1314.5,322Z" style="fill:rgb(82,179,204);"/>
                    </g>
                    <g id="surprised" transform="matrix(1.11401,0,0,1.05402,-611.593,178.129)">
                        <path d="M1409,332C1428.32,332 1444,347.683 1444,367C1444,386.317 1428.32,402 1409,402C1389.68,402 1374,386.317 1374,367C1374,347.683 1389.68,332 1409,332ZM1409,373C1413.14,373 1416,378.361 1416,382.5C1416,386.639 1413.14,386 1409,386C1404.86,386 1401,386.639 1401,382.5C1401,378.361 1404.86,373 1409,373ZM1422,354C1425.31,354 1428,357.361 1428,361.5C1428,365.639 1425.31,369 1422,369C1418.69,369 1416,365.639 1416,361.5C1416,357.361 1418.69,354 1422,354ZM1395,354C1398.31,354 1401,357.361 1401,361.5C1401,365.639 1398.31,369 1395,369C1391.69,369 1389,365.639 1389,361.5C1389,357.361 1391.69,354 1395,354Z" style="fill:rgb(82,179,204);"/>
                    </g>
                    <g id="surprised1" transform="matrix(0.684322,0,0,0.647468,-162.678,64.3554)">
                        <path d="M1409,332C1428.32,332 1444,347.683 1444,367C1444,386.317 1428.32,402 1409,402C1389.68,402 1374,386.317 1374,367C1374,347.683 1389.68,332 1409,332ZM1409,373C1413.14,373 1416,378.361 1416,382.5C1416,386.639 1413.14,386 1409,386C1404.86,386 1401,386.639 1401,382.5C1401,378.361 1404.86,373 1409,373ZM1422,354C1425.31,354 1428,357.361 1428,361.5C1428,365.639 1425.31,369 1422,369C1418.69,369 1416,365.639 1416,361.5C1416,357.361 1418.69,354 1422,354ZM1395,354C1398.31,354 1401,357.361 1401,361.5C1401,365.639 1398.31,369 1395,369C1391.69,369 1389,365.639 1389,361.5C1389,357.361 1391.69,354 1395,354Z" style="fill:rgb(82,179,204);"/>
                    </g>
                    <g id="surprised2" transform="matrix(0.493348,0,0,0.46678,-12.7952,287.873)">
                        <path d="M1409,332C1428.32,332 1444,347.683 1444,367C1444,386.317 1428.32,402 1409,402C1389.68,402 1374,386.317 1374,367C1374,347.683 1389.68,332 1409,332ZM1409,373C1413.14,373 1416,378.361 1416,382.5C1416,386.639 1413.14,386 1409,386C1404.86,386 1401,386.639 1401,382.5C1401,378.361 1404.86,373 1409,373ZM1422,354C1425.31,354 1428,357.361 1428,361.5C1428,365.639 1425.31,369 1422,369C1418.69,369 1416,365.639 1416,361.5C1416,357.361 1418.69,354 1422,354ZM1395,354C1398.31,354 1401,357.361 1401,361.5C1401,365.639 1398.31,369 1395,369C1391.69,369 1389,365.639 1389,361.5C1389,357.361 1391.69,354 1395,354Z" style="fill:rgb(82,179,204);"/>
                    </g>
                    <g id="angry1" transform="matrix(0.600049,0,0,0.567734,40.6777,286.396)">
                        <path d="M1484,292C1503.32,292 1519,307.683 1519,327C1519,346.317 1503.32,362 1484,362C1464.68,362 1449,346.317 1449,327C1449,307.683 1464.68,292 1484,292ZM1495.98,338.996L1469.61,338.996C1468.49,338.996 1467.59,339.901 1467.59,341.015L1467.59,345.054C1467.59,346.168 1468.49,347.073 1469.61,347.073L1495.98,347.073C1497.1,347.073 1498,346.168 1498,345.054L1498,341.015C1498,339.901 1497.1,338.996 1495.98,338.996ZM1496.64,326.53C1496.64,326.53 1496.64,326.53 1496.64,326.53C1493.68,327.879 1491.28,328.988 1492.2,330.997C1493.11,333.006 1496.26,333.542 1499.22,332.192C1502.18,330.843 1503.84,328.117 1502.92,326.108C1502.01,324.099 1499.6,325.181 1496.64,326.53ZM1469.54,326.53C1469.54,326.53 1469.54,326.53 1469.54,326.53C1472.5,327.879 1474.89,328.988 1473.98,330.997C1473.06,333.006 1469.91,333.542 1466.95,332.192C1464,330.843 1462.34,328.117 1463.25,326.108C1464.17,324.099 1466.58,325.181 1469.54,326.53Z" style="fill:rgb(82,179,204);"/>
                    </g>
                    <g id="angry2" transform="matrix(0.557006,0,0,0.527009,192.167,191.831)">
                        <path d="M1484,292C1503.32,292 1519,307.683 1519,327C1519,346.317 1503.32,362 1484,362C1464.68,362 1449,346.317 1449,327C1449,307.683 1464.68,292 1484,292ZM1495.98,338.996L1469.61,338.996C1468.49,338.996 1467.59,339.901 1467.59,341.015L1467.59,345.054C1467.59,346.168 1468.49,347.073 1469.61,347.073L1495.98,347.073C1497.1,347.073 1498,346.168 1498,345.054L1498,341.015C1498,339.901 1497.1,338.996 1495.98,338.996ZM1496.64,326.53C1496.64,326.53 1496.64,326.53 1496.64,326.53C1493.68,327.879 1491.28,328.988 1492.2,330.997C1493.11,333.006 1496.26,333.542 1499.22,332.192C1502.18,330.843 1503.84,328.117 1502.92,326.108C1502.01,324.099 1499.6,325.181 1496.64,326.53ZM1469.54,326.53C1469.54,326.53 1469.54,326.53 1469.54,326.53C1472.5,327.879 1474.89,328.988 1473.98,330.997C1473.06,333.006 1469.91,333.542 1466.95,332.192C1464,330.843 1462.34,328.117 1463.25,326.108C1464.17,324.099 1466.58,325.181 1469.54,326.53Z" style="fill:rgb(82,179,204);"/>
                    </g>
                    <g id="neutral" transform="matrix(1.11401,0,0,1.05402,-710.74,95.9157)">
                        <path d="M1561.15,293C1581.1,293 1597.3,309.197 1597.3,329.148C1597.3,349.098 1581.1,365.295 1561.15,365.295C1541.2,365.295 1525,349.098 1525,329.148C1525,309.197 1541.2,293 1561.15,293ZM1572.25,338L1550.75,338C1550.34,338 1550,338.336 1550,338.75L1550,340.25C1550,340.664 1550.34,341 1550.75,341L1572.25,341C1572.66,341 1573,340.664 1573,340.25L1573,338.75C1573,338.336 1572.66,338 1572.25,338ZM1545.5,322.148C1547.43,322.148 1549,323.716 1549,325.648C1549,327.579 1547.43,329.148 1545.5,329.148C1543.57,329.148 1542,327.579 1542,325.648C1542,323.716 1543.57,322.148 1545.5,322.148ZM1575.5,322.148C1577.43,322.148 1579,323.716 1579,325.648C1579,327.579 1577.43,329.148 1575.5,329.148C1573.57,329.148 1572,327.579 1572,325.648C1572,323.716 1573.57,322.148 1575.5,322.148Z" style="fill:rgb(82,179,204);"/>
                    </g>
                    <g id="neutral1" transform="matrix(0.477684,0,0,0.451959,85.8742,486.285)">
                        <path d="M1561.15,293C1581.1,293 1597.3,309.197 1597.3,329.148C1597.3,349.098 1581.1,365.295 1561.15,365.295C1541.2,365.295 1525,349.098 1525,329.148C1525,309.197 1541.2,293 1561.15,293ZM1572.25,338L1550.75,338C1550.34,338 1550,338.336 1550,338.75L1550,340.25C1550,340.664 1550.34,341 1550.75,341L1572.25,341C1572.66,341 1573,340.664 1573,340.25L1573,338.75C1573,338.336 1572.66,338 1572.25,338ZM1545.5,322.148C1547.43,322.148 1549,323.716 1549,325.648C1549,327.579 1547.43,329.148 1545.5,329.148C1543.57,329.148 1542,327.579 1542,325.648C1542,323.716 1543.57,322.148 1545.5,322.148ZM1575.5,322.148C1577.43,322.148 1579,323.716 1579,325.648C1579,327.579 1577.43,329.148 1575.5,329.148C1573.57,329.148 1572,327.579 1572,325.648C1572,323.716 1573.57,322.148 1575.5,322.148Z" style="fill:rgb(82,179,204);"/>
                    </g>
                    <g id="neutral2" transform="matrix(0.693413,0,0,0.65607,-400.187,109.748)">
                        <path d="M1561.15,293C1581.1,293 1597.3,309.197 1597.3,329.148C1597.3,349.098 1581.1,365.295 1561.15,365.295C1541.2,365.295 1525,349.098 1525,329.148C1525,309.197 1541.2,293 1561.15,293ZM1572.25,338L1550.75,338C1550.34,338 1550,338.336 1550,338.75L1550,340.25C1550,340.664 1550.34,341 1550.75,341L1572.25,341C1572.66,341 1573,340.664 1573,340.25L1573,338.75C1573,338.336 1572.66,338 1572.25,338ZM1545.5,322.148C1547.43,322.148 1549,323.716 1549,325.648C1549,327.579 1547.43,329.148 1545.5,329.148C1543.57,329.148 1542,327.579 1542,325.648C1542,323.716 1543.57,322.148 1545.5,322.148ZM1575.5,322.148C1577.43,322.148 1579,323.716 1579,325.648C1579,327.579 1577.43,329.148 1575.5,329.148C1573.57,329.148 1572,327.579 1572,325.648C1572,323.716 1573.57,322.148 1575.5,322.148Z" style="fill:rgb(82,179,204);"/>
                    </g>
                    <g id="fear" transform="matrix(1.11401,0,0,1.05402,-915.44,239.047)">
                        <path d="M1522.75,226.205C1543.03,226.205 1559.5,242.672 1559.5,262.955C1559.5,283.237 1543.03,299.705 1522.75,299.705C1502.47,299.705 1486,283.237 1486,262.955C1486,242.672 1502.47,226.205 1522.75,226.205ZM1507.8,274.472C1508.65,273.628 1510.72,272.99 1513.8,274.472C1515.92,275.998 1518.33,277.14 1521.55,277.472C1525.92,277.052 1528.08,275.363 1530.8,273.472C1533.31,271.734 1537.21,272.064 1537.8,273.472C1540.14,276.59 1540.35,279.671 1538.8,282.472C1538.1,283.751 1537.36,284.866 1535.8,285.472C1534.78,285.871 1533.67,286.428 1530.8,285.472C1530.06,285.225 1526.68,283.642 1525.8,283.472C1523.22,282.972 1522.71,283.197 1521.55,283.472C1517.18,284.62 1513.98,285.144 1509.8,284.472C1506.98,283.407 1505.26,280.648 1505.8,278.472C1505.8,276.702 1506.43,275.34 1507.8,274.472ZM1502.83,255.068C1503.62,254.549 1508.53,252.314 1509.52,253.209C1511.02,254.573 1512,256.787 1512,259.285C1512,263.425 1509.31,266.785 1506,266.785C1502.69,266.785 1500,263.425 1500,259.285C1500,256.601 1501.13,256.173 1502.83,255.068ZM1541.17,255.068C1540.38,254.549 1535.47,252.314 1534.48,253.209C1532.98,254.573 1532,256.787 1532,259.285C1532,263.425 1534.69,266.785 1538,266.785C1541.31,266.785 1544,263.425 1544,259.285C1544,256.601 1542.87,256.173 1541.17,255.068Z" style="fill:rgb(82,179,204);"/>
                    </g>
                    <g id="fear1" transform="matrix(0.591109,0,0,0.559275,-248.97,109.59)">
                        <path d="M1522.75,226.205C1543.03,226.205 1559.5,242.672 1559.5,262.955C1559.5,283.237 1543.03,299.705 1522.75,299.705C1502.47,299.705 1486,283.237 1486,262.955C1486,242.672 1502.47,226.205 1522.75,226.205ZM1507.8,274.472C1508.65,273.628 1510.72,272.99 1513.8,274.472C1515.92,275.998 1518.33,277.14 1521.55,277.472C1525.92,277.052 1528.08,275.363 1530.8,273.472C1533.31,271.734 1537.21,272.064 1537.8,273.472C1540.14,276.59 1540.35,279.671 1538.8,282.472C1538.1,283.751 1537.36,284.866 1535.8,285.472C1534.78,285.871 1533.67,286.428 1530.8,285.472C1530.06,285.225 1526.68,283.642 1525.8,283.472C1523.22,282.972 1522.71,283.197 1521.55,283.472C1517.18,284.62 1513.98,285.144 1509.8,284.472C1506.98,283.407 1505.26,280.648 1505.8,278.472C1505.8,276.702 1506.43,275.34 1507.8,274.472ZM1502.83,255.068C1503.62,254.549 1508.53,252.314 1509.52,253.209C1511.02,254.573 1512,256.787 1512,259.285C1512,263.425 1509.31,266.785 1506,266.785C1502.69,266.785 1500,263.425 1500,259.285C1500,256.601 1501.13,256.173 1502.83,255.068ZM1541.17,255.068C1540.38,254.549 1535.47,252.314 1534.48,253.209C1532.98,254.573 1532,256.787 1532,259.285C1532,263.425 1534.69,266.785 1538,266.785C1541.31,266.785 1544,263.425 1544,259.285C1544,256.601 1542.87,256.173 1541.17,255.068Z" style="fill:rgb(82,179,204);"/>
                    </g>
                    <g id="fear2" transform="matrix(0.485012,0,0,0.458892,289.846,404.233)">
                        <path d="M1522.75,226.205C1543.03,226.205 1559.5,242.672 1559.5,262.955C1559.5,283.237 1543.03,299.705 1522.75,299.705C1502.47,299.705 1486,283.237 1486,262.955C1486,242.672 1502.47,226.205 1522.75,226.205ZM1507.8,274.472C1508.65,273.628 1510.72,272.99 1513.8,274.472C1515.92,275.998 1518.33,277.14 1521.55,277.472C1525.92,277.052 1528.08,275.363 1530.8,273.472C1533.31,271.734 1537.21,272.064 1537.8,273.472C1540.14,276.59 1540.35,279.671 1538.8,282.472C1538.1,283.751 1537.36,284.866 1535.8,285.472C1534.78,285.871 1533.67,286.428 1530.8,285.472C1530.06,285.225 1526.68,283.642 1525.8,283.472C1523.22,282.972 1522.71,283.197 1521.55,283.472C1517.18,284.62 1513.98,285.144 1509.8,284.472C1506.98,283.407 1505.26,280.648 1505.8,278.472C1505.8,276.702 1506.43,275.34 1507.8,274.472ZM1502.83,255.068C1503.62,254.549 1508.53,252.314 1509.52,253.209C1511.02,254.573 1512,256.787 1512,259.285C1512,263.425 1509.31,266.785 1506,266.785C1502.69,266.785 1500,263.425 1500,259.285C1500,256.601 1501.13,256.173 1502.83,255.068ZM1541.17,255.068C1540.38,254.549 1535.47,252.314 1534.48,253.209C1532.98,254.573 1532,256.787 1532,259.285C1532,263.425 1534.69,266.785 1538,266.785C1541.31,266.785 1544,263.425 1544,259.285C1544,256.601 1542.87,256.173 1541.17,255.068Z" style="fill:rgb(82,179,204);"/>
                    </g>
                </g>
            </g>
        </g>
    </g>
</svg>
